<?xml version="1.0" encoding="utf-8"?>
<!-- Generator: Adobe Illustrator 19.0.1, SVG Export Plug-In . SVG Version: 6.00 Build 0)  -->
<svg version="1.1" id="Layer_1" xmlns="http://www.w3.org/2000/svg" xmlns:xlink="http://www.w3.org/1999/xlink" x="0px" y="0px"
	 viewBox="0 0 1024 1024" style="enable-background:new 0 0 1024 1024;" xml:space="preserve">
<style type="text/css">
	.st0{fill:#3498DB;}
	.st1{fill:#2980B9;}
	.st2{fill:#2F89C5;}
	.st3{fill:#2573A7;}
	.st4{fill:#2779B0;}
	.st5{fill:#236D9E;}
	.st6{fill:#F8BF00;}
	.st7{fill:#F5D56C;}
	.st8{fill:#F5E6B6;}
	.st9{clip-path:url(#SVGID_2_);fill:#F4B092;}
	.st10{clip-path:url(#SVGID_2_);fill:#FFC8B0;}
	.st11{clip-path:url(#SVGID_2_);fill:#642C06;}
	.st12{clip-path:url(#SVGID_2_);fill:#EA500C;}
	.st13{clip-path:url(#SVGID_2_);fill:#FF6615;}
	.st14{clip-path:url(#SVGID_2_);fill:#F2F2F2;}
	.st15{clip-path:url(#SVGID_2_);fill:#90C948;}
	.st16{clip-path:url(#SVGID_2_);fill:#E9DAAD;}
	.st17{clip-path:url(#SVGID_2_);fill:#E8A78B;}
	.st18{clip-path:url(#SVGID_2_);fill:#F2BEA7;}
	.st19{clip-path:url(#SVGID_2_);fill:#DE4C0B;}
	.st20{clip-path:url(#SVGID_2_);fill:#F26114;}
	.st21{clip-path:url(#SVGID_2_);fill:#E6E6E6;}
	.st22{clip-path:url(#SVGID_2_);fill:#89BF44;}
	.st23{clip-path:url(#SVGID_4_);fill:#FAC378;}
	.st24{clip-path:url(#SVGID_4_);fill:#C0C8D4;}
	.st25{clip-path:url(#SVGID_4_);fill:#646B6B;}
	.st26{clip-path:url(#SVGID_4_);fill:#5A6060;}
	.st27{clip-path:url(#SVGID_4_);fill:#ACB4BE;}
	.st28{clip-path:url(#SVGID_4_);fill:#D9E0ED;}
	.st29{clip-path:url(#SVGID_4_);fill:#433E3E;}
	.st30{clip-path:url(#SVGID_4_);fill:#EDB972;}
	.st31{clip-path:url(#SVGID_4_);fill:#E9DAAD;}
	.st32{clip-path:url(#SVGID_4_);fill:#A65417;}
	.st33{clip-path:url(#SVGID_4_);fill:#B6BEC9;}
	.st34{clip-path:url(#SVGID_4_);fill:#5F6666;}
	.st35{clip-path:url(#SVGID_4_);fill:#D1C49B;}
	.st36{clip-path:url(#SVGID_4_);fill:#A3ABB4;}
	.st37{clip-path:url(#SVGID_4_);fill:#555B5B;}
	.st38{clip-path:url(#SVGID_4_);fill:#CED5E1;}
	.st39{clip-path:url(#SVGID_4_);fill:#403B3B;}
	.st40{clip-path:url(#SVGID_4_);fill:#DDCFA4;}
	.st41{clip-path:url(#SVGID_4_);fill:#E1B06C;}
	.st42{clip-path:url(#SVGID_4_);fill:#9E5016;}
	.st43{clip-path:url(#SVGID_6_);fill:#FACC89;}
	.st44{clip-path:url(#SVGID_6_);fill:#E9DAAD;}
	.st45{clip-path:url(#SVGID_6_);fill:#EDC282;}
	.st46{clip-path:url(#SVGID_6_);fill:#69451D;}
	.st47{clip-path:url(#SVGID_6_);fill:#C0C8D4;}
	.st48{clip-path:url(#SVGID_6_);fill:#646B6B;}
	.st49{clip-path:url(#SVGID_6_);fill:#DCCFA3;}
	.st50{clip-path:url(#SVGID_6_);fill:#ACB4BE;}
	.st51{clip-path:url(#SVGID_6_);fill:#5A6060;}
	.st52{clip-path:url(#SVGID_6_);fill:#D9E0ED;}
	.st53{clip-path:url(#SVGID_6_);fill:#433E3E;}
	.st54{clip-path:url(#SVGID_6_);fill:#DDCFA4;}
	.st55{clip-path:url(#SVGID_6_);fill:#E1B87B;}
	.st56{clip-path:url(#SVGID_6_);fill:#64411C;}
	.st57{clip-path:url(#SVGID_6_);fill:#5F6666;}
	.st58{clip-path:url(#SVGID_6_);fill:#B6BEC9;}
	.st59{clip-path:url(#SVGID_6_);fill:#A3ABB4;}
	.st60{clip-path:url(#SVGID_6_);fill:#555B5B;}
	.st61{clip-path:url(#SVGID_6_);fill:#CED5E1;}
	.st62{clip-path:url(#SVGID_6_);fill:#403B3B;}
</style>
<g>
	<path class="st0" d="M1021.3,41.1v940.9c0,22.6-18.5,41.1-41.1,41.1H41.1c-22.6,0-41.1-18.5-41.1-41.1V41.1C0,18.5,18.5,0,41.1,0
		h939.2C1002.9,0,1021.3,18.5,1021.3,41.1"/>
	<path class="st1" d="M1024,982.1V41.1c0-12.9-7.5-24.4-16.9-32L9.8,1008c7.5,9.4,18.3,16,31.2,16h939.2
		C1002.9,1024,1024,1004.7,1024,982.1"/>
	<path class="st2" d="M451.9,364.6c-24.9,38.3-68.1,63.7-117.2,63.7c-30.9,0-59.5-10.1-82.7-27.1l63,63.3c15.1-3.3,30.9-5.1,47-5.1
		c54.5,0,104.3,20,142.4,53.2l54.9-55c-2.3-11.2-3.5-22.8-3.5-34.7c0-8,0.5-15.8,1.6-23.5L451.9,364.6 M427.8,182.3l-0.9,0.9
		c29.1,25.7,47.5,63.3,47.5,105.1c0,6.1-0.4,12.1-1.1,18l103.5,34c1.1-2,2.2-3.9,3.3-5.9L427.8,182.3"/>
	<path class="st3" d="M599.2,540.6l-35.8,23.8l446.5,446.4c-7.5,7.9-18,13.2-29.6,13.2H872.7h107.6c22.6,0,43.7-19.3,43.7-41.9
		v-19.3L599.2,540.6 M559.4,457.5l-54.9,55c3.6,3.1,7.1,6.3,10.4,9.7l53.1-35.4C564.4,477.4,561.5,467.6,559.4,457.5"/>
	<path class="st4" d="M574.6,724.9C553,822.5,466,895.5,362.1,895.5c-51.3,0-98.5-17.8-135.7-47.6l175,176.1h471.3L574.6,724.9"/>
	<path class="st5" d="M563.4,564.4l-10.9,7.3c17.4,31.3,27.3,67.4,27.3,105.7c0,16.3-1.8,32.2-5.2,47.5L872.7,1024h107.6
		c11.6,0,22.1-5.4,29.6-13.2L563.4,564.4"/>
	<path class="st4" d="M837.9,285.6l-1.5,1.5c39.8,31.7,65.3,80.7,65.3,135.6c0,63.3-33.9,118.6-84.4,148.8L1024,778.2V473.4
		L837.9,285.6"/>
	<path class="st5" d="M601,539.4l-1.8,1.2L1024,962.7V778.2L817.3,571.6c-25.9,15.5-56.1,24.4-88.5,24.4
		C678.2,596,632.6,574.2,601,539.4"/>
	<polyline class="st6" points="636.6,425.3 352.2,331.8 371.5,272.9 655.9,366.4 636.6,425.3 	"/>
	<polyline class="st6" points="414.9,588.8 664.2,422.8 698.4,474.4 449.2,640.5 414.9,588.8 	"/>
	<path class="st7" d="M728.8,249.6c-95.5,0-172.9,77.5-172.9,173.2c0,95.7,77.4,173.2,172.9,173.2s172.9-77.5,172.9-173.2
		C901.7,327.1,824.3,249.6,728.8,249.6"/>
	<path class="st8" d="M728.8,554.6c-72.7,0-131.6-59-131.6-131.8c0-72.8,58.9-131.8,131.6-131.8s131.6,59,131.6,131.8
		C860.4,495.6,801.5,554.6,728.8,554.6"/>
	<path class="st7" d="M334.7,148.3c-77.2,0-139.7,62.7-139.7,140c0,77.3,62.6,140,139.7,140c77.2,0,139.7-62.7,139.7-140
		C474.4,211,411.8,148.3,334.7,148.3"/>
	<path class="st8" d="M334.7,394.9c-58.7,0-106.4-47.7-106.4-106.6c0-58.8,47.6-106.6,106.4-106.6c58.7,0,106.4,47.7,106.4,106.6
		C441,347.2,393.4,394.9,334.7,394.9"/>
	<path class="st7" d="M362.1,459.3c-120.2,0-217.7,97.6-217.7,218.1s97.5,218.1,217.7,218.1s217.7-97.6,217.7-218.1
		S482.3,459.3,362.1,459.3"/>
	<path class="st8" d="M362.1,843.4c-91.5,0-165.7-74.3-165.7-166s74.2-166,165.7-166s165.7,74.3,165.7,166S453.6,843.4,362.1,843.4"
		/>
	<g>
		<defs>
			<path id="SVGID_1_" d="M728.8,554.6c-72.7,0-131.6-59-131.6-131.8c0-72.8,58.9-131.8,131.6-131.8s131.6,59,131.6,131.8
				C860.4,495.6,801.5,554.6,728.8,554.6"/>
		</defs>
		<clipPath id="SVGID_2_">
			<use xlink:href="#SVGID_1_"  style="overflow:visible;"/>
		</clipPath>
		<path class="st9" d="M780.8,417.5c0,0,14.6,2.1,16.6-18.6c2-20.8-12.2-19.6-16.4-15.8L780.8,417.5"/>
		<path class="st9" d="M677.5,417.3c0,0-14.2,3.7-18.6-16.7c-4.3-20.4,9.9-20.8,14.6-17.5L677.5,417.3z"/>
		<path class="st9" d="M753.2,441h-51.8c4.2,13.2,5.7,41.4-4.6,49.9c0,0,3,23.7,30.5,30.8c27.5-7.1,30.5-30.8,30.5-30.8
			C747.5,482.4,749.1,454.2,753.2,441"/>
		<path class="st10" d="M788.4,388.7c0,42.6-34.7,82.7-60.5,82.7c-22.7,0-60.5-40.2-60.5-82.7c0-42.5,20-77,60.5-77
			C765.5,311.7,788.4,346.1,788.4,388.7"/>
		<path class="st9" d="M840.7,560.7c0-66-83.6-69.8-83.6-69.8c-5.5,19.6-26.2,21.5-29.1,21.7c-2.9-0.2-25.6-2.1-31-21.7
			c0,0-76.7,8-76,69.8H840.7"/>
		<polyline class="st11" points="756.1,329.3 757.9,327.2 757.7,327.2 756.1,329.3 		"/>
		<path class="st12" d="M667.2,402.5c0,0,6-0.6,8.4-33.4c3.4-47.9,28.8-15.1,52.9-14.8c6.9,0.1,13.7-2.7,20-5.6
			c15.4-6.9,28-13.8,31.7,21c3,28.2,7.7,25.8,7.7,25.8s33.2-101.1-61-102.5C627.7,291.4,667.2,402.5,667.2,402.5"/>
		<path class="st13" d="M674.4,379.3c0,0,9.8-30.9,26.2-30.1c23.6,1.2,57.9,37.8,83.8,30.5c0,0,11.1-65.4-56.3-66.2
			C660.6,312.8,674.4,379.3,674.4,379.3"/>
		<path class="st14" d="M840.7,560.7c0-66-83.6-69.8-83.6-69.8c-5.5,19.6-26.2,21.5-29.1,21.7c-2.9-0.2-25.6-2.1-31-21.7
			c0,0-76.7,8-76,69.8H840.7"/>
		<path class="st15" d="M770.4,560.7h71.7c0-42.3-34.4-59.1-59-65.6L770.4,560.7"/>
		<path class="st15" d="M674.7,496.1c-22.6,7.4-54.1,24.9-53.6,64.6h73.3L674.7,496.1z"/>
		<path class="st12" d="M705.7,461.8c-7.5-4.9-14.1-10.4-24-26.4l-0.4,0.8c2.2,26.3-32.3,45.2-31.2,72.8c1.4,36,24.3,41.6,44.4,49.7
			c-6.7-13.2,4.5-26.5,10.4-38.8C711,507,706.6,464.2,705.7,461.8z"/>
		<path class="st16" d="M750.1,468.5c0.4,9,2.4,17.5,7,21.8C756.5,485.9,751.6,477.5,750.1,468.5 M792.9,371.5
			c-0.4,3.7-1,7.1-1.5,10.2c0,0,0,0,0,0C791.9,378.7,792.5,375.2,792.9,371.5"/>
		<path class="st17" d="M791.3,381.7c-1.3,6.8-2.7,11.7-3.2,13.3c-0.6,7.7-2.3,15.3-4.8,22.6c4.3-0.5,12.5-3.5,14-18.6
			c1-10.6-2.1-15-6-16.7C791.3,382,791.3,381.9,791.3,381.7C791.3,381.7,791.3,381.7,791.3,381.7"/>
		<path class="st17" d="M749.7,463.5c-7.4,5-14.9,7.9-21.8,7.9c-0.5,0-1,0-1.5-0.1v41.1c0.8,0.1,1.4,0.1,1.7,0.1
			c2.9-0.2,23.6-2.1,29.1-21.6v0c0-0.2,0-0.5,0-0.7c-4.5-4.4-6.5-12.8-7-21.8C749.8,466.8,749.7,465.2,749.7,463.5"/>
		<path class="st18" d="M726.3,358.9v112.5c0.5,0,1,0.1,1.5,0.1c6.9,0,14.5-2.9,21.8-7.9c0-0.1,0-0.1,0-0.2
			c13.6-9.4,26.6-26.2,33.4-45.8c0.1,0,0.1,0,0.2,0c2.5-7.2,4.2-14.8,4.8-22.6c-0.1,0.4-0.2,0.5-0.2,0.5s-0.1,0.1-0.3,0.1
			c-0.9,0-3.6-1.2-6-15.2c-1.5,0.3-3,0.4-4.6,0.4C761.2,380.7,743,368.2,726.3,358.9"/>
		<path class="st19" d="M726.8,293.9h-0.4v19.7c0.2,0,0.4,0,0.6,0c0.4,0,0.7,0,1.1,0c67.4,0.7,56.3,66.2,56.3,66.2
			c-0.9,0.2-1.8,0.4-2.6,0.6c2.4,14,5.1,15.2,6,15.2c0.2,0,0.3-0.1,0.3-0.1s0.1-0.2,0.2-0.5c0.5-1.6,1.9-6.4,3.2-13.3
			c0.6-3,1.1-6.5,1.5-10.2C796.1,341.4,790.9,293.9,726.8,293.9"/>
		<path class="st20" d="M726.9,313.5c-0.2,0-0.4,0-0.6,0v45.4c16.7,9.2,34.8,21.8,50.8,21.8c1.6,0,3.1-0.1,4.6-0.4
			c0.9-0.1,1.8-0.3,2.6-0.6c0,0,11.1-65.4-56.3-66.2C727.6,313.6,727.3,313.5,726.9,313.5"/>
		<path class="st21" d="M757.1,491c-5.5,19.5-26.2,21.4-29.1,21.6c-0.3,0-0.9-0.1-1.7-0.1v42.2c0.8,0,1.7,0,2.5,0
			c15.5,0,30.4-2.7,44.3-7.6l9.4-48.9c-12.4-3.4-15.2-6.8-25.4-7V491"/>
		<path class="st22" d="M782.5,498.1l-9.4,48.9c17.8-6.4,33.8-16.4,47.1-29.3c-11.4-9.5-25.3-14.1-37.1-17.2l-0.4-2.3
			C782.6,498.1,782.6,498.1,782.5,498.1"/>
	</g>
	<g>
		<defs>
			<path id="SVGID_3_" d="M362.1,843.4c-91.5,0-165.7-74.3-165.7-166s74.2-166,165.7-166s165.7,74.3,165.7,166
				S453.6,843.4,362.1,843.4"/>
		</defs>
		<clipPath id="SVGID_4_">
			<use xlink:href="#SVGID_3_"  style="overflow:visible;"/>
		</clipPath>
		<path class="st23" d="M425.4,763.1c-12.3-1.7-22-12.7-23.5-26.8l-5.5-49.5h-67.6l-5.5,49.5c-1.6,14.1-11.3,25.1-23.5,26.8
			c-15.9,2.2,23.5,63,62.8,63C402,826.1,441.3,765.2,425.4,763.1"/>
		<path class="st24" d="M430.4,764.1c-10.8-1.5-19.8-9.7-23.6-21l-44.2,33.5l-44.2-33.5c-3.8,11.3-12.8,19.5-23.6,21
			c-34.3,4.7-28.6,156.6-28.6,156.6h198.7C464.9,920.7,464.7,768.7,430.4,764.1"/>
		<polyline class="st25" points="372,920.5 384.4,834.3 362.6,790.1 340.8,834.3 353.2,920.5 372,920.5 		"/>
		<polyline class="st25" points="362.6,821.2 340.8,798.2 362.6,776.4 384.4,798.2 362.6,821.2 		"/>
		<polyline class="st26" points="362.6,776.6 365.1,782 365.1,780.9 362.6,776.6 		"/>
		<polyline class="st27" points="294.8,764.1 294.8,764.1 343.9,818.5 349.1,806.9 346.8,804.5 343.9,809.7 294.8,764.1 		"/>
		<polyline class="st26" points="362.6,776.5 346.8,804.5 349.1,806.9 362.6,776.5 		"/>
		<polyline class="st28" points="381.3,809.7 362.6,776.5 406.8,743.1 430.4,764.1 381.3,809.7 		"/>
		<polyline class="st28" points="343.9,809.7 362.6,776.5 318.4,743.1 294.8,764.1 343.9,809.7 		"/>
		<path class="st29" d="M228.2,838.3l-10.7,82.4h108.9l-32.3-156.5C260.2,769.1,233.2,799.4,228.2,838.3z"/>
		<path class="st29" d="M507.7,920.7L497,838.3c-5-38.9-32-69.1-66-74.1l-32.3,156.5H507.7"/>
		<polyline class="st30" points="400.7,725.3 400.7,725.3 401.9,736.3 400.7,725.3 		"/>
		<path class="st31" d="M324.5,725.3l-1.2,10.9l-0.1,0.8c0,0,0,0,0,0c0-0.3,0.1-0.5,0.1-0.8L324.5,725.3L324.5,725.3"/>
		<path class="st30" d="M324.5,725.3l-1.2,10.9c0,0.3-0.1,0.5-0.1,0.8c2.1,2.2,4.2,4.3,6.3,6c11.7,10.2,17.7,15.9,33.2,15.9
			c0.8,0,1.6,0,2.4,0v-13.1c-0.8,0-1.6,0-2.4,0c-15.6,0-21.5-5.6-33.2-15.9C327.9,728.6,326.2,727,324.5,725.3"/>
		<polyline class="st31" points="402,737 402,737 402,737 402,737 402,737 		"/>
		<path class="st32" d="M439,589c0,11.4-49.9-31.1-72.7-34.6c-22.8-3.5-39.8-15.5-38.1-26.7c1.7-11.3,21.6-17.6,44.3-14.1
			C395.4,517.1,439.1,536.5,439,589"/>
		<path class="st32" d="M329.9,530.9c5.4,5.6,0.6,18.9-10.6,29.8c-11.3,10.9-25.3,50.3-30.7,44.8c-5.4-5.6-2.1-49.2,11.2-65
			C309.9,528.6,324.5,525.3,329.9,530.9z"/>
		<path class="st23" d="M435,600.1c-0.6-39.6-32.8-71.4-72.4-71.4h0c-39.6,0-71.8,31.8-72.4,71.5c-0.4,28.4-0.8,54.5-0.8,54.5
			c0,27.8,23.3,60.6,40.1,75.3c11.7,10.2,17.7,15.9,33.2,15.9c15.5,0,21.2-5.6,32.8-15.7c16.9-14.7,40.3-47.6,40.3-75.5
			C435.9,654.7,435.5,628.6,435,600.1"/>
		<path class="st32" d="M299,641.2c-2.3-5.5-2.3-12.7-2.2-15.8c0.9-16,7.5-30.5,17.7-41.5c6-6.4,15.2-8.6,23.5-5.6
			c6.6,2.4,15.3,3.9,24.8,3.9s18.2-1.5,24.8-3.9c8.2-3,17.5-0.8,23.5,5.6c9.9,10.6,16.4,24.5,17.6,39.9c0,0,0.7,10.2-2.4,17.5h14.4
			c-0.2-11-0.4-26.9-0.7-43.6c-0.6-42.3-35.1-76.3-77.3-76.3h0c-42.3,0-76.7,34-77.4,76.4c-0.3,16.7-0.5,32.6-0.7,43.6H299"/>
		<path class="st23" d="M301.7,648.6c3.1,14.7-0.6,27.9-8.1,29.5c-7.6,1.6-16.2-9.1-19.2-23.8c-3.1-14.7,0.6-27.9,8.1-29.5
			C290.1,623.2,298.7,633.9,301.7,648.6z"/>
		<path class="st23" d="M423.5,648.6c-3.1,14.7,0.6,27.9,8.1,29.5c7.6,1.6,16.2-9.1,19.2-23.8c3.1-14.7-0.6-27.9-8.1-29.5
			C435.1,623.2,426.5,633.9,423.5,648.6"/>
		<path class="st32" d="M407,552c28.4,22.7,28.8,69.5,28.8,69.5s-45.6,9.9-74-12.9c-28.4-22.7-41.3-53.9-28.8-69.5
			C345.5,523.5,378.6,529.2,407,552"/>
		<path class="st32" d="M323.2,565.8c0,0,0.3,51.4,66.8,63.3c0,0-48.6-12.8-55.4-63.3H323.2"/>
		<path class="st31" d="M430.2,763.9l0.2,0.2l0,0l0,0c0.2,0,0.4,0.1,0.6,0.1l0,0c0.3,0,0.6,0.1,0.9,0.1
			C431.4,764.2,430.8,764,430.2,763.9 M402,737C402,737,402,737,402,737c0.4,2.9,1.1,5.6,2.1,8.1l0,0
			C403.1,742.6,402.4,739.9,402,737 M440.2,615c0.1,3.4,0.1,6.6,0.1,9.7c0,0,0,0,0,0C440.3,621.6,440.3,618.3,440.2,615
			 M373.9,513.8C373.9,513.8,373.9,513.8,373.9,513.8C373.9,513.8,373.9,513.8,373.9,513.8 M373.8,513.8
			C373.8,513.8,373.8,513.8,373.8,513.8C373.8,513.8,373.8,513.8,373.8,513.8 M373.6,513.7C373.6,513.7,373.7,513.7,373.6,513.7
			C373.7,513.7,373.6,513.7,373.6,513.7 M373.5,513.7C373.5,513.7,373.5,513.7,373.5,513.7C373.5,513.7,373.5,513.7,373.5,513.7
			 M373.3,513.7C373.3,513.7,373.4,513.7,373.3,513.7C373.4,513.7,373.3,513.7,373.3,513.7 M373.2,513.7
			C373.2,513.7,373.2,513.7,373.2,513.7C373.2,513.7,373.2,513.7,373.2,513.7 M373.1,513.6C373.1,513.6,373.1,513.6,373.1,513.6
			C373.1,513.6,373.1,513.6,373.1,513.6 M372.9,513.6c0,0,0.1,0,0.1,0C373,513.6,372.9,513.6,372.9,513.6 M372.8,513.6
			C372.8,513.6,372.8,513.6,372.8,513.6C372.8,513.6,372.8,513.6,372.8,513.6"/>
		<path class="st30" d="M402,737c-2.2,2.3-4.4,4.4-6.4,6.2c-11.1,9.6-16.8,15.1-30.5,15.7v15.8l39-29.5
			C403.1,742.6,402.4,739.9,402,737"/>
		<path class="st33" d="M430.4,764.1l-49.1,54.4l-5.2-11.6l-3.5,3.7l11.7,23.8l-1.1,7.7c11.5-1.5,22.7-4.1,33.4-7.9l14.4-70
			C430.9,764.1,430.6,764.1,430.4,764.1L430.4,764.1"/>
		<path class="st34" d="M372.7,810.6l-7.6,8.1v24.7c6.2-0.1,12.2-0.6,18.2-1.3l1.1-7.7L372.7,810.6"/>
		<polyline class="st34" points="365.1,782 365.1,818.6 372.7,810.6 376.1,806.9 365.1,782 		"/>
		<polyline class="st35" points="430.4,764.1 430.4,764.1 430.4,764.1 430.4,764.1 430.4,764.1 		"/>
		<polyline class="st36" points="430.4,764.1 430.4,764.1 381.3,809.7 378.4,804.5 376.1,806.9 381.3,818.5 430.4,764.1 
			430.4,764.1 		"/>
		<polyline class="st37" points="365.1,780.9 365.1,782 376.1,806.9 378.4,804.5 365.1,780.9 		"/>
		<path class="st38" d="M404.1,745.1L404.1,745.1l-39,29.6v6.2l13.3,23.6l2.9,5.2l49.1-45.6l0,0l-0.2-0.2c-1.6-0.3-3.2-0.6-4.8-0.9
			l-1.3-0.2l-1.8-0.4l-0.1,0l-1.7-0.5l-0.2-0.1l-1.6-0.6l-0.3-0.1l-1.4-0.7l-0.5-0.3l-1-0.6l-0.2-0.1l-0.6-0.4l-0.8-0.5l-0.3-0.2
			l-0.7-0.6l-0.5-0.4l-0.3-0.3l-1.3-1.2C408,752.8,405.7,749.2,404.1,745.1"/>
		<path class="st39" d="M431.1,764.2L431.1,764.2l-14.4,70c22.2-7.8,42.3-20.1,59.1-36c-10.1-17-25.6-29.4-43.7-33.9
			C431.7,764.3,431.4,764.2,431.1,764.2"/>
		<path class="st40" d="M401.9,736.3L401.9,736.3c0,0.3,0.1,0.5,0.1,0.8c0,0,0,0,0,0l0,0l0,0L401.9,736.3"/>
		<path class="st41" d="M400.7,725.3c-1.8,1.8-3.5,3.4-5.2,4.9c-11,9.6-16.8,15.1-30.5,15.7v13.1c13.7-0.6,19.4-6.1,30.5-15.7
			c2.1-1.8,4.2-3.9,6.4-6.2c0-0.3-0.1-0.5-0.1-0.8l0,0L400.7,725.3"/>
		<path class="st42" d="M365.1,512.8v8.5c37.3,1.1,68,28.7,73.9,64.8c-1.5-49.4-42.4-68.4-65-72.3c0,0,0,0,0,0c0,0-0.1,0-0.1,0
			c0,0,0,0,0,0c0,0-0.1,0-0.1,0c0,0,0,0,0,0c0,0-0.1,0-0.1,0c0,0,0,0-0.1,0c0,0,0,0-0.1,0c0,0-0.1,0-0.1,0c0,0,0,0,0,0
			c0,0-0.1,0-0.1,0c0,0,0,0-0.1,0c0,0,0,0-0.1,0c0,0-0.1,0-0.1,0c0,0-0.1,0-0.1,0c0,0,0,0,0,0c0,0-0.1,0-0.1,0c-0.1,0-0.1,0-0.2,0
			l0,0l0,0C370,513.2,367.5,512.9,365.1,512.8"/>
		<path class="st30" d="M365.1,611v5.6C378,626,390,629.1,390,629.1c-9.6-1.7-17.9-4.3-24.9-7.4v124.1c13.7-0.6,19.4-6.1,30.5-15.7
			c1.7-1.4,3.4-3.1,5.2-4.9l0,0c11.3-11.4,24-29.1,30.6-47.3c-7.3-1.9-10.8-14.9-7.8-29.4c1-4.6,2.4-8.8,4.3-12.3
			c1.3-6.2,0.9-12.5,0.9-12.5c0-0.4-0.1-0.8-0.1-1.1c-4.1,0.5-9.6,1-15.9,1C398.3,623.6,379.8,621.2,365.1,611"/>
		<path class="st42" d="M365.1,521.3v10c13.1,2.5,28.1,9.6,41.9,20.6c28.4,22.7,28.8,69.5,28.8,69.5s-2.8,0.6-7.3,1.2
			c0,0.4,0.1,0.8,0.1,1.1c0,0,0.4,6.3-0.9,12.5c3.4-6.7,8.1-11.1,12.6-11.6c0-3.1-0.1-6.4-0.1-9.7c-0.1-5.6-0.2-11.4-0.3-17.4l0,0
			l0,0c-0.1-3.9-0.4-7.7-1-11.4c0,0,0,0,0,0C433,550.1,402.3,522.5,365.1,521.3"/>
		<path class="st30" d="M440.4,624.7C440.4,624.7,440.4,624.7,440.4,624.7c-4.5,0.5-9.2,4.9-12.6,11.6c-1.8,3.5-3.3,7.7-4.3,12.3
			c-3,14.5,0.5,27.5,7.8,29.4c0,0,0,0,0,0l0.3,0.1c0.5,0.1,1,0.2,1.5,0.2c7.2,0,14.8-10.2,17.7-23.9c0.7-3.5,1.1-6.9,1.1-10.1
			c0-10.2-3.5-18.2-9.2-19.4l0,0L440.4,624.7C440.4,624.7,440.4,624.7,440.4,624.7"/>
		<path class="st42" d="M365.1,531.3V611c14.7,10.2,33.2,12.6,47.6,12.6c6.3,0,11.8-0.5,15.9-1c4.6-0.6,7.3-1.2,7.3-1.2
			s-0.4-46.7-28.8-69.5C393.2,540.9,378.2,533.9,365.1,531.3"/>
		<path class="st42" d="M365.1,616.6v5.2c7.1,3.1,15.3,5.7,24.9,7.4C390,629.1,378,626,365.1,616.6"/>
	</g>
	<g>
		<defs>
			<path id="SVGID_5_" d="M334.7,394.9c-58.7,0-106.4-47.7-106.4-106.6c0-58.8,47.6-106.6,106.4-106.6
				c58.7,0,106.4,47.7,106.4,106.6C441,347.2,393.4,394.9,334.7,394.9"/>
		</defs>
		<clipPath id="SVGID_6_">
			<use xlink:href="#SVGID_5_"  style="overflow:visible;"/>
		</clipPath>
		<path class="st43" d="M373.2,338.2c-7.8-1.1-13.9-8.1-14.9-17l-3.5-31.4h-42.9l-3.5,31.4c-1,8.9-7.1,15.9-14.9,17
			c-20.1,2.8-36.2,20.6-39.2,43.6l-6.3,48.4h170.6l-6.3-48.4C409.3,358.9,393.3,341,373.2,338.2"/>
		<path class="st44" d="M309.1,314.3l-0.8,6.9l-0.1,0.5c0,0,0,0,0,0c0-0.2,0-0.3,0.1-0.5L309.1,314.3L309.1,314.3"/>
		<path class="st45" d="M309.1,314.3l-0.8,6.9c0,0.2,0,0.3-0.1,0.5c1.4,1.4,2.7,2.7,4,3.8c7.4,6.5,11.2,10.1,21,10.1v-8.3
			c-9.8,0-13.6-3.6-21-10.1C311.3,316.4,310.2,315.4,309.1,314.3"/>
		<path class="st43" d="M379.3,234.8c-0.4-25.1-20.8-45.3-45.9-45.3h0c-25.1,0-45.6,20.2-46,45.4c-0.3,18-0.5,34.6-0.5,34.6
			c0,17.6,14.8,38.5,25.5,47.8c7.5,6.5,11.2,10.1,21.1,10.1c9.8,0,13.4-3.5,20.8-10c10.7-9.3,25.6-30.2,25.6-47.9
			C379.8,269.5,379.5,252.9,379.3,234.8"/>
		<path class="st46" d="M333.9,221.8c10.4,0.9,30.6-0.9,38.3,7c6.6,6.8,5.7,23.8,6.5,25.5h9.1c-2.4-36.2-3.1-66.1-54.5-68
			c-38-1.4-51.4,21.8-53.3,49.9l-1.2,18.1h10.1C295,234.8,284.8,217.5,333.9,221.8"/>
		<path class="st43" d="M294.7,265.6c1.9,9.3-0.4,17.7-5.2,18.7c-4.8,1-10.3-5.8-12.2-15.1c-1.9-9.3,0.4-17.7,5.2-18.7
			C287.3,249.5,292.7,256.3,294.7,265.6z"/>
		<path class="st43" d="M371.9,265.6c-1.9,9.3,0.4,17.7,5.2,18.7c4.8,1,10.2-5.8,12.2-15.1c1.9-9.3-0.4-17.7-5.2-18.7
			C379.3,249.5,373.9,256.3,371.9,265.6"/>
		<path class="st46" d="M326.2,192.9c0,0-9.9-9.1-15.3-9.1c0,0,9.2-4.1,14.7,2.5c0,0,9.3-6,22.5-4.2c0,0-10.4,5.1-11.6,15.9
			L326.2,192.9"/>
		<path class="st46" d="M296.4,227.7c0,0,12.4-7.3,33.1,6.7c0,0-2.9-5-5.4-8.4c0,0,5.4-1.5,28.5,17.8c0,0-0.7-10.1-3.3-16.1
			c0,0,10.8,2.1,17.8,11.6c0,0,0.8-17.1-11.2-23.8C343.9,209,296.4,207.1,296.4,227.7"/>
		<path class="st47" d="M375,336.5c-6.6-0.9-12.1-5.9-14.4-12.8l-26.9,20.4l-26.9-20.4c-2.3,6.9-7.8,11.9-14.4,12.8
			c-20.9,2.9-17.4,95.4-17.4,95.4H396C396,431.9,395.9,339.4,375,336.5"/>
		<polyline class="st48" points="339.4,431.8 346.9,379.3 333.7,352.4 320.4,379.3 328,431.8 339.4,431.8 		"/>
		<polyline class="st48" points="333.7,371.3 320.4,357.3 333.7,344 346.9,357.3 333.7,371.3 		"/>
		<polyline class="st49" points="375,336.5 375,336.5 375,336.5 375,336.5 375,336.5 		"/>
		<polyline class="st50" points="375,336.5 375,336.5 373.1,338.2 373.2,338.2 373.4,338.3 375,336.5 375,336.5 		"/>
		<polyline class="st50" points="292.4,336.5 292.4,336.5 322.3,369.7 325.4,362.6 324.1,361.2 322.3,364.3 292.4,336.5 		"/>
		<polyline class="st51" points="333.3,344.8 324.1,361.2 325.4,362.6 333.3,345 333.3,344.8 		"/>
		<polyline class="st52" points="345.1,364.3 333.7,344.1 360.6,323.7 375,336.5 345.1,364.3 		"/>
		<polyline class="st52" points="322.3,364.3 333.7,344.1 306.8,323.7 292.4,336.5 322.3,364.3 		"/>
		<path class="st53" d="M251.8,381.7l-6.5,50.2h66.4L292,336.6C271.3,339.6,254.8,358,251.8,381.7z"/>
		<path class="st53" d="M422.1,431.9l-6.5-50.2c-3.1-23.7-19.5-42.1-40.2-45.1l-19.7,95.3H422.1"/>
		<path class="st44" d="M357.5,314.3L357.5,314.3l0.8,7l0.1,0.5c0,0,0,0,0,0c0.1,1.1,0.4,2.2,0.7,3.2l0,0c-0.3-1-0.5-2.1-0.7-3.2
			l-0.1-0.5L357.5,314.3 M389.3,269.1C389.3,269.1,389.3,269.1,389.3,269.1C389.3,269.1,389.3,269.1,389.3,269.1 M389.4,268.9
			C389.4,268.9,389.4,268.9,389.4,268.9C389.4,268.9,389.4,268.9,389.4,268.9 M389.4,268.6C389.4,268.6,389.4,268.6,389.4,268.6
			C389.4,268.6,389.4,268.6,389.4,268.6 M387.1,244.4c0.2,2.9,0.4,5.8,0.6,8.8c0,0,0,0,0,0C387.5,250.2,387.3,247.3,387.1,244.4
			 M344.3,184.6c-0.8,0.7-1.7,1.4-2.5,2.3h0C342.6,186.1,343.5,185.3,344.3,184.6 M344.7,184.3c-0.1,0.1-0.3,0.2-0.4,0.3
			C344.4,184.5,344.5,184.4,344.7,184.3 M344.7,184.3C344.7,184.3,344.7,184.3,344.7,184.3C344.7,184.3,344.7,184.3,344.7,184.3
			 M344.8,184.2C344.8,184.2,344.8,184.2,344.8,184.2C344.8,184.2,344.8,184.2,344.8,184.2 M344.9,184.2
			C344.8,184.2,344.8,184.2,344.9,184.2C344.8,184.2,344.8,184.2,344.9,184.2 M344.9,184.1C344.9,184.1,344.9,184.1,344.9,184.1
			C344.9,184.1,344.9,184.1,344.9,184.1 M345.3,183.9c-0.1,0.1-0.2,0.2-0.3,0.2C345,184,345.1,184,345.3,183.9 M345.3,183.8
			C345.3,183.8,345.3,183.9,345.3,183.8C345.3,183.9,345.3,183.8,345.3,183.8 M345.4,183.7c0,0-0.1,0.1-0.1,0.1
			C345.4,183.8,345.4,183.8,345.4,183.7 M345.5,183.7C345.5,183.7,345.5,183.7,345.5,183.7C345.5,183.7,345.5,183.7,345.5,183.7
			 M345.7,183.6c-0.1,0-0.1,0.1-0.2,0.1C345.6,183.6,345.6,183.6,345.7,183.6 M346.3,183.2c-0.2,0.1-0.4,0.2-0.6,0.4
			C345.9,183.4,346.1,183.3,346.3,183.2 M346.4,183.1C346.3,183.1,346.3,183.1,346.4,183.1C346.3,183.1,346.3,183.1,346.4,183.1
			 M346.5,183C346.4,183.1,346.4,183.1,346.5,183C346.4,183.1,346.4,183.1,346.5,183 M346.6,182.9c0,0-0.1,0.1-0.2,0.1
			C346.5,183,346.6,183,346.6,182.9 M346.7,182.9C346.7,182.9,346.6,182.9,346.7,182.9C346.6,182.9,346.7,182.9,346.7,182.9
			 M347.1,182.6c-0.1,0.1-0.3,0.2-0.5,0.3C346.8,182.8,347,182.7,347.1,182.6 M347.3,182.5c-0.1,0-0.1,0.1-0.2,0.1
			C347.2,182.6,347.3,182.5,347.3,182.5L347.3,182.5"/>
		<path class="st45" d="M358.3,321.7c-1.4,1.5-2.8,2.8-4.1,3.9c-7.4,6.4-11,10-20.8,10c0,0,0,0-0.1,0v8.2l0.3,0.3l0.1-0.1l0.1,0.1
			L359,325C358.7,323.9,358.4,322.9,358.3,321.7"/>
		<path class="st54" d="M357.5,314.3L357.5,314.3l0.8,7c0,0.2,0,0.3,0.1,0.5c0,0,0,0,0,0l-0.1-0.5L357.5,314.3"/>
		<path class="st55" d="M357.5,314.3c-1.1,1.1-2.2,2.2-3.3,3.1c-7.4,6.4-11,10-20.8,10c0,0,0,0-0.1,0v8.3c0,0,0,0,0.1,0
			c9.8,0,13.4-3.5,20.8-10c1.3-1.1,2.7-2.5,4.1-3.9c0-0.2,0-0.3-0.1-0.5L357.5,314.3"/>
		<path class="st45" d="M364,224.4c3.5,7.1,3.1,15,3.1,15c-7-9.5-17.8-11.6-17.8-11.6c2.6,5.9,3.3,16.1,3.3,16.1
			c-8.8-7.3-15-11.6-19.3-14.2v97.7c0,0,0,0,0.1,0c9.8,0,13.4-3.5,20.8-10c1.1-0.9,2.1-1.9,3.3-3.1l0,0l0,0l0,0
			c7.2-7.2,15.2-18.5,19.4-30c-4.6-1.2-6.9-9.5-5-18.7c1.2-5.6,3.6-10.3,6.5-13c-0.4-4.9-0.5-18.1-6.2-23.8
			C370.2,226.8,367.3,225.4,364,224.4"/>
		<path class="st56" d="M341.8,187c-2.4,2.6-4.7,6.2-5.2,10.9l-3.2-1.6v14.8c9.6,0.4,18.4,2.1,22.7,4.5c3.9,2.1,6.4,5.4,8.1,8.8
			c3.3,1,6.1,2.3,8.2,4.4c5.7,5.8,5.8,19,6.2,23.8c1.5-1.4,3.2-2.2,4.8-2.2c0.3,0,0.6,0,1,0.1c1.4,0.3,2.6,1.3,3.6,2.7
			c-0.2-3-0.4-5.9-0.6-8.8C384.9,214.8,380.5,191.3,341.8,187C341.8,187,341.8,187,341.8,187L341.8,187"/>
		<path class="st45" d="M383.2,250.4c-1.6,0-3.2,0.8-4.8,2.2c-2.8,2.6-5.3,7.3-6.5,13c-1.9,9.2,0.3,17.4,5,18.7c0,0,0,0,0,0l0.2,0.1
			c0.3,0.1,0.6,0.1,1,0.1c4.5,0,9.4-6.5,11.2-15.2c0,0,0-0.1,0-0.1c0,0,0,0,0,0c0,0,0-0.1,0-0.1c0,0,0,0,0,0c0-0.1,0-0.2,0.1-0.3
			c0,0,0,0,0,0c1.2-6.3,0.4-12.1-1.7-15.4c0,0,0,0,0,0c0,0,0,0,0,0c-0.9-1.4-2.2-2.4-3.6-2.7C383.8,250.5,383.5,250.4,383.2,250.4"
			/>
		<path class="st56" d="M340,181.9c-2.5,0.2-4.8,0.7-6.7,1.2v13.3l3.2,1.6c0.5-4.7,2.8-8.4,5.2-10.9c0.8-0.9,1.7-1.7,2.5-2.3
			c0,0,0,0,0,0c0.1-0.1,0.3-0.2,0.4-0.3c0,0,0,0,0,0c0,0,0,0,0.1,0c0,0,0,0,0,0c0,0,0,0,0,0c0,0,0,0,0,0c0,0,0,0,0.1,0c0,0,0,0,0,0
			c0,0,0,0,0.1,0c0,0,0,0,0,0c0.1-0.1,0.2-0.2,0.3-0.2c0,0,0,0,0,0c0,0,0,0,0.1,0c0,0,0,0,0,0c0,0,0.1-0.1,0.1-0.1c0,0,0,0,0,0
			c0,0,0,0,0.1,0c0,0,0,0,0,0c0.1,0,0.1-0.1,0.2-0.1c0,0,0,0,0,0c0.2-0.1,0.4-0.3,0.6-0.4c0,0,0,0,0,0c0,0,0.1,0,0.1-0.1
			c0,0,0,0,0,0c0,0,0.1,0,0.1-0.1c0,0,0,0,0,0c0.1,0,0.1-0.1,0.2-0.1c0,0,0,0,0,0c0,0,0,0,0,0c0,0,0,0,0,0c0.2-0.1,0.3-0.2,0.5-0.3
			c0,0,0,0,0,0c0.1,0,0.1-0.1,0.2-0.1l0,0C344.9,182.2,342.5,182,340,181.9"/>
		<path class="st56" d="M333.3,211.1v18.5c4.3,2.5,10.6,6.9,19.3,14.2c0,0-0.7-10.1-3.3-16.1c0,0,10.8,2.1,17.8,11.6
			c0,0,0.4-7.8-3.1-15c-1.7-3.4-4.2-6.7-8.1-8.8C351.7,213.2,342.9,211.5,333.3,211.1"/>
		<polyline class="st57" points="333.7,344 333.6,344.1 333.7,344.1 333.7,344.1 333.7,344 		"/>
		<path class="st58" d="M373.4,338.3l-28.3,31.4l-3.2-7.1l-2.1,2.2l7.1,14.5l-2.2,15.1c6.7-0.6,13.2-1.9,19.5-3.7l10.8-52.1
			c-0.3-0.1-0.6-0.1-0.9-0.2L373.4,338.3"/>
		<path class="st57" d="M339.8,364.8l-6.1,6.5l-0.4-0.4v23.9c0.5,0,0.9,0,1.4,0c3.4,0,6.8-0.2,10.1-0.5l2.2-15.1L339.8,364.8"/>
		<polyline class="st57" points="333.7,344.1 333.3,345 333.3,370.9 333.7,371.3 339.8,364.8 341.9,362.6 333.7,344.1 333.7,344.1 
					"/>
		<polyline class="st59" points="373.1,338.2 345.1,364.3 343.3,361.2 341.9,362.6 345.1,369.7 373.4,338.3 373.2,338.2 
			373.1,338.2 		"/>
		<polyline class="st60" points="333.7,344.1 341.9,362.6 343.3,361.2 333.7,344.1 		"/>
		<polyline class="st60" points="333.7,344.1 333.3,344.8 333.3,345 333.7,344.1 		"/>
		<path class="st61" d="M359,325L359,325l-25.2,19.1l-0.1,0h0l0,0l0,0l9.6,17l1.8,3.2l28.1-26.1l-1.3-0.2l-0.3-0.1l-1.2-0.3
			l-0.3-0.1l-0.9-0.4l-0.3-0.1l-1-0.5l-0.4-0.2l-0.9-0.6l0,0C363,333.3,360.3,329.5,359,325"/>
		<polyline class="st61" points="333.3,343.8 333.3,344.8 333.7,344.1 333.7,344.1 333.6,344.1 333.3,343.8 		"/>
		<path class="st62" d="M375,338.6l-10.8,52.1c16.5-4.8,31.4-13.5,43.5-25C401.3,351.5,389.3,341.2,375,338.6"/>
	</g>
</g>
</svg>
