<?xml version="1.0" encoding="utf-8"?>
<!-- Generator: Adobe Illustrator 19.0.1, SVG Export Plug-In . SVG Version: 6.00 Build 0)  -->
<svg version="1.1" id="Layer_1" xmlns="http://www.w3.org/2000/svg" xmlns:xlink="http://www.w3.org/1999/xlink" x="0px" y="0px"
	 viewBox="320 -60 383 124.9" style="enable-background:new 320 -60 383 124.9;" xml:space="preserve">
<style type="text/css">
	.st0{fill:#8AC644;}
	.st1{fill:#43545E;}
	.st2{fill:#36D4FF;}
</style>
<path class="st0" d="M394,56.4c-1.7-6.8-10.7-42-10.7-42.1c-0.3-0.7-1.3-0.7-1.3-0.7s-1,0-1.3,0.6c0,0.1-9,35.3-10.7,42.1
	c-0.2,0.8-0.2,2,0,2.8c1,3.5,5.3,5.8,10.5,5.8h1.5h1.5c5.3,0,9.5-2.3,10.5-5.8C394.3,58.4,394.2,57.2,394,56.4z"/>
<path class="st1" d="M370-51.8c1.7,6.8,10.7,42,10.7,42.1C381-9,382.1-9,382.1-9s1,0,1.3-0.6c0-0.1,9-35.3,10.7-42.1
	c0.2-0.8,0.2-1.8,0-2.6c-1.1-3.6-5.4-5.7-10.6-5.7h-1.4h-1.5c-5.3,0-9.6,2.1-10.6,5.6C369.8-53.6,369.8-52.6,370-51.8z"/>
<path class="st2" d="M328,14.3c6.8-1.7,42-10.7,42.1-10.7c0.6-0.2,0.6-1.3,0.6-1.3s0-1-0.6-1.3C370,0.9,334.7-8,328-9.7
	c-0.8-0.2-1.7-0.2-2.5,0c-3.5,1-5.5,5.3-5.5,10.5v1.4v1.5c0,5.3,2,9.5,5.5,10.5C326.3,14.5,327.1,14.5,328,14.3z"/>
<path class="st2" d="M436.1-9.7C429.3-8,394.1,1,394,1c-0.6,0.2-0.6,1.3-0.6,1.3s0,1,0.6,1.3c0.1,0,35.3,9,42.1,10.7
	c0.8,0.2,1.7,0.2,2.5,0c3.5-1,5.4-5.3,5.4-10.5V2.4V0.9c0-5.3-1.9-9.5-5.4-10.5C437.8-9.9,436.9-9.9,436.1-9.7z"/>
<path class="st2" d="M335.4-27.6c6,3.6,37.3,22.2,37.4,22.2c0.6,0.3,1.4-0.5,1.4-0.5s0.7-0.7,0.4-1.3c0-0.1-18.6-31.4-22.2-37.3
	c-0.4-0.7-1.1-1.4-1.8-1.8c-3.2-1.8-7.6-0.2-11.4,3.5l-1,1l-1.1,1.1c-3.7,3.7-5.3,8.2-3.5,11.4C333.9-28.6,334.6-28,335.4-27.6z"/>
<path class="st0" d="M428.8,32c-6-3.6-37.3-22.2-37.4-22.2c-0.6-0.3-1.4,0.5-1.4,0.5s-0.7,0.7-0.4,1.3c0,0.1,18.6,31.4,22.2,37.3
	c0.4,0.7,1.2,1.5,1.9,1.9c3.2,1.8,7.7,0.3,11.4-3.5l1-1l1.1-1.1c3.7-3.7,5.2-8.3,3.5-11.4C430.3,33.1,429.5,32.4,428.8,32z"/>
<path class="st0" d="M411.9-44.5c-3.6,6-22.2,37.3-22.2,37.4c-0.3,0.6,0.5,1.4,0.5,1.4s0.7,0.7,1.3,0.4c0.1,0,31.4-18.6,37.3-22.2
	c0.7-0.4,1.4-1.1,1.8-1.8c1.8-3.2,0.2-7.6-3.5-11.4l-1-1l-1.1-1.1c-3.7-3.7-8.2-5.3-11.4-3.5C413-45.9,412.4-45.2,411.9-44.5z"/>
<path class="st1" d="M352.4,48.9c3.6-6,22.2-37.3,22.2-37.4c0.3-0.6-0.5-1.4-0.5-1.4s-0.7-0.7-1.3-0.4c-0.1,0-31.4,18.6-37.3,22.2
	c-0.7,0.4-1.5,1.2-1.9,1.9c-1.8,3.2-0.3,7.7,3.5,11.4l1,1l1.1,1.1c3.7,3.7,8.3,5.2,11.4,3.5C351.2,50.4,352,49.6,352.4,48.9z"/>
<path class="st2" d="M503.2,39.1h-9.3V8.8c0-4.4-1.1-7.9-3.4-10.7s-5.7-4.2-10.3-4.2c-2.1,0-4,0.4-5.8,1.1s-3.3,1.8-4.6,3.1
	s-2.3,2.9-3.1,4.6c-0.8,1.8-1.1,3.7-1.1,5.8v30.6h-9.3v-71.7h9.3l-0.1,25c1.9-2.2,4.2-3.9,7-5.2s5.8-1.9,9.1-1.9
	c3.5,0,6.6,0.6,9.3,1.7c2.7,1.2,5,2.8,6.8,4.9c1.9,2.1,3.3,4.6,4.2,7.5c0.9,2.9,1.4,6.1,1.4,9.6L503.2,39.1L503.2,39.1z"/>
<path class="st2" d="M545.1-11.9h9.3v27.5c0,3.6-0.6,6.8-1.8,9.7c-1.2,2.9-2.9,5.3-5,7.4c-2.1,2-4.6,3.6-7.5,4.7
	c-2.9,1.1-5.9,1.7-9.2,1.7c-3.3,0-6.3-0.6-9.2-1.7s-5.4-2.7-7.5-4.7c-2.1-2-3.8-4.5-5-7.4s-1.8-6.1-1.8-9.7v-27.5h9.3v27.5
	c0,4.2,1.3,7.7,3.9,10.4s6,4.1,10.4,4.1c4.4,0,7.8-1.4,10.3-4.1s3.8-6.2,3.8-10.4V-11.9L545.1-11.9z"/>
<path class="st2" d="M610.9,11.6c0,3.9-0.7,7.6-2.1,10.9c-1.4,3.4-3.3,6.3-5.6,8.7c-2.4,2.5-5.1,4.4-8.3,5.8
	c-3.2,1.4-6.6,2.1-10.2,2.1c-3.7,0-7.2-0.7-10.4-2.1s-6-3.4-8.3-5.8c-2.4-2.5-4.2-5.4-5.6-8.7c-1.4-3.4-2-7-2-10.8v-44h8.3v25.4
	c2.2-2.7,4.8-4.9,7.9-6.5s6.5-2.4,10.2-2.4s7.1,0.7,10.2,2.1c3.2,1.4,5.9,3.3,8.3,5.7s4.2,5.3,5.6,8.6C610.2,4,610.9,7.7,610.9,11.6
	z M602.3,11.6c0-2.7-0.5-5.3-1.4-7.6c-0.9-2.4-2.2-4.4-3.8-6.1s-3.5-3.1-5.6-4.1s-4.4-1.5-6.9-1.5c-2.4,0-4.7,0.5-6.9,1.5
	c-2.1,1-4,2.4-5.6,4.2c-1.6,1.8-2.9,3.8-3.8,6.1c-0.9,2.3-1.4,4.9-1.4,7.6s0.5,5.3,1.4,7.6c0.9,2.4,2.2,4.5,3.9,6.2
	c1.6,1.8,3.5,3.2,5.6,4.2c2.1,1,4.4,1.5,6.8,1.5c2.4,0,4.7-0.5,6.9-1.5c2.1-1,4-2.4,5.6-4.2c1.6-1.8,2.8-3.8,3.8-6.2
	C601.8,16.9,602.3,14.4,602.3,11.6z"/>
<path class="st1" d="M643.3,3.4c2.4-1.2,4.5-2.7,6.1-4.7c2.7-3.3,4-6.9,4-11c0-3.5-0.9-6.8-2.8-10c-1.9-3.2-4.4-5.6-7.6-7.4
	c-3.2-1.7-6.8-2.6-10.7-2.6c-5.3,0-9.7,2.1-13.3,5.2s-5.9,7.1-7,14.1h6c1.1-5,2.6-7.5,4.6-9.3c2.5-2.3,5.8-3.7,9.7-3.7
	c4.5,0,8.1,1.2,10.8,3.9c2.7,2.7,4.1,5.8,4.1,9.4c0,2.4-0.7,4.6-2,6.7c-1.4,2.1-3.2,3.7-5.5,4.7c-2,0.9-4.1,1.5-7.9,1.8
	c-0.7,0-1,0-1,0v0.1v5.5v0.1c0,0,0.3,0,1,0c3.9,0.3,6.4,0.9,8.4,1.9c2.3,1.1,3.9,2.6,5.2,4.7c1.4,2.1,1.9,4.3,1.9,6.8
	c0,3.6-1.4,6.8-4.1,9.4c-2.7,2.7-6.3,4-10.8,4c-3.9,0-7.2-1.1-9.7-3.4c-2-1.8-3.5-4.7-4.6-8.7h-6c1.1,8,3.4,10.4,7,13.5
	c3.6,3.1,8,4.6,13.3,4.6c3.9,0,7.5-0.9,10.7-2.6c3.2-1.7,5.7-4.2,7.6-7.4s2.8-6.5,2.8-10c0-4.1-1.3-7.7-4-11
	C647.8,6.1,645.7,4.6,643.3,3.4z"/>
<path class="st1" d="M703-2.4l-4.7,3.2c-4.1-5.9-9.7-8.9-16.8-8.9c-5.7,0-10.4,2-14.1,6c-3.7,4-5.6,8.8-5.6,14.5
	c0,3.7,0.9,7.2,2.6,10.4c1.7,3.3,4.1,5.8,7.1,7.6s6.4,2.7,10.1,2.7c6.8,0,12.4-3,16.7-8.9l4.7,3.4c-2.2,3.7-5.2,6.5-8.9,8.5
	s-8,3-12.8,3c-7.3,0-13.4-2.6-18.3-7.7s-7.3-11.3-7.3-18.6c0-4.9,1.1-9.5,3.4-13.7c2.3-4.2,5.4-7.5,9.3-9.9c4-2.4,8.4-3.5,13.3-3.5
	c3.1,0,6,0.5,8.9,1.5s5.3,2.4,7.3,4S701.6-4.9,703-2.4z"/>
</svg>
