<?xml version="1.0" encoding="utf-8"?>
<!-- Generator: Adobe Illustrator 19.0.1, SVG Export Plug-In . SVG Version: 6.00 Build 0)  -->
<svg version="1.1" id="Layer_1" xmlns="http://www.w3.org/2000/svg" xmlns:xlink="http://www.w3.org/1999/xlink" x="0px" y="0px"
	 viewBox="0 0 1024 1024" style="enable-background:new 0 0 1024 1024;" xml:space="preserve">
<style type="text/css">
	.st0{fill:#3498DB;}
	.st1{fill:#2980B9;}
	.st2{fill:#E5E5E5;}
	.st3{fill:#2F89C5;}
	.st4{fill:#2573A6;}
	.st5{fill:#CECECE;}
	.st6{fill:#216795;}
	.st7{fill:#1E5C86;}
	.st8{fill:#2A7BB1;}
	.st9{fill-rule:evenodd;clip-rule:evenodd;fill:#F5E6B6;}
	.st10{fill:#195376;}
	.st11{fill-rule:evenodd;clip-rule:evenodd;fill:#69451D;}
	.st12{fill:#F5D56C;}
	.st13{fill:#2ECC71;}
	.st14{fill-rule:evenodd;clip-rule:evenodd;fill:#A65417;}
	.st15{fill-rule:evenodd;clip-rule:evenodd;fill:#FACC89;}
</style>
<g>
	<path class="st0" d="M1019.5,41.1v941.8c0,22.6-18.4,41.1-40.9,41.1H40.9C18.4,1024,0,1005.5,0,982.9V41.1C0,18.5,18.4,0,40.9,0
		h937.7C1001.1,0,1019.5,18.5,1019.5,41.1"/>
	<path class="st1" d="M1024,982.8V41.2c0-13-9.6-24.4-18.9-32L8.5,1008.1c7.5,9.4,17.2,15.3,30.2,15.3h937.6
		C998.8,1023.4,1024,1005.5,1024,982.8"/>
	<path class="st2" d="M1006.6,1013.1c-0.5,0.4-1,0.7-1.5,1.1c-2.3,2-4.9,3.7-7.6,5.2c3.5-1.5,6.7-3.4,9.8-5.7L1006.6,1013.1"/>
	<path class="st3" d="M978.8,1023.4c-0.1,0-0.1,0-0.2,0h-2.4l0,0h2.4C978.7,1023.4,978.8,1023.4,978.8,1023.4 M1005.1,1014.2
		c-3.8,2.5-7.9,4.6-12.2,6.2l0.5,0.5c-0.9,0.3-1.7,0.6-2.6,0.9c2.3-0.6,4.5-1.4,6.7-2.4C1000.2,1017.9,1002.8,1016.2,1005.1,1014.2"
		/>
	<path class="st4" d="M377.9,641.1l-42,42.1l165.4,168.9l34.6-52.3L377.9,641.1 M610.4,408.4l-111,111l493.5,500.9
		c4.3-1.5,8.4-3.6,12.2-6.2c0.5-0.4,1-0.7,1.5-1.1L762.6,769.5L846,644.6L610.4,408.4"/>
	<path class="st2" d="M1024,982.8c0,0,0,0.1,0,0.1c0,0,0,0,0,0C1024,982.9,1024,982.9,1024,982.8"/>
	<path class="st4" d="M1024,982.8c0,0,0,0.1,0,0.1C1024,982.9,1024,982.9,1024,982.8L1024,982.8"/>
	<path class="st2" d="M1024,983c0,0,0,0.1,0,0.1v0c-0.1,6.9-2.4,13.4-5.9,19.1C1021.8,996.5,1024,990,1024,983"/>
	<path class="st2" d="M1018.1,1002.2c-2.8,4.4-6.6,8.2-10.8,11.4l0.4,0.4C1011.6,1010.8,1015.2,1006.8,1018.1,1002.2 M1024,983
		C1024,983,1024,983,1024,983C1024,983,1024,983,1024,983"/>
	<path class="st5" d="M1024,983.1c-0.1,12-7.3,22.7-17.4,30l0.6,0.6c4.3-3.2,8-7.1,10.8-11.4C1021.6,996.5,1023.9,990,1024,983.1
		 M1024,983c0,0,0,0.1,0,0.1C1024,983.1,1024,983,1024,983C1024,983,1024,983,1024,983C1024,983,1024,983,1024,983"/>
	<path class="st6" d="M846,644.6l-83.4,124.9l244.1,243.6c10.1-7.3,17.3-18,17.4-30v0c0,0,0-0.1,0-0.1c0,0,0-0.1,0-0.1V823.1
		L846,644.6"/>
	<polyline class="st3" points="564.4,116.9 467.6,265.2 608.6,406.6 730.2,284.7 564.4,116.9 	"/>
	<polyline class="st4" points="730.2,284.7 608.6,406.6 610.4,408.4 688.5,330.2 767.7,409.3 804.2,359.7 730.2,284.7 	"/>
	<polyline class="st6" points="688.5,330.2 610.4,408.4 846,644.6 861.6,621.2 1024,786 1024,782.8 718.2,476.6 767.7,409.3 
		688.5,330.2 	"/>
	<polyline class="st7" points="861.6,621.2 846,644.6 1024,823.1 1024,786 861.6,621.2 	"/>
	<path class="st3" d="M990.8,1021.7c-3.9,1.1-7.9,1.7-11.9,1.7C983,1023.4,987,1022.9,990.8,1021.7 M254.9,271.2l-98,148.1
		l219.3,220.3l121.5-121.8L254.9,271.2"/>
	<polyline class="st4" points="497.7,517.7 376.2,639.5 377.9,641.1 499.4,519.4 497.7,517.7 	"/>
	<path class="st8" d="M992.9,1020.4c-5.5,2-11.2,3.1-16.7,3.1h2.4c0.1,0,0.1,0,0.2,0c4,0,8-0.6,11.9-1.7c0.9-0.3,1.8-0.6,2.6-0.9
		L992.9,1020.4"/>
	<path class="st6" d="M499.4,519.4L377.9,641.1l158,158.7l16.2-24.5l241.5,248.1h-34.9h217.6c5.5,0,11.2-1.1,16.7-3.1L499.4,519.4"
		/>
	<polyline class="st4" points="861.6,281.6 804.2,359.7 1024,582.2 1024,446.4 861.6,281.6 	"/>
	<polyline class="st6" points="804.2,359.7 767.7,409.3 1024,665 1024,582.2 804.2,359.7 	"/>
	<polyline class="st7" points="767.7,409.3 718.2,476.6 1024,782.8 1024,665 767.7,409.3 	"/>
	<polyline class="st6" points="535.9,799.7 501.3,852.1 669.1,1023.4 646.7,1023.4 758.6,1023.4 535.9,799.7 	"/>
	<polyline class="st7" points="552,775.3 535.9,799.7 758.6,1023.4 793.5,1023.4 552,775.3 	"/>
	<polyline class="st3" points="244.6,590 146.7,738.2 212.2,803.9 334.3,681.6 244.6,590 	"/>
	<polyline class="st4" points="334.3,681.6 212.2,803.9 430.7,1023.4 553.7,1023.4 454.1,923.4 491.3,867 322.2,696.8 335.8,683.1 
		334.3,681.6 	"/>
	<polyline class="st6" points="335.8,683.1 322.2,696.8 491.3,867 501.3,852.1 335.8,683.1 	"/>
	<polyline class="st6" points="491.3,867 454.1,923.4 553.7,1023.4 646.7,1023.4 491.3,867 	"/>
	<polyline class="st7" points="501.3,852.1 491.3,867 646.7,1023.4 669.1,1023.4 501.3,852.1 	"/>
	<path class="st9" d="M510.7,780.2c142.2,0,258.3-116.5,258.3-259.4s-116-259.4-258.3-259.4c-142.2,0-258.3,116.5-258.3,259.4
		S368.4,780.2,510.7,780.2z"/>
	<path class="st10" d="M467.2,309.1c2.1,9.3-3.6,18.5-12.8,20.7c-9.2,2.2-18.4-3.6-20.6-12.9c-1.8-8-2.7-15.9-2.7-23.6
		c0-20.8,6.3-40.7,17.2-56.5c11.2-16.4,27.3-28.4,46.3-32.8c5.3-1.2,10.7-1.9,16.1-1.9c5.5,0,10.9,0.6,16.1,1.9
		c19,4.4,35,16.5,46.3,32.8c10.8,15.8,17.2,35.6,17.2,56.5c0,7.7-0.9,15.6-2.7,23.6c-2.1,9.3-11.4,15-20.6,12.9
		c-9.2-2.2-15-11.4-12.8-20.7c1.2-5.2,1.8-10.5,1.8-15.8c0-13.9-4.1-26.8-11-36.9c-6.5-9.5-15.5-16.4-25.9-18.8
		c-2.6-0.6-5.4-0.9-8.4-0.9c-3,0-5.7,0.3-8.4,0.9c-10.3,2.4-19.4,9.3-25.9,18.8c-6.9,10.1-11,23.1-11,36.9
		C465.4,298.6,466,303.9,467.2,309.1z"/>
	<path class="st11" d="M510.6,252.3c31.9,0,58-26.1,58-58.2c0-32.1-26-58.2-58-58.2c-31.9,0-58,26.1-58,58.2
		C452.7,226.2,478.7,252.3,510.6,252.3z"/>
	<path class="st12" d="M453.8,180.1c-3,9-12.6,13.9-21.6,10.9c-9-3-13.8-12.7-10.9-21.7c6.5-19.6,18.2-36.9,34.2-49
		c15.1-11.4,33.7-18.3,55.1-18.3c21.2,0,39.6,6.7,54.6,17.9c15.9,11.9,27.7,28.9,34.3,48.2c3.1,9-1.7,18.8-10.7,21.9
		c-9,3.1-18.7-1.7-21.8-10.7c-4.4-12.9-12.1-24-22.3-31.7c-9.2-6.9-20.8-11.1-34.1-11.1c-13.5,0-25.1,4.2-34.4,11.3
		C465.8,155.7,458.1,167.1,453.8,180.1z"/>
	<path class="st13" d="M553.7,735.4c-2.1-9.3,3.6-18.5,12.8-20.7c9.2-2.2,18.4,3.6,20.6,12.9c1.8,8,2.7,15.9,2.7,23.6
		c0,20.8-6.3,40.7-17.2,56.5c-11.2,16.4-27.3,28.4-46.3,32.8c-5.3,1.2-10.7,1.9-16.1,1.9c-5.5,0-10.9-0.6-16.1-1.9
		c-19-4.4-35-16.5-46.3-32.8c-10.8-15.8-17.2-35.6-17.2-56.5c0-7.7,0.9-15.6,2.7-23.6c2.1-9.3,11.4-15,20.6-12.9
		c9.2,2.2,15,11.4,12.8,20.7c-1.2,5.2-1.8,10.5-1.8,15.8c0,13.9,4.1,26.8,11,36.9c6.5,9.5,15.5,16.4,25.9,18.8
		c2.6,0.6,5.4,0.9,8.4,0.9c2.9,0,5.7-0.3,8.4-0.9c10.3-2.4,19.4-9.3,25.9-18.8c6.9-10.1,11-23.1,11-36.9
		C555.5,745.9,555,740.6,553.7,735.4z"/>
	<path class="st14" d="M510.3,792.1c-31.9,0-58,26.1-58,58.2c0,32.1,26,58.2,58,58.2s58-26.1,58-58.2
		C568.3,818.3,542.2,792.1,510.3,792.1z"/>
	<path class="st12" d="M567.1,864.4c3-9,12.6-13.9,21.6-10.9c9,3,13.8,12.7,10.9,21.7c-6.5,19.6-18.2,36.9-34.2,49
		c-15.1,11.4-33.7,18.3-55.1,18.3c-21.2,0-39.6-6.7-54.6-17.9c-15.9-11.9-27.7-28.9-34.3-48.2c-3.1-9,1.7-18.8,10.7-21.9
		c9-3.1,18.7,1.7,21.8,10.7c4.4,12.9,12.1,24,22.3,31.7c9.2,6.9,20.8,11.1,34.1,11.1c13.5,0,25.1-4.2,34.4-11.3
		C555.1,888.8,562.8,877.4,567.1,864.4z"/>
	<path class="st10" d="M348.3,666.5c6.9-6.5,17.8-6.1,24.2,0.8c6.5,6.9,6.1,17.8-0.8,24.4c-6,5.6-12.3,10.3-19,14.2
		c-18,10.4-38.3,14.8-57.3,13.3c-19.7-1.6-38.1-9.5-51.4-23.8c-3.7-4-7-8.3-9.7-13.1c-2.7-4.8-4.9-9.8-6.5-15
		c-5.7-18.7-3.3-38.7,5.2-56.7c8.2-17.3,22.2-32.8,40.1-43.2c6.6-3.9,13.9-7,21.7-9.4c9.1-2.8,18.6,2.4,21.4,11.5
		c2.8,9.1-2.4,18.7-11.4,21.5c-5.1,1.6-10,3.7-14.5,6.3c-11.9,6.9-21.1,17-26.4,28c-4.9,10.4-6.4,21.7-3.3,31.9
		c0.8,2.6,1.9,5.2,3.4,7.7c1.5,2.6,3.1,4.8,5,6.8c7.3,7.8,17.7,12.2,29.2,13.1c12.2,1,25.4-2,37.4-8.9
		C340.2,673.3,344.4,670.1,348.3,666.5z"/>
	<path class="st11" d="M277.7,657.1c-16-27.8-51.5-37.3-79.2-21.3c-27.6,16-37.2,51.7-21.2,79.5c16,27.8,51.5,37.3,79.2,21.3
		C284.1,720.6,293.6,684.8,277.7,657.1z"/>
	<path class="st12" d="M243.8,742.6c9.2-1.9,18.3,4,20.2,13.3c1.9,9.3-4,18.4-13.3,20.3c-20.2,4.2-40.9,2.6-59.4-5.2
		c-17.4-7.4-32.6-20.2-43.3-38.8c-10.6-18.4-14-37.8-11.8-56.5c2.3-19.8,11.1-38.5,24.4-53.9c6.2-7.2,17.1-7.9,24.2-1.7
		c7.1,6.3,7.9,17.1,1.7,24.3c-8.9,10.3-14.7,22.5-16.2,35.3c-1.3,11.5,0.8,23.6,7.5,35.2c6.7,11.7,16.2,19.7,26.9,24.3
		C216.7,744.4,230.4,745.3,243.8,742.6z"/>
	<path class="st13" d="M672.6,378c-6.9,6.5-17.8,6.1-24.2-0.8c-6.5-6.9-6.1-17.8,0.8-24.4c6-5.6,12.3-10.3,19-14.2
		c18-10.4,38.3-14.8,57.3-13.3c19.7,1.6,38.1,9.5,51.4,23.8c3.7,4,7,8.3,9.7,13.1c2.7,4.8,4.9,9.8,6.5,15
		c5.7,18.7,3.3,38.7-5.2,56.7c-8.2,17.3-22.2,32.8-40.1,43.2c-6.6,3.9-13.9,7-21.7,9.4c-9.1,2.8-18.6-2.4-21.4-11.5
		c-2.8-9.1,2.4-18.7,11.4-21.5c5.1-1.6,10-3.7,14.5-6.3c11.9-6.9,21.1-17,26.4-28c4.9-10.4,6.4-21.7,3.3-31.9
		c-0.8-2.6-1.9-5.2-3.4-7.7c-1.5-2.6-3.1-4.8-5-6.8c-7.3-7.8-17.7-12.2-29.2-13.1c-12.2-1-25.4,2-37.4,8.9
		C680.8,371.2,676.5,374.4,672.6,378z"/>
	<path class="st14" d="M743.3,387.4c16,27.8,51.5,37.3,79.2,21.3c27.6-16,37.2-51.7,21.2-79.5c-16-27.8-51.5-37.3-79.2-21.3
		C736.8,323.9,727.3,359.7,743.3,387.4z"/>
	<path class="st12" d="M777.2,301.9c-9.2,1.9-18.3-4-20.2-13.3s4-18.4,13.3-20.3c20.2-4.2,40.9-2.6,59.3,5.2
		c17.4,7.4,32.6,20.2,43.3,38.8c10.6,18.4,14,37.8,11.8,56.5c-2.3,19.8-11.1,38.5-24.4,53.9c-6.2,7.2-17.1,7.9-24.2,1.7
		c-7.1-6.3-7.9-17.1-1.7-24.3c8.9-10.3,14.7-22.5,16.2-35.3c1.3-11.5-0.8-23.6-7.5-35.2c-6.7-11.7-16.2-19.7-26.9-24.3
		C804.2,300.1,790.6,299.1,777.2,301.9z"/>
	<path class="st13" d="M305.1,453.3c9.1,2.8,14.2,12.4,11.4,21.5c-2.8,9.1-12.3,14.2-21.4,11.5c-7.8-2.4-15.1-5.6-21.7-9.4
		c-18-10.4-31.9-25.9-40.1-43.2c-8.5-18-10.8-37.9-5.2-56.7c1.6-5.2,3.7-10.2,6.5-15c2.7-4.8,6-9.1,9.7-13.1
		c13.3-14.3,31.7-22.2,51.4-23.8c19-1.5,39.3,2.9,57.3,13.3c6.6,3.9,13,8.6,19,14.2c6.9,6.5,7.3,17.4,0.8,24.4
		c-6.5,6.9-17.3,7.3-24.2,0.8c-3.9-3.7-8.2-6.8-12.7-9.4c-11.9-6.9-25.2-9.9-37.3-8.9c-11.5,0.9-21.9,5.3-29.2,13.1
		c-1.8,2-3.5,4.2-5,6.8c-1.5,2.6-2.6,5.2-3.4,7.7c-3.1,10.2-1.6,21.5,3.3,31.9c5.2,11.1,14.4,21.1,26.4,28
		C295.1,449.6,299.9,451.8,305.1,453.3z"/>
	<path class="st14" d="M277.8,387.2c16-27.8,6.4-63.5-21.2-79.5c-27.6-16-63.2-6.5-79.2,21.3c-16,27.8-6.4,63.5,21.2,79.5
		C226.3,424.5,261.8,414.9,277.8,387.2z"/>
	<path class="st12" d="M187.1,400.4c6.3,7.1,5.7,17.9-1.4,24.3c-7.1,6.3-17.9,5.7-24.1-1.4c-13.7-15.5-22.7-34.3-25.2-54.2
		c-2.3-18.8,1.1-38.5,11.8-57c10.6-18.4,25.6-31.1,42.8-38.5c18.2-7.9,38.7-9.6,58.7-5.7c9.3,1.8,15.4,10.9,13.6,20.2
		c-1.8,9.3-10.8,15.4-20.1,13.6c-13.3-2.6-26.8-1.5-38.5,3.6c-10.6,4.6-19.9,12.5-26.6,24.1c-6.7,11.7-8.9,24-7.5,35.6
		C172.1,377.8,178,390.2,187.1,400.4z"/>
	<path class="st10" d="M715.9,591.2c-9.1-2.8-14.2-12.4-11.4-21.5c2.8-9.1,12.3-14.2,21.4-11.5c7.8,2.4,15.1,5.6,21.7,9.4
		c18,10.4,31.9,25.9,40.1,43.2c8.5,18,10.8,37.9,5.2,56.7c-1.6,5.2-3.7,10.2-6.5,15c-2.7,4.8-6,9.1-9.7,13.1
		c-13.3,14.3-31.7,22.2-51.4,23.8c-19,1.5-39.3-2.9-57.3-13.3c-6.6-3.9-13-8.6-19-14.2c-6.9-6.5-7.3-17.4-0.8-24.4
		c6.5-6.9,17.3-7.3,24.2-0.8c3.9,3.7,8.2,6.8,12.7,9.4c11.9,6.9,25.2,9.9,37.3,8.9c11.5-0.9,21.9-5.3,29.2-13.1c1.8-2,3.5-4.2,5-6.8
		c1.5-2.6,2.6-5.2,3.4-7.7c3.1-10.2,1.6-21.5-3.3-31.9c-5.2-11.1-14.4-21.1-26.4-28C725.8,594.9,721,592.7,715.9,591.2z"/>
	<path class="st11" d="M743.1,657.3c-16,27.8-6.4,63.5,21.2,79.5c27.6,16,63.2,6.5,79.2-21.3c16-27.8,6.4-63.5-21.2-79.5
		C794.6,620,759.1,629.6,743.1,657.3z"/>
	<path class="st12" d="M833.8,644.1c-6.3-7.1-5.7-17.9,1.4-24.3c7.1-6.3,17.9-5.7,24.1,1.4c13.7,15.5,22.7,34.3,25.2,54.2
		c2.3,18.8-1.1,38.5-11.8,57c-10.6,18.4-25.6,31.1-42.8,38.5c-18.2,7.9-38.7,9.6-58.7,5.7c-9.3-1.8-15.4-10.9-13.6-20.2
		c1.8-9.3,10.8-15.4,20.1-13.6c13.3,2.6,26.8,1.5,38.5-3.6c10.6-4.6,19.9-12.5,26.6-24.1c6.7-11.7,8.9-24,7.5-35.6
		C848.9,666.7,842.9,654.3,833.8,644.1z"/>
	<path class="st15" d="M704.7,475.1c2.7,9.1,12.3,14.2,21.4,11.5c-1.8-11.5-4.6-22.8-8.1-33.7l-1.8,0.7
		C707,456.3,701.9,466,704.7,475.1z"/>
	<path class="st15" d="M433.9,316.9c2.1,9.3,11.4,15,20.6,12.9c9.2-2.2,15-11.4,12.8-20.7c-0.3-1.2-0.4-2.4-0.6-3.6
		c-11.4,2.3-22.4,5.5-33.1,9.6L433.9,316.9z"/>
	<path class="st15" d="M704.5,569.7c-2.8,9.1,2.4,18.7,11.4,21.5l1,0.4c3.7-10.8,6.5-22,8.5-33.4
		C716.6,555.6,707.2,560.7,704.5,569.7z"/>
	<path class="st15" d="M566.9,329.8c9.2,2.2,18.4-3.6,20.6-12.9l0.2-1.4c-10.7-4.1-21.7-7.4-33.1-9.8c-0.2,1.1-0.3,2.2-0.6,3.4
		C552,318.4,557.7,327.7,566.9,329.8z"/>
	<path class="st15" d="M348.6,377.8c6.9,6.5,17.8,6.1,24.2-0.8c6.5-6.9,6.1-17.8-0.8-24.4l-1.3-1.1c-8.9,7.4-17.1,15.5-24.7,24.1
		L348.6,377.8z"/>
	<path class="st15" d="M648.4,377.2c6.5,6.9,17.3,7.3,24.2,0.8l1.9-1.6c-7.6-8.7-15.8-16.8-24.6-24.2l-0.7,0.6
		C642.3,359.4,642,370.3,648.4,377.2z"/>
	<path class="st15" d="M672.9,667l-0.4-0.3c-6.9-6.5-17.8-6.1-24.2,0.8c-6.2,6.6-6.1,16.8-0.1,23.3
		C657.1,683.6,665.3,675.6,672.9,667z"/>
	<path class="st15" d="M566.7,714.7c-9.2,2.2-15,11.4-12.8,20.7l0.1,0.7c11.3-2.3,22.3-5.6,32.9-9.6
		C584.2,717.8,575.5,712.6,566.7,714.7z"/>
	<path class="st15" d="M467,735.4c2.1-9.3-3.6-18.5-12.8-20.7c-8.9-2.1-17.8,3.3-20.3,12c10.6,4,21.7,7.2,33,9.5L467,735.4z"/>
	<path class="st15" d="M372.2,691.2c6.5-6.5,6.8-17.1,0.5-24c-6.5-6.9-17.3-7.3-24.2-0.8l-1.1,0.9C355,676,363.3,683.9,372.2,691.2z
		"/>
	<path class="st15" d="M295.2,486.3c9.1,2.8,18.6-2.4,21.4-11.5c2.8-9.1-2.4-18.7-11.4-21.5c-1-0.3-1.9-0.7-2.9-1.1
		c-3.6,10.9-6.3,22.1-8.2,33.6L295.2,486.3z"/>
	<path class="st15" d="M316.4,569.4c-2.8-9.1-12.3-14.2-21.4-11.5l-0.6,0.2c2,11.5,4.8,22.7,8.5,33.5l2-0.7
		C314.1,588.1,319.2,578.5,316.4,569.4z"/>
</g>
</svg>
