<?xml version="1.0" encoding="utf-8"?>
<!-- Generator: Adobe Illustrator 19.0.1, SVG Export Plug-In . SVG Version: 6.00 Build 0)  -->
<svg version="1.1" id="Layer_1" xmlns="http://www.w3.org/2000/svg" xmlns:xlink="http://www.w3.org/1999/xlink" x="0px" y="0px"
	 viewBox="0 0 1024 1024" style="enable-background:new 0 0 1024 1024;" xml:space="preserve">
<style type="text/css">
	.st0{clip-path:url(#SVGID_2_);}
	.st1{fill:#3498DB;}
	.st2{fill:#2980B9;}
	.st3{fill:#2779B0;}
	.st4{fill:#3190D0;}
	.st5{fill:#2573A7;}
	.st6{fill:#2F89C5;}
	.st7{fill:#236D9E;}
	.st8{fill:#216796;}
	.st9{fill:#F2F2F2;}
	.st10{fill:#F5D56C;}
	.st11{fill:#F5E6B6;}
	.st12{clip-path:url(#SVGID_4_);fill:#FACC89;}
	.st13{clip-path:url(#SVGID_4_);fill:#E9DAAD;}
	.st14{clip-path:url(#SVGID_4_);fill:#EDC282;}
	.st15{clip-path:url(#SVGID_4_);fill:#C0C8D4;}
	.st16{clip-path:url(#SVGID_4_);fill:#C72828;}
	.st17{clip-path:url(#SVGID_4_);fill:#0E3A61;}
	.st18{clip-path:url(#SVGID_4_);fill:#195376;}
	.st19{clip-path:url(#SVGID_4_);fill:#ACB4BE;}
	.st20{clip-path:url(#SVGID_4_);fill:#B32424;}
	.st21{clip-path:url(#SVGID_4_);fill:#164B6A;}
	.st22{clip-path:url(#SVGID_4_);fill:#D9E0ED;}
	.st23{clip-path:url(#SVGID_4_);fill:#403122;}
	.st24{clip-path:url(#SVGID_4_);fill:#DDCFA4;}
	.st25{clip-path:url(#SVGID_4_);fill:#E1B87B;}
	.st26{clip-path:url(#SVGID_4_);fill:#B6BEC9;}
	.st27{clip-path:url(#SVGID_4_);fill:#BD2626;}
	.st28{clip-path:url(#SVGID_4_);fill:#0D375C;}
	.st29{clip-path:url(#SVGID_4_);fill:#184F70;}
	.st30{clip-path:url(#SVGID_4_);fill:#A3ABB4;}
	.st31{clip-path:url(#SVGID_4_);fill:#AA2222;}
	.st32{clip-path:url(#SVGID_4_);fill:#154765;}
	.st33{clip-path:url(#SVGID_4_);fill:#CED5E1;}
	.st34{clip-path:url(#SVGID_4_);fill:#3D2F20;}
</style>
<g>
	<defs>
		<path id="SVGID_1_" d="M1024,41.2v941.7c0,22.6-18.5,41.2-41.2,41.2H41.2C18.5,1024,0,1005.5,0,982.8V41.2C0,18.5,18.5,0,41.2,0
			h941.7C1005.5,0,1024,18.5,1024,41.2"/>
	</defs>
	<clipPath id="SVGID_2_">
		<use xlink:href="#SVGID_1_"  style="overflow:visible;"/>
	</clipPath>
	<g class="st0">
		<path class="st1" d="M1024,41.2v941.7c0,22.6-18.5,41.2-41.2,41.2H41.2C18.5,1024,0,1005.5,0,982.8V41.2C0,18.5,18.5,0,41.2,0
			h941.7C1005.5,0,1024,18.5,1024,41.2"/>
		<path class="st2" d="M1024,982.1V41.1c0-12.9-6.9-24.4-16.3-32L9.5,1008c7.5,9.4,18.7,16,31.6,16h940.4
			C1004.1,1024,1024,1004.7,1024,982.1"/>
		<path class="st3" d="M795.2,489.3h-79.6c0.2,3.8,0.3,7.6,0.3,11.4c0,46.9-15.2,90.3-41,125.5l72.2,72.1c7.2-3.6,14.7-5.2,22.1-5.2
			c15.6,0,30.8,7.1,42.5,18.8c0.3,0.3,0.6,0.6,0.9,0.9l0.1-0.1L1024,923.3V717.8L795.2,489.3 M662.9,357.1l-1.4,1.4
			c29.5,32.8,48.9,74.8,53.5,121.2l70.6-0.2L662.9,357.1"/>
		<path class="st3" d="M444.4,704.7l54.3,54.3l0.6-46C480.4,712.7,461.9,709.8,444.4,704.7 M580.7,698.6c-20,7.8-41.5,12.7-64,14
			l-0.8,58c14.5,2.4,26.4,9.4,34.6,19.2l4.6-4.7L793.6,1024h-29.9h-36.8h254.6c22.6,0,42.5-19.3,42.5-41.9l0,0
			c0,22.6-19.9,41.9-42.5,41.9h-76L580.7,698.6"/>
		<path class="st4" d="M228.9,339.6l-3.3,3.3l80.3,80.4c6.7-17.1,15.5-33.1,26.1-47.6L298.8,343c-10.9,7.8-22.6,11.5-33.9,11.5
			C251.8,354.6,239.2,349.5,228.9,339.6 M308.5,259.9l-1.1,1.1c18.2,19.2,21,46.1,4.4,69.5l31.6,30.9c10.3-11.9,21.9-22.6,34.6-31.9
			L308.5,259.9"/>
		<path class="st5" d="M656.6,648c-21.1,22-47,39.4-75.9,50.7L905.5,1024h76c22.6,0,42.5-19.3,42.5-41.9l0,0
			c0,22.6-19.9,41.9-42.5,41.9h-25.6L729.5,796.4l5.9-6c-0.4-0.3-0.7-0.7-1.1-1.1c-19.2-19.2-23.8-46.6-6.9-70.5L656.6,648
			 M674.9,626.1c-1.5,2-3,4-4.5,5.9l69.3,70.6c2.4-1.7,4.9-3.2,7.4-4.4L674.9,626.1"/>
		<path class="st6" d="M239.4,499.5h-27.9c-4.9,30.8-27.5,50.8-54.7,50.8c-16.2,0-30.7-5.4-40.9-14.9l-3.5,3.5l182.8,183.1
			l64.8-64.9c-28.2-25.9-49.4-59.4-60.4-97.2L239.4,499.5 M195.5,455.6l-1.1,1.1c8.7,7.4,14.8,18.1,17.1,32.6h17.6L195.5,455.6"/>
		<path class="st5" d="M360.1,657.2l-64.8,64.9L596.6,1024h130.3h-99.8L472.2,868.6l1-1c-11.9-10.2-19.5-25.4-19.5-42.3
			c0-20.8,9.4-38.9,26.7-48.5L367.2,663.4C364.8,661.4,362.4,659.3,360.1,657.2"/>
		<path class="st7" d="M367.2,663.4l113.1,113.4c5.3-2.9,11.4-5.1,18.2-6.2l0.2-11.6l-54.3-54.3
			C415.7,696.4,389.5,682.1,367.2,663.4"/>
		<path class="st5" d="M555.2,785.1l-4.6,4.7c7.7,9.2,12.2,20.9,12.6,33.7L763.6,1024h29.9L555.2,785.1"/>
		<path class="st7" d="M556.3,853c-9,16.7-26.2,28-46.8,28c-13.8,0-26.5-5.1-36.3-13.4l-1,1L627.1,1024h99.8L556.3,853"/>
		<path class="st8" d="M563.2,823.5c0,0.6,0,1.2,0,1.9c0,10.1-2.5,19.5-6.9,27.7l170.5,171h36.8L563.2,823.5"/>
		<polyline class="st9" points="1024,923.3 1024,975.1 1024,982.1 1024,982.1 1024,923.3 		"/>
		<path class="st5" d="M812.8,712.7l-0.1,0.1c16.6,17.3,20.6,41.8,10.9,61.9L1024,975.1v-51.8L812.8,712.7"/>
		<path class="st7" d="M823.6,774.7c-2.5,5.2-6,10.1-10.4,14.5c-10.9,10.9-25.2,16.4-39.6,16.4c-13.8,0-27.5-5.1-38.2-15.2l-5.9,6
			L955.9,1024h25.6c22.6,0,42.5-19.3,42.5-41.9v-7L823.6,774.7"/>
		<path class="st3" d="M925.9,453.1l-1,1c7.4,9.2,11.9,21,11.9,33.9c0,30.8-24.9,52.7-55.7,52.7c-12.3,0-23.6-4.2-32.8-11.6l-5,4.9
			L1024,709.4V547.7L925.9,453.1"/>
		<path class="st10" d="M715.9,500.7c0,117.3-95,212.4-212.3,212.4S291.3,618,291.3,500.7c0-117.3,95-212.4,212.3-212.4
			S715.9,383.3,715.9,500.7"/>
		<path class="st10" d="M502.2,511.7l-3.6,258.9c-28.9,4.9-44.9,27.5-44.9,54.7c0,30.8,25.1,55.7,55.8,55.7s53.7-24.9,53.7-55.7
			c0-27.2-18.4-49.8-47.3-54.7l3.6-259.8l208,208.1c-17,23.8-12.4,51.2,6.9,70.5c21.7,21.7,57.1,21.6,78.8-0.1
			c21.7-21.7,20.3-55.6-1.4-77.4c-19.2-19.2-48.2-26.2-72.1-9.2L530.4,489.3h296.1c4.9,30.9,27.5,51.4,54.7,51.4
			c30.7,0,55.7-21.9,55.7-52.7c0-30.8-24.9-54.5-55.7-54.5c-27.2,0-49.8,17.1-54.7,46l-293.1,0.9L502.2,511.7"/>
		<path class="st10" d="M461.6,476.6L311.8,330.4c17-23.8,13.7-51.5-5.6-70.7c-21.7-21.7-56.4-21.7-78.2,0
			c-21.7,21.7-21.7,57.3,0,79c19.2,19.2,46.9,21.2,70.7,4.3l148.3,146.2H211.5c-4.9-30.8-27.5-45-54.7-45
			c-30.7,0-55.7,25.1-55.7,55.9c0,30.8,24.9,50.2,55.7,50.2c27.2,0,49.8-20,54.7-50.8h237L461.6,476.6"/>
		<path class="st11" d="M678.5,500.7c0,96.6-78.3,175-174.9,175c-96.6,0-174.9-78.3-174.9-175c0-96.6,78.3-175,174.9-175
			C600.2,325.7,678.5,404,678.5,500.7"/>
		<g>
			<defs>
				<path id="SVGID_3_" d="M678.5,500.7c0,96.6-78.3,175-174.9,175c-96.6,0-174.9-78.3-174.9-175c0-96.6,78.3-175,174.9-175
					C600.2,325.7,678.5,404,678.5,500.7"/>
			</defs>
			<clipPath id="SVGID_4_">
				<use xlink:href="#SVGID_3_"  style="overflow:visible;"/>
			</clipPath>
			<path class="st12" d="M566.1,546.5c-12.1-1.5-21.7-11.5-23.2-24.2l-5.4-44.7h-66.6l-5.4,44.7c-1.5,12.7-11.1,22.6-23.2,24.2
				c-15.4,1.9,23.6,21.7,61.9,21.8C543.5,568.2,582,548.4,566.1,546.5"/>
			<path class="st13" d="M543.1,523L543.1,523C543.1,523,543.1,523,543.1,523C543.1,523,543.1,523,543.1,523L543.1,523 M466.7,512.4
				l-1.2,9.9l-0.1,0.7c0,0,0,0,0,0c0-0.2,0.1-0.5,0.1-0.7L466.7,512.4L466.7,512.4"/>
			<path class="st14" d="M466.7,512.4l-1.2,9.9c0,0.2-0.1,0.5-0.1,0.7c2.1,2,4.2,3.8,6.2,5.4c11.5,9.2,17.4,14.3,32.6,14.3V531
				c-15.3,0-21.1-5.1-32.6-14.3C470,515.4,468.4,514,466.7,512.4"/>
			<path class="st12" d="M575.6,399.4c-0.6-35.8-32.3-64.5-71.3-64.5h0c-39,0-70.8,28.7-71.4,64.5c-0.4,25.7-0.8,49.2-0.8,49.2
				c0,25.1,23,54.7,39.5,68c11.6,9.2,17.4,14.3,32.7,14.3c15.2,0,20.9-5,32.4-14.2c16.6-13.2,39.7-43,39.7-68.1
				C576.4,448.7,576,425.1,575.6,399.4"/>
			<path class="st15" d="M626.9,608.5c-4.6-32.7-29.5-58.1-60.8-62c-9.9-1.2-18.1-8.1-21.6-17.5l-40.3,28l-40.3-28
				c-3.5,9.4-11.7,16.3-21.6,17.5c-31.3,3.9-56.2,29.3-60.8,62l-9.7,68.9h264.8L626.9,608.5"/>
			<polyline class="st16" points="512.8,677.3 524.1,605.2 504.3,568.2 484.4,605.2 495.7,677.3 512.8,677.3 			"/>
			<polyline class="st16" points="504.3,594.2 484.4,575 504.3,556.7 524.1,575 504.3,594.2 			"/>
			<path class="st17" d="M518.5,677.4h118.2l-9.7-68.9c-4.6-32.7-29.5-58.1-60.8-62c-2-0.3-3.9-0.7-5.7-1.4L518.5,677.4"/>
			<path class="st17" d="M448.1,545c-1.8,0.7-3.7,1.2-5.7,1.4c-31.3,3.9-56.2,29.3-60.8,62l-9.7,68.9H490L448.1,545"/>
			<path class="st18" d="M448.1,545c-1.8,0.7-3.7,1.2-5.7,1.4c-9.2,1.1-17.8,4.2-25.5,8.6l25.5,46l-21,15.4l58.5,60.8H490L448.1,545
				"/>
			<path class="st18" d="M560.4,545c1.8,0.7,3.7,1.2,5.7,1.4c9.2,1.1,17.8,4.2,25.5,8.6l-25.5,46l21,15.4l-58.5,60.8h-10.2
				L560.4,545"/>
			<polyline class="st19" points="450.8,553.7 451.5,555.7 487.2,591.9 491.9,582.2 489.8,580.3 487.2,584.6 450.8,553.7 			"/>
			<polyline class="st20" points="504.2,556.9 489.8,580.3 491.9,582.2 504.2,556.9 504.2,556.9 			"/>
			<polyline class="st21" points="442.4,546.5 442.4,546.5 451.5,555.7 450.8,553.7 442.4,546.5 			"/>
			<polyline class="st22" points="521.3,584.6 504.3,556.9 544.6,528.9 566.1,546.5 521.3,584.6 			"/>
			<polyline class="st22" points="487.2,584.6 504.3,556.9 463.9,528.9 442.4,546.5 487.2,584.6 			"/>
			<path class="st23" d="M441.5,436.5c-2.3-5-2.3-11.4-2.2-14.3c0.9-14.5,7.3-27.6,17.4-37.5c5.9-5.8,15-7.8,23.1-5.1
				c6.5,2.2,15.1,3.5,24.4,3.5c9.4,0,17.9-1.3,24.5-3.5c8.1-2.7,17.2-0.7,23.1,5.1c9.8,9.6,16.1,22.1,17.3,36c0,0,0.7,9.2-2.3,15.8
				h14.2c-0.2-9.9-0.4-24.3-0.7-39.4c-0.6-38.2-34.6-68.9-76.2-68.9h0c-41.7,0-75.6,30.7-76.2,68.9c-0.2,15.1-0.5,29.4-0.7,39.3
				H441.5"/>
			<path class="st12" d="M444.3,443.1c3,13.3-0.6,25.2-8,26.6c-7.4,1.4-15.9-8.2-18.9-21.5c-3-13.3,0.6-25.2,8-26.6
				C432.8,420.3,441.3,429.9,444.3,443.1z"/>
			<path class="st12" d="M564.2,443.1c-3,13.3,0.6,25.2,8,26.6c7.4,1.4,15.9-8.2,18.9-21.5c3-13.3-0.6-25.2-8-26.6
				C575.7,420.3,567.2,429.9,564.2,443.1"/>
			<path class="st13" d="M626.9,608.1c0,0.1,0,0.2,0.1,0.4l2,14.2l0,0l-2-14.2C626.9,608.4,626.9,608.2,626.9,608.1 M626.8,607.7
				c0,0.1,0,0.2,0,0.3C626.9,608,626.8,607.8,626.8,607.7 M626.8,607.4c0,0.1,0,0.2,0.1,0.3C626.8,607.6,626.8,607.5,626.8,607.4
				 M622.3,591c2.1,5.2,3.6,10.6,4.5,16.4C625.9,601.6,624.4,596.1,622.3,591 M622.2,590.7c0,0.1,0.1,0.2,0.1,0.3
				C622.2,590.8,622.2,590.7,622.2,590.7 M622,590.3c0,0.1,0.1,0.2,0.1,0.2C622.1,590.5,622.1,590.4,622,590.3 M621.9,590
				c0,0.1,0.1,0.1,0.1,0.2C622,590.2,621.9,590.1,621.9,590 M621.8,589.7c0,0.1,0.1,0.1,0.1,0.2
				C621.8,589.8,621.8,589.8,621.8,589.7 M621.6,589.3C621.6,589.3,621.6,589.3,621.6,589.3C621.6,589.3,621.6,589.3,621.6,589.3
				 M621.5,589C621.5,589,621.5,589,621.5,589C621.5,589,621.5,589,621.5,589 M621.4,588.7C621.4,588.7,621.4,588.7,621.4,588.7
				C621.4,588.7,621.4,588.7,621.4,588.7 M566.5,546.5C566.5,546.5,566.5,546.5,566.5,546.5C566.5,546.5,566.5,546.5,566.5,546.5
				C566.5,546.5,566.5,546.5,566.5,546.5 M543.1,523C543.1,523,543.1,523,543.1,523c0.3,2.1,0.8,4.1,1.5,6l0,0l21.6,17.5l0,0l0,0
				c0.1,0,0.2,0,0.3,0c0,0,0,0,0,0c-0.1,0-0.2,0-0.4,0l-21.6-17.5h0C543.9,527,543.4,525,543.1,523 M541.8,512.4L541.8,512.4
				l1.2,9.9l0.1,0.7l-0.1-0.7L541.8,512.4 M504.3,328.2L504.3,328.2L504.3,328.2C504.2,328.2,504.3,328.2,504.3,328.2L504.3,328.2
				c41.6,0,75.5,30.7,76.2,68.9l0,0l0,0C579.8,358.9,545.9,328.2,504.3,328.2"/>
			<path class="st14" d="M543.1,523c-2.2,2.1-4.3,4-6.3,5.6c-11.5,9.2-17.1,14.2-32.4,14.2c0,0-0.1,0-0.1,0v14l0,0l0.1,0.1
				l40.2-27.9C543.9,527,543.4,525,543.1,523"/>
			<path class="st24" d="M541.8,512.4L541.8,512.4l1.2,9.9c0,0.2,0.1,0.5,0.1,0.7c0,0,0,0,0,0c0,0,0,0,0,0h0l-0.1-0.7L541.8,512.4"
				/>
			<path class="st25" d="M541.8,512.4c-1.7,1.6-3.4,3.1-5.1,4.4c-11.5,9.2-17.1,14.2-32.4,14.2c0,0-0.1,0-0.1,0v11.8
				c0,0,0.1,0,0.1,0c15.2,0,20.9-5,32.4-14.2c2-1.6,4.2-3.5,6.3-5.6c0-0.2-0.1-0.5-0.1-0.7L541.8,512.4"/>
			<path class="st14" d="M536.2,378.5c-2.5,0-4.9,0.4-7.3,1.2c-6.6,2.2-15.1,3.5-24.5,3.5c0,0-0.1,0-0.1,0V531c0,0,0.1,0,0.1,0
				c15.2,0,20.9-5,32.4-14.2c1.6-1.3,3.3-2.8,5.1-4.4l0,0l0,0l0,0c11.1-10.3,23.6-26.3,30.1-42.7c-7.2-1.7-10.6-13.5-7.7-26.5
				c0.9-4.1,2.4-7.9,4.2-11.1c1.3-5.6,0.8-11.3,0.8-11.3c-1.2-13.9-7.6-26.4-17.3-36C547.8,380.6,542,378.5,536.2,378.5"/>
			<path class="st26" d="M557,555.7l-35.7,36.2l-4.7-9.7l-3.2,3.1l10.7,19.9l-11,70.2c2.1-0.1,4.1-0.3,6.1-0.4L557,555.7"/>
			<path class="st27" d="M513.4,585.3l-9.2,8.9l0,0v81.4c3,0,5.9-0.1,8.9-0.3l11-70.2L513.4,585.3"/>
			<polyline class="st27" points="504.3,556.7 504.2,556.8 504.2,556.9 504.3,556.9 504.2,556.9 504.2,594.2 504.3,594.2 
				513.4,585.3 516.6,582.2 504.3,556.9 504.3,556.8 504.3,556.7 			"/>
			<path class="st28" d="M585.1,551.8c2.2,1,4.4,2.1,6.5,3.3l-25.5,46l21,15.4l-54.5,56.7c37.5-6.3,70.9-24.5,96.3-50.5l-2-14.2
				c0-0.1,0-0.2-0.1-0.4c0,0,0,0,0-0.1c0-0.1,0-0.2,0-0.3c0,0,0,0,0-0.1c0-0.1,0-0.2-0.1-0.3c0,0,0,0,0,0
				c-0.9-5.7-2.4-11.2-4.5-16.4c0,0,0,0,0-0.1c0-0.1-0.1-0.2-0.1-0.3c0,0,0-0.1,0-0.1c0-0.1-0.1-0.2-0.1-0.2c0,0,0-0.1,0-0.1
				c0-0.1-0.1-0.1-0.1-0.2c0,0,0-0.1,0-0.1c0-0.1-0.1-0.1-0.1-0.2c0-0.1-0.1-0.2-0.1-0.3c0,0,0,0,0-0.1c0-0.1-0.1-0.2-0.1-0.2
				c0,0,0,0,0-0.1c0-0.1-0.1-0.2-0.1-0.3c0,0,0,0,0,0C614.1,572.1,601.2,558.9,585.1,551.8 M585,551.7c0,0,0.1,0,0.1,0.1
				C585.1,551.7,585,551.7,585,551.7 M566.5,546.5C566.5,546.5,566.5,546.5,566.5,546.5C566.5,546.5,566.5,546.5,566.5,546.5
				C566.5,546.5,566.5,546.5,566.5,546.5C566.5,546.5,566.5,546.5,566.5,546.5"/>
			<path class="st29" d="M566.1,546.5l-9.1,9.3l-37.8,119.2c4.5-0.4,9-1,13.4-1.7l54.5-56.7l-21-15.4l25.5-46
				c-2.1-1.2-4.3-2.3-6.5-3.3c0,0,0,0,0,0c0,0-0.1,0-0.1-0.1c-1.8-0.8-3.5-1.5-5.4-2.1l-0.5-0.2l-2.5-0.8l-0.8-0.2l-2.3-0.6l-1-0.2
				l-2.3-0.5l-0.9-0.2c-0.9-0.2-1.9-0.3-2.8-0.4c0,0,0,0,0,0c0,0,0,0,0,0C566.4,546.5,566.3,546.5,566.1,546.5L566.1,546.5
				L566.1,546.5"/>
			<polyline class="st30" points="557.7,553.7 521.3,584.6 518.7,580.3 516.6,582.2 521.3,591.9 557,555.7 557.7,553.7 			"/>
			<polyline class="st31" points="504.3,556.9 504.3,556.9 516.6,582.2 518.7,580.3 504.3,556.9 			"/>
			<polyline class="st32" points="566.1,546.5 557.7,553.7 557,555.7 566.1,546.5 566.1,546.5 			"/>
			<path class="st13" d="M580.7,411.1c0.1,3.6,0.1,7.1,0.2,10.4c0,0,0,0,0,0C580.8,418.3,580.8,414.8,580.7,411.1"/>
			<polyline class="st31" points="504.3,556.9 504.2,556.9 504.2,556.9 504.3,556.9 			"/>
			<polyline class="st33" points="544.6,528.9 544.6,528.9 504.3,556.8 504.3,556.9 518.7,580.3 521.3,584.6 557.7,553.7 
				566.1,546.5 544.6,528.9 			"/>
			<polyline class="st33" points="504.2,556.9 504.2,556.9 504.3,556.9 504.2,556.9 			"/>
			<path class="st34" d="M504.3,328.2L504.3,328.2C504.3,328.2,504.2,328.2,504.3,328.2l-0.1,54.9c0,0,0.1,0,0.1,0
				c9.4,0,17.9-1.3,24.5-3.5c2.4-0.8,4.9-1.2,7.3-1.2c5.9,0,11.6,2.2,15.8,6.3c9.8,9.6,16.1,22.1,17.3,36c0,0,0.4,5.7-0.8,11.3
				c3.4-6,8-10,12.4-10.4c-0.1-3.3-0.1-6.8-0.2-10.4c-0.1-4.5-0.2-9.2-0.2-14l0,0C579.8,358.9,545.9,328.2,504.3,328.2"/>
			<path class="st14" d="M580.9,421.6C580.9,421.6,580.9,421.6,580.9,421.6c-4.5,0.4-9,4.4-12.4,10.4c-1.8,3.2-3.3,7-4.2,11.1
				c-3,13.1,0.5,24.8,7.7,26.5c0,0,0,0,0,0l0.3,0.1c0.5,0.1,1,0.1,1.5,0.1c7.1,0,14.6-9.2,17.4-21.6c0.7-3.2,1.1-6.2,1.1-9.1
				c0-9.2-3.4-16.4-9.1-17.5l0,0L580.9,421.6C580.9,421.6,580.9,421.6,580.9,421.6"/>
		</g>
	</g>
</g>
</svg>
