<?xml version="1.0" encoding="utf-8"?>
<!-- Generator: Adobe Illustrator 19.0.1, SVG Export Plug-In . SVG Version: 6.00 Build 0)  -->
<svg version="1.1" id="Layer_1" xmlns="http://www.w3.org/2000/svg" xmlns:xlink="http://www.w3.org/1999/xlink" x="0px" y="0px"
	 viewBox="0 0 1024 1024" style="enable-background:new 0 0 1024 1024;" xml:space="preserve">
<style type="text/css">
	.st0{clip-path:url(#SVGID_2_);}
	.st1{fill:#3498DB;}
	.st2{fill:#2980B9;}
	.st3{fill:#2F89C5;}
	.st4{fill:#2573A6;}
	.st5{clip-path:url(#SVGID_4_);fill:#FEF5E6;}
	.st6{clip-path:url(#SVGID_4_);fill:#EB5150;}
	.st7{clip-path:url(#SVGID_4_);fill:#D6CBB7;}
	.st8{clip-path:url(#SVGID_4_);fill:#EADECE;}
</style>
<g>
	<defs>
		<path id="SVGID_1_" d="M1024,41.2v941.7c0,22.6-18.5,41.2-41.2,41.2H41.2C18.5,1024,0,1005.5,0,982.8V41.2C0,18.5,18.5,0,41.2,0
			h941.7C1005.5,0,1024,18.5,1024,41.2"/>
	</defs>
	<clipPath id="SVGID_2_">
		<use xlink:href="#SVGID_1_"  style="overflow:visible;"/>
	</clipPath>
	<g class="st0">
		<path class="st1" d="M1024,41.2v941.7c0,22.6-18.5,41.2-41.2,41.2H41.2C18.5,1024,0,1005.5,0,982.8V41.2C0,18.5,18.5,0,41.2,0
			h941.7C1005.5,0,1024,18.5,1024,41.2"/>
		<path class="st2" d="M1024,982.1V41.1c0-12.9-1.9-24.4-11.4-32L7,1008c7.6,9.4,21.3,16,34.4,16h949.7
			C1013.9,1024,1024,1004.7,1024,982.1"/>
		<polyline class="st3" points="523.5,489.9 87.4,576.2 265.3,748.9 523.5,489.9 		"/>
		<path class="st4" d="M934.9,403.5l-408,86.4l-261.6,259L552.4,1024H991c22.9,0,33-19.3,33-41.9V491.3l-83.5-82.2"/>
		<g>
			<defs>
				<polyline id="SVGID_3_" points="20.2,562.5 457.2,181.9 1024,401.1 586.9,781.7 20.2,562.5 				"/>
			</defs>
			<clipPath id="SVGID_4_">
				<use xlink:href="#SVGID_3_"  style="overflow:visible;"/>
			</clipPath>
			<path class="st5" d="M526.4,509.6c-2.1-0.8-2.4-2.7-0.7-4.2l13.5-11.8c1.7-1.5,4.8-2.1,6.9-1.2l172.5,66.7
				c2.1,0.8,2.4,2.7,0.7,4.2l-13.5,11.8c-1.7,1.5-4.8,2.1-6.9,1.2L526.4,509.6 M561.8,478.8c-2.1-0.8-2.3-2.7-0.6-4.2l13.5-11.8
				c1.7-1.5,4.8-2.1,6.9-1.2l172.5,66.7c2.1,0.8,2.4,2.7,0.7,4.2l-13.5,11.8c-1.7,1.5-4.8,2.1-6.9,1.3L561.8,478.8 M597.7,447.5
				c-2.1-0.8-2.4-2.7-0.7-4.2l13.6-11.8c1.7-1.5,4.8-2.1,6.9-1.2L790,497c2.1,0.8,2.4,2.7,0.7,4.2L777.1,513
				c-1.7,1.5-4.8,2.1-6.9,1.2L597.7,447.5 M633.6,416.3c-2.1-0.8-2.4-2.7-0.7-4.2l13.6-11.8c1.7-1.4,4.8-2.1,6.9-1.2l172.5,66.7
				c2.1,0.8,2.3,2.7,0.7,4.2L813,481.8c-1.7,1.5-4.8,2.1-6.9,1.2L633.6,416.3 M238.4,398.2c-2.1-0.8-2.4-2.7-0.7-4.2l156.6-136.3
				c1.7-1.5,4.8-2.1,6.9-1.3l263.8,102c2.1,0.8,2.3,2.7,0.6,4.2L509,498.9c-1.7,1.5-4.8,2.1-6.9,1.2L238.4,398.2 M669.5,385
				c-2.1-0.8-2.4-2.7-0.7-4.2l13.5-11.8c1.7-1.5,4.8-2.1,6.9-1.3l172.5,66.7c2.1,0.8,2.3,2.7,0.6,4.2l-13.5,11.8
				c-1.7,1.5-4.8,2.1-6.9,1.2L669.5,385 M416.8,242.8c-2.1-0.8-2.3-2.7-0.6-4.2l38.4-33.5c1.7-1.5,4.8-2.1,6.9-1.2L922.1,382
				c2.1,0.8,2.4,2.7,0.7,4.2l-38.4,33.5c-1.7,1.5-4.8,2.1-6.9,1.3L416.8,242.8 M955,374.4L460.9,183.3c-2-0.8-5.1-0.2-6.8,1.3
				L52,534.8l7.8-6.8l155-135c1.7-1.5,4.7-2.2,6.5-1.5l0.3,0.1l496.9,192.2l236.2-205.7l1,0.4C957.4,377.1,957,375.2,955,374.4"/>
			<path class="st5" d="M214.8,393l-155,135l-7.8,6.8l-6.8,5.9c-13.7,12-13,26.4,1.7,32.1l513.3,198.5c14.8,5.7,38,0.6,51.8-11.4
				l6.8-5.9c-1.7,1.5-4.8,2.1-6.9,1.2l-3.4-1.3c-13.8,11.6-37.3,16.3-52.5,10.4l-1.9-0.7c-9.8-3.8-13.9-11.1-12.1-19
				c0.6-4.7,3.1-8.6,7.8-13.4l-16.1-6.2l-6.8,5.9c-1.7,1.5-4.8,2.1-6.9,1.3L59.4,554.1c-2.1-0.8-2.3-2.7-0.6-4.2l6.8-5.9l-13-5
				c-2-0.8-2.3-2.6-0.6-4.1L214.8,393 M221.6,391.7l-0.3-0.1c-1.8-0.7-4.8,0-6.5,1.5C216.5,391.5,219.6,390.9,221.6,391.7
				 M781.4,608.2L781,608c2.1,0.8,2.3,2.7,0.6,4.2C783.3,610.7,783.2,608.9,781.4,608.2"/>
			<path class="st5" d="M95.3,522.8c-2.1-0.8-2.3-2.7-0.6-4.2l13.5-11.8c1.7-1.5,4.8-2.1,6.9-1.2l460.6,178.1
				c2.1,0.8,2.4,2.7,0.7,4.2l-13.5,11.8c-1.7,1.5-4.8,2.1-6.9,1.3L95.3,522.8 M131.2,491.5c-2.1-0.8-2.3-2.7-0.6-4.2l13.5-11.8
				c1.7-1.5,4.8-2.1,6.9-1.2l460.6,178.1c2.1,0.8,2.4,2.7,0.7,4.2l-13.5,11.8c-1.7,1.5-4.8,2.1-6.9,1.3L131.2,491.5 M167.1,460.3
				c-2.1-0.8-2.3-2.7-0.6-4.2l13.5-11.8c1.7-1.5,4.8-2.1,6.9-1.2l460.6,178.1c2.1,0.8,2.4,2.7,0.7,4.2l-13.5,11.8
				c-1.7,1.5-4.8,2.1-6.9,1.3L167.1,460.3 M203,429c-2.1-0.8-2.4-2.7-0.7-4.2l13.6-11.8c1.7-1.5,4.8-2.1,6.9-1.2l460.6,178.1
				c2.1,0.8,2.4,2.7,0.7,4.2l-13.6,11.8c-1.7,1.5-4.8,2.1-6.9,1.2L203,429 M718.5,583.9L221.6,391.7c-2-0.8-5.1-0.2-6.8,1.3
				L52,534.8c-1.7,1.5-1.4,3.3,0.6,4.1l13,5l6.8-5.9c1.7-1.5,4.8-2.1,6.9-1.2L539.7,715c2.1,0.8,2.4,2.7,0.7,4.2l-6.8,5.9l16.1,6.2
				c3.1-3.1,7.1-6.6,12.1-11L718.5,583.9 M781,608l-3.4-1.3L609,753.5l-0.6,0.5l3.4,1.3c2.1,0.8,5.1,0.2,6.9-1.2l162.8-141.8
				C783.3,610.7,783.1,608.8,781,608"/>
			<path class="st6" d="M922.1,382L461.5,203.9c-2.1-0.8-5.1-0.2-6.9,1.2l-38.4,33.5c-1.7,1.5-1.5,3.4,0.6,4.2L877.4,421
				c2.1,0.8,5.2,0.2,6.9-1.3l38.4-33.5C924.4,384.7,924.1,382.8,922.1,382"/>
			<path class="st7" d="M665,358.4l-263.8-102c-2.1-0.8-5.2-0.2-6.9,1.3L237.7,394c-1.7,1.5-1.4,3.3,0.7,4.2l263.8,102
				c2.1,0.8,5.1,0.2,6.9-1.2l156.6-136.3C667.3,361.1,667.1,359.2,665,358.4"/>
			<path class="st7" d="M861.8,434.5l-172.5-66.7c-2.1-0.8-5.2-0.2-6.9,1.3l-13.5,11.8c-1.7,1.5-1.4,3.3,0.7,4.2L842,451.7
				c2.1,0.8,5.1,0.2,6.9-1.2l13.5-11.8C864.1,437.2,863.9,435.3,861.8,434.5"/>
			<path class="st7" d="M825.9,465.8l-172.5-66.7c-2.1-0.8-5.2-0.2-6.9,1.2l-13.6,11.8c-1.7,1.5-1.4,3.3,0.7,4.2L806.1,483
				c2.1,0.8,5.1,0.2,6.9-1.2l13.6-11.8C828.2,468.5,828,466.6,825.9,465.8"/>
			<path class="st7" d="M790,497l-172.5-66.7c-2.1-0.8-5.1-0.2-6.9,1.2L597,443.4c-1.7,1.5-1.4,3.3,0.7,4.2l172.5,66.7
				c2.1,0.8,5.1,0.2,6.9-1.2l13.6-11.8C792.4,499.7,792.1,497.9,790,497"/>
			<path class="st7" d="M754.1,528.3l-172.5-66.7c-2.1-0.8-5.1-0.2-6.9,1.2l-13.5,11.8c-1.7,1.5-1.5,3.4,0.6,4.2l172.5,66.7
				c2.1,0.8,5.2,0.2,6.9-1.3l13.5-11.8C756.5,531,756.2,529.1,754.1,528.3"/>
			<path class="st7" d="M718.7,559.1l-172.5-66.7c-2.1-0.8-5.1-0.2-6.9,1.2l-13.5,11.8c-1.7,1.5-1.4,3.3,0.7,4.2L699,576.3
				c2.1,0.8,5.1,0.2,6.9-1.2l13.5-11.8C721.1,561.8,720.8,559.9,718.7,559.1"/>
			<path class="st7" d="M683.3,589.9L222.8,411.8c-2.1-0.8-5.1-0.2-6.9,1.2l-13.6,11.8c-1.7,1.5-1.4,3.3,0.7,4.2l460.6,178.1
				c2.1,0.8,5.1,0.2,6.9-1.2l13.6-11.8C685.7,592.6,685.4,590.7,683.3,589.9"/>
			<path class="st7" d="M647.4,621.2L186.9,443c-2.1-0.8-5.1-0.2-6.9,1.2l-13.5,11.8c-1.7,1.5-1.5,3.4,0.6,4.2l460.6,178.1
				c2.1,0.8,5.2,0.2,6.9-1.3l13.5-11.8C649.8,623.8,649.5,622,647.4,621.2"/>
			<path class="st7" d="M611.5,652.4L151,474.3c-2.1-0.8-5.1-0.2-6.9,1.2l-13.5,11.8c-1.7,1.5-1.5,3.4,0.6,4.2l460.6,178.1
				c2.1,0.8,5.2,0.2,6.9-1.3l13.5-11.8C613.9,655.1,613.6,653.2,611.5,652.4"/>
			<path class="st7" d="M539.7,715L79.2,536.8c-2.1-0.8-5.1-0.2-6.9,1.2l-6.8,5.9l-6.8,5.9c-1.7,1.5-1.5,3.4,0.6,4.2L520,732.2
				c2.1,0.8,5.2,0.2,6.9-1.3l6.8-5.9l6.8-5.9C542.1,717.6,541.8,715.8,539.7,715"/>
			<path class="st7" d="M575.6,683.7L115.1,505.6c-2.1-0.8-5.1-0.2-6.9,1.2l-13.5,11.8c-1.7,1.5-1.5,3.4,0.6,4.2l460.6,178.1
				c2.1,0.8,5.2,0.2,6.9-1.3l13.5-11.8C578,686.4,577.7,684.5,575.6,683.7"/>
			<path class="st7" d="M779.1,605.4l-52.4-20.3l-184.9,161l0.1-1.5c-1.8,7.9,2.3,15.2,12.1,19l1.9,0.7c15.2,5.9,38.7,1.2,52.5-10.4
				l0.6-0.5l168.5-146.8L779.1,605.4"/>
			<path class="st8" d="M956.8,379l-1.2-0.5l-1-0.4L718.5,583.9L561.9,720.2c-5,4.4-9.1,7.9-12.1,11c-4.7,4.8-7.3,8.6-7.8,13.4
				l-0.1,1.5l184.9-161l231.4-201.5C959.9,382,959.3,380,956.8,379"/>
		</g>
	</g>
</g>
</svg>
