<svg id="Layer_1" xmlns="http://www.w3.org/2000/svg" xmlns:xlink="http://www.w3.org/1999/xlink" viewBox="0 0 1024 1024"><style>.st0{clip-path:url(#SVGID_2_)}.st1{fill:#3498db}.st2{fill:#2980b9}.st3{fill:#2f89c5}.st4{fill:#2573a6}.st5{fill:#fef5e6}.st5,.st6,.st7,.st8{clip-path:url(#SVGID_4_)}.st6{fill:#eb5150}.st7{fill:#d6cbb7}.st8{fill:#eadece}</style><defs><path id="SVGID_1_" d="M1024 41.2v941.7c0 22.6-18.5 41.2-41.2 41.2H41.2C18.5 1024 0 1005.5 0 982.8V41.2C0 18.5 18.5 0 41.2 0h941.7c22.6 0 41.1 18.5 41.1 41.2"/></defs><clipPath id="SVGID_2_"><use xlink:href="#SVGID_1_" overflow="visible"/></clipPath><g class="st0"><path class="st1" d="M1024 41.2v941.7c0 22.6-18.5 41.2-41.2 41.2H41.2C18.5 1024 0 1005.5 0 982.8V41.2C0 18.5 18.5 0 41.2 0h941.7c22.6 0 41.1 18.5 41.1 41.2"/><path class="st2" d="M1024 982.1v-941c0-12.9-1.9-24.4-11.4-32L7 1008c7.6 9.4 21.3 16 34.4 16h949.7c22.8 0 32.9-19.3 32.9-41.9"/><path class="st3" d="M523.5 489.9L87.4 576.2l177.9 172.7 258.2-259"/><path class="st4" d="M934.9 403.5l-408 86.4-261.6 259L552.4 1024H991c22.9 0 33-19.3 33-41.9V491.3l-83.5-82.2"/><defs><path id="SVGID_3_" d="M20.2 562.5l437-380.6L1024 401.1 586.9 781.7 20.2 562.5"/></defs><clipPath id="SVGID_4_"><use xlink:href="#SVGID_3_" overflow="visible"/></clipPath><path class="st5" d="M526.4 509.6c-2.1-.8-2.4-2.7-.7-4.2l13.5-11.8c1.7-1.5 4.8-2.1 6.9-1.2l172.5 66.7c2.1.8 2.4 2.7.7 4.2l-13.5 11.8c-1.7 1.5-4.8 2.1-6.9 1.2l-172.5-66.7m35.4-30.8c-2.1-.8-2.3-2.7-.6-4.2l13.5-11.8c1.7-1.5 4.8-2.1 6.9-1.2l172.5 66.7c2.1.8 2.4 2.7.7 4.2l-13.5 11.8c-1.7 1.5-4.8 2.1-6.9 1.3l-172.6-66.8m35.9-31.3c-2.1-.8-2.4-2.7-.7-4.2l13.6-11.8c1.7-1.5 4.8-2.1 6.9-1.2L790 497c2.1.8 2.4 2.7.7 4.2L777.1 513c-1.7 1.5-4.8 2.1-6.9 1.2l-172.5-66.7m35.9-31.2c-2.1-.8-2.4-2.7-.7-4.2l13.6-11.8c1.7-1.4 4.8-2.1 6.9-1.2l172.5 66.7c2.1.8 2.3 2.7.7 4.2L813 481.8c-1.7 1.5-4.8 2.1-6.9 1.2l-172.5-66.7m-395.2-18.1c-2.1-.8-2.4-2.7-.7-4.2l156.6-136.3c1.7-1.5 4.8-2.1 6.9-1.3l263.8 102c2.1.8 2.3 2.7.6 4.2L509 498.9c-1.7 1.5-4.8 2.1-6.9 1.2L238.4 398.2M669.5 385c-2.1-.8-2.4-2.7-.7-4.2l13.5-11.8c1.7-1.5 4.8-2.1 6.9-1.3l172.5 66.7c2.1.8 2.3 2.7.6 4.2l-13.5 11.8c-1.7 1.5-4.8 2.1-6.9 1.2L669.5 385M416.8 242.8c-2.1-.8-2.3-2.7-.6-4.2l38.4-33.5c1.7-1.5 4.8-2.1 6.9-1.2L922.1 382c2.1.8 2.4 2.7.7 4.2l-38.4 33.5c-1.7 1.5-4.8 2.1-6.9 1.3L416.8 242.8M955 374.4L460.9 183.3c-2-.8-5.1-.2-6.8 1.3L52 534.8l7.8-6.8 155-135c1.7-1.5 4.7-2.2 6.5-1.5l.3.1 496.9 192.2 236.2-205.7 1 .4c1.7-1.4 1.3-3.3-.7-4.1"/><path class="st5" d="M214.8 393l-155 135-7.8 6.8-6.8 5.9c-13.7 12-13 26.4 1.7 32.1l513.3 198.5c14.8 5.7 38 .6 51.8-11.4l6.8-5.9c-1.7 1.5-4.8 2.1-6.9 1.2l-3.4-1.3c-13.8 11.6-37.3 16.3-52.5 10.4l-1.9-.7c-9.8-3.8-13.9-11.1-12.1-19 .6-4.7 3.1-8.6 7.8-13.4l-16.1-6.2-6.8 5.9c-1.7 1.5-4.8 2.1-6.9 1.3L59.4 554.1c-2.1-.8-2.3-2.7-.6-4.2l6.8-5.9-13-5c-2-.8-2.3-2.6-.6-4.1L214.8 393m6.8-1.3l-.3-.1c-1.8-.7-4.8 0-6.5 1.5 1.7-1.6 4.8-2.2 6.8-1.4m559.8 216.5l-.4-.2c2.1.8 2.3 2.7.6 4.2 1.7-1.5 1.6-3.3-.2-4"/><path class="st5" d="M95.3 522.8c-2.1-.8-2.3-2.7-.6-4.2l13.5-11.8c1.7-1.5 4.8-2.1 6.9-1.2l460.6 178.1c2.1.8 2.4 2.7.7 4.2l-13.5 11.8c-1.7 1.5-4.8 2.1-6.9 1.3L95.3 522.8m35.9-31.3c-2.1-.8-2.3-2.7-.6-4.2l13.5-11.8c1.7-1.5 4.8-2.1 6.9-1.2l460.6 178.1c2.1.8 2.4 2.7.7 4.2l-13.5 11.8c-1.7 1.5-4.8 2.1-6.9 1.3L131.2 491.5m35.9-31.2c-2.1-.8-2.3-2.7-.6-4.2l13.5-11.8c1.7-1.5 4.8-2.1 6.9-1.2l460.6 178.1c2.1.8 2.4 2.7.7 4.2l-13.5 11.8c-1.7 1.5-4.8 2.1-6.9 1.3L167.1 460.3M203 429c-2.1-.8-2.4-2.7-.7-4.2l13.6-11.8c1.7-1.5 4.8-2.1 6.9-1.2l460.6 178.1c2.1.8 2.4 2.7.7 4.2l-13.6 11.8c-1.7 1.5-4.8 2.1-6.9 1.2L203 429m515.5 154.9L221.6 391.7c-2-.8-5.1-.2-6.8 1.3L52 534.8c-1.7 1.5-1.4 3.3.6 4.1l13 5 6.8-5.9c1.7-1.5 4.8-2.1 6.9-1.2L539.7 715c2.1.8 2.4 2.7.7 4.2l-6.8 5.9 16.1 6.2c3.1-3.1 7.1-6.6 12.1-11l156.7-136.4M781 608l-3.4-1.3L609 753.5l-.6.5 3.4 1.3c2.1.8 5.1.2 6.9-1.2l162.8-141.8c1.8-1.6 1.6-3.5-.5-4.3"/><path class="st6" d="M922.1 382L461.5 203.9c-2.1-.8-5.1-.2-6.9 1.2l-38.4 33.5c-1.7 1.5-1.5 3.4.6 4.2L877.4 421c2.1.8 5.2.2 6.9-1.3l38.4-33.5c1.7-1.5 1.4-3.4-.6-4.2"/><path class="st7" d="M665 358.4l-263.8-102c-2.1-.8-5.2-.2-6.9 1.3L237.7 394c-1.7 1.5-1.4 3.3.7 4.2l263.8 102c2.1.8 5.1.2 6.9-1.2l156.6-136.3c1.6-1.6 1.4-3.5-.7-4.3m196.8 76.1l-172.5-66.7c-2.1-.8-5.2-.2-6.9 1.3l-13.5 11.8c-1.7 1.5-1.4 3.3.7 4.2L842 451.7c2.1.8 5.1.2 6.9-1.2l13.5-11.8c1.7-1.5 1.5-3.4-.6-4.2m-35.9 31.3l-172.5-66.7c-2.1-.8-5.2-.2-6.9 1.2l-13.6 11.8c-1.7 1.5-1.4 3.3.7 4.2L806.1 483c2.1.8 5.1.2 6.9-1.2l13.6-11.8c1.6-1.5 1.4-3.4-.7-4.2M790 497l-172.5-66.7c-2.1-.8-5.1-.2-6.9 1.2L597 443.4c-1.7 1.5-1.4 3.3.7 4.2l172.5 66.7c2.1.8 5.1.2 6.9-1.2l13.6-11.8c1.7-1.6 1.4-3.4-.7-4.3m-35.9 31.3l-172.5-66.7c-2.1-.8-5.1-.2-6.9 1.2l-13.5 11.8c-1.7 1.5-1.5 3.4.6 4.2l172.5 66.7c2.1.8 5.2.2 6.9-1.3l13.5-11.8c1.8-1.4 1.5-3.3-.6-4.1m-35.4 30.8l-172.5-66.7c-2.1-.8-5.1-.2-6.9 1.2l-13.5 11.8c-1.7 1.5-1.4 3.3.7 4.2L699 576.3c2.1.8 5.1.2 6.9-1.2l13.5-11.8c1.7-1.5 1.4-3.4-.7-4.2m-35.4 30.8L222.8 411.8c-2.1-.8-5.1-.2-6.9 1.2l-13.6 11.8c-1.7 1.5-1.4 3.3.7 4.2l460.6 178.1c2.1.8 5.1.2 6.9-1.2l13.6-11.8c1.6-1.5 1.3-3.4-.8-4.2m-35.9 31.3L186.9 443c-2.1-.8-5.1-.2-6.9 1.2L166.5 456c-1.7 1.5-1.5 3.4.6 4.2l460.6 178.1c2.1.8 5.2.2 6.9-1.3l13.5-11.8c1.7-1.4 1.4-3.2-.7-4m-35.9 31.2L151 474.3c-2.1-.8-5.1-.2-6.9 1.2l-13.5 11.8c-1.7 1.5-1.5 3.4.6 4.2l460.6 178.1c2.1.8 5.2.2 6.9-1.3l13.5-11.8c1.7-1.4 1.4-3.3-.7-4.1M539.7 715L79.2 536.8c-2.1-.8-5.1-.2-6.9 1.2l-6.8 5.9-6.8 5.9c-1.7 1.5-1.5 3.4.6 4.2L520 732.2c2.1.8 5.2.2 6.9-1.3l6.8-5.9 6.8-5.9c1.6-1.5 1.3-3.3-.8-4.1m35.9-31.3L115.1 505.6c-2.1-.8-5.1-.2-6.9 1.2l-13.5 11.8c-1.7 1.5-1.5 3.4.6 4.2l460.6 178.1c2.1.8 5.2.2 6.9-1.3l13.5-11.8c1.7-1.4 1.4-3.3-.7-4.1m203.5-78.3l-52.4-20.3-184.9 161 .1-1.5c-1.8 7.9 2.3 15.2 12.1 19l1.9.7c15.2 5.9 38.7 1.2 52.5-10.4l.6-.5 168.5-146.8 1.6-1.2"/><path class="st8" d="M956.8 379l-1.2-.5-1-.4-236.1 205.8-156.6 136.3c-5 4.4-9.1 7.9-12.1 11-4.7 4.8-7.3 8.6-7.8 13.4l-.1 1.5 184.9-161 231.4-201.5c1.7-1.6 1.1-3.6-1.4-4.6"/></g></svg>