<svg id="Layer_1" xmlns="http://www.w3.org/2000/svg" xmlns:xlink="http://www.w3.org/1999/xlink" viewBox="0 0 1024 1024"><style>.st0{fill:#3498db}.st1{fill:#2980b9}.st2{fill:#2f89c5}.st3{fill:#2573a7}.st4{fill:#2779b0}.st5{fill:#236d9e}.st6{fill:#f8bf00}.st7{fill:#f5d56c}.st8{fill:#f5e6b6}.st10,.st11,.st12,.st9{clip-path:url(#SVGID_2_)}.st9{fill:#f4b092}.st10{fill:#ffc8b0}.st11{fill:#642c06}.st12{fill:#ea500c}.st13{fill:#ff6615}.st13,.st14,.st15,.st16,.st17{clip-path:url(#SVGID_2_)}.st14{fill:#f2f2f2}.st15{fill:#90c948}.st16{fill:#e9daad}.st17{fill:#e8a78b}.st18{fill:#f2bea7}.st18,.st19,.st20,.st21,.st22{clip-path:url(#SVGID_2_)}.st19{fill:#de4c0b}.st20{fill:#f26114}.st21{fill:#e6e6e6}.st22{fill:#89bf44}.st23{fill:#fac378}.st23,.st24,.st25,.st26,.st27{clip-path:url(#SVGID_4_)}.st24{fill:#c0c8d4}.st25{fill:#646b6b}.st26{fill:#5a6060}.st27{fill:#acb4be}.st28{fill:#d9e0ed}.st28,.st29,.st30,.st31,.st32{clip-path:url(#SVGID_4_)}.st29{fill:#433e3e}.st30{fill:#edb972}.st31{fill:#e9daad}.st32{fill:#a65417}.st33{fill:#b6bec9}.st33,.st34,.st35,.st36,.st37{clip-path:url(#SVGID_4_)}.st34{fill:#5f6666}.st35{fill:#d1c49b}.st36{fill:#a3abb4}.st37{fill:#555b5b}.st38{fill:#ced5e1}.st38,.st39,.st40,.st41,.st42{clip-path:url(#SVGID_4_)}.st39{fill:#403b3b}.st40{fill:#ddcfa4}.st41{fill:#e1b06c}.st42{fill:#9e5016}.st43{fill:#facc89}.st43,.st44,.st45,.st46,.st47{clip-path:url(#SVGID_6_)}.st44{fill:#e9daad}.st45{fill:#edc282}.st46{fill:#69451d}.st47{fill:#c0c8d4}.st48{fill:#646b6b}.st48,.st49,.st50,.st51,.st52{clip-path:url(#SVGID_6_)}.st49{fill:#dccfa3}.st50{fill:#acb4be}.st51{fill:#5a6060}.st52{fill:#d9e0ed}.st53{fill:#433e3e}.st53,.st54,.st55,.st56,.st57{clip-path:url(#SVGID_6_)}.st54{fill:#ddcfa4}.st55{fill:#e1b87b}.st56{fill:#64411c}.st57{fill:#5f6666}.st58{fill:#b6bec9}.st58,.st59,.st60,.st61,.st62{clip-path:url(#SVGID_6_)}.st59{fill:#a3abb4}.st60{fill:#555b5b}.st61{fill:#ced5e1}.st62{fill:#403b3b}</style><path class="st0" d="M1021.3 41.1V982c0 22.6-18.5 41.1-41.1 41.1H41.1C18.5 1023.1 0 1004.6 0 982V41.1C0 18.5 18.5 0 41.1 0h939.2c22.6 0 41 18.5 41 41.1"/><path class="st1" d="M1024 982.1v-941c0-12.9-7.5-24.4-16.9-32L9.8 1008c7.5 9.4 18.3 16 31.2 16h939.2c22.7 0 43.8-19.3 43.8-41.9"/><path class="st2" d="M451.9 364.6c-24.9 38.3-68.1 63.7-117.2 63.7-30.9 0-59.5-10.1-82.7-27.1l63 63.3c15.1-3.3 30.9-5.1 47-5.1 54.5 0 104.3 20 142.4 53.2l54.9-55c-2.3-11.2-3.5-22.8-3.5-34.7 0-8 .5-15.8 1.6-23.5l-105.5-34.8m-24.1-182.3l-.9.9c29.1 25.7 47.5 63.3 47.5 105.1 0 6.1-.4 12.1-1.1 18l103.5 34c1.1-2 2.2-3.9 3.3-5.9L427.8 182.3"/><path class="st3" d="M599.2 540.6l-35.8 23.8 446.5 446.4c-7.5 7.9-18 13.2-29.6 13.2H872.7h107.6c22.6 0 43.7-19.3 43.7-41.9v-19.3L599.2 540.6m-39.8-83.1l-54.9 55c3.6 3.1 7.1 6.3 10.4 9.7l53.1-35.4c-3.6-9.4-6.5-19.2-8.6-29.3"/><path class="st4" d="M574.6 724.9C553 822.5 466 895.5 362.1 895.5c-51.3 0-98.5-17.8-135.7-47.6l175 176.1h471.3L574.6 724.9"/><path class="st5" d="M563.4 564.4l-10.9 7.3c17.4 31.3 27.3 67.4 27.3 105.7 0 16.3-1.8 32.2-5.2 47.5L872.7 1024h107.6c11.6 0 22.1-5.4 29.6-13.2L563.4 564.4"/><path class="st4" d="M837.9 285.6l-1.5 1.5c39.8 31.7 65.3 80.7 65.3 135.6 0 63.3-33.9 118.6-84.4 148.8L1024 778.2V473.4L837.9 285.6"/><path class="st5" d="M601 539.4l-1.8 1.2L1024 962.7V778.2L817.3 571.6c-25.9 15.5-56.1 24.4-88.5 24.4-50.6 0-96.2-21.8-127.8-56.6"/><path class="st6" d="M636.6 425.3l-284.4-93.5 19.3-58.9 284.4 93.5-19.3 58.9M414.9 588.8l249.3-166 34.2 51.6-249.2 166.1-34.3-51.7"/><path class="st7" d="M728.8 249.6c-95.5 0-172.9 77.5-172.9 173.2 0 95.7 77.4 173.2 172.9 173.2s172.9-77.5 172.9-173.2c0-95.7-77.4-173.2-172.9-173.2"/><path class="st8" d="M728.8 554.6c-72.7 0-131.6-59-131.6-131.8 0-72.8 58.9-131.8 131.6-131.8s131.6 59 131.6 131.8c0 72.8-58.9 131.8-131.6 131.8"/><path class="st7" d="M334.7 148.3c-77.2 0-139.7 62.7-139.7 140s62.6 140 139.7 140c77.2 0 139.7-62.7 139.7-140s-62.6-140-139.7-140"/><path class="st8" d="M334.7 394.9c-58.7 0-106.4-47.7-106.4-106.6 0-58.8 47.6-106.6 106.4-106.6 58.7 0 106.4 47.7 106.4 106.6-.1 58.9-47.7 106.6-106.4 106.6"/><path class="st7" d="M362.1 459.3c-120.2 0-217.7 97.6-217.7 218.1s97.5 218.1 217.7 218.1 217.7-97.6 217.7-218.1-97.5-218.1-217.7-218.1"/><path class="st8" d="M362.1 843.4c-91.5 0-165.7-74.3-165.7-166s74.2-166 165.7-166 165.7 74.3 165.7 166-74.2 166-165.7 166"/><defs><path id="SVGID_1_" d="M728.8 554.6c-72.7 0-131.6-59-131.6-131.8 0-72.8 58.9-131.8 131.6-131.8s131.6 59 131.6 131.8c0 72.8-58.9 131.8-131.6 131.8"/></defs><clipPath id="SVGID_2_"><use xlink:href="#SVGID_1_" overflow="visible"/></clipPath><path class="st9" d="M780.8 417.5s14.6 2.1 16.6-18.6c2-20.8-12.2-19.6-16.4-15.8l-.2 34.4m-103.3-.2s-14.2 3.7-18.6-16.7c-4.3-20.4 9.9-20.8 14.6-17.5l4 34.2zm75.7 23.7h-51.8c4.2 13.2 5.7 41.4-4.6 49.9 0 0 3 23.7 30.5 30.8 27.5-7.1 30.5-30.8 30.5-30.8-10.3-8.5-8.7-36.7-4.6-49.9"/><path class="st10" d="M788.4 388.7c0 42.6-34.7 82.7-60.5 82.7-22.7 0-60.5-40.2-60.5-82.7s20-77 60.5-77c37.6 0 60.5 34.4 60.5 77"/><path class="st9" d="M840.7 560.7c0-66-83.6-69.8-83.6-69.8-5.5 19.6-26.2 21.5-29.1 21.7-2.9-.2-25.6-2.1-31-21.7 0 0-76.7 8-76 69.8h219.7"/><path class="st11" d="M756.1 329.3l1.8-2.1h-.2l-1.6 2.1"/><path class="st12" d="M667.2 402.5s6-.6 8.4-33.4c3.4-47.9 28.8-15.1 52.9-14.8 6.9.1 13.7-2.7 20-5.6 15.4-6.9 28-13.8 31.7 21 3 28.2 7.7 25.8 7.7 25.8s33.2-101.1-61-102.5c-99.2-1.6-59.7 109.5-59.7 109.5"/><path class="st13" d="M674.4 379.3s9.8-30.9 26.2-30.1c23.6 1.2 57.9 37.8 83.8 30.5 0 0 11.1-65.4-56.3-66.2-67.5-.7-53.7 65.8-53.7 65.8"/><path class="st14" d="M840.7 560.7c0-66-83.6-69.8-83.6-69.8-5.5 19.6-26.2 21.5-29.1 21.7-2.9-.2-25.6-2.1-31-21.7 0 0-76.7 8-76 69.8h219.7"/><path class="st15" d="M770.4 560.7h71.7c0-42.3-34.4-59.1-59-65.6l-12.7 65.6m-95.7-64.6c-22.6 7.4-54.1 24.9-53.6 64.6h73.3l-19.7-64.6z"/><path class="st12" d="M705.7 461.8c-7.5-4.9-14.1-10.4-24-26.4l-.4.8c2.2 26.3-32.3 45.2-31.2 72.8 1.4 36 24.3 41.6 44.4 49.7-6.7-13.2 4.5-26.5 10.4-38.8 6.1-12.9 1.7-55.7.8-58.1z"/><path class="st16" d="M750.1 468.5c.4 9 2.4 17.5 7 21.8-.6-4.4-5.5-12.8-7-21.8m42.8-97c-.4 3.7-1 7.1-1.5 10.2.5-3 1.1-6.5 1.5-10.2"/><path class="st17" d="M791.3 381.7c-1.3 6.8-2.7 11.7-3.2 13.3-.6 7.7-2.3 15.3-4.8 22.6 4.3-.5 12.5-3.5 14-18.6 1-10.6-2.1-15-6-16.7v-.6m-41.6 81.8c-7.4 5-14.9 7.9-21.8 7.9-.5 0-1 0-1.5-.1v41.1c.8.1 1.4.1 1.7.1 2.9-.2 23.6-2.1 29.1-21.6v-.7c-4.5-4.4-6.5-12.8-7-21.8-.4-1.6-.5-3.2-.5-4.9"/><path class="st18" d="M726.3 358.9v112.5c.5 0 1 .1 1.5.1 6.9 0 14.5-2.9 21.8-7.9v-.2c13.6-9.4 26.6-26.2 33.4-45.8h.2c2.5-7.2 4.2-14.8 4.8-22.6-.1.4-.2.5-.2.5s-.1.1-.3.1c-.9 0-3.6-1.2-6-15.2-1.5.3-3 .4-4.6.4-15.7-.1-33.9-12.6-50.6-21.9"/><path class="st19" d="M726.8 293.9h-.4v19.7h1.7c67.4.7 56.3 66.2 56.3 66.2-.9.2-1.8.4-2.6.6 2.4 14 5.1 15.2 6 15.2.2 0 .3-.1.3-.1s.1-.2.2-.5c.5-1.6 1.9-6.4 3.2-13.3.6-3 1.1-6.5 1.5-10.2 3.1-30.1-2.1-77.6-66.2-77.6"/><path class="st20" d="M726.9 313.5h-.6v45.4c16.7 9.2 34.8 21.8 50.8 21.8 1.6 0 3.1-.1 4.6-.4.9-.1 1.8-.3 2.6-.6 0 0 11.1-65.4-56.3-66.2-.4.1-.7 0-1.1 0"/><path class="st21" d="M757.1 491c-5.5 19.5-26.2 21.4-29.1 21.6-.3 0-.9-.1-1.7-.1v42.2h2.5c15.5 0 30.4-2.7 44.3-7.6l9.4-48.9c-12.4-3.4-15.2-6.8-25.4-7v-.2"/><path class="st22" d="M782.5 498.1l-9.4 48.9c17.8-6.4 33.8-16.4 47.1-29.3-11.4-9.5-25.3-14.1-37.1-17.2l-.4-2.3c-.1-.1-.1-.1-.2-.1"/><defs><path id="SVGID_3_" d="M362.1 843.4c-91.5 0-165.7-74.3-165.7-166s74.2-166 165.7-166 165.7 74.3 165.7 166-74.2 166-165.7 166"/></defs><clipPath id="SVGID_4_"><use xlink:href="#SVGID_3_" overflow="visible"/></clipPath><path class="st23" d="M425.4 763.1c-12.3-1.7-22-12.7-23.5-26.8l-5.5-49.5h-67.6l-5.5 49.5c-1.6 14.1-11.3 25.1-23.5 26.8-15.9 2.2 23.5 63 62.8 63 39.4 0 78.7-60.9 62.8-63"/><path class="st24" d="M430.4 764.1c-10.8-1.5-19.8-9.7-23.6-21l-44.2 33.5-44.2-33.5c-3.8 11.3-12.8 19.5-23.6 21-34.3 4.7-28.6 156.6-28.6 156.6h198.7s-.2-152-34.5-156.6"/><path class="st25" d="M372 920.5l12.4-86.2-21.8-44.2-21.8 44.2 12.4 86.2H372"/><path class="st25" d="M362.6 821.2l-21.8-23 21.8-21.8 21.8 21.8-21.8 23"/><path class="st26" d="M362.6 776.6l2.5 5.4v-1.1l-2.5-4.3"/><path class="st27" d="M294.8 764.1l49.1 54.4 5.2-11.6-2.3-2.4-2.9 5.2-49.1-45.6"/><path class="st26" d="M362.6 776.5l-15.8 28 2.3 2.4 13.5-30.4"/><path class="st28" d="M381.3 809.7l-18.7-33.2 44.2-33.4 23.6 21-49.1 45.6m-37.4 0l18.7-33.2-44.2-33.4-23.6 21 49.1 45.6"/><path class="st29" d="M228.2 838.3l-10.7 82.4h108.9l-32.3-156.5c-33.9 4.9-60.9 35.2-65.9 74.1zm279.5 82.4L497 838.3c-5-38.9-32-69.1-66-74.1l-32.3 156.5h109"/><path class="st30" d="M400.7 725.3l1.2 11-1.2-11"/><path class="st31" d="M324.5 725.3l-1.2 10.9-.1.8c0-.3.1-.5.1-.8l1.2-10.9"/><path class="st30" d="M324.5 725.3l-1.2 10.9c0 .3-.1.5-.1.8 2.1 2.2 4.2 4.3 6.3 6 11.7 10.2 17.7 15.9 33.2 15.9h2.4v-13.1h-2.4c-15.6 0-21.5-5.6-33.2-15.9-1.6-1.3-3.3-2.9-5-4.6"/><path class="st32" d="M439 589c0 11.4-49.9-31.1-72.7-34.6-22.8-3.5-39.8-15.5-38.1-26.7 1.7-11.3 21.6-17.6 44.3-14.1 22.9 3.5 66.6 22.9 66.5 75.4"/><path class="st32" d="M329.9 530.9c5.4 5.6.6 18.9-10.6 29.8-11.3 10.9-25.3 50.3-30.7 44.8-5.4-5.6-2.1-49.2 11.2-65 10.1-11.9 24.7-15.2 30.1-9.6z"/><path class="st23" d="M435 600.1c-.6-39.6-32.8-71.4-72.4-71.4-39.6 0-71.8 31.8-72.4 71.5-.4 28.4-.8 54.5-.8 54.5 0 27.8 23.3 60.6 40.1 75.3 11.7 10.2 17.7 15.9 33.2 15.9 15.5 0 21.2-5.6 32.8-15.7 16.9-14.7 40.3-47.6 40.3-75.5.1 0-.3-26.1-.8-54.6"/><path class="st32" d="M299 641.2c-2.3-5.5-2.3-12.7-2.2-15.8.9-16 7.5-30.5 17.7-41.5 6-6.4 15.2-8.6 23.5-5.6 6.6 2.4 15.3 3.9 24.8 3.9s18.2-1.5 24.8-3.9c8.2-3 17.5-.8 23.5 5.6 9.9 10.6 16.4 24.5 17.6 39.9 0 0 .7 10.2-2.4 17.5h14.4c-.2-11-.4-26.9-.7-43.6-.6-42.3-35.1-76.3-77.3-76.3-42.3 0-76.7 34-77.4 76.4-.3 16.7-.5 32.6-.7 43.6H299"/><path class="st23" d="M301.7 648.6c3.1 14.7-.6 27.9-8.1 29.5-7.6 1.6-16.2-9.1-19.2-23.8-3.1-14.7.6-27.9 8.1-29.5 7.6-1.6 16.2 9.1 19.2 23.8zm121.8 0c-3.1 14.7.6 27.9 8.1 29.5 7.6 1.6 16.2-9.1 19.2-23.8 3.1-14.7-.6-27.9-8.1-29.5-7.6-1.6-16.2 9.1-19.2 23.8"/><path class="st32" d="M407 552c28.4 22.7 28.8 69.5 28.8 69.5s-45.6 9.9-74-12.9c-28.4-22.7-41.3-53.9-28.8-69.5 12.5-15.6 45.6-9.9 74 12.9"/><path class="st32" d="M323.2 565.8s.3 51.4 66.8 63.3c0 0-48.6-12.8-55.4-63.3h-11.4"/><path class="st31" d="M430.2 763.9l.2.2c.2 0 .4.1.6.1.3 0 .6.1.9.1-.5-.1-1.1-.3-1.7-.4M402 737c.4 2.9 1.1 5.6 2.1 8.1-1-2.5-1.7-5.2-2.1-8.1m38.2-122c.1 3.4.1 6.6.1 9.7 0-3.1 0-6.4-.1-9.7m-66.6-101.3s.1 0 0 0c.1 0 0 0 0 0m-.3 0s.1 0 0 0c.1 0 0 0 0 0m-.5-.1"/><path class="st30" d="M402 737c-2.2 2.3-4.4 4.4-6.4 6.2-11.1 9.6-16.8 15.1-30.5 15.7v15.8l39-29.5c-1-2.6-1.7-5.3-2.1-8.2"/><path class="st33" d="M430.4 764.1l-49.1 54.4-5.2-11.6-3.5 3.7 11.7 23.8-1.1 7.7c11.5-1.5 22.7-4.1 33.4-7.9l14.4-70c-.1-.1-.4-.1-.6-.1"/><path class="st34" d="M372.7 810.6l-7.6 8.1v24.7c6.2-.1 12.2-.6 18.2-1.3l1.1-7.7-11.7-23.8"/><path class="st34" d="M365.1 782v36.6l7.6-8 3.4-3.7-11-24.9"/><path class="st36" d="M430.4 764.1l-49.1 45.6-2.9-5.2-2.3 2.4 5.2 11.6 49.1-54.4"/><path class="st37" d="M365.1 780.9v1.1l11 24.9 2.3-2.4-13.3-23.6"/><path class="st38" d="M404.1 745.1l-39 29.6v6.2l13.3 23.6 2.9 5.2 49.1-45.6-.2-.2-4.8-.9-1.3-.2-1.8-.4h-.1l-1.7-.5-.2-.1-1.6-.6-.3-.1-1.4-.7-.5-.3-1-.6-.2-.1-.6-.4-.8-.5-.3-.2-.7-.6-.5-.4-.3-.3-1.3-1.2c-2.8-3-5.1-6.6-6.7-10.7"/><path class="st39" d="M431.1 764.2l-14.4 70c22.2-7.8 42.3-20.1 59.1-36-10.1-17-25.6-29.4-43.7-33.9-.4 0-.7-.1-1-.1"/><path class="st40" d="M401.9 736.3c0 .3.1.5.1.8l-.1-.8"/><path class="st41" d="M400.7 725.3c-1.8 1.8-3.5 3.4-5.2 4.9-11 9.6-16.8 15.1-30.5 15.7V759c13.7-.6 19.4-6.1 30.5-15.7 2.1-1.8 4.2-3.9 6.4-6.2 0-.3-.1-.5-.1-.8l-1.1-11"/><path class="st42" d="M365.1 512.8v8.5c37.3 1.1 68 28.7 73.9 64.8-1.5-49.4-42.4-68.4-65-72.3h-1.4c-2.6-.6-5.1-.9-7.5-1"/><path class="st30" d="M365.1 611v5.6C378 626 390 629.1 390 629.1c-9.6-1.7-17.9-4.3-24.9-7.4v124.1c13.7-.6 19.4-6.1 30.5-15.7 1.7-1.4 3.4-3.1 5.2-4.9 11.3-11.4 24-29.1 30.6-47.3-7.3-1.9-10.8-14.9-7.8-29.4 1-4.6 2.4-8.8 4.3-12.3 1.3-6.2.9-12.5.9-12.5 0-.4-.1-.8-.1-1.1-4.1.5-9.6 1-15.9 1-14.5 0-33-2.4-47.7-12.6"/><path class="st42" d="M365.1 521.3v10c13.1 2.5 28.1 9.6 41.9 20.6 28.4 22.7 28.8 69.5 28.8 69.5s-2.8.6-7.3 1.2c0 .4.1.8.1 1.1 0 0 .4 6.3-.9 12.5 3.4-6.7 8.1-11.1 12.6-11.6 0-3.1-.1-6.4-.1-9.7-.1-5.6-.2-11.4-.3-17.4-.1-3.9-.4-7.7-1-11.4-5.9-36-36.6-63.6-73.8-64.8"/><path class="st30" d="M440.4 624.7c-4.5.5-9.2 4.9-12.6 11.6-1.8 3.5-3.3 7.7-4.3 12.3-3 14.5.5 27.5 7.8 29.4l.3.1c.5.1 1 .2 1.5.2 7.2 0 14.8-10.2 17.7-23.9.7-3.5 1.1-6.9 1.1-10.1 0-10.2-3.5-18.2-9.2-19.4l-2.3-.2"/><path class="st42" d="M365.1 531.3V611c14.7 10.2 33.2 12.6 47.6 12.6 6.3 0 11.8-.5 15.9-1 4.6-.6 7.3-1.2 7.3-1.2s-.4-46.7-28.8-69.5c-13.9-11-28.9-18-42-20.6m0 85.3v5.2c7.1 3.1 15.3 5.7 24.9 7.4 0-.1-12-3.2-24.9-12.6"/><defs><path id="SVGID_5_" d="M334.7 394.9c-58.7 0-106.4-47.7-106.4-106.6 0-58.8 47.6-106.6 106.4-106.6 58.7 0 106.4 47.7 106.4 106.6-.1 58.9-47.7 106.6-106.4 106.6"/></defs><clipPath id="SVGID_6_"><use xlink:href="#SVGID_5_" overflow="visible"/></clipPath><path class="st43" d="M373.2 338.2c-7.8-1.1-13.9-8.1-14.9-17l-3.5-31.4h-42.9l-3.5 31.4c-1 8.9-7.1 15.9-14.9 17-20.1 2.8-36.2 20.6-39.2 43.6l-6.3 48.4h170.6l-6.3-48.4c-3-22.9-19-40.8-39.1-43.6"/><path class="st44" d="M309.1 314.3l-.8 6.9-.1.5c0-.2 0-.3.1-.5l.8-6.9"/><path class="st45" d="M309.1 314.3l-.8 6.9c0 .2 0 .3-.1.5 1.4 1.4 2.7 2.7 4 3.8 7.4 6.5 11.2 10.1 21 10.1v-8.3c-9.8 0-13.6-3.6-21-10.1-.9-.8-2-1.8-3.1-2.9"/><path class="st43" d="M379.3 234.8c-.4-25.1-20.8-45.3-45.9-45.3-25.1 0-45.6 20.2-46 45.4-.3 18-.5 34.6-.5 34.6 0 17.6 14.8 38.5 25.5 47.8 7.5 6.5 11.2 10.1 21.1 10.1 9.8 0 13.4-3.5 20.8-10 10.7-9.3 25.6-30.2 25.6-47.9-.1 0-.4-16.6-.6-34.7"/><path class="st46" d="M333.9 221.8c10.4.9 30.6-.9 38.3 7 6.6 6.8 5.7 23.8 6.5 25.5h9.1c-2.4-36.2-3.1-66.1-54.5-68-38-1.4-51.4 21.8-53.3 49.9l-1.2 18.1h10.1c6.1-19.5-4.1-36.8 45-32.5"/><path class="st43" d="M294.7 265.6c1.9 9.3-.4 17.7-5.2 18.7s-10.3-5.8-12.2-15.1c-1.9-9.3.4-17.7 5.2-18.7s10.2 5.8 12.2 15.1zm77.2 0c-1.9 9.3.4 17.7 5.2 18.7s10.2-5.8 12.2-15.1c1.9-9.3-.4-17.7-5.2-18.7s-10.2 5.8-12.2 15.1"/><path class="st46" d="M326.2 192.9s-9.9-9.1-15.3-9.1c0 0 9.2-4.1 14.7 2.5 0 0 9.3-6 22.5-4.2 0 0-10.4 5.1-11.6 15.9l-10.3-5.1m-29.8 34.8s12.4-7.3 33.1 6.7c0 0-2.9-5-5.4-8.4 0 0 5.4-1.5 28.5 17.8 0 0-.7-10.1-3.3-16.1 0 0 10.8 2.1 17.8 11.6 0 0 .8-17.1-11.2-23.8-12-6.5-59.5-8.4-59.5 12.2"/><path class="st47" d="M375 336.5c-6.6-.9-12.1-5.9-14.4-12.8l-26.9 20.4-26.9-20.4c-2.3 6.9-7.8 11.9-14.4 12.8-20.9 2.9-17.4 95.4-17.4 95.4h121s-.1-92.5-21-95.4"/><path class="st48" d="M339.4 431.8l7.5-52.5-13.2-26.9-13.3 26.9 7.6 52.5h11.4"/><path class="st48" d="M333.7 371.3l-13.3-14 13.3-13.3 13.2 13.3-13.2 14"/><path class="st50" d="M375 336.5l-1.9 1.7h.1l.2.1 1.6-1.8m-82.6 0l29.9 33.2 3.1-7.1-1.3-1.4-1.8 3.1-29.9-27.8"/><path class="st51" d="M333.3 344.8l-9.2 16.4 1.3 1.4 7.9-17.6v-.2"/><path class="st52" d="M345.1 364.3l-11.4-20.2 26.9-20.4 14.4 12.8-29.9 27.8m-22.8 0l11.4-20.2-26.9-20.4-14.4 12.8 29.9 27.8"/><path class="st53" d="M251.8 381.7l-6.5 50.2h66.4L292 336.6c-20.7 3-37.2 21.4-40.2 45.1zm170.3 50.2l-6.5-50.2c-3.1-23.7-19.5-42.1-40.2-45.1l-19.7 95.3h66.4"/><path class="st44" d="M357.5 314.3l.8 7 .1.5c.1 1.1.4 2.2.7 3.2-.3-1-.5-2.1-.7-3.2l-.1-.5-.8-7m29.6-69.9c.2 2.9.4 5.8.6 8.8-.2-3-.4-5.9-.6-8.8m-42.8-59.8c-.8.7-1.7 1.4-2.5 2.3.8-.8 1.7-1.6 2.5-2.3m.4-.3c-.1.1-.3.2-.4.3.1-.1.2-.2.4-.3m.2-.1c-.1 0-.1 0 0 0-.1 0-.1 0 0 0m.4-.3c-.1.1-.2.2-.3.2 0-.1.1-.1.3-.2m0-.1s0 .1 0 0c0 .1 0 0 0 0m.1-.1l-.1.1c.1 0 .1 0 .1-.1m.3-.1c-.1 0-.1.1-.2.1.1-.1.1-.1.2-.1m.6-.4c-.2.1-.4.2-.6.4.2-.2.4-.3.6-.4m.1-.1c-.1 0-.1 0 0 0-.1 0-.1 0 0 0m.1-.1c-.1.1-.1.1 0 0-.1.1-.1.1 0 0m.1-.1s-.1.1-.2.1c.1 0 .2 0 .2-.1m.1 0s-.1 0 0 0c-.1 0 0 0 0 0m.4-.3c-.1.1-.3.2-.5.3.2-.1.4-.2.5-.3m.2-.1c-.1 0-.1.1-.2.1.1 0 .2-.1.2-.1"/><path class="st45" d="M358.3 321.7c-1.4 1.5-2.8 2.8-4.1 3.9-7.4 6.4-11 10-20.8 10h-.1v8.2l.3.3.1-.1.1.1L359 325c-.3-1.1-.6-2.1-.7-3.3"/><path class="st54" d="M357.5 314.3l.8 7c0 .2 0 .3.1.5l-.1-.5-.8-7"/><path class="st55" d="M357.5 314.3c-1.1 1.1-2.2 2.2-3.3 3.1-7.4 6.4-11 10-20.8 10h-.1v8.3h.1c9.8 0 13.4-3.5 20.8-10 1.3-1.1 2.7-2.5 4.1-3.9 0-.2 0-.3-.1-.5l-.7-7"/><path class="st45" d="M364 224.4c3.5 7.1 3.1 15 3.1 15-7-9.5-17.8-11.6-17.8-11.6 2.6 5.9 3.3 16.1 3.3 16.1-8.8-7.3-15-11.6-19.3-14.2v97.7h.1c9.8 0 13.4-3.5 20.8-10 1.1-.9 2.1-1.9 3.3-3.1 7.2-7.2 15.2-18.5 19.4-30-4.6-1.2-6.9-9.5-5-18.7 1.2-5.6 3.6-10.3 6.5-13-.4-4.9-.5-18.1-6.2-23.8-2-2-4.9-3.4-8.2-4.4"/><path class="st56" d="M341.8 187c-2.4 2.6-4.7 6.2-5.2 10.9l-3.2-1.6v14.8c9.6.4 18.4 2.1 22.7 4.5 3.9 2.1 6.4 5.4 8.1 8.8 3.3 1 6.1 2.3 8.2 4.4 5.7 5.8 5.8 19 6.2 23.8 1.5-1.4 3.2-2.2 4.8-2.2.3 0 .6 0 1 .1 1.4.3 2.6 1.3 3.6 2.7-.2-3-.4-5.9-.6-8.8-2.5-29.6-6.9-53.1-45.6-57.4"/><path class="st45" d="M383.2 250.4c-1.6 0-3.2.8-4.8 2.2-2.8 2.6-5.3 7.3-6.5 13-1.9 9.2.3 17.4 5 18.7l.2.1c.3.1.6.1 1 .1 4.5 0 9.4-6.5 11.2-15.2v-.2c0-.1 0-.2.1-.3 1.2-6.3.4-12.1-1.7-15.4-.9-1.4-2.2-2.4-3.6-2.7-.3-.2-.6-.3-.9-.3"/><path class="st56" d="M340 181.9c-2.5.2-4.8.7-6.7 1.2v13.3l3.2 1.6c.5-4.7 2.8-8.4 5.2-10.9.8-.9 1.7-1.7 2.5-2.3.1-.1.3-.2.4-.3h.3c.1-.1.2-.2.3-.2h.1l.1-.1h.1c.1 0 .1-.1.2-.1.2-.1.4-.3.6-.4 0 0 .1 0 .1-.1 0 0 .1 0 .1-.1.1 0 .1-.1.2-.1.2-.1.3-.2.5-.3.1 0 .1-.1.2-.1-2.5-.8-4.9-1-7.4-1.1m-6.7 29.2v18.5c4.3 2.5 10.6 6.9 19.3 14.2 0 0-.7-10.1-3.3-16.1 0 0 10.8 2.1 17.8 11.6 0 0 .4-7.8-3.1-15-1.7-3.4-4.2-6.7-8.1-8.8-4.2-2.3-13-4-22.6-4.4"/><path class="st57" d="M333.7 344l-.1.1h.1v-.1"/><path class="st58" d="M373.4 338.3l-28.3 31.4-3.2-7.1-2.1 2.2 7.1 14.5-2.2 15.1c6.7-.6 13.2-1.9 19.5-3.7l10.8-52.1c-.3-.1-.6-.1-.9-.2l-.7-.1"/><path class="st57" d="M339.8 364.8l-6.1 6.5-.4-.4v23.9h1.4c3.4 0 6.8-.2 10.1-.5l2.2-15.1-7.2-14.4"/><path class="st57" d="M333.7 344.1l-.4.9v25.9l.4.4 6.1-6.5 2.1-2.2-8.2-18.5"/><path class="st59" d="M373.1 338.2l-28 26.1-1.8-3.1-1.4 1.4 3.2 7.1 28.3-31.4-.2-.1h-.1"/><path class="st60" d="M333.7 344.1l8.2 18.5 1.4-1.4-9.6-17.1"/><path class="st60" d="M333.7 344.1l-.4.7v.2l.4-.9"/><path class="st61" d="M359 325l-25.2 19.1h-.1l9.6 17 1.8 3.2 28.1-26.1-1.3-.2-.3-.1-1.2-.3-.3-.1-.9-.4-.3-.1-1-.5-.4-.2-.9-.6c-3.6-2.4-6.3-6.2-7.6-10.7m-25.7 18.8v1l.4-.7h-.1l-.3-.3"/><path class="st62" d="M375 338.6l-10.8 52.1c16.5-4.8 31.4-13.5 43.5-25-6.4-14.2-18.4-24.5-32.7-27.1"/></svg>