<svg id="Layer_1" xmlns="http://www.w3.org/2000/svg" xmlns:xlink="http://www.w3.org/1999/xlink" viewBox="0 0 1024 1024"><style>.st0{clip-path:url(#SVGID_2_)}.st1{fill:#3498db}.st2{fill:#2980b9}.st3{fill:#3190d0}.st4{fill:#2779b0}.st5{fill:#fff}.st6{fill:#a58a79}.st7{fill-rule:evenodd;clip-rule:evenodd;fill:#f5d56c}</style><defs><path id="SVGID_1_" d="M1024 41.2v941.7c0 22.6-18.5 41.2-41.2 41.2H41.2C18.5 1024 0 1005.5 0 982.8V41.2C0 18.5 18.5 0 41.2 0h941.7c22.6 0 41.1 18.5 41.1 41.2"/></defs><clipPath id="SVGID_2_"><use xlink:href="#SVGID_1_" overflow="visible"/></clipPath><g class="st0"><path class="st1" d="M1024 41.2v941.7c0 22.6-18.5 41.2-41.2 41.2H41.2C18.5 1024 0 1005.5 0 982.8V41.2C0 18.5 18.5 0 41.2 0h941.7c22.6 0 41.1 18.5 41.1 41.2"/><path class="st2" d="M1027 982.1v-941c0-12.9-6.2-24.4-15.6-32L14.3 1008c7.5 9.4 19 16 31.9 16h939.6c22.6 0 41.2-19.3 41.2-41.9"/><path class="st3" d="M675.2 118.6l-105 332.5 217.9-218.3-112.9-114.2"/><path class="st4" d="M788.1 232.8L570.2 451.1 423.9 914.4l109 109.6h452.9c22.6 0 41.2-19.3 41.2-41.9V474.3L788.1 232.8"/><path class="st5" d="M644.4 107.3l-372 143.4c-10.2 3.9-15.3 15.4-11.4 25.6l188.7 490.9c3.9 10.2 15.4 15.3 25.5 11.4l372.1-143.4c10.2-3.9 15.3-15.4 11.3-25.6L670 118.6c-3.9-10.2-15.4-15.3-25.6-11.3zM470.2 747.4c-4.3 1.6-9.1-.5-10.7-4.8-1.6-4.3.5-9.1 4.8-10.7 4.3-1.7 9.1.5 10.7 4.8 1.6 4.2-.5 9-4.8 10.7zM457.7 715c-4.3 1.6-9.1-.5-10.7-4.8-1.7-4.3.5-9.1 4.8-10.7 4.3-1.6 9.1.5 10.7 4.8 1.6 4.2-.5 9-4.8 10.7zm-12.5-32.5c-4.3 1.6-9.1-.5-10.7-4.8-1.6-4.3.5-9.1 4.8-10.7 4.3-1.6 9.1.5 10.7 4.8 1.7 4.3-.5 9.1-4.8 10.7zm-12.4-32.4c-4.3 1.6-9.1-.5-10.7-4.8-1.6-4.3.5-9.1 4.8-10.7 4.3-1.6 9.1.5 10.7 4.8 1.6 4.2-.5 9-4.8 10.7zm-12.5-32.4c-4.3 1.7-9.1-.5-10.7-4.8-1.6-4.3.5-9.1 4.8-10.7 4.3-1.6 9.1.5 10.7 4.8 1.6 4.2-.5 9-4.8 10.7zm-12.4-32.5c-4.3 1.6-9.1-.5-10.7-4.8-1.6-4.3.5-9.1 4.8-10.7 4.3-1.6 9.1.5 10.7 4.8 1.6 4.3-.6 9.1-4.8 10.7zm-12.5-32.4c-4.3 1.7-9.1-.5-10.7-4.8-1.7-4.3.5-9.1 4.7-10.7 4.3-1.7 9.1.5 10.7 4.8 1.7 4.3-.4 9.1-4.7 10.7zm-12.5-32.4c-4.3 1.6-9.1-.5-10.7-4.8-1.6-4.3.5-9.1 4.8-10.7 4.3-1.6 9.1.5 10.7 4.8 1.6 4.2-.5 9-4.8 10.7zM370.5 488c-4.3 1.7-9.1-.5-10.7-4.8-1.6-4.3.5-9.1 4.8-10.7 4.3-1.6 9.1.5 10.7 4.8 1.6 4.2-.5 9-4.8 10.7zM358 455.5c-4.3 1.6-9.1-.5-10.7-4.8-1.6-4.3.5-9.1 4.8-10.7 4.3-1.6 9.1.5 10.7 4.8 1.6 4.3-.5 9.1-4.8 10.7zm-12.5-32.4c-4.3 1.7-9.1-.5-10.7-4.8-1.6-4.3.5-9.1 4.8-10.7 4.3-1.6 9.1.5 10.7 4.8 1.6 4.2-.5 9-4.8 10.7zm-12.4-32.4c-4.3 1.7-9.1-.5-10.7-4.8-1.6-4.3.5-9.1 4.8-10.7 4.3-1.7 9.1.5 10.7 4.8 1.6 4.2-.5 9-4.8 10.7zm-12.5-32.5c-4.3 1.7-9.1-.5-10.7-4.8-1.6-4.3.5-9.1 4.8-10.7 4.3-1.6 9.1.5 10.7 4.8 1.6 4.3-.5 9.1-4.8 10.7zm-12.4-32.4c-4.3 1.7-9.1-.5-10.7-4.8-1.6-4.3.5-9.1 4.8-10.7 4.3-1.6 9.1.5 10.7 4.8 1.6 4.3-.6 9.1-4.8 10.7zm-12.5-32.4c-4.3 1.7-9.1-.5-10.7-4.8-1.6-4.3.5-9.1 4.8-10.7 4.3-1.7 9.1.5 10.7 4.8 1.6 4.2-.5 9-4.8 10.7z"/><path class="st6" d="M358.2 356.9l-.4.9 1 .5.4-1zm2.6-1l-.4 1 1 .4.4-1zm2.7-1l-.5 1 1 .5.4-1zm2.6-1l-.5 1 1 .5.4-1zm2.6-.9l-.5.9 1 .5.4-1zm2.5-1l-.4 1 1 .4.4-1zm2.6-1l-.4 1 1 .5.4-1zm2.7-1l-.5 1 1 .5.4-1zm2.6-1l-.5 1 1 .5.4-1zm2.5-.9l-.4 1 1 .4.4-1zm2.7-1l-.5 1 1 .5.4-1zm2.5-1l-.4 1 1 .5.4-1zm2.7-1l-.5 1.1 1 .4.4-1zm2.6-.9l-.5 1 1 .4.4-1zm2.6-1l-.5 1 1 .5.4-1zm2.6-1l-.5 1 1 .5.4-1zm2.5-.9l-.4 1 1 .4.4-1zm2.7-1l-.5 1 1 .4.4-1zm2.6-1l-.5 1 1 .5.4-1zm2.5-1l-.4 1 1 .5.4-1zm2.7-.9l-.5 1 1 .4.4-1zm2.6-1l-.5 1 1 .4.4-1zm2.5-1l-.4 1 1 .5.4-1zm2.7-1l-.5 1 1 .5.4-1zm2.5-.9l-.4.9 1 .5.4-1zm2.7-1l-.5 1 1 .4.4-1zm2.6-1l-.5 1 1 .5.4-1zm2.5-1l-.4 1 1 .5.4-1zm2.6-.9l-.4 1 1 .4.4-1zm2.7-1l-.5 1 1 .4.4-1z"/><path transform="rotate(-65.367 436.535 328.337)" class="st6" d="M436 327.8h1.1v1.1H436z"/><path class="st6" d="M438.9 326.6l-.5 1 1 .5.4-1zm2.5-.9l-.4 1 1 .4.4-1zm2.7-1l-.5 1 1 .4.4-1zm2.6-1l-.5 1 1 .5.4-1zm2.5-1l-.4 1 1 .5.4-1zm2.7-.9l-.5 1 1 .4.4-1zm2.6-1l-.5 1 1 .4.4-1zm2.6-1l-.5 1 1 .5.4-1zm2.6-1l-.5 1 1 .5.4-1zm2.5-.9l-.4 1 1 .4.4-1zm2.7-1l-.5 1 1 .4.4-1zm2.6-1l-.5 1 1 .5.4-1zm2.6-1l-.5 1 1 .5.4-1zm2.5-.9l-.4 1 1 .4.4-1zm2.7-1l-.5 1 1 .4.4-1zm2.5-1l-.4 1 1 .5.4-1zm2.7-1l-.5 1 1 .5.4-1zm2.6-.9l-.5 1 1 .4.4-1zm2.6-1l-.5 1 1 .4.4-1z"/><path transform="rotate(-65.555 488.544 308.86)" class="st6" d="M488 308.3h1.1v1.1H488z"/><path class="st6" d="M490.9 307.1l-.5 1 1 .5.4-1zm2.6-.9l-.5 1 1 .4.4-1zm2.5-1l-.4 1 1 .4.4-1zm2.7-1l-.5 1 1 .5.5-1z"/><path transform="rotate(-65.323 501.545 303.957)" class="st6" d="M501 303.4h1.1v1.1H501z"/><path class="st6" d="M503.9 302.3l-.5 1 1 .4.4-1zm2.6-1l-.5 1 1 .4.4-1zm2.6-1l-.5 1 1 .5.4-1zm2.6-1l-.5 1 1 .5.4-1zm2.6-.9l-.5 1 1 .4.4-1zm2.6-1l-.5 1 1 .4.4-.9zm2.6-1l-.5 1 1 .5.4-1z"/><path transform="rotate(-65.467 522.315 296.183)" class="st6" d="M521.8 295.6h1.1v1.1h-1.1z"/><path class="st6" d="M524.7 294.5l-.5 1 1 .4.4-1zm2.6-1l-.5 1 1 .4.4-1zm2.6-1l-.5 1 1 .5.5-1zm2.6-1l-.5 1 1 .5.4-1z"/><path transform="rotate(-65.342 535.3 291.302)" class="st6" d="M534.8 290.7h1.1v1.1h-1.1z"/><path class="st6" d="M537.7 289.6l-.5 1 1 .4.4-.9zm2.6-1l-.5 1 1 .5.4-1zm2.6-1l-.5 1 1 .5.4-1zm2.6-.9l-.5 1 1 .4.4-1zm2.6-1l-.5 1 1 .4.4-.9zm2.6-1l-.5 1 1 .5.4-1zm2.6-1l-.5 1 1 .5.4-1zm2.6-.9l-.5 1 1 .4.4-1zm2.6-1l-.5 1 1 .4.4-.9zm2.6-1l-.5 1 1 .5.4-1zm2.6-.9l-.5.9 1 .5.5-1zm2.6-1l-.5 1 1 .4.4-1zm2.6-1l-.5 1 1 .4.4-.9zm2.6-1l-.5 1 1 .5.4-1zm2.6-.9l-.5.9 1 .5.5-1z"/><path transform="rotate(-65.196 576.952 275.714)" class="st6" d="M576.4 275.2h1.1v1.1h-1.1z"/><path transform="rotate(-65.455 579.538 274.737)" class="st6" d="M579 274.2h1.1v1.1H579z"/><path class="st6" d="M581.9 273l-.5 1 1 .5.4-1zm2.6-1l-.5 1.1 1 .4.4-1zm2.6-.9l-.5 1 1 .4.4-1zm2.6-1l-.5 1 1 .4.4-.9zm2.6-1l-.5 1 1 .5.5-1zm2.6-.9l-.5.9 1 .5.4-1zm2.6-1l-.5 1 1 .4.4-1zm2.6-1l-.5 1 1 .5.4-1zm2.6-1l-.5 1 1 .5.4-1zm2.6-.9l-.5.9 1 .5.4-1zm2.6-1l-.5 1 1 .4.4-1zm2.6-1l-.5 1 1 .5.4-1zm2.6-1l-.5 1 1 .5.4-1zm2.6-1l-.5 1.1 1 .4.4-1zm2.6-.9l-.5 1 1 .4.4-1zm2.6-1l-.5 1 1 .5.4-1zm2.6-1l-.5 1 1 .5.4-1zm2.6-1l-.5 1.1 1 .4.4-1zm2.6-.9l-.5 1 1 .4.4-1zm2.6-1l-.5 1 1 .5.4-1zm2.6-1l-.5 1 1 .5.4-1zm2.6-.9l-.5 1 1 .4.4-1zm2.6-1l-.5 1 1 .4.4-1zm2.6-1l-.5 1 1 .5.4-1zm2.6-1l-.5 1 1 .5.4-1zm2.6-.9l-.5 1 1 .4.4-1zm2.6-1l-.5 1 1 .4.4-1zm2.6-1l-.5 1 1 .5.4-1zm2.6-1l-.5 1 1 .5.5-1zm2.6-.9l-.5.9 1 .5.4-1zm2.6-1l-.5 1 1 .4.4-1zm2.6-1l-.5 1 1 .5.4-1zm2.6-1l-.5 1 1 .5.4-1zm2.6-.9l-.5 1 1 .4.5-1zm2.6-1l-.5 1 1 .4.4-1z"/><path transform="rotate(-65.563 673.154 239.638)" class="st6" d="M672.6 239.1h1.1v1.1h-1.1z"/><path class="st6" d="M675.5 237.9l-.5 1 1 .5.5-1zm2.6-.9l-.5 1 1 .4.5-1zm2.6-1l-.5 1 1 .4.5-1zm2.6-1l-.5 1 1 .5.5-1zm2.6-1l-.5 1 1 .5.4-1zm2.6-.9l-.5 1 1 .4.4-1zM352.8 337.6l-.5 1 1 .4.5-1zm2.6-1l-.5 1 1 .4.5-1zm2.6-1l-.5 1 1 .4.5-.9zm2.6-1l-.5 1 1 .5.5-1zm2.6-.9l-.5.9 1 .5.5-1zm2.6-1l-.5 1 1 .4.5-1zm2.6-1l-.5 1 1 .5.5-1zm2.6-1l-.5 1 1 .5.5-1zm2.6-.9l-.5.9 1 .5.5-1zm2.6-1l-.5 1 1 .4.5-1zm2.6-1l-.5 1 1 .5.5-1zm2.6-1l-.5 1 1 .5.5-1zm2.6-.9l-.5.9 1 .5.5-1zm2.6-1l-.5 1 1 .4.5-1zm2.6-1l-.5 1 1 .5.5-1zm2.6-1l-.5 1 1 .5.5-1zm2.6-.9l-.5.9 1 .5.5-1zm2.6-1l-.5 1 1 .4.5-1zm2.6-1l-.5 1 1 .5.5-1zm2.6-1l-.5 1 1 .5.5-1zm2.6-1l-.5 1 1 .5.5-1zm2.6-.9l-.5 1 1 .4.5-1zm2.6-1l-.5 1 1 .5.5-1zm2.6-1l-.5 1 1 .5.5-1zm2.6-.9l-.5.9 1 .5.5-1zm2.6-1l-.5 1 1 .4.5-1zm2.6-1l-.5 1 1 .5.5-1zm2.6-1l-.5 1 1 .5.5-1zm2.6-.9l-.5 1 1 .4.5-1zm2.6-1l-.5 1 1 .4.5-1zm2.6-1l-.5 1 1 .5.5-1zm2.6-1l-.5 1 1 .5.5-1zm2.6-.9l-.5 1 1 .4.5-1zm2.6-1l-.5 1 1 .4.5-1zm2.6-1l-.5 1 1 .5.5-1zm2.6-1l-.5 1 1 .5.5-1zm2.6-.9l-.5 1 1 .4.5-1zm2.6-1l-.5 1 1 .4.5-1zm2.6-1l-.5 1 1 .5.5-1z"/><path transform="rotate(-65.455 454.46 300.274)" class="st6" d="M453.9 299.7h1.1v1.1h-1.1z"/><path class="st6" d="M456.8 298.6l-.5 1 1 .4.5-1zm2.6-1l-.5 1 1 .4.5-1zm2.6-1l-.5 1 1 .5.5-1zm2.6-1l-.5 1 1 .5.5-1zm2.6-.9l-.5 1 1 .4.5-1zm2.6-1l-.5 1 1 .4.5-1zm2.6-1l-.5 1 1 .5.5-1zm2.6-1l-.5 1 1 .5.5-1zm2.6-.9l-.5 1 1 .4.5-1zm2.6-1l-.5 1 1 .4.5-1zm2.6-1l-.5 1 1 .5.5-1zm2.6-1l-.5 1 1 .5.5-1zm2.6-.9l-.5 1 1 .4.5-1zm2.6-1l-.5 1 1 .4.5-1zm2.6-1l-.5 1 1 .5.5-1zm2.6-1l-.5 1 1 .5.5-1zm2.6-.9l-.5 1 1 .4.5-1zm2.6-1l-.5 1 1 .5.5-1zm2.6-1l-.5 1 1 .5.5-1zm2.6-1l-.5 1 1 .5.5-1zm2.6-.9l-.5 1 1 .4.5-1zm2.6-1l-.5 1 1 .4.5-.9zm2.6-1l-.5 1 1 .5.5-1zm2.6-.9l-.5.9 1 .5.5-1zm2.6-1l-.5 1 1 .4.5-1zm2.6-1l-.5 1 1 .5.5-1.1zm2.6-1l-.5 1 1 .5.5-1zm2.6-1l-.5 1 1 .5.5-1z"/><path transform="rotate(-65.695 529.838 271.985)" class="st6" d="M529.3 271.5h1.1v1.1h-1.1z"/><path class="st6" d="M532.2 270.3l-.5 1 1 .5.5-1z"/><path transform="rotate(-64.996 535.044 270.04)" class="st6" d="M534.5 269.5h1.1v1.1h-1.1z"/><path class="st6" d="M537.4 268.3l-.5 1 1 .5.5-1zm2.6-.9l-.5 1 1 .4.5-1zm2.6-1l-.5 1 1 .4.5-.9zm2.6-1l-.5 1 1 .5.5-1zm2.6-.9l-.5.9 1 .5.5-1zm2.6-1l-.5 1 1 .4.5-1zm2.6-1l-.5 1 1 .4.5-.9zm2.6-1l-.5 1 1 .5.5-1zm2.6-1l-.5 1 1 .5.5-1zm2.6-.9l-.5 1 1 .4.5-1zm2.6-1l-.5 1 1 .5.5-1zm2.6-1l-.5 1 1 .5.5-1zm2.6-.9l-.5.9 1 .5.5-1zm2.6-1l-.5 1 1 .4.5-1z"/><path transform="rotate(-65.567 574.087 255.44)" class="st6" d="M573.5 254.9h1.1v1.1h-1.1z"/><path class="st6" d="M576.4 253.7l-.5 1 1 .5.5-1zm2.6-1l-.5 1 1 .5.5-1zm2.6-.9l-.5 1 1 .4.5-1zm2.6-1l-.4 1 .9.4.5-.9zm2.6-1l-.5 1 1 .5.5-1zm2.6-.9l-.5 1 1 .4.5-1zm2.6-1l-.5 1 1 .4.5-1zm2.6-1l-.5 1 1 .4.5-.9zm2.6-1l-.5 1 1 .5.5-1zm2.6-.9l-.5.9 1 .5.5-1zm2.6-1l-.5 1 1 .4.5-1zm2.6-1l-.5 1 1 .5.5-1zm2.6-1l-.5 1 1 .5.5-1zm2.6-.9l-.5.9 1 .5.5-1zm2.6-1l-.5 1 1 .4.5-1zm2.6-1l-.5 1 1 .5.5-1zm2.6-1l-.5 1 1 .5.5-1zm2.6-.9l-.5 1 1 .4.5-1zm2.6-1l-.5 1 1 .4.5-1zm2.6-1l-.5 1 1 .5.5-1zm2.6-1l-.5 1 1 .5.5-1zm2.6-.9l-.5 1 1 .4.5-1zm2.6-1l-.5 1 1 .4.5-1zm2.6-1l-.5 1 1 .5.5-1zm2.6-1l-.5 1 1 .5.5-1zm2.6-.9l-.5 1 1 .4.5-1zm2.6-1l-.5 1 1 .4.5-1zm2.6-1l-.5 1 1 .5.5-1zm2.6-1l-.5 1 1 .5.5-1z"/><path transform="rotate(-65.342 652.044 226.198)" class="st6" d="M651.5 225.6h1.1v1.1h-1.1z"/><path class="st6" d="M654.4 224.5l-.5 1 1 .4.5-1zm2.6-1l-.4 1 .9.5.5-1zm2.6-1l-.5 1 1 .5.5-1zm2.6-.9l-.5 1 1 .4.5-1z"/><path transform="rotate(-65.211 665.035 221.301)" class="st6" d="M664.5 220.8h1.1v1.1h-1.1z"/><path class="st6" d="M667.4 219.6l-.5 1 1 .5.5-1zm2.6-1l-.5 1 1 .5.5-1zm2.6-.9l-.5 1 1 .4.5-1zm2.6-1l-.5 1 1 .4.5-1zm2.6-1l-.5 1 1 .5.5-1zm2.6-1l-.5 1 1 .5.5-1zm2.6-.9l-.4 1 .9.4.5-1zM347.3 318.2l-.4 1.1.9.4.5-1zm2.6-.9l-.4 1 .9.4.5-1zm2.6-1l-.4 1 .9.5.5-1zm2.6-1l-.4 1 .9.5.5-1zm2.6-.9l-.4.9.9.5.5-1zm2.6-1l-.4 1 .9.4.5-1zm2.6-1l-.4 1 .9.5.5-1zm2.6-1l-.4 1 .9.5.5-1zm2.6-.9l-.4 1 .9.4.5-1zm2.6-1l-.4 1 .9.4.5-1zm2.6-1l-.4 1 1 .5.4-1zm2.6-1l-.4 1 .9.5.5-1zm2.6-.9l-.4 1 .9.4.5-1zm2.6-1l-.4 1 .9.4.5-1zm2.6-1l-.4 1 1 .5.4-1zm2.6-1l-.4 1 .9.5.5-1z"/><path transform="rotate(-65.323 389.205 303.374)" class="st6" d="M388.6 302.8h1.1v1.1h-1.1z"/><path class="st6" d="M391.5 301.7l-.4 1 .9.4.5-1zm2.6-1l-.4 1 .9.5.5-1zm2.6-1l-.4 1 1 .5.4-1zm2.6-.9l-.4.9 1 .5.4-1zm2.6-1l-.4 1 1 .4.4-1z"/><path transform="rotate(-65.342 404.772 297.536)" class="st6" d="M404.2 297h1.1v1.1h-1.1z"/><path class="st6" d="M407.1 295.8l-.4 1 .9.5.5-1zm2.6-.9l-.4 1 1 .4.4-1zm2.6-1l-.4 1 .9.4.5-1zm2.6-1l-.4 1 .9.5.5-1zm2.6-1l-.4 1 .9.5.5-1zm2.6-.9l-.4.9 1 .5.4-1zm2.6-1l-.4 1 .9.4.5-1zm2.6-1l-.4 1 1 .5.4-1zm2.6-1l-.4 1 .9.5.5-1z"/><path transform="rotate(-65.323 430.807 287.777)" class="st6" d="M430.2 287.2h1.1v1.1h-1.1z"/><path class="st6" d="M433.1 286.1l-.4 1 .9.4.5-1zm2.6-1l-.4 1 .9.5.5-1zm2.6-1l-.4 1 .9.5.5-1zm2.6-.9l-.4 1 1 .4.4-1zm2.6-1l-.4 1 1 .4.4-1zm2.6-1l-.4 1 1 .5.4-1zm2.6-1l-.4 1 .9.5.5-1zm2.6-.9l-.4 1 .9.4.5-1zm2.6-1l-.4 1 1 .4.4-1zm2.6-1l-.4 1 .9.5.5-1zm2.6-1l-.4 1 .9.5.5-1zm2.6-.9l-.4 1 .9.4.5-1zm2.6-1l-.4 1 .9.4.5-1zm2.6-1l-.4 1 .9.5.5-1zm2.6-1l-.4 1 1 .5.4-1zm2.6-.9l-.4 1 .9.4.5-1zm2.6-1l-.4 1 .9.4.5-1zm2.6-1l-.4 1 .9.5.5-1zm2.6-1l-.4 1 1 .5.4-1zm2.6-.9l-.4 1 1 .4.4-1zm2.6-1l-.4 1 .9.4.5-1zm2.6-1l-.4 1 .9.5.5-1zm2.6-1l-.4 1 .9.5.5-1z"/><path transform="rotate(-65.411 493.182 264.4)" class="st6" d="M492.6 263.8h1.1v1.1h-1.1z"/><path class="st6" d="M495.5 262.7l-.4 1 .9.4.5-1zm2.6-1l-.4 1 1 .5.4-1zm2.6-1l-.4 1 1 .5.4-1zm2.6-.9l-.4 1 1 .4.4-1z"/><path transform="rotate(-64.975 506.213 259.527)" class="st6" d="M505.6 259h1.1v1.1h-1.1z"/><path class="st6" d="M508.5 257.8l-.4 1 1 .5.4-1zm2.6-1l-.4 1 .9.5.5-1zm2.6-.9l-.4 1 1 .4.4-1zm2.6-1l-.4 1 .9.4.5-.9zm2.6-1l-.4 1 1 .5.4-1zm2.6-1l-.4 1 .9.5.5-1zm2.6-.9l-.4 1 1 .4.4-1zm2.6-1l-.4 1 1 .4.4-.9zm2.6-1l-.4 1 .9.5.5-1zm2.6-1l-.4 1 1 .5.4-1zm2.6-.9l-.4 1 1 .4.4-1zm2.6-1l-.4 1 .9.5.5-1zm2.6-1l-.4 1 1 .5.4-1zm2.6-1l-.4 1 1 .5.4-1zm2.6-.9l-.4 1 .9.4.5-1zm2.6-1l-.4 1 .9.5.5-1.1zm2.6-1l-.4 1 .9.5.5-1zm2.6-.9l-.4.9 1 .5.4-1zm2.6-1l-.4 1 1 .4.4-1zm2.6-1l-.4 1 1 .5.4-1zm2.6-1l-.4 1 1 .5.4-1zm2.6-.9l-.4.9.9.5.5-1zm2.6-1l-.4 1 .9.4.5-1zm2.6-1l-.4 1 1 .4.4-.9zm2.6-1l-.4 1 1 .5.4-1zm2.6-1l-.4 1 1 .5.4-1zm2.6-.9l-.4 1 .9.4.5-1zm2.6-1l-.4 1 1 .5.4-1zm2.6-1l-.4 1 1 .5.4-1zm2.6-.9l-.4.9 1 .5.4-1zm2.6-1l-.4 1 1 .4.4-1zm2.6-1l-.4 1 1 .5.4-1z"/><path transform="rotate(-65.23 591.958 227.353)" class="st6" d="M591.4 226.8h1.1v1.1h-1.1z"/><path class="st6" d="M594.3 225.6l-.4 1 1 .5.4-1zm2.6-.9l-.4 1 1 .4.4-1zm2.6-1l-.4 1 1 .5.4-1zm2.6-1l-.4 1 1 .5.4-1zm2.6-1l-.4 1 1 .5.4-1zm2.6-.9l-.4 1 1 .4.4-1zm2.6-1l-.4 1 1 .5.4-1zm2.6-1l-.4 1 1 .5.4-1zm2.6-.9l-.4 1 1 .4.4-1zm2.6-1l-.4 1 1 .4.4-1zm2.6-1l-.4 1 1 .5.4-1zm2.6-1l-.4 1 1 .5.4-1zm2.6-.9l-.4 1 1 .4.4-1zm2.6-1l-.4 1 1 .4.4-1zm2.6-1l-.4 1 1 .5.4-1zm2.6-1l-.4 1 1 .5.4-1zm2.6-.9l-.4 1 1 .4.4-1zm2.6-1l-.4 1 1 .4.4-1zm2.6-1l-.4 1 1 .5.4-1zm2.6-1l-.4 1 1 .5.4-1zm2.6-.9l-.4 1 1 .4.4-1zm2.6-1l-.4 1 1 .4.4-1zm2.6-1l-.4 1 1 .5.4-1zm2.6-1l-.4 1 1 .5.4-1zm2.6-.9l-.4 1 1 .4.4-1zm2.6-1l-.4 1 1 .4.4-1zm2.6-1l-.4 1 1 .5.4-1zm2.6-1l-.4 1 1 .5.4-1zm2.6-.9l-.4 1 1 .4.4-1zm2.6-1l-.4 1 1 .4.4-1zm2.6-1l-.4 1 1 .5.4-1zm2.6-1l-.4 1 1 .5.4-1zm2.6-.9l-.4 1 1 .4.4-1zM341.8 299l-.4.9 1 .5.4-1zm2.6-1l-.4 1 1 .4.4-1zm2.6-1l-.4 1 1 .5.4-1zm2.6-1l-.4 1 1 .5.4-1zm2.7-.9l-.5.9 1 .5.4-1zm2.6-1l-.5 1 1 .4.4-1zm2.5-1l-.4 1 1 .5.4-1zm2.6-1l-.4 1 1 .5.4-1zm2.6-.9l-.4 1 1 .4.4-1zm2.7-1l-.5 1 1 .4.4-1zm2.5-1l-.4 1 1 .5.4-1zm2.7-1l-.5 1 1 .5.4-1zm2.5-.9l-.4 1 1 .4.4-1zm2.6-1l-.4 1 1 .4.4-1zm2.7-1l-.5 1 1 .5.4-1zm2.5-1l-.4 1 1 .5.4-1zm2.7-.9l-.5 1 1 .4.4-1zm2.6-1l-.5 1 1 .4.4-1z"/><path transform="rotate(-65.567 388.935 282.146)" class="st6" d="M388.4 281.6h1.1v1.1h-1.1z"/><path class="st6" d="M391.3 280.4l-.5 1 1 .5.4-1z"/><path transform="rotate(-65.437 394.107 280.182)" class="st6" d="M393.6 279.6h1.1v1.1h-1.1z"/><path class="st6" d="M396.4 278.5l-.4 1 1 .4.4-1zm2.7-1l-.5 1 1 .5.4-1zm2.6-1l-.5 1 1 .5.4-1zm2.6-.9l-.5 1 1 .4.4-1zm2.6-1l-.5 1 1 .4.4-1zm2.6-1l-.5 1 1 .5.4-1zm2.6-1l-.5 1 1 .5.4-1zm2.6-.9l-.5.9 1 .5.4-1zm2.6-1l-.5 1 1 .4.4-1zm2.6-1l-.5 1 1 .5.4-1z"/><path transform="rotate(-65.211 422.704 269.446)" class="st6" d="M422.2 268.9h1.1v1.1h-1.1z"/><path class="st6" d="M425.1 267.8l-.5 1 1 .4.4-1zm2.6-1l-.5 1 1 .4.4-1zm2.6-1l-.5 1 1 .5.4-1zm2.6-1l-.5 1 1 .5.4-1zm2.6-.9l-.5 1 1 .4.4-1zm2.5-1l-.4 1 1 .4.4-1zm2.7-1l-.5 1 1 .5.4-1zm2.5-1l-.4 1 1 .5.4-1z"/><path transform="rotate(-65.23 446.089 260.683)" class="st6" d="M445.6 260.1h1.1v1.1h-1.1z"/><path class="st6" d="M448.5 259l-.5 1 1 .4.4-1zm2.5-1l-.4 1 1 .5.4-1zm2.7-1l-.5 1 1 .5.4-1zm2.6-.9l-.5 1 1 .4.4-1zm2.6-1l-.5 1 1 .4.4-1zm2.6-1l-.5 1 1 .5.4-1zm2.6-1l-.5 1 1 .5.4-1zm2.6-.9l-.5 1 1 .4.4-1zm2.6-1l-.5 1 1 .4.4-1zm2.6-1l-.5 1 1 .5.4-1z"/><path transform="rotate(-65.405 474.722 249.954)" class="st6" d="M474.2 249.4h1.1v1.1h-1.1z"/><path class="st6" d="M477.1 248.3l-.5 1 1 .4.4-1zm2.6-1l-.5 1 1 .4.4-.9zm2.6-1l-.5 1 1 .5.4-1zm2.5-1l-.4 1 1 .5.4-1zm2.7-.9l-.5 1 1 .4.4-1z"/><path transform="rotate(-65.109 490.338 244.118)" class="st6" d="M489.8 243.6h1.1v1.1h-1.1z"/><path class="st6" d="M492.6 242.4l-.4 1 1 .5.4-1zm2.7-1l-.5 1 1 .5.4-1zm2.6-.9l-.5 1 1 .4.4-1zm2.6-1l-.5 1 1 .4.5-1zm2.6-1l-.5 1 1 .5.4-1zm2.5-1l-.4 1 1 .5.4-1zm2.7-.9l-.5 1 1 .4.4-1zm2.6-1l-.5 1 1 .5.4-1.1zm2.6-1l-.5 1 1 .5.4-1zm2.6-1l-.5 1 1 .5.4-1zm2.6-.9l-.5 1 1 .4.4-1zm2.6-1l-.5 1 1 .4.4-.9zm2.6-1l-.5 1 1 .5.4-1zm2.6-1l-.5 1 1 .5.4-1zm2.6-.9l-.5 1 1 .4.4-1zm2.6-1l-.5 1 1 .5.4-1zm2.6-1l-.5 1 1 .5.4-1zm2.6-1l-.5 1 1 .5.4-1zm2.6-.9l-.5 1 1 .4.4-1zm2.6-1l-.5 1 1 .4.4-.9zm2.6-1l-.5 1 1 .5.4-1zm2.6-1l-.5 1 1 .5.4-1zm2.6-.9l-.5 1 1 .4.4-1zm2.6-1l-.5 1 1 .5.4-1zm2.6-1l-.5 1 1 .5.4-1zm2.6-.9l-.5.9 1 .5.4-1zm2.6-1l-.5 1 1 .4.5-1zm2.6-1l-.5 1 1 .5.4-1zm2.6-1l-.5 1 1 .5.4-1zm2.6-.9l-.5.9 1 .5.4-1zm2.6-1l-.5 1 1 .4.4-1zm2.6-1l-.5 1 1 .5.4-1zm2.6-1l-.5 1 1 .5.4-1z"/><path transform="rotate(-65.323 578.744 210.963)" class="st6" d="M578.2 210.4h1.1v1.1h-1.1z"/><path class="st6" d="M581.1 209.3l-.5 1 1 .4.4-1zm2.6-1l-.5 1 1 .4.4-.9zm2.6-1l-.5 1 1 .5.4-1zm2.6-.9l-.5.9 1 .5.5-1zm2.6-1l-.5 1 1 .4.4-1zm2.6-1l-.5 1 1 .5.4-1zm2.6-1l-.5 1 1 .5.4-1zm2.6-.9l-.5 1 1 .4.4-1zm2.6-1l-.5 1 1 .4.5-1z"/><path transform="rotate(-65.58 604.757 201.238)" class="st6" d="M604.2 200.7h1.1v1.1h-1.1z"/><path class="st6" d="M607.1 199.5l-.5 1 1 .5.4-1zm2.6-.9l-.5.9 1 .5.4-1zm2.6-1l-.5 1 1 .4.5-1zm2.6-1l-.5 1 1 .5.5-1zm2.6-1l-.5 1 1 .5.4-1zm2.6-.9l-.5 1 1 .4.5-1zm2.6-1l-.5 1 1 .4.5-1zm2.6-1l-.5 1 1 .5.4-1zm2.6-1l-.5 1 1 .5.5-1zm2.6-.9l-.5.9 1 .5.4-1zm2.6-1l-.5 1 1 .4.4-1zm2.6-1l-.5 1 1 .5.4-1zm2.6-1l-.5 1 1 .5.4-1zm2.6-.9l-.5 1 1 .4.4-1zm2.6-1l-.5 1 1 .4.4-1zm2.6-1l-.5 1 1 .5.5-1zm2.6-1l-.5 1 1 .5.4-1zm2.6-.9l-.5 1 1 .4.4-1zm2.6-1l-.5 1 1 .4.4-1zm2.6-1l-.5 1 1 .5.4-1z"/><path transform="rotate(-65.518 659.346 180.753)" class="st6" d="M658.8 180.2h1.1v1.1h-1.1z"/><path class="st6" d="M661.7 179.1l-.5 1 1 .4.4-1zm2.6-1l-.5 1 1 .4.4-1zm2.6-1l-.5 1 1 .5.4-1zm2.6-1l-.5 1 1 .5.5-1zm2.6-.9l-.5 1 1 .4.4-1zm-307.4 199l-.4 1 1 .4.4-1zm2.6-1l-.4 1 1 .5.4-1zm2.6-1l-.4 1 1 .5.4-1zm2.6-.9l-.4 1 1 .4.4-1zm2.6-1l-.4 1 1 .5.4-1z"/><path transform="rotate(-65.518 378.016 370.05)" class="st6" d="M377.5 369.5h1.1v1.1h-1.1z"/><path class="st6" d="M380.3 368.3l-.4 1 1 .5.4-1zm2.6-.9l-.4 1 1 .4.4-1zm2.6-1l-.4 1 1 .5.4-1zm2.6-1l-.4 1 1 .5.4-1zm2.6-.9l-.4.9 1 .5.4-1zm2.6-1l-.4 1 1 .4.4-1zm2.6-1l-.4 1 1 .5.4-1zm2.6-1l-.4 1 1 .5.4-1zm2.6-1l-.4 1 1 .5.4-1zm2.6-.9l-.4 1 1 .4.4-1zm2.6-1l-.4 1 1 .5.4-1zm2.6-1l-.4 1 1 .5.4-1zm2.6-.9l-.4.9 1 .5.4-1zm2.6-1l-.4 1 1 .4.4-1zm2.6-1l-.4 1 1 .5.4-1zm2.6-1l-.4 1 1 .5.4-1zm2.6-.9l-.4.9 1 .5.4-1zm2.6-1l-.4 1 1 .4.4-1zm2.6-1l-.4 1 1 .5.4-1zm2.6-1l-.4 1 1 .5.4-1zm2.6-.9l-.4 1 1 .4.4-1zm2.6-1l-.4 1 1 .4.4-1z"/><path transform="rotate(-65.567 437.822 347.646)" class="st6" d="M437.2 347.1h1.1v1.1h-1.1z"/><path class="st6" d="M440.1 345.9l-.4 1 1 .5.4-1zm2.6-.9l-.4.9 1 .5.4-1zm2.6-1l-.4 1 1 .4.4-1zm2.6-1l-.4 1 1 .5.4-1zm2.6-1l-.4 1 1 .5.4-1zm2.6-.9l-.4 1 1 .4.4-1zm2.6-1l-.4 1 1 .4.4-1zm2.6-1l-.4 1 1 .5.4-1z"/><path transform="rotate(-65.467 461.231 338.872)" class="st6" d="M460.6 338.3h1.1v1.1h-1.1z"/><path class="st6" d="M463.5 337.2l-.4.9 1 .5.4-1zm2.6-1l-.4 1 1 .4.4-1zm2.6-1l-.4 1 1 .5.4-1zm2.6-1l-.4 1 1 .5.4-1zm2.6-.9l-.4 1 1 .4.4-1zm2.6-1l-.4 1 1 .4.4-1zm2.6-1l-.4 1 1 .5.4-1zm2.6-1l-.4 1 1 .5.4-1zm2.6-.9l-.4 1 1 .4.4-1zm2.6-1l-.4 1 1 .4.4-1zm2.6-1l-.4 1 1 .5.4-1zm2.6-1l-.4 1 1 .5.4-1zm2.7-.9l-.5 1 1 .4.4-1zm2.5-1l-.4 1 1 .4.4-1zm2.6-1l-.4 1 1 .5.4-1zm2.6-1l-.4 1 1 .5.4-1zm2.6-.9l-.4 1 1 .4.4-1zm2.6-1l-.4 1 1 .4.4-1zm2.7-1l-.5 1 1 .5.4-1zm2.5-1l-.4 1 1 .5.4-1zm2.6-.9l-.4 1 1 .4.4-1zm2.6-1l-.4 1 1 .4.4-.9zm2.6-1l-.4 1 1 .5.4-1zm2.6-1l-.4 1 1 .5.4-1zm2.6-.9l-.4 1 1 .4.4-1zm2.6-1l-.4 1 1 .4.4-1zm2.6-1l-.4 1 1 .5.4-1zm2.6-1l-.4 1 1 .5.4-1zm2.7-.9l-.5 1 1 .4.4-1zm2.5-1l-.4 1 1 .4.4-1zm2.6-1l-.4 1 1 .5.4-1zm2.6-1l-.4 1 1 .5.4-1zm2.6-.9l-.4 1 1 .4.4-1z"/><path transform="rotate(-64.962 549.628 305.728)" class="st6" d="M549.1 305.2h1.1v1.1h-1.1z"/><path class="st6" d="M551.9 304l-.4 1 1 .5.4-1zm2.6-1l-.4 1 1 .5.4-1zm2.6-.9l-.4 1 1 .4.4-1zm2.6-1l-.4 1 1 .4.4-.9zm2.6-1l-.4 1 1 .5.4-1zm2.6-1l-.4 1 1 .5.4-1zm2.6-.9l-.4 1 1 .4.4-1z"/><path transform="rotate(-65.083 570.395 297.93)" class="st6" d="M569.9 297.4h1.1v1.1h-1.1z"/><path class="st6" d="M572.7 296.2l-.4 1 1 .5.4-1zm2.7-1l-.5 1 1 .5.4-1zm2.5-.9l-.4 1 1 .4.4-1zm2.6-1l-.4 1 1 .5.4-1zm2.6-1l-.4 1 1 .5.4-1z"/><path transform="rotate(-65.211 585.993 292.058)" class="st6" d="M585.5 291.5h1.1v1.1h-1.1z"/><path transform="rotate(-65.211 588.59 291.082)" class="st6" d="M588.1 290.6h1.1v1.1h-1.1z"/><path class="st6" d="M590.9 289.4l-.4 1 1 .4.4-.9zm2.6-1l-.4 1 1 .5.4-1zm2.7-1l-.5 1 1 .5.4-1zm2.5-.9l-.4 1 1 .4.4-1zm2.6-1l-.4 1 1 .5.4-1zm2.6-1l-.4 1 1 .5.4-1zm2.6-.9l-.4.9 1 .5.4-1zm2.6-1l-.4 1 1 .4.4-1zm2.6-1l-.4 1 1 .5.4-1zm2.6-1l-.4 1 1 .5.4-1zm2.6-.9l-.4.9 1 .5.4-1zm2.6-1l-.4 1 1 .4.4-1zm2.6-1l-.4 1 1 .4.4-.9zm2.6-1l-.4 1 1 .5.4-1zm2.6-.9l-.4 1 1 .4.4-1zm2.6-1l-.4 1 1 .4.4-1zm2.6-1l-.4 1 1 .4.4-.9z"/><path transform="rotate(-65.09 635.391 273.546)" class="st6" d="M634.9 273h1.1v1.1h-1.1z"/><path class="st6" d="M637.7 271.9l-.4 1 1 .4.4-1zm2.6-1l-.4 1 1 .4.4-1z"/><path transform="rotate(-65.765 643.202 270.616)" class="st6" d="M642.7 270.1h1.1v1.1h-1.1z"/><path class="st6" d="M645.5 268.9l-.4 1 1 .5.4-1zm2.6-1l-.4 1 1 .5.4-1z"/><path transform="rotate(-65.23 650.971 267.703)" class="st6" d="M650.5 267.2h1.1v1.1h-1.1z"/><path transform="rotate(-65.682 653.57 266.72)" class="st6" d="M653.1 266.2h1.1v1.1h-1.1z"/><path class="st6" d="M655.9 265l-.4 1 1 .5.4-1zm2.6-.9l-.4.9 1 .5.4-1zm2.7-1l-.5 1 1 .4.4-1zm2.6-1l-.5 1 1 .5.4-1zm2.5-1l-.4 1 1 .5.4-1zm2.7-.9l-.5 1 1 .4.4-1zm2.6-1l-.5 1 1 .4.4-1zm2.5-1l-.4 1 1 .5.4-1zm2.6-1l-.4 1 1 .5.4-1zm2.7-.9l-.5 1 1 .4.4-1zm2.5-1l-.4 1 1 .4.4-1zm2.6-1l-.4 1 1 .5.4-1zm2.6-1l-.4 1 1 .5.4-1z"/><path transform="rotate(-65.303 690.03 253.094)" class="st6" d="M689.5 252.5h1.1v1.1h-1.1z"/><path class="st6" d="M692.4 251.4l-.5 1 1 .4.4-1zm2.6-1l-.5 1 1 .5.4-1zM371.2 391.5l-.4 1 .9.5.5-1zm2.6-.9l-.4 1 .9.4.5-1zm2.6-1l-.4 1 1 .4.4-1zm2.6-1l-.4 1 .9.5.5-1zm2.6-.9l-.4.9 1 .5.4-1zm2.6-1l-.4 1 1 .4.4-1zm2.6-1l-.4 1 .9.5.5-1.1zm2.6-1l-.4 1 .9.5.5-1zm2.6-1l-.4 1 .9.5.5-1zm2.6-.9l-.4 1 .9.4.5-1zm2.6-1l-.4 1 .9.4.5-1zm2.6-1l-.4 1 1 .5.4-1zm2.6-1l-.4 1 .9.5.5-1zm2.6-.9l-.4 1 .9.4.5-1zm2.6-1l-.4 1 .9.4.5-.9zm2.6-1l-.4 1 1 .5.4-1zm2.6-1l-.4 1 1 .5.4-1zm2.6-.9l-.4 1 1 .4.4-1zm2.6-1l-.4 1 .9.5.5-1zm2.6-1l-.4 1 1 .5.4-1zm2.6-.9l-.4.9 1 .5.4-1zm2.6-1l-.4 1 .9.4.5-1zm2.6-1l-.4 1 .9.5.5-1zm2.6-1l-.4 1 1 .5.4-1z"/><path transform="rotate(-65.449 433.886 368.872)" class="st6" d="M433.3 368.3h1.1v1.1h-1.1z"/><path class="st6" d="M436.2 367.2l-.4 1 .9.4.5-1zm2.6-1l-.4 1 1 .5.4-1zm2.6-1l-.4 1 .9.5.5-1zm2.6-1l-.4 1 1 .5.4-1zm2.6-.9l-.4 1 .9.4.5-1zm2.6-1l-.4 1 1 .5.4-1zm2.6-1l-.4 1 .9.5.5-1zm2.6-.9l-.4.9 1 .5.4-1z"/><path transform="rotate(-65.342 457.266 360.109)" class="st6" d="M456.7 359.6h1.1v1.1h-1.1z"/><path class="st6" d="M459.6 358.4l-.4 1 .9.5.5-1zm2.6-1l-.4 1 .9.5.5-1zm2.6-.9l-.4 1 1 .4.4-1zm2.6-1l-.4 1 .9.4.5-1zm2.6-1l-.4 1 1 .5.4-1zm2.6-1l-.4 1 1 .5.4-1zm2.6-.9l-.4 1 1 .4.4-1zm2.6-1l-.4 1 1 .4.4-1zm2.6-1l-.4 1 .9.5.5-1zm2.6-1l-.4 1 1 .5.4-1zm2.6-.9l-.4.9 1 .5.4-1zm2.6-1l-.4 1 1 .4.4-1zm2.6-1l-.4 1 .9.5.5-1zm2.6-1l-.4 1 1 .5.4-1zm2.6-.9l-.4 1 1 .4.4-1zm2.6-1l-.4 1 1 .4.4-1zm2.6-1l-.4 1 1 .5.4-1zm2.6-1l-.4 1 .9.5.5-1zm2.6-.9l-.4 1 1 .4.4-1zm2.6-1l-.4 1 1 .4.4-1zm2.6-1l-.4 1 .9.5.5-1zm2.6-1l-.4 1 1 .5.4-1zm2.6-.9l-.4 1 .9.4.5-1zm2.6-1l-.4 1 1 .4.4-1z"/><path transform="rotate(-65.064 522.312 335.73)" class="st6" d="M521.7 335.2h1.1v1.1h-1.1z"/><path transform="rotate(-65.55 524.902 334.772)" class="st6" d="M524.3 334.2h1.1v1.1h-1.1z"/><path class="st6" d="M527.2 333.1l-.4 1 .9.4.5-1zm2.6-1l-.4 1 .9.4.5-1zm2.6-1l-.4 1 1 .5.4-1zm2.6-1l-.4 1 1 .5.4-1zm2.6-.9l-.4 1 .9.4.5-1zm2.6-1l-.4 1 1 .4.4-1zm2.6-1l-.4 1 1 .5.4-1zm2.6-1l-.4 1 1 .5.4-1zm2.6-.9l-.4 1 1 .4.4-1zm2.6-1l-.4 1 1 .4.4-1zm2.6-1l-.4 1 1 .5.4-1zm2.6-1l-.4 1 .9.5.5-1zm2.6-.9l-.4 1 1 .4.4-1zm2.6-1l-.4 1 1 .4.4-1zm2.6-1l-.4 1 1 .5.4-1zm2.6-1l-.4 1 1 .5.4-1zm2.6-.9l-.4 1 1 .4.4-1zm2.6-1l-.4 1 1 .4.4-1zm2.6-1l-.4 1 1 .5.4-1zm2.6-1l-.4 1 1 .5.4-1zm2.6-.9l-.4 1 .9.4.5-1zm2.6-1l-.4 1 1 .4.4-1zm2.6-1l-.4 1 1 .5.4-1zm2.6-1l-.4 1 .9.5.5-1zm2.6-.9l-.4 1 1 .4.4-1zm2.6-1l-.4 1 1 .4.4-.9zm2.6-1l-.4 1 1 .5.4-1zm2.6-1l-.4 1 1 .5.4-1zm2.6-.9l-.4 1 1 .4.4-1zm2.6-1l-.4 1 1 .4.4-.9zm2.6-1l-.4 1 .9.5.5-1zm2.6-1l-.4 1 1 .5.4-1z"/><path transform="rotate(-65.083 610.68 302.608)" class="st6" d="M610.1 302.1h1.1v1.1h-1.1z"/><path class="st6" d="M613 300.9l-.4 1 1 .4.4-1zm2.6-1l-.4 1 1 .5.4-1zm2.6-1l-.4 1 1 .5.4-1zm2.6-.9l-.4 1 1 .4.4-1zm2.6-1l-.4 1 1 .4.4-.9zm2.6-1l-.4 1 1 .5.4-1zm2.6-.9l-.4.9 1 .5.4-1zm2.6-1l-.4 1 1 .4.4-1zm2.6-1l-.4 1 1 .5.4-1zm2.6-1l-.4 1 1 .5.4-1zm2.6-1l-.4 1 1 .5.4-1zm2.6-.9l-.4 1 1 .4.4-1z"/><path transform="rotate(-65.783 644.46 289.926)" class="st6" d="M644 289.4h1.1v1.1H644z"/><path class="st6" d="M646.8 288.2l-.4 1 1 .5.4-1zm2.6-1l-.4 1 1 .5.4-1zm2.6-.9l-.4 1 1 .4.4-1zm2.6-1l-.4 1 1 .4.4-.9zm2.6-1l-.4 1 1 .5.4-1zm2.6-.9l-.4.9 1 .5.4-1zm2.6-1l-.4 1 1 .4.4-1zm2.6-1l-.4 1 1 .5.4-1zm2.6-1l-.4 1 1 .5.4-1zm2.6-1l-.4 1 1 .5.4-1zm2.6-.9l-.4 1 1 .4.4-1zm2.6-1l-.4 1 1 .5.4-1zm2.6-1l-.4 1 1 .5.4-1zm2.6-.9l-.4.9 1 .5.4-1zm2.6-1l-.4 1 1 .4.4-1zm2.6-1l-.4 1 1 .5.4-1zm2.6-1l-.4 1 1 .5.4-1zm2.6-1l-.4 1 1 .5.4-1zm2.6-.9l-.4 1 1 .4.4-1zm2.6-1l-.4 1 1 .5.4-1zm2.6-1l-.4 1 1 .5.4-1zm2.6-.9l-.4.9 1 .5.4-1zM377.7 408.9l-.5 1 1 .4.5-1z"/><path transform="rotate(-65.555 380.58 408.66)" class="st6" d="M380 408.1h1.1v1.1H380z"/><path class="st6" d="M382.9 406.9l-.5 1 1 .5.5-1z"/><path transform="rotate(-65.342 385.746 406.696)" class="st6" d="M385.2 406.1h1.1v1.1h-1.1z"/><path class="st6" d="M388.1 405l-.4 1 .9.4.5-1zm2.6-1l-.5 1 1 .5.5-1zm2.6-1l-.5 1 1 .5.5-1zm2.6-.9l-.5 1 1 .4.5-1zm2.6-1l-.5 1 1 .4.5-1zm2.6-1l-.5 1 1 .5.5-1zm2.6-1l-.4 1 .9.5.5-1zm2.6-.9l-.4 1 .9.4.5-1zm2.6-1l-.5 1 1 .4.5-.9zm2.6-1l-.5 1 1 .5.5-1zm2.6-1l-.4 1 .9.5.5-1zm2.6-.9l-.5 1 1 .4.5-1zm2.6-1l-.4 1 .9.4.5-.9zm2.6-1l-.5 1 1 .5.5-1zm2.6-.9l-.4.9.9.5.5-1zm2.6-1l-.4 1 .9.4.5-1zm2.6-1l-.4 1 .9.4.5-.9zm2.6-1l-.4 1 .9.5.5-1zm2.6-1l-.4 1 .9.5.5-1z"/><path transform="rotate(-65.342 437.751 387.199)" class="st6" d="M437.2 386.7h1.1v1.1h-1.1z"/><path class="st6" d="M440.1 385.5l-.4 1 .9.4.5-.9zm2.6-1l-.5 1 1 .5.5-1zm2.6-.9l-.5.9 1 .5.5-1zm2.6-1l-.5 1 1 .4.5-1zm2.6-1l-.4 1 .9.4.5-.9zm2.6-1l-.5 1 1 .5.5-1zm2.6-1l-.5 1 1 .5.5-1zm2.6-.9l-.5 1 1 .4.5-1zm2.6-1l-.4 1 .9.5.5-1zm2.6-1l-.5 1 1 .5.5-1zm2.6-1l-.4 1 .9.5.5-1zm2.6-.9l-.4 1 .9.4.5-1zm2.6-1l-.4 1 .9.5.5-1zm2.6-1l-.4 1 .9.5.5-1zm2.6-1l-.4 1 .9.5.5-1z"/><path transform="rotate(-65.442 479.376 371.614)" class="st6" d="M478.8 371.1h1.1v1.1h-1.1z"/><path class="st6" d="M481.7 369.9l-.5 1 1 .5.5-1zm2.6-1l-.4 1 .9.5.5-1zm2.6-.9l-.4 1 .9.4.5-1zm2.6-1l-.4 1 .9.4.5-1zm2.6-1l-.5 1 1 .5.5-1zm2.6-1l-.5 1 1 .5.5-1zm2.6-.9l-.5.9 1 .5.5-1zm2.6-1l-.4 1 .9.4.5-1zm2.6-1l-.4 1 .9.5.5-1zm2.6-1l-.4 1 .9.5.5-1z"/><path transform="rotate(-65.23 507.936 360.872)" class="st6" d="M507.4 360.3h1.1v1.1h-1.1z"/><path class="st6" d="M510.3 359.2l-.4 1 .9.4.5-1zm2.6-1l-.5 1 1 .5.5-1zm2.6-1l-.5 1 1 .5.5-1zm2.6-.9l-.4.9.9.5.5-1zm2.6-1l-.5 1 1 .4.5-1zm2.6-1l-.4 1 .9.5.5-1zm2.6-1l-.5 1 1 .5.5-1zm2.6-.9l-.4.9.9.5.5-1zm2.6-1l-.4 1 .9.4.5-1zm2.6-1l-.4 1 .9.5.5-1zm2.6-1l-.4 1 .9.5.5-1zm2.6-.9l-.4 1 .9.4.5-1zm2.6-1l-.4 1 .9.4.5-1zm2.6-1l-.4 1 .9.5.5-1zm2.6-1l-.4 1 .9.5.5-1zm2.6-.9l-.4 1 .9.4.5-1zm2.6-1l-.4 1 .9.4.5-1zm2.6-1l-.4 1 .9.5.5-1zm2.6-1l-.4 1 .9.5.5-1zm2.6-.9l-.4 1 .9.4.5-1zm2.6-1l-.4 1 .9.4.5-1zm2.6-1l-.4 1 .9.5.5-1zm2.6-1l-.4 1 .9.5.5-1zm2.6-.9l-.5 1 1 .4.5-1zm2.6-1l-.4 1 .9.4.5-1zm2.6-1l-.4 1 .9.5.5-1zm2.6-1l-.4 1 .9.5.5-1zm2.6-.9l-.4 1 .9.4.5-1zm2.6-1l-.4 1 .9.4.5-1zm2.6-1l-.4 1 .9.5.5-1zm2.6-1l-.4 1 .9.5.5-1zm2.6-.9l-.4 1 .9.4.5-1zm2.6-1l-.4 1 .9.4.5-.9zm2.6-1l-.4 1 .9.5.5-1zm2.6-1l-.4 1 .9.5.5-1zm2.6-.9l-.4 1 .9.4.5-1zm2.6-1l-.4 1 .9.4.5-1zm2.6-1l-.4 1 .9.5.5-1zm2.6-1l-.4 1 .9.5.5-1zm2.6-.9l-.4 1 .9.4.5-1zm2.6-1l-.4 1 .9.4.5-.9zm2.6-1l-.4 1 .9.5.5-1z"/><path transform="rotate(-65.323 619.805 318.95)" class="st6" d="M619.2 318.4h1.1v1.1h-1.1z"/><path class="st6" d="M622.1 317.3l-.4 1 .9.4.5-1zm2.6-1l-.4 1 1 .4.4-1zm2.6-1l-.5 1 1 .5.5-1zm2.6-1l-.4 1 .9.5.5-1zm2.6-.9l-.4 1 .9.4.5-1zm2.6-1l-.4 1 .9.5.5-1.1zm2.6-1l-.4 1 .9.5.5-1zm2.6-1l-.4 1 .9.5.5-1zm2.6-.9l-.4 1 .9.4.5-1zm2.6-1l-.4 1 .9.4.5-1zm2.6-1l-.4 1 .9.5.5-1zm2.6-1l-.4 1 .9.5.5-1zm2.6-.9l-.4 1 .9.4.5-1zm2.6-1l-.5 1 1 .5.5-1zm2.6-1l-.4 1 1 .5.4-1zm2.6-1l-.4 1 .9.5.5-1zm2.6-.9l-.4 1 .9.4.5-1zm2.6-1l-.4 1 .9.4.5-.9zm2.6-1l-.4 1 .9.5.5-1zm2.6-.9l-.4.9.9.5.5-1zm2.6-1l-.4 1 .9.4.5-1zm2.6-1l-.4 1 .9.4.5-.9zm2.6-1l-.4 1 .9.5.5-1zm2.6-.9l-.5 1 1 .4.5-1zm2.6-1l-.4 1 .9.4.5-1z"/><path transform="rotate(-65.183 687.408 293.644)" class="st6" d="M686.8 293.1h1.1v1.1h-1.1z"/><path class="st6" d="M689.7 291.9l-.4 1 .9.5.5-1zm2.6-1l-.4 1 .9.5.5-1zm2.6-.9l-.4 1 1 .4.4-1zm2.6-1l-.4 1 .9.4.5-.9z"/><path transform="rotate(-65.537 700.408 288.76)" class="st6" d="M699.8 288.2h1.1v1.1h-1.1z"/><path class="st6" d="M702.7 287.1l-.4 1 .9.4.5-1zm2.6-1l-.4 1 1 .4.4-1zm2.6-1l-.4 1 .9.5.5-1zM384.2 426.2l-.5 1 1 .5.5-1zm2.6-.9l-.5 1 1 .4.5-1zm2.6-1l-.5 1 1 .4.5-1zm2.6-1l-.5 1 1 .5.5-1zm2.6-1l-.5 1 1 .5.5-1zm2.6-.9l-.5 1 1 .4.5-1zm2.6-1l-.5 1 1 .4.5-1zm2.6-1l-.5 1 1 .5.5-1zm2.6-1l-.5 1 1 .5.5-1zm2.6-.9l-.5 1 1 .4.5-1zm2.6-1l-.5 1 1 .4.5-1zm2.6-1l-.5 1 1 .5.5-1zm2.6-1l-.5 1 1 .5.5-1zm2.6-.9l-.5 1 1 .4.5-1zm2.6-1l-.5 1 1 .4.5-1zm2.6-1l-.5 1 1 .5.5-1zm2.6-1l-.5 1 1 .5.5-1zm2.6-.9l-.5 1 1 .4.5-1zm2.6-1l-.5 1 1 .4.5-1zm2.6-1l-.5 1 1 .5.5-1zm2.6-1l-.5 1 1 .5.5-1zm2.6-.9l-.5 1 1 .4.5-1zm2.6-1l-.5 1 1 .4.5-1zm2.6-1l-.5 1 1 .5.5-1zm2.6-1l-.5 1 1 .5.5-1zm2.6-.9l-.5 1 1 .4.5-1zm2.6-1l-.5 1 1 .4.5-.9zm2.6-1l-.5 1 1 .5.5-1zm2.6-1l-.5 1 1 .5.5-1zm2.6-.9l-.5 1 1 .4.5-1zm2.6-1l-.5 1 1 .4.5-.9zm2.6-1l-.5 1 1 .5.5-1zm2.6-.9l-.5.9 1 .5.5-1zm2.6-1l-.5 1 1 .4.5-1zm2.6-1l-.5 1 1 .5.5-1zm2.6-1l-.5 1 1 .5.5-1zm2.6-1l-.5 1 1 .5.5-1zm2.6-.9l-.5 1 1 .4.5-1zm2.6-1l-.5 1 1 .4.5-.9zm2.6-1l-.5 1 1 .5.5-1zm2.6-1l-.5 1 1 .5.5-1zm2.6-.9l-.5 1 1 .4.5-1zm2.6-1l-.5 1 1 .5.5-1zm2.6-1l-.5 1 1 .5.5-1zm2.6-1l-.5 1 1 .5.5-1zm2.6-.9l-.5 1 1 .4.5-1zm2.6-1l-.5 1 1 .4.5-.9zm2.6-1l-.5 1 1 .5.5-1zm2.6-.9l-.5.9 1 .5.5-1zm2.6-1l-.5 1 1 .4.5-1zm2.6-1l-.5 1 1 .4.5-.9zm2.6-1l-.5 1 1 .5.5-1zm2.6-.9l-.5.9 1 .5.5-1z"/><path transform="rotate(-65.555 522.283 375.322)" class="st6" d="M521.7 374.8h1.1v1.1h-1.1z"/><path class="st6" d="M524.6 373.6l-.5 1 1 .5.5-1zm2.6-1l-.5 1 1 .5.5-1zm2.6-.9l-.5.9 1 .5.5-1zm2.6-1l-.5 1 1 .4.5-1zm2.6-1l-.5 1 1 .5.5-1zm2.6-1l-.5 1 1 .5.5-1zm2.6-1l-.5 1 1 .5.5-1zm2.6-.9l-.5 1 1 .4.5-1zm2.6-1l-.5 1 1 .4.5-.9zm2.6-1l-.5 1 1 .5.5-1zm2.6-.9l-.5.9 1 .5.5-1zm2.6-1l-.5 1 1 .4.5-1z"/><path transform="rotate(-64.894 556.048 362.643)" class="st6" d="M555.5 362.1h1.1v1.1h-1.1z"/><path class="st6" d="M558.4 360.9l-.5 1 1 .5.5-1zm2.6-.9l-.5 1 1 .4.5-1zm2.6-1l-.5 1 1 .4.5-1zm2.6-1l-.5 1 1 .5.5-1zm2.6-1l-.5 1 1 .5.5-1zm2.6-1l-.5 1.1 1 .4.5-1zm2.6-.9l-.4 1 .9.4.5-1zm2.6-1l-.5 1 1 .5.5-1zm2.6-1l-.5 1 1 .5.5-1zm2.6-.9l-.5 1 1 .4.5-1zm2.6-1l-.5 1 1 .4.5-1z"/><path transform="rotate(-65.323 587.283 350.922)" class="st6" d="M586.7 350.4h1.1v1.1h-1.1z"/><path class="st6" d="M589.6 349.2l-.4 1 .9.5.5-1zm2.6-.9l-.5 1 1 .4.5-1zm2.6-1l-.5 1 1 .4.5-1zm2.6-1l-.5 1 1 .5.5-1zm2.6-1l-.5 1 1 .5.5-1z"/><path transform="rotate(-65.109 602.887 345.09)" class="st6" d="M602.3 344.5h1.1v1.1h-1.1z"/><path class="st6" d="M605.2 343.4l-.5 1 1 .4.5-1zm2.6-1l-.5 1 1 .5.5-1zm2.6-1l-.5 1 1 .5.5-1zm2.6-.9l-.5 1 1 .4.5-1zm2.6-1l-.5 1 1 .4.5-.9zm2.6-1l-.5 1 1 .5.5-1zm2.6-1l-.5 1 1 .5.5-1zm2.6-.9l-.5 1 1 .4.5-1zm2.6-1l-.5 1 1 .4.5-1zm2.6-1l-.5 1 1 .5.5-1zm2.6-1l-.5 1 1 .5.5-1zm2.6-.9l-.5.9 1 .5.5-1zm2.6-1l-.5 1 1 .4.5-1zm2.6-1l-.5 1 1 .5.5-1zm2.6-1l-.5 1 1 .5.5-1zm2.6-.9l-.5 1 1 .4.5-1zm2.6-1l-.5 1 1 .4.5-1zm2.6-1l-.4 1 .9.5.5-1zm2.6-1l-.5 1 1 .5.5-1zm2.6-.9l-.5 1 1 .4.5-1zm2.6-1l-.5 1 1 .4.5-1zm2.6-1l-.5 1 1 .5.5-1zm2.6-1l-.5 1 1 .5.5-1zm2.6-.9l-.5 1 1 .4.5-1zm2.6-1l-.5 1 1 .4.5-1zm2.6-1l-.4 1 .9.5.5-1zm2.6-1l-.5 1 1 .5.5-1zm2.6-.9l-.5 1 1 .4.5-1zm2.6-1l-.5 1 1 .4.5-.9zm2.6-1l-.4 1 .9.5.5-1zm2.6-.9l-.5.9 1 .5.5-1zm2.6-1l-.5 1 1 .4.5-1zm2.6-1l-.5 1 1 .4.5-1zm2.6-1l-.5 1 1 .5.5-1zm2.6-.9l-.4.9.9.5.5-1zm2.6-1l-.4 1 .9.4.5-1zm2.6-1l-.5 1 1 .4.5-.9zm2.6-1l-.5 1 1 .5.5-1zm2.6-1l-.4 1 .9.5.5-1zm2.6-.9l-.5 1 1 .4.5-1zm2.6-1l-.5 1 1 .5.5-1zm2.6-1l-.5 1 1 .5.5-1zm2.6-1l-.5 1 1 .5.5-1zM390.7 443.6l-.5 1 1 .4.5-1zm2.6-1l-.5 1 1 .5.4-1zm2.6-1l-.5 1 1 .5.5-1zm2.6-.9l-.5.9 1 .5.5-1zm2.6-1l-.5 1 1 .4.5-1zm2.6-1l-.5 1 1 .5.5-1zm2.6-1l-.5 1 1 .5.5-1z"/><path transform="rotate(-65.23 409.103 437.47)" class="st6" d="M408.6 436.9h1.1v1.1h-1.1z"/><path class="st6" d="M411.5 435.8l-.5 1 1 .4.4-1zm2.6-1l-.5 1 1 .5.4-1zm2.6-1l-.5 1 1 .5.5-1zm2.6-.9l-.5 1 1 .4.5-1z"/><path transform="rotate(-65.298 422.122 432.604)" class="st6" d="M421.6 432.1h1.1v1.1h-1.1z"/><path class="st6" d="M424.5 430.9l-.5 1 1 .5.5-1zm2.6-1l-.5 1 1 .5.5-1zm2.6-.9l-.5.9 1 .5.5-1zm2.6-1l-.5 1 1 .4.5-1zm2.6-1l-.5 1 1 .5.5-1z"/><path transform="rotate(-65.298 437.725 426.756)" class="st6" d="M437.2 426.2h1.1v1.1h-1.1z"/><path class="st6" d="M440.1 425.1l-.5 1 1 .4.5-1zm2.6-1l-.5 1 1 .4.5-1zm2.6-1l-.5 1 1 .5.5-1zm2.6-1l-.5 1 1 .5.5-1zm2.6-.9l-.5 1 1 .4.5-1zm2.6-1l-.5 1 1 .4.4-1zm2.6-1l-.5 1 1 .5.5-1zm2.6-1l-.5 1 1 .5.5-1zm2.6-.9l-.5 1 1 .4.5-1zm2.6-1l-.5 1 1 .4.5-1zm2.6-1l-.5 1 1 .5.5-1zm2.6-1l-.5 1 1 .5.4-1zm2.6-.9l-.5 1 1 .4.5-1zm2.6-1l-.5 1 1 .4.5-1z"/><path transform="rotate(-65.211 476.728 412.12)" class="st6" d="M476.2 411.6h1.1v1.1h-1.1z"/><path class="st6" d="M479.1 410.4l-.5 1 1 .5.5-1zm2.6-.9l-.5 1 1 .4.5-1zm2.6-1l-.5 1 1 .4.5-1zm2.6-1l-.5 1 1 .5.5-1zm2.6-1l-.5 1 1 .5.5-1zm2.6-.9l-.5 1 1 .4.5-1zm2.6-1l-.5 1 1 .4.5-.9zm2.6-1l-.5 1 1 .5.5-1zm2.6-1l-.5 1 1 .5.5-1zm2.6-.9l-.5 1 1 .4.5-1z"/><path transform="rotate(-65.442 505.343 401.435)" class="st6" d="M504.8 400.9h1.1v1.1h-1.1z"/><path class="st6" d="M507.7 399.7l-.5 1 1 .5.5-1zm2.6-1l-.5 1 1 .5.5-1zm2.6-.9l-.5 1 1 .4.5-1zm2.6-1l-.5 1 1 .5.5-1zm2.6-1l-.5 1 1 .5.5-1zm2.6-1l-.5 1 1 .5.5-1z"/><path transform="rotate(-65.783 523.507 394.595)" class="st6" d="M523 394.1h1.1v1.1H523z"/><path class="st6" d="M525.9 392.9l-.5 1 1 .4.5-.9zm2.6-1l-.5 1 1 .5.5-1zm2.6-.9l-.5.9 1 .5.5-1zm2.6-1l-.5 1 1 .4.5-1zm2.6-1l-.5 1 1 .5.5-1zm2.6-1l-.5 1 1 .5.5-1zm2.6-.9l-.5.9 1 .5.5-1zm2.6-1l-.5 1 1 .4.5-1zm2.6-1l-.5 1 1 .4.5-.9zm2.6-1l-.5 1 1 .5.5-1zm2.6-1l-.5 1 1 .5.5-1zm2.6-.9l-.5 1 1 .4.5-1zm2.6-1l-.5 1 1 .5.5-1zm2.6-1l-.5 1 1 .5.5-1zm2.6-.9l-.5.9 1 .5.5-1z"/><path transform="rotate(-65.437 565.132 379.003)" class="st6" d="M564.6 378.5h1.1v1.1h-1.1z"/><path class="st6" d="M567.5 377.3l-.5 1 1 .5.5-1zm2.6-1l-.5 1 1 .5.5-1zm2.6-.9l-.5.9 1 .5.5-1zm2.6-1l-.5 1 1 .4.5-1zm2.6-1l-.5 1 1 .5.5-1zm2.6-1l-.5 1 1 .5.5-1zm2.6-.9l-.5.9 1 .5.5-1zm2.6-1l-.5 1 1 .4.5-1zm2.6-1l-.5 1 1 .5.5-1zm2.6-1l-.5 1 1 .5.5-1zm2.6-.9l-.5.9 1 .5.5-1zm2.6-1l-.5 1 1 .4.5-1zm2.6-1l-.5 1 1 .4.5-.9zm2.6-1l-.5 1 1 .5.5-1zm2.6-.9l-.5.9 1 .5.5-1zm2.6-1l-.5 1 1 .4.5-1zm2.6-1l-.5 1 1 .5.5-1zm2.6-1l-.5 1 1 .5.5-1zm2.6-.9l-.5.9 1 .5.5-1zm2.6-1l-.5 1 1 .4.5-1zm2.6-1l-.5 1 1 .5.5-1zm2.6-1l-.5 1 1 .5.5-1zm2.6-.9l-.5 1 1 .4.5-1zm2.6-1l-.5 1 1 .4.5-1zm2.6-1l-.5 1 1 .5.5-1z"/><path transform="rotate(-65.211 632.722 353.642)" class="st6" d="M632.2 353.1h1.1v1.1h-1.1z"/><path class="st6" d="M635.1 352l-.5 1 1 .4.5-1zm2.6-1l-.5 1 1 .4.5-1zm2.6-1l-.5 1 1 .5.5-1zm2.6-1l-.5 1 1 .5.5-1zm2.6-.9l-.5 1 1 .4.5-1zm2.6-1l-.5 1 1 .4.5-1zm2.6-1l-.5 1 1 .5.5-1zm2.6-1l-.5 1 1 .5.5-1zm2.6-.9l-.5 1 1 .4.5-1zm2.6-1l-.5 1 1 .4.5-1zm2.6-1l-.5 1 1 .5.5-1zm2.6-1l-.5 1 1 .5.5-1zm2.6-.9l-.5 1 1 .4.5-1zm2.6-1l-.5 1 1 .4.5-1z"/><path transform="rotate(-65.23 671.71 339.034)" class="st6" d="M671.2 338.5h1.1v1.1h-1.1z"/><path class="st6" d="M674.1 337.3l-.5 1 1 .5.5-1zm2.6-.9l-.5 1 1 .4.5-1zm2.6-1l-.5 1 1 .4.5-1zm2.6-1l-.5 1 1 .5.5-1zm2.6-1l-.5 1 1 .5.5-1zm2.6-.9l-.5 1 1 .4.5-1zm2.6-1l-.5 1 1 .4.5-1zm2.6-1l-.5 1 1 .5.5-1zm2.6-1l-.5 1 1 .5.5-1zm2.6-.9l-.5 1 1 .4.5-1zm2.6-1l-.5 1 1 .4.5-1zm2.6-1l-.5 1 1 .5.5-1zm2.6-1l-.5 1 1 .5.5-1zm2.6-.9l-.5 1 1 .4.5-1zm2.6-1l-.5 1 1 .4.5-1z"/><path transform="rotate(-65.008 713.345 323.43)" class="st6" d="M712.8 322.9h1.1v1.1h-1.1z"/><path class="st6" d="M715.7 321.7l-.5 1 1 .5.5-1zm2.6-.9l-.5 1 1 .4.5-1zm2.6-1l-.5 1 1 .4.5-1zM397.2 460.9l-.5 1 1 .5.4-1zm2.5-1l-.4 1 1 .5.4-1zm2.7-.9l-.5 1 1 .4.4-1zm2.5-1l-.4 1 1 .4.4-.9zm2.7-1l-.5 1 1 .5.4-1zm2.6-.9l-.5.9 1 .5.4-1zm2.6-1l-.5 1 1 .4.4-1zm2.6-1l-.5 1 1 .5.4-1zm2.6-1l-.5 1 1 .5.4-1zm2.6-.9l-.5.9 1 .5.4-1z"/><path transform="rotate(-65.323 423.449 451.898)" class="st6" d="M422.9 451.4h1.1v1.1h-1.1z"/><path class="st6" d="M425.8 450.2l-.5 1 1 .4.4-.9zm2.6-1l-.5 1 1 .5.4-1zm2.6-.9l-.5.9 1 .5.4-1zm2.5-1l-.4 1 1 .4.4-1zm2.7-1l-.5 1 1 .5.4-1zm2.6-1l-.5 1 1 .5.4-1zm2.6-.9l-.5 1 1 .4.4-1zm2.6-1l-.5 1 1 .4.4-1zm2.6-1l-.5 1 1 .5.4-1zm2.5-1l-.4 1 1 .5.4-1zm2.7-.9l-.5.9 1 .5.4-1zm2.6-1l-.5 1 1 .4.4-1zm2.6-1l-.5 1 1 .5.4-1zm2.6-1l-.5 1 1 .5.4-1zm2.6-.9l-.5 1 1 .4.5-1zm2.6-1l-.5 1 1 .4.4-1zm2.6-1l-.5 1 1 .5.4-1zm2.6-1l-.5 1 1 .5.4-1zm2.6-.9l-.5 1 1 .4.4-1zm2.6-1l-.5 1 1 .4.4-1zm2.6-1l-.5 1 1 .5.5-1zm2.6-1l-.5 1 1 .5.4-1zm2.6-.9l-.5 1 1 .4.4-1zm2.6-1l-.5 1 1 .4.4-1zm2.6-1l-.5 1 1 .5.4-1zm2.6-1l-.5 1 1 .5.4-1zm2.6-.9l-.5 1 1 .4.5-1zm2.6-1l-.5 1 1 .4.4-1zm2.6-1l-.5 1 1 .5.4-1zm2.6-1l-.5 1 1 .5.4-1zm2.6-.9l-.5 1 1 .4.4-1zm2.6-1l-.5 1 1 .4.5-1zm2.6-1l-.5 1 1 .5.4-1zm2.6-1l-.5 1 1 .5.4-1zm2.6-.9l-.5 1 1 .4.4-1zm2.6-1l-.5 1 1 .4.5-1zm2.6-1l-.5 1 1 .5.4-1zm2.6-1l-.5 1 1 .5.4-1z"/><path transform="rotate(-65.58 524.856 413.91)" class="st6" d="M524.3 413.3h1.1v1.1h-1.1z"/><path transform="rotate(-65.23 527.391 412.906)" class="st6" d="M526.9 412.4h1.1v1.1h-1.1z"/><path class="st6" d="M529.8 411.2l-.5 1 1 .5.4-1zm2.6-1l-.5 1 1 .5.5-1zm2.6-.9l-.5 1 1 .4.4-1zm2.6-1l-.5 1 1 .4.4-.9zm2.6-1l-.5 1 1 .5.4-1zm2.6-1l-.5 1 1 .5.4-1zm2.6-.9l-.5 1 1 .4.5-1zm2.6-1l-.5 1 1 .4.5-1zm2.6-1l-.5 1 1 .5.4-1zm2.6-.9l-.5 1 1 .4.4-1zm2.6-1l-.5 1 1 .4.4-1zm2.6-1l-.5 1 1 .5.4-1zm2.6-1l-.5 1 1 .5.4-1zm2.6-1l-.5 1 1 .5.4-1zm2.6-.9l-.5 1 1 .4.4-1zm2.6-1l-.5 1 1 .5.5-1zm2.6-1l-.5 1 1 .5.4-1zm2.6-.9l-.5.9 1 .5.4-1zm2.6-1l-.5 1 1 .4.4-1zm2.6-1l-.5 1 1 .5.4-1zm2.6-1l-.5 1 1 .5.4-1zm2.6-1l-.5 1.1 1 .4.4-1zm2.6-.9l-.5 1 1 .4.5-1zm2.6-1l-.5 1 1 .5.5-1zm2.6-1l-.5 1 1 .5.4-1zm2.6-1l-.5 1 1 .5.4-1zm2.6-.9l-.5 1 1 .4.4-1zm2.6-1l-.5 1 1 .4.4-.9zm2.6-1l-.5 1 1 .5.5-1zm2.6-.9l-.5.9 1 .5.4-1zm2.6-1l-.5 1 1 .4.4-1zm2.6-1l-.5 1 1 .5.4-1zm2.6-1l-.5 1 1 .5.4-1zm2.6-.9l-.5.9 1 .5.5-1zm2.6-1l-.5 1 1 .4.5-1zm2.6-1l-.5 1 1 .4.4-.9zm2.6-1l-.5 1 1 .5.4-1zm2.6-.9l-.5 1 1 .4.5-1zm2.6-1l-.5 1 1 .4.5-1zm2.6-1l-.5 1 1 .5.5-1zm2.6-1l-.5 1 1 .5.4-1zm2.6-1l-.5 1 1 .5.5-1zm2.6-.9l-.5 1 1 .4.4-1zm2.6-1l-.5 1 1 .5.4-1zm2.6-1l-.5 1 1 .5.4-1zm2.6-.9l-.5 1 1 .4.5-1zm2.6-1l-.5 1 1 .4.4-1zm2.6-1l-.5 1 1 .5.5-1zm2.6-1l-.5 1 1 .5.4-1zm2.6-.9l-.5 1 1 .4.4-1zm2.6-1l-.5 1 1 .4.5-1zm2.6-1l-.5 1 1 .5.5-1zm2.6-1l-.5 1 1 .5.5-1zm2.6-.9l-.5 1 1 .4.4-1zm2.6-1l-.5 1 1 .4.5-1zm2.6-1l-.5 1 1 .5.5-1zm2.6-1l-.5 1 1 .5.5-1zm2.6-.9l-.5 1 1 .4.5-1zm2.6-1l-.5 1 1 .4.5-1zm2.6-1l-.5 1 1 .5.4-1zm2.6-1l-.5 1 1 .5.5-1z"/><path transform="rotate(-65.555 688.665 352.507)" class="st6" d="M688.1 351.9h1.1v1.1h-1.1z"/><path class="st6" d="M691 350.8l-.5 1 1 .4.5-1zm2.6-1l-.5 1 1 .5.4-1zm2.6-1l-.5 1 1 .5.4-1zm2.6-.9l-.5 1 1 .4.5-1zm2.6-1l-.5 1 1 .4.5-.9zm2.6-1l-.5 1 1 .5.5-1zm2.6-1l-.5 1 1 .5.4-1zm2.6-.9l-.5 1 1 .4.4-1zm2.6-1l-.5 1 1 .4.5-1zm2.6-1l-.5 1 1 .5.5-1zm2.6-1l-.5 1 1 .5.5-1zm2.6-.9l-.5 1 1 .4.5-1zm2.6-1l-.5 1 1 .4.5-1zm2.6-1l-.5 1 1 .5.5-1zm2.6-1l-.5 1 1 .5.5-1zM403.6 478.3l-.4 1 1 .4.4-1zm2.6-1l-.4 1 1 .4.4-.9zm2.6-1l-.4 1 1 .5.4-1zm2.6-.9l-.4.9 1 .5.4-1zm2.6-1l-.4 1 1 .4.4-1zm2.6-1l-.4 1 1 .5.4-1zm2.6-1l-.4 1 1 .5.4-1zm2.6-.9l-.4.9 1 .5.4-1zm2.6-1l-.4 1 1 .4.4-1zm2.6-1l-.4 1 1 .5.4-1zm2.6-1l-.4 1 1 .5.4-1zm2.6-.9l-.4 1 1 .4.4-1zm2.6-1l-.4 1 1 .4.4-1zm2.6-1l-.4 1 1 .5.4-1zm2.6-1l-.4 1 1 .5.4-1zm2.7-.9l-.5.9 1 .5.4-1zm2.5-1l-.4 1 1 .4.4-1zm2.6-1l-.4 1 1 .5.4-1zm2.6-1l-.4 1 1 .5.4-1zm2.6-.9l-.4.9 1 .5.4-1zm2.6-1l-.4 1 1 .4.4-1zm2.6-1l-.4 1 1 .5.4-1zm2.6-1l-.4 1 1 .5.4-1zm2.6-.9l-.4 1 1 .4.4-1zm2.6-1l-.4 1 1 .4.4-1zm2.6-1l-.4 1 1 .5.4-1zm2.7-1l-.5 1 1 .5.4-1zm2.6-.9l-.5 1 1 .4.4-1zm2.5-1l-.4 1 1 .4.4-1zm2.6-1l-.4 1 1 .5.4-1zm2.6-1l-.4 1 1 .5.4-1zm2.6-.9l-.4.9 1 .5.4-1zm2.7-1l-.5 1 1 .4.4-1zm2.5-1l-.4 1 1 .5.4-1zm2.6-1l-.4 1 1 .5.4-1zm2.6-.9l-.4.9 1 .5.4-1zm2.7-1l-.5 1 1 .4.4-1zm2.5-1l-.4 1 1 .5.4-1zm2.6-1l-.4 1 1 .5.4-1z"/><path transform="rotate(-65.695 505.296 440.968)" class="st6" d="M504.8 440.4h1.1v1.1h-1.1z"/><path class="st6" d="M507.6 439.3l-.4 1 1 .4.4-1zm2.6-1l-.4 1 1 .5.4-1zm2.7-1l-.5 1 1 .5.4-1zm2.5-.9l-.4 1 1 .4.4-1zm2.6-1l-.4 1 1 .4.4-.9zm2.6-1l-.4 1 1 .5.4-1zm2.6-1l-.4 1 1 .5.4-1zm2.6-.9l-.4 1 1 .4.4-1z"/><path transform="rotate(-65.342 528.692 432.22)" class="st6" d="M528.2 431.7h1.1v1.1h-1.1z"/><path class="st6" d="M531.1 430.5l-.5 1 1 .5.4-1zm2.5-1l-.4 1 1 .5.4-1zm2.6-.9l-.4 1 1 .4.4-1zm2.7-1l-.5 1 1 .4.4-1zm2.5-1l-.4 1 1 .5.4-1zm2.6-1l-.4 1 1 .5.4-1zm2.6-.9l-.4 1 1 .4.4-1zm2.6-1l-.4 1 1 .4.4-.9zm2.6-1l-.4 1 1 .5.4-1zm2.6-1l-.4 1 1 .5.4-1zm2.6-.9l-.4 1 1 .4.4-1zm2.7-1l-.5 1 1 .4.4-1zm2.5-1l-.4 1 1 .5.4-1zm2.6-1l-.4 1 1 .5.4-1zm2.7-.9l-.5 1 1 .4.4-1zm2.6-1l-.5 1 1 .4.4-1zm2.6-1l-.5 1 1 .5.4-1zm2.5-.9l-.4.9 1 .5.4-1zm2.6-1l-.4 1 1 .4.4-1zm2.6-1l-.4 1 1 .4.4-1zm2.7-1l-.5 1 1 .5.4-1zm2.6-1l-.5 1 1 .5.4-1zm2.5-.9l-.4 1 1 .4.4-1zm2.7-1l-.5 1 1 .4.4-1zm2.6-1l-.5 1 1 .5.4-1zm2.6-1l-.5 1 1 .5.4-1zm2.6-.9l-.5 1 1 .4.4-1zm2.6-1l-.5 1 1 .5.4-1.1zm2.5-1l-.4 1 1 .5.4-1zm2.7-1l-.5 1.1 1 .4.4-1zm2.5-.9l-.4 1 1 .4.4-1zm2.7-1l-.5 1 1 .4.4-.9zm2.5-1l-.4 1 1 .5.4-1zm2.6-.9l-.4.9 1 .5.4-1zm2.7-1l-.5 1 1 .4.4-1zm2.6-1l-.5 1 1 .5.4-1zm2.6-1l-.5 1 1 .5.4-1zm2.6-1l-.5 1 1 .5.4-1zm2.5-.9l-.4 1 1 .4.4-1zm2.6-1l-.4 1 1 .5.4-1zm2.6-1l-.4 1 1 .5.4-1zm2.6-1l-.4 1 1 .5.4-1zm2.7-.9l-.5 1 1 .4.4-1zm2.6-1l-.5 1 1 .5.4-1zm2.6-1l-.5 1 1 .5.4-1zm2.6-.9l-.5.9 1 .5.4-1zm2.5-1l-.4 1 1 .4.4-1zm2.7-1l-.5 1 1 .5.4-1zm2.6-1l-.5 1 1 .5.4-1zm2.6-.9l-.5.9 1 .5.4-1zm2.6-1l-.5 1 1 .4.4-1zm2.6-1l-.5 1 1 .5.4-1zm2.6-1l-.5 1 1 .5.4-1zm2.6-.9l-.5.9 1 .5.4-1zm2.6-1l-.5 1 1 .4.4-1zm2.6-1l-.5 1 1 .5.4-1zm2.5-1l-.4 1 1 .5.4-1zm2.7-1l-.5 1.1 1 .4.4-1zm2.6-.9l-.5 1 1 .4.4-1zm2.6-1l-.5 1 1 .5.4-1zm2.6-1l-.5 1 1 .5.4-1z"/><path transform="rotate(-65.58 689.953 371.798)" class="st6" d="M689.4 371.2h1.1v1.1h-1.1z"/><path class="st6" d="M692.3 370.1l-.5 1 1 .4.4-1zm2.5-1l-.4 1 1 .4.4-.9zm2.7-1l-.5 1 1 .5.4-1zm2.5-.9l-.4 1 1 .4.4-1zm2.7-1l-.5 1 1 .4.4-1zm2.5-1l-.4 1 1 .5.4-1zm2.7-1l-.5 1 1 .5.4-1zm2.6-.9l-.5.9 1 .5.4-1zm2.6-1l-.5 1 1 .4.4-1zm2.6-1l-.5 1 1 .5.4-1zm2.5-1l-.4 1 1 .5.4-1zm2.6-.9l-.4 1 1 .4.4-1zm2.7-1l-.5 1 1 .4.4-1zm2.6-1l-.5 1 1 .5.4-1zm2.6-1l-.5 1 1 .5.4-1zm2.6-.9l-.5 1 1 .4.4-1zm2.6-1l-.5 1 1 .4.4-1zM410.1 495.6l-.4 1 1 .5.4-1zm2.6-1l-.4 1 1 .5.4-1zm2.6-.9l-.4 1 1 .4.4-1zm2.6-1l-.4 1 1 .4.4-1zm2.6-1l-.4 1 1 .5.4-1zm2.6-1l-.4 1 1 .5.4-1zm2.6-.9l-.4 1 1 .4.4-1zm2.6-1l-.4 1 1 .4.4-.9zm2.6-1l-.4 1 1 .5.4-1z"/><path transform="rotate(-65.23 433.757 487.56)" class="st6" d="M433.2 487h1.1v1.1h-1.1z"/><path class="st6" d="M436.1 485.9l-.4 1 1 .4.4-1zm2.6-1l-.4 1 1 .4.4-.9zm2.6-1l-.4 1 1 .5.4-1zm2.6-.9l-.4.9 1 .5.4-1zm2.6-1l-.4 1 1 .4.4-1zm2.6-1l-.4 1 1 .4.4-1zm2.6-1l-.4 1 .9.5.5-1zm2.6-.9l-.4 1 1 .4.4-1zm2.6-1l-.4 1 1 .4.4-1zm2.6-1l-.4 1 1 .5.4-1zm2.6-1l-.4 1 1 .5.4-1zm2.6-1l-.4 1.1 1 .4.4-1zm2.6-.9l-.4 1 1 .4.4-1zm2.6-1l-.4 1 1 .5.4-1zm2.6-1l-.4 1 1 .5.4-1zm2.6-.9l-.4.9 1 .5.4-1zm2.6-1l-.4 1 1 .4.4-1zm2.6-1l-.4 1 1 .5.4-1zm2.6-1l-.4 1 1 .5.4-1zm2.6-.9l-.4.9 1 .5.4-1zm2.6-1l-.4 1 1 .4.4-1zm2.6-1l-.4 1 1 .5.4-1zm2.6-1l-.4 1 1 .5.4-1zm2.6-.9l-.4.9 1 .5.4-1zm2.6-1l-.4 1 1 .4.4-1zm2.6-1l-.4 1 1 .5.4-1zm2.6-1l-.4 1 1 .5.4-1zm2.6-.9l-.4 1 1 .4.4-1zm2.6-1l-.4 1 1 .4.4-1zm2.6-1l-.4 1 1 .5.4-1zm2.6-1l-.4 1 1 .5.4-1zm2.6-.9l-.4 1 1 .4.4-1zm2.6-1l-.4 1 1 .4.4-1zm2.6-1l-.4 1 1 .5.4-1zm2.6-1l-.4 1 1 .5.4-1zm2.6-.9l-.4 1 1 .4.4-1zm2.6-1l-.4 1 1 .4.4-1zm2.6-1l-.4 1 1 .5.4-1zm2.6-1l-.4 1 1 .5.4-1zm2.6-.9l-.4 1 1 .4.4-1zm2.6-1l-.4 1 1 .4.4-1z"/><path transform="rotate(-65.183 543.016 446.66)" class="st6" d="M542.4 446.1h1.1v1.1h-1.1z"/><path class="st6" d="M545.3 444.9l-.4 1 1 .5.4-1z"/><path transform="rotate(-65.298 548.179 444.68)" class="st6" d="M547.6 444.1h1.1v1.1h-1.1z"/><path class="st6" d="M550.5 443l-.4 1 1 .4.4-1zm2.6-1l-.4 1 1 .5.4-1zm2.6-1l-.4 1 1 .5.4-1zm2.6-.9l-.4 1 1 .4.4-1zm2.6-1l-.4 1 1 .4.4-1zm2.6-1l-.4 1 1 .5.4-1zm2.6-1l-.4 1 1 .5.4-1zm2.6-.9l-.4 1 1 .4.4-1zm2.6-1l-.4 1 1 .4.4-1zm2.6-1l-.4 1 1 .5.4-1zm2.6-1l-.4 1 1 .5.4-1zm2.6-.9l-.4 1 1 .4.4-1zm2.6-1l-.4 1 1 .4.4-.9zm2.6-1l-.4 1 1 .5.4-1zm2.6-1l-.4 1 1 .5.4-1zm2.6-.9l-.4 1 1 .4.4-1zm2.6-1l-.4 1 1 .4.4-1zm2.6-1l-.4 1 1 .5.4-1zm2.6-1l-.4 1 1 .5.4-1zm2.6-.9l-.4 1 1 .4.4-1zm2.6-1l-.4 1 1 .4.4-1zm2.6-1l-.4 1 1 .5.4-1zm2.6-1l-.4 1 1 .5.4-1zm2.6-.9l-.4 1 1 .4.4-1zm2.6-1l-.4 1 1 .4.4-1zm2.6-1l-.4 1 1 .5.4-1zm2.6-.9l-.4.9 1 .5.4-1zm2.6-1l-.4 1 1 .4.4-1zm2.6-1l-.4 1 1 .4.4-.9zm2.6-1l-.4 1 1 .5.4-1zm2.6-1l-.4 1 1 .5.4-1zm2.6-.9l-.4 1 1 .4.4-1zm2.6-1l-.4 1 1 .4.4-.9zm2.6-1l-.4 1 1 .5.4-1zm2.6-.9l-.4.9 1 .5.4-1zm2.6-1l-.4 1 1 .4.4-1zm2.6-1l-.4 1 1 .4.4-.9zm2.6-1l-.4 1 1 .5.4-1zm2.6-.9l-.4.9 1 .5.4-1zm2.6-1l-.4 1 1 .4.4-1z"/><path transform="rotate(-65.455 654.817 404.736)" class="st6" d="M654.3 404.2h1.1v1.1h-1.1z"/><path class="st6" d="M657.1 403l-.4 1 1 .5.4-1zm2.6-.9l-.4.9 1 .5.4-1zm2.6-1l-.4 1 1 .4.4-1zm2.6-1l-.4 1 1 .5.4-1zm2.6-1l-.4 1 1 .5.4-1z"/><path transform="rotate(-65.783 670.363 398.872)" class="st6" d="M669.9 398.3h1.1v1.1h-1.1z"/><path class="st6" d="M672.7 397.2l-.4 1 1 .4.4-1zm2.6-1l-.4 1 1 .4.4-1zm2.6-1l-.4 1 1 .5.4-1zm2.6-.9l-.4 1 1 .4.4-1zm2.6-1l-.4 1 1 .4.4-1zm2.6-1l-.4 1 1 .4.4-.9zm2.6-1l-.4 1 1 .5.4-1zm2.6-.9l-.4 1 1 .4.4-1zm2.6-1l-.4 1 1 .4.4-1zm2.6-1l-.4 1 1 .4.4-.9zm2.6-1l-.4 1 1 .5.4-1zm2.6-1l-.4 1.1 1 .4.4-1zm2.6-.9l-.4 1 1 .4.4-1zm2.6-1l-.4 1 1 .5.4-1zm2.6-1l-.4 1 1 .5.4-1zm2.6-.9l-.4 1 1 .4.4-1zm2.6-1l-.4 1 1 .4.4-1zm2.6-1l-.4 1 1 .5.4-1zm2.6-1l-.4 1 1 .5.4-1zm2.6-.9l-.4 1 1 .4.4-1zm2.6-1l-.4 1 1 .4.4-1zm2.6-1l-.4 1 1 .5.4-1zm2.6-1l-.4 1 1 .5.4-1zm2.6-.9l-.4.9 1 .5.4-1zm2.6-1l-.4 1 1 .4.4-1zm2.6-1l-.4 1 1 .5.4-1zm2.6-1l-.4 1 1 .5.4-1zM416.6 513l-.4 1 .9.4.5-1zm2.6-1l-.4 1 .9.4.5-.9zm2.6-1l-.4 1 .9.5.5-1zm2.6-1l-.4 1 .9.5.5-1zm2.6-.9l-.4 1 .9.4.5-1zm2.6-1l-.4 1 .9.4.5-.9zm2.6-1l-.4 1 .9.5.5-1zm2.6-1l-.4 1 .9.5.5-1zm2.6-.9l-.4 1 .9.4.5-1zm2.6-1l-.4 1 .9.4.5-1zm2.6-1l-.4 1 .9.5.5-1zm2.6-1l-.4 1 .9.5.5-1zm2.6-.9l-.4 1 .9.4.5-1zm2.6-1l-.4 1 .9.4.5-.9z"/><path transform="rotate(-65.23 453.243 500.029)" class="st6" d="M452.7 499.5h1.1v1.1h-1.1z"/><path class="st6" d="M455.6 498.4l-.4.9.9.5.5-1zm2.6-1l-.4 1 .9.4.5-1zm2.6-1l-.4 1 .9.4.5-.9z"/><path transform="rotate(-65.23 463.642 496.128)" class="st6" d="M463.1 495.6h1.1v1.1h-1.1z"/><path transform="rotate(-65.442 466.282 495.184)" class="st6" d="M465.7 494.6h1.1v1.1h-1.1z"/><path class="st6" d="M468.6 493.5l-.4 1 .9.4.5-1zm2.6-1l-.4 1 .9.4.5-.9zm2.6-1l-.5 1 1 .5.5-1zm2.6-1l-.4 1 .9.5.5-1zm2.6-.9l-.4 1 .9.4.5-1zm2.6-1l-.4 1 .9.5.5-1z"/><path transform="rotate(-65.234 484.474 488.356)" class="st6" d="M483.9 487.8h1.1v1.1h-1.1z"/><path class="st6" d="M486.8 486.6l-.4 1 .9.5.5-1zm2.6-.9l-.4 1 .9.4.5-1zm2.6-1l-.4 1 .9.4.5-.9zm2.6-1l-.4 1 .9.5.5-1z"/><path transform="rotate(-65.126 497.474 483.496)" class="st6" d="M496.9 482.9h1.1v1.1h-1.1z"/><path class="st6" d="M499.8 481.8l-.4 1 .9.4.5-1zm2.6-1l-.4 1 .9.5.5-1zm2.6-1l-.4 1 1 .5.4-1zm2.6-1l-.4 1 .9.5.5-1zm2.6-.9l-.4 1 .9.4.5-1zm2.6-1l-.4 1 .9.5.5-1zm2.6-1l-.4 1 .9.5.5-1zm2.6-1l-.4 1 .9.5.5-1zm2.6-.9l-.4 1 .9.4.5-1zm2.6-1l-.4 1 .9.5.5-1zm2.6-1l-.4 1 .9.5.5-1zm2.6-1l-.4 1.1.9.4.5-1z"/><path transform="rotate(-65.58 531.31 470.824)" class="st6" d="M530.7 470.3h1.1v1.1h-1.1z"/><path class="st6" d="M533.6 469.1l-.5 1 1 .5.5-1zm2.6-1l-.4 1 .9.5.5-1zm2.6-1l-.4 1.1.9.4.5-1zm2.6-.9l-.4 1 .9.4.5-1zm2.6-1l-.4 1 .9.5.5-1zm2.6-1l-.4 1 .9.5.5-1zm2.6-.9l-.4.9.9.5.5-1zm2.6-1l-.4 1 .9.4.5-1zm2.6-1l-.4 1 .9.5.5-1zm2.6-1l-.4 1 .9.5.5-1zm2.6-.9l-.4 1 .9.4.5-1zm2.6-1l-.4 1 .9.4.5-1zm2.6-1l-.4 1 1 .5.4-1zm2.6-1l-.4 1 .9.5.5-1zm2.6-.9l-.4 1 .9.4.5-1zm2.6-1l-.4 1 .9.4.5-1z"/><path transform="rotate(-65.342 575.457 454.24)" class="st6" d="M574.9 453.7h1.1v1.1h-1.1z"/><path class="st6" d="M577.8 452.5l-.4 1 .9.5.5-1zm2.6-.9l-.4 1 .9.4.5-1zm2.6-1l-.4 1 .9.4.5-1zm2.6-1l-.4 1 .9.5.5-1zm2.6-1l-.4 1 1 .5.4-1zm2.6-.9l-.4 1 .9.4.5-1zm2.6-1l-.4 1 .9.4.5-1zm2.6-1l-.4 1 .9.5.5-1zm2.6-1l-.4 1 .9.5.5-1zm2.6-.9l-.4 1 1 .4.4-1zm2.6-1l-.4 1 .9.4.5-1zm2.6-1l-.4 1 .9.5.5-1zm2.6-1l-.4 1 .9.5.5-1z"/><path transform="rotate(-65.567 611.915 440.61)" class="st6" d="M611.3 440h1.1v1.1h-1.1z"/><path class="st6" d="M614.2 438.9l-.4 1 .9.4.5-1zm2.6-1l-.4 1 1 .5.4-1zm2.6-1l-.4 1 .9.5.5-1zm2.6-.9l-.4 1 .9.4.5-1zm2.6-1l-.4 1 1 .4.4-1zm2.6-1l-.4 1 1 .5.4-1zm2.6-1l-.4 1 1 .5.4-1zm2.6-.9l-.4 1 .9.4.5-1zm2.6-1l-.4 1 .9.4.5-.9zm2.6-1l-.4 1 .9.5.5-1zm2.6-1l-.4 1 .9.5.5-1zm2.6-.9l-.4 1 .9.4.5-1zm2.6-1l-.4 1 1 .4.4-1zm2.6-1l-.4 1 .9.5.5-1zm2.6-1l-.4 1 1 .5.4-1zm2.6-.9l-.4 1 1 .4.4-1zm2.6-1l-.4 1 .9.4.5-1zm2.6-1l-.4 1 .9.5.5-1zm2.6-.9l-.4.9 1 .5.4-1zm2.6-1l-.4 1 1 .4.4-1zm2.6-1l-.4 1 1 .4.4-.9zm2.6-1l-.4 1 .9.5.5-1zm2.6-1l-.4 1 .9.5.5-1zm2.6-.9l-.4 1 .9.4.5-1zm2.6-1l-.4 1 .9.4.5-1zm2.6-1l-.4 1 1 .5.4-1zm2.6-1l-.4 1 1 .5.4-1zm2.6-.9l-.4 1 .9.4.5-1zm2.6-1l-.4 1 1 .5.4-1zm2.6-1l-.4 1 1 .5.4-1zm2.6-1l-.4 1 .9.5.5-1zm2.6-.9l-.4 1 1 .4.4-1zm2.6-1l-.4 1 .9.5.5-1zm2.6-1l-.4 1 .9.5.5-1zm2.6-1l-.4 1 .9.5.5-1zm2.6-.9l-.4 1 1 .4.4-1zm2.6-1l-.4 1 .9.4.5-.9zm2.6-1l-.4 1 .9.5.5-1zm2.6-1l-.4 1 1 .5.4-1zm2.6-.9l-.4 1 1 .4.4-1zm2.6-1l-.4 1 .9.4.5-.9zm2.6-1l-.4 1 1 .5.4-1zm2.6-1l-.4 1 1 .5.4-1zm2.6-.9l-.4 1 1 .4.4-1zm2.6-1l-.4 1 1 .4.4-.9zm2.6-1l-.4 1 1 .5.4-1zm2.6-.9l-.4.9 1 .5.4-1zm2.6-1l-.4 1 .9.4.5-1zm2.6-1l-.4 1 .9.5.5-1zm2.6-1l-.4 1 1 .5.4-1zm2.6-.9l-.4.9 1 .5.4-1zm2.6-1l-.4 1 .9.4.5-1zM423.1 530.3l-.5 1 1 .5.5-1zm2.6-1l-.5 1 1 .5.5-1zm2.6-.9l-.5 1 1 .4.5-1zm2.6-1l-.5 1 1 .4.5-.9zm2.6-1l-.5 1 1 .5.5-1zm2.6-1l-.5 1 1 .5.5-1z"/><path transform="rotate(-65.298 438.938 525.182)" class="st6" d="M438.4 524.6h1.1v1.1h-1.1z"/><path class="st6" d="M441.3 523.5l-.5 1 1 .4.5-1zm2.6-1l-.5 1 1 .5.5-1zm2.6-1l-.5 1 1 .5.5-1zm2.6-.9l-.5 1 1 .4.5-1zm2.6-1l-.5 1 1 .4.5-1zm2.6-1l-.5 1 1 .5.5-1zm2.6-.9l-.5.9 1 .5.5-1zm2.6-1l-.5 1 1 .4.5-1zm2.6-1l-.5 1 1 .5.5-1.1zm2.6-1l-.5 1 1 .5.5-1zm2.6-1l-.5 1 1 .5.5-1z"/><path transform="rotate(-65.298 470.143 513.483)" class="st6" d="M469.6 512.9h1.1v1.1h-1.1z"/><path class="st6" d="M472.5 511.8l-.5 1 1 .4.5-1zm2.6-1l-.5 1 1 .5.5-1zm2.6-1l-.5 1 1 .5.5-1zm2.6-.9l-.4 1 .9.4.5-1zm2.6-1l-.5 1 1 .4.5-.9zm2.6-1l-.5 1 1 .5.5-1zm2.6-1l-.5 1 1 .5.5-1zm2.6-.9l-.5 1 1 .4.5-1zm2.6-1l-.5 1 1 .4.5-.9zm2.6-1l-.5 1 1 .5.5-1zm2.6-1l-.5 1 1 .5.5-1zm2.6-.9l-.5 1 1 .4.5-1zm2.6-1l-.5 1 1 .5.5-1zm2.6-1l-.5 1 1 .5.5-1zm2.6-.9l-.5.9 1 .5.5-1zm2.6-1l-.5 1 1 .4.5-1zm2.6-1l-.5 1 1 .5.5-1.1zm2.6-1l-.5 1 1 .5.5-1zm2.6-.9l-.5.9 1 .5.5-1zm2.6-1l-.5 1 1 .4.5-1zm2.6-1l-.5 1 1 .5.5-1zm2.6-1l-.5 1 1 .5.5-1z"/><path transform="rotate(-65.109 529.992 491.084)" class="st6" d="M529.4 490.5h1.1v1.1h-1.1z"/><path class="st6" d="M532.3 489.4l-.5 1 1 .4.5-1zm2.6-1l-.5 1 1 .4.5-.9zm2.6-1l-.5 1 1 .5.5-1zm2.6-1l-.5 1.1 1 .4.5-1zm2.6-.9l-.4 1 .9.4.5-1zm2.6-1l-.5 1 1 .4.5-.9zm2.6-1l-.5 1 1 .5.5-1zm2.6-.9l-.5 1 1 .4.5-1zm2.6-1l-.5 1 1 .4.5-1zm2.6-1l-.5 1 1 .4.5-.9z"/><path transform="rotate(-65.411 558.554 480.365)" class="st6" d="M558 479.8h1.1v1.1H558z"/><path class="st6" d="M560.9 478.7l-.5.9 1 .5.5-1zm2.6-1l-.5 1 1 .4.5-1zm2.6-1l-.5 1 1 .5.5-1zm2.6-1l-.4 1 .9.5.5-1zm2.6-1l-.5 1 1 .5.5-1zm2.6-.9l-.5 1 1 .4.5-1zm2.6-1l-.5 1 1 .5.5-1zm2.6-1l-.5 1 1 .5.5-1zm2.6-.9l-.4.9.9.5.5-1zm2.6-1l-.5 1 1 .4.5-1zm2.6-1l-.5 1 1 .5.5-1zm2.6-1l-.5 1 1 .5.5-1zm2.6-.9l-.5 1 1 .4.5-1zm2.6-1l-.5 1 1 .4.5-1zm2.6-1l-.5 1 1 .5.5-1zm2.6-1l-.5 1 1 .5.5-1zm2.6-.9l-.4 1 .9.4.5-1zm2.6-1l-.5 1 1 .4.5-1zm2.6-1l-.5 1 1 .5.5-1zm2.6-1l-.5 1 1 .5.5-1zm2.6-.9l-.5 1 1 .4.5-1zm2.6-1l-.4 1 .9.4.5-1zm2.6-1l-.5 1 1 .5.5-1zm2.6-1l-.4 1 .9.5.5-1zm2.6-.9l-.5 1 1 .4.5-1zm2.6-1l-.4 1 .9.4.5-1zm2.6-1l-.4 1 .9.5.5-1zm2.6-1l-.4 1 .9.5.5-1zm2.6-.9l-.5 1 1 .4.5-1zm2.6-1l-.5 1 1 .4.5-1zm2.6-1l-.5 1 1 .5.5-1zm2.6-1l-.5 1 1 .5.5-1zm2.6-.9l-.4 1 .9.4.5-1zm2.6-1l-.4 1 .9.4.5-1zm2.6-1l-.4 1 .9.5.5-1zm2.6-1l-.4 1 .9.5.5-1zm2.6-.9l-.4 1 .9.4.5-1zm2.6-1l-.4 1 .9.4.5-1zm2.6-1l-.5 1 1 .5.5-1zm2.6-1l-.5 1 1 .5.5-1zm2.6-.9l-.4 1 .9.4.5-1zm2.6-1l-.5 1 1 .4.5-1zm2.6-1l-.5 1 1 .5.5-1z"/><path transform="rotate(-65.298 672.952 437.458)" class="st6" d="M672.4 436.9h1.1v1.1h-1.1z"/><path class="st6" d="M675.3 435.8l-.5 1 1 .4.5-1zm2.6-1l-.5 1 1 .4.5-.9z"/><path transform="rotate(-65.455 680.784 434.556)" class="st6" d="M680.2 434h1.1v1.1h-1.1z"/><path class="st6" d="M683.1 432.8l-.5 1 1 .5.5-1zm2.6-.9l-.5 1 1 .4.5-1zm2.6-1l-.4 1 .9.4.5-1zm2.6-1l-.4 1 .9.5.5-1zm2.6-1l-.4 1 .9.5.5-1zm2.6-.9l-.4 1 .9.4.5-1zm2.6-1l-.4 1 .9.4.5-1zm2.6-1l-.4 1 .9.5.5-1zm2.6-1l-.5 1 1 .5.5-1zm2.6-.9l-.4 1 .9.4.5-1zm2.6-1l-.5 1 1 .5.5-1zm2.6-1l-.4 1 .9.5.5-1z"/><path transform="rotate(-65.23 714.526 421.864)" class="st6" d="M714 421.3h1.1v1.1H714z"/><path class="st6" d="M716.9 420.2l-.4 1 .9.4.5-1zm2.6-1l-.5 1 1 .4.5-.9zm2.6-1l-.4 1 .9.5.5-1zm2.6-.9l-.4.9.9.5.5-1zm2.6-1l-.4 1 .9.4.5-1zm2.6-1l-.5 1 1 .4.5-.9zm2.6-1l-.4 1 .9.5.5-1zm2.6-1l-.4 1 .9.5.5-1zm2.6-.9l-.5 1 1 .4.5-1zm2.6-1l-.4 1 .9.5.5-1.1zm2.6-1l-.4 1 .9.5.5-1zm2.6-.9l-.4.9.9.5.5-1zm2.6-1l-.5 1 1 .4.5-1zm2.6-1l-.4 1 .9.5.5-1zm2.6-1l-.4 1 .9.5.5-1zM429.6 547.7l-.5 1 1 .4.4-1zm2.6-1l-.5 1 1 .4.5-1zm2.6-1l-.5 1 1 .5.5-1zm2.6-1l-.5 1 1 .5.5-1zm2.6-.9l-.5.9 1 .5.5-1zm2.6-1l-.5 1 1 .4.5-1zm2.6-1l-.5 1 1 .5.5-1zm2.6-1l-.5 1 1 .5.5-1z"/><path transform="rotate(-65.211 450.629 540.563)" class="st6" d="M450.1 540h1.1v1.1h-1.1z"/><path class="st6" d="M453 538.9l-.5 1 1 .4.5-1zm2.6-1l-.5 1 1 .5.5-1zm2.6-1l-.5 1 1 .5.5-1zm2.6-.9l-.5 1 1 .4.5-1zm2.6-1l-.5 1 1 .4.5-1zm2.6-1l-.5 1 1 .5.5-1zm2.6-1l-.5 1 1 .5.5-1zm2.6-.9l-.5 1 1 .4.5-1zm2.6-1l-.5 1 1 .4.5-1zm2.6-1l-.5 1 1 .5.5-1zm2.6-1l-.5 1 1 .5.5-1zm2.6-.9l-.5 1 1 .4.5-1zm2.6-1l-.5 1 1 .4.5-1zm2.6-1l-.5 1 1 .5.5-1zm2.6-1l-.5 1 1 .5.5-1zm2.6-.9l-.5 1 1 .4.5-1zm2.6-1l-.5 1 1 .4.5-1zm2.6-1l-.5 1 1 .5.5-1zm2.6-1l-.5 1 1 .5.5-1zm2.6-.9l-.5 1 1 .4.5-1zm2.6-1l-.5 1 1 .4.5-.9zm2.6-1l-.5 1 1 .5.5-1zm2.6-1l-.5 1 1 .5.5-1zm2.6-.9l-.5 1 1 .4.5-1zm2.6-1l-.5 1 1 .4.5-.9z"/><path transform="rotate(-65.567 518.272 515.271)" class="st6" d="M517.7 514.7h1.1v1.1h-1.1z"/><path class="st6" d="M520.6 513.5l-.5 1 1 .5.5-1zm2.6-.9l-.5 1 1 .4.5-1zm2.6-1l-.5 1 1 .4.5-1zm2.6-1l-.5 1 1 .5.5-1zm2.6-1l-.5 1 1 .5.5-1zm2.6-.9l-.5 1 1 .4.5-1zm2.6-1l-.5 1 1 .5.5-1.1z"/><path transform="rotate(-65.342 539.018 507.453)" class="st6" d="M538.5 506.9h1.1v1.1h-1.1z"/><path class="st6" d="M541.4 505.8l-.5.9 1 .5.5-1zm2.6-1l-.5 1 1 .4.5-1zm2.6-1l-.5 1 1 .4.5-.9zm2.6-1l-.5 1 1 .5.5-1zm2.6-1l-.5 1 1 .5.5-1zm2.6-.9l-.5 1 1 .4.5-1zm2.6-1l-.5 1 1 .4.5-.9z"/><path transform="rotate(-65.455 559.857 499.665)" class="st6" d="M559.3 499.1h1.1v1.1h-1.1z"/><path class="st6" d="M562.2 497.9l-.5 1 1 .5.5-1zm2.6-.9l-.5 1 1 .4.5-1zm2.6-1l-.5 1 1 .4.5-.9zm2.6-1l-.5 1 1 .5.5-1zm2.6-1l-.5 1.1 1 .4.5-1z"/><path transform="rotate(-65.109 575.48 493.809)" class="st6" d="M574.9 493.3h1.1v1.1h-1.1z"/><path class="st6" d="M577.8 492.1l-.5 1 1 .5.5-1zm2.6-1l-.5 1 1 .5.5-1zm2.6-.9l-.5.9 1 .5.5-1zm2.6-1l-.5 1 1 .4.5-1zm2.6-1l-.5 1 1 .5.5-1zm2.6-1l-.5 1 1 .5.5-1zm2.6-.9l-.5.9 1 .5.5-1zm2.6-1l-.5 1 1 .4.5-1zm2.6-1l-.5 1 1 .5.5-1zm2.6-1l-.5 1 1 .5.5-1zm2.6-.9l-.5.9 1 .5.5-1zm2.6-1l-.5 1 1 .4.5-1zm2.6-1l-.5 1 1 .5.5-1zm2.6-1l-.5 1 1 .5.5-1z"/><path transform="rotate(-65.424 614.46 479.182)" class="st6" d="M613.9 478.6h1.1v1.1h-1.1z"/><path class="st6" d="M616.8 477.5l-.5 1 1 .4.5-1z"/><path transform="rotate(-65.196 619.68 477.259)" class="st6" d="M619.1 476.7h1.1v1.1h-1.1z"/><path class="st6" d="M622 475.5l-.5 1 1 .5.5-1zm2.6-.9l-.5.9 1 .5.5-1zm2.6-1l-.5 1 1 .4.5-1zm2.6-1l-.5 1 1 .5.5-1zm2.6-1l-.5 1 1 .5.5-1zm2.6-.9l-.5.9 1 .5.5-1zm2.6-1l-.5 1 1 .4.5-1zm2.6-1l-.5 1 1 .5.5-1zm2.6-1l-.5 1 1 .5.5-1zm2.6-.9l-.5 1 1 .4.5-1zm2.6-1l-.5 1 1 .4.5-1zm2.6-1l-.5 1 1 .5.5-1zm2.6-1l-.5 1 1 .5.5-1zm2.6-.9l-.5.9 1 .5.5-1z"/><path transform="rotate(-65.342 658.627 462.616)" class="st6" d="M658.1 462.1h1.1v1.1h-1.1z"/><path class="st6" d="M661 460.9l-.5 1 1 .5.5-1zm2.6-1l-.5 1 1 .5.5-1zm2.6-.9l-.5 1 1 .4.5-1zm2.6-1l-.5 1 1 .4.5-1zm2.6-1l-.5 1 1 .5.5-1zm2.6-1l-.5 1 1 .5.5-1zm2.6-.9l-.5 1 1 .4.5-1zm2.6-1l-.5 1 1 .4.5-1zm2.6-1l-.5 1 1 .5.5-1zm2.6-1l-.5 1 1 .5.5-1zm2.6-.9l-.5 1 1 .4.5-1zm2.6-1l-.5 1 1 .4.5-1zm2.6-1l-.5 1 1 .5.5-1z"/><path transform="rotate(-65.109 695.085 448.972)" class="st6" d="M694.5 448.4h1.1v1.1h-1.1z"/><path class="st6" d="M697.4 447.3l-.5 1 1 .4.5-1zm2.6-1l-.5 1 1 .4.5-1zm2.6-1l-.5 1 1 .5.5-1zm2.6-1l-.5 1 1 .5.5-1zm2.6-.9l-.5 1 1 .4.5-1zm2.6-1l-.5 1 1 .4.5-1zm2.6-1l-.5 1 1 .5.5-1zm2.6-1l-.5 1 1 .5.5-1zm2.6-.9l-.5 1 1 .4.5-1zm2.6-1l-.5 1 1 .4.5-1zm2.6-1l-.5 1 1 .5.5-1zm2.6-1l-.5 1 1 .5.5-1zm2.6-.9l-.5 1 1 .4.5-1zm2.6-1l-.5 1 1 .4.5-1z"/><path transform="rotate(-65.083 734.037 434.359)" class="st6" d="M733.5 433.8h1.1v1.1h-1.1z"/><path class="st6" d="M736.4 432.6l-.5 1 1 .5.5-1zm2.6-.9l-.5 1 1 .4.5-1zm2.6-1l-.5 1 1 .4.5-1zm2.6-1l-.5 1 1 .5.5-1zm2.6-1l-.5 1 1 .5.5-1zm2.6-.9l-.5 1 1 .4.5-1zm2.6-1l-.5 1 1 .5.5-1zm2.6-1l-.5 1 1 .5.5-1zm2.6-.9l-.5.9 1 .5.5-1zm2.6-1l-.5 1 1 .4.5-1zM436.1 565l-.5 1 1 .4.5-.9zm2.6-1l-.5 1 1 .5.4-1zm2.6-.9l-.5 1 1 .4.5-1zm2.6-1l-.5 1 1 .4.4-1zm2.6-1l-.5 1 1 .5.4-1zm2.6-1l-.5 1 1 .5.4-1zm2.6-.9l-.5.9 1 .5.5-1zm2.6-1l-.5 1 1 .4.4-1zm2.6-1l-.5 1 1 .5.4-1zm2.6-1l-.5 1 1 .5.4-1zm2.6-.9l-.5.9 1 .5.4-1zm2.6-1l-.5 1 1 .4.4-1zm2.6-1l-.5 1 1 .5.4-1zm2.6-1l-.5 1 1 .5.4-1zm2.6-.9l-.5.9 1 .5.4-1zm2.6-1l-.5 1 1 .4.4-1zm2.6-1l-.5 1 1 .5.4-1zm2.6-1l-.5 1 1 .5.5-1zm2.6-1l-.5 1.1 1 .4.5-1zm2.6-.9l-.5 1 1 .4.4-1zm2.6-1l-.5 1 1 .5.5-1zm2.6-1l-.5 1 1 .5.5-1zm2.6-.9l-.5 1 1 .4.4-1zm2.6-1l-.5 1 1 .4.5-1zm2.6-1l-.5 1 1 .5.5-1zm2.6-1l-.5 1 1 .5.4-1zm2.6-.9l-.5 1 1 .4.4-1zm2.6-1l-.5 1 1 .4.4-1zm2.6-1l-.5 1 1 .5.5-1zm2.6-1l-.5 1 1 .5.4-1z"/><path transform="rotate(-65.303 514.355 536.51)" class="st6" d="M513.8 535.9h1.1v1.1h-1.1z"/><path class="st6" d="M516.7 534.8l-.5 1 1 .4.5-1zm2.6-1l-.5 1 1 .5.4-1zm2.6-1l-.5 1 1 .5.4-1zm2.6-.9l-.5 1 1 .4.5-1zm2.6-1l-.5 1 1 .4.5-.9zm2.6-1l-.5 1 1 .5.4-1zm2.6-1l-.5 1 1 .5.5-1zm2.6-.9l-.5 1 1 .4.4-1zm2.6-1l-.5 1 1 .4.5-1zm2.6-1l-.5 1 1 .5.5-1zm2.6-1l-.5 1 1 .5.5-1zm2.6-.9l-.5 1 1 .4.4-1zm2.6-1l-.5 1 1 .4.5-.9zm2.6-1l-.5 1 1 .5.4-1zm2.6-1l-.5 1 1 .5.5-1z"/><path transform="rotate(-65.342 555.91 520.894)" class="st6" d="M555.4 520.3h1.1v1.1h-1.1z"/><path class="st6" d="M558.3 519.2l-.5 1 1 .4.5-1zm2.6-1l-.5 1 1 .5.4-1zm2.6-1l-.5 1 1 .5.5-1zm2.6-.9l-.5 1 1 .4.5-1zm2.6-1l-.5 1 1 .4.5-1zm2.6-1l-.5 1 1 .5.5-1zm2.6-1l-.5 1 1 .5.4-1z"/><path transform="rotate(-65.665 576.707 513.066)" class="st6" d="M576.2 512.6h1.1v1.1h-1.1z"/><path class="st6" d="M579.1 511.4l-.5 1 1 .4.5-.9zm2.6-1l-.5 1 1 .5.5-1zm2.6-1l-.5 1 1 .5.5-1zm2.6-.9l-.5 1 1 .4.5-1zm2.6-1l-.5 1 1 .4.5-.9zm2.6-1l-.5 1 1 .5.5-1zm2.6-1l-.5 1 1 .5.4-1zm2.6-.9l-.5 1 1 .4.5-1zm2.6-1l-.5 1 1 .4.5-1zm2.6-1l-.5 1 1 .5.4-1zm2.6-.9l-.5.9 1 .5.5-1zm2.6-1l-.5 1 1 .4.5-1zm2.6-1l-.5 1 1 .5.5-1zm2.6-1l-.5 1 1 .5.5-1zm2.6-.9l-.5.9 1 .5.4-1zm2.6-1l-.5 1 1 .4.5-1zm2.6-1l-.5 1 1 .4.5-.9zm2.6-1l-.5 1 1 .5.5-1zm2.6-.9l-.5.9 1 .5.5-1zm2.6-1l-.5 1 1 .4.5-1zm2.6-1l-.5 1 1 .5.5-1zm2.6-1l-.5 1 1 .5.4-1zm2.6-1l-.5 1 1 .5.4-1zm2.6-.9l-.5 1 1 .4.5-1zm2.6-1l-.5 1 1 .4.5-.9zm2.6-1l-.5 1 1 .5.5-1z"/><path transform="rotate(-65.449 646.936 486.775)" class="st6" d="M646.4 486.2h1.1v1.1h-1.1z"/><path class="st6" d="M649.3 485.1l-.5 1 1 .4.4-1zm2.6-1l-.5 1 1 .4.5-.9zm2.6-1l-.5 1 1 .5.5-1zm2.6-.9l-.5.9 1 .5.5-1zm2.6-1l-.5 1 1 .4.5-1zm2.6-1l-.5 1 1 .5.5-1zm2.6-1l-.5 1 1 .5.5-1zm2.6-.9l-.5.9 1 .5.5-1zm2.6-1l-.5 1 1 .4.4-1zm2.6-1l-.5 1 1 .5.5-1zm2.6-1l-.5 1 1 .5.5-1zm2.6-.9l-.5.9 1 .5.5-1zm2.6-1l-.5 1 1 .4.5-1zm2.6-1l-.5 1 1 .5.5-1zm2.6-1l-.5 1 1 .5.5-1zm2.6-.9l-.5.9 1 .5.5-1zm2.6-1l-.5 1 1 .4.5-1zm2.6-1l-.5 1 1 .5.5-1zm2.6-1l-.5 1 1 .5.5-1zm2.6-.9l-.5 1 1 .4.5-1zm2.6-1l-.5 1 1 .4.5-1zm2.6-1l-.5 1 1 .5.5-1zm2.6-1l-.5 1 1 .5.5-1zm2.6-.9l-.5 1 1 .4.5-1zm2.6-1l-.5 1 1 .4.5-1zm2.6-1l-.5 1 1 .5.5-1zm2.6-1l-.5 1 1 .5.5-1zm2.6-.9l-.5 1 1 .4.5-1zm2.6-1l-.5 1 1 .4.5-1zm2.6-1l-.5 1 1 .5.5-1zm2.6-1l-.5 1 1 .5.5-1zm2.6-.9l-.5 1 1 .4.5-1zm2.6-1l-.5 1 1 .4.5-1zm2.6-1l-.5 1 1 .5.5-1zm2.6-1l-.5 1 1 .5.5-1z"/><path transform="rotate(-65.563 740.572 451.695)" class="st6" d="M740 451.1h1.1v1.1H740z"/><path class="st6" d="M742.9 450l-.5 1 1 .4.5-1zm2.6-1l-.5 1 1 .5.5-1zm2.6-1l-.5 1 1 .5.5-1zm2.6-.9l-.5 1 1 .4.5-1zm2.6-1l-.5 1 1 .4.5-1zm2.6-1l-.5 1 1 .5.5-1zm2.6-1l-.5 1 1 .5.5-1zm2.6-.9l-.5 1 1 .4.5-1zm2.6-1l-.5 1 1 .4.5-1zm2.6-1l-.5 1 1 .5.5-1zM442.5 582.3l-.4 1 1 .5.4-1z"/><path transform="rotate(-65.55 445.422 582.118)" class="st6" d="M444.9 581.6h1.1v1.1h-1.1z"/><path class="st6" d="M447.8 580.4l-.5 1 1 .5.4-1zm2.5-1l-.4 1 1 .5.4-1zm2.6-.9l-.4.9 1 .5.4-1z"/><path transform="rotate(-65.563 455.838 578.212)" class="st6" d="M455.3 577.7h1.1v1.1h-1.1z"/><path class="st6" d="M458.2 576.5l-.5 1 1 .4.4-.9zm2.5-1l-.4 1 1 .5.4-1zm2.7-1l-.5 1 1 .5.4-1z"/><path transform="rotate(-65.665 466.195 574.273)" class="st6" d="M465.7 573.8h1.1v1.1h-1.1z"/><path class="st6" d="M468.6 572.6l-.5 1 1 .4.4-.9zm2.6-1l-.5 1 1 .5.4-1zm2.6-1l-.5 1 1 .5.4-1zm2.5-.9l-.4 1 1 .4.4-1zm2.7-1l-.5 1 1 .5.4-1zm2.5-1l-.4 1 1 .5.4-1zm2.7-.9l-.5.9 1 .5.4-1zm2.5-1l-.4 1 1 .4.4-1z"/><path transform="rotate(-65.121 489.593 565.525)" class="st6" d="M489.1 565h1.1v1.1h-1.1z"/><path class="st6" d="M491.9 563.8l-.4 1 1 .5.4-1zm2.7-1l-.5 1.1 1 .4.4-1zm2.5-.9l-.4 1 1 .4.4-1zm2.6-1l-.4 1 1 .5.4-1zm2.6-1l-.4 1 1 .5.4-1zm2.6-.9l-.4 1 1 .4.4-1zm2.6-1l-.4 1 1 .4.4-1zm2.6-1l-.4 1 1 .5.4-1zm2.7-1l-.5 1 1 .5.4-1zm2.5-.9l-.4.9 1 .5.4-1zm2.7-1l-.5 1 1 .4.4-1zm2.6-1l-.5 1 1 .5.4-1zm2.6-1l-.5 1 1 .5.4-1zm2.6-.9l-.5.9 1 .5.4-1zm2.6-1l-.5 1 1 .4.4-1zm2.6-1l-.5 1 1 .5.4-1zm2.6-1l-.5 1 1 .5.4-1zm2.6-.9l-.5 1 1 .4.4-1zm2.6-1l-.5 1 1 .4.4-1z"/><path transform="rotate(-65.55 541.625 546.052)" class="st6" d="M541.1 545.5h1.1v1.1h-1.1z"/><path class="st6" d="M544 544.3l-.5 1 1 .5.4-1zm2.6-.9l-.5 1 1 .4.4-1zm2.5-1l-.4 1 1 .4.4-1zm2.7-1l-.5 1 1 .5.4-1zm2.6-1l-.5 1 1 .5.4-1zm2.5-.9l-.4 1 1 .4.4-1zm2.7-1l-.5 1 1 .4.4-1zm2.6-1l-.5 1 1 .5.4-1zm2.5-1l-.4 1 1 .5.4-1zm2.6-.9l-.4 1 1 .4.4-1zm2.6-1l-.4 1 1 .4.4-1zm2.6-1l-.4 1 1 .5.4-1zm2.6-1l-.4 1 1 .5.4-1zm2.7-.9l-.5 1 1 .4.4-1zm2.6-1l-.5 1 1 .4.4-1zm2.6-1l-.5 1 1 .5.4-1zm2.6-1l-.5 1 1 .5.4-1zm2.6-.9l-.5 1 1 .4.4-1zm2.6-1l-.5 1 1 .4.4-1zm2.6-1l-.5 1 1 .5.4-1zm2.6-1l-.5 1 1 .5.4-1zm2.6-.9l-.5 1 1 .4.4-1zm2.5-1l-.4 1 1 .4.4-1zm2.7-1l-.5 1 1 .5.4-1zm2.6-.9l-.5.9 1 .5.4-1zm2.6-1l-.5 1 1 .4.4-1zm2.6-1l-.5 1 1 .4.4-.9zm2.6-1l-.5 1 1 .5.4-1zm2.6-1l-.5 1 1 .5.4-1z"/><path transform="rotate(-65.109 619.65 516.803)" class="st6" d="M619.1 516.3h1.1v1.1h-1.1z"/><path class="st6" d="M622 515.1l-.5 1 1 .4.4-1zm2.6-1l-.5 1 1 .5.4-1zm2.5-1l-.4 1 1 .5.4-1zm2.7-.9l-.5 1 1 .4.4-1zm2.6-1l-.5 1 1 .4.4-1z"/><path transform="rotate(-65.096 635.24 510.958)" class="st6" d="M634.7 510.4h1.1v1.1h-1.1z"/><path class="st6" d="M637.6 509.2l-.5 1 1 .5.4-1zm2.5-.9l-.4 1 1 .4.4-1zm2.7-1l-.5 1 1 .4.4-1zm2.6-1l-.5 1 1 .5.4-1zm2.6-1l-.5 1 1 .5.4-1zm2.6-.9l-.5 1 1 .4.4-1zm2.6-1l-.5 1 1 .5.4-1zm2.6-1l-.5 1 1 .5.4-1zm2.6-1l-.5 1 1 .5.4-1zm2.6-.9l-.5 1 1 .4.4-1zm2.6-1l-.5 1 1 .4.4-.9zm2.6-1l-.5 1 1 .5.4-1z"/><path transform="rotate(-65.342 668.992 498.288)" class="st6" d="M668.5 497.7h1.1v1.1h-1.1z"/><path class="st6" d="M671.4 496.6l-.5 1 1 .4.4-1zm2.6-1l-.5 1 1 .5.4-1zm2.6-1l-.5 1 1 .5.4-1zm2.6-.9l-.5 1 1 .4.4-1zm2.6-1l-.5 1 1 .4.4-1zm2.6-1l-.5 1 1 .5.4-1zm2.6-1l-.5 1 1 .5.4-1z"/><path transform="rotate(-65.096 689.843 490.492)" class="st6" d="M689.3 489.9h1.1v1.1h-1.1z"/><path class="st6" d="M692.2 488.8l-.5 1 1 .4.4-1zm2.6-1l-.5 1 1 .5.4-1zm2.6-1l-.5 1 1 .5.4-1zm2.6-.9l-.5 1 1 .4.4-1zm2.6-1l-.5 1 1 .4.4-1zm2.6-1l-.5 1 1 .5.4-1zm2.6-1l-.5 1 1 .5.4-1zm2.6-1l-.5 1 1 .5.4-1zm2.6-.9l-.5 1 1 .4.4-1zm2.6-1l-.5 1 1 .4.4-.9z"/><path transform="rotate(-65.109 718.464 479.758)" class="st6" d="M717.9 479.2h1.1v1.1h-1.1z"/><path class="st6" d="M720.8 478.1l-.5 1 1 .4.4-1zm2.6-1l-.5 1 1 .4.4-1zm2.6-1l-.5 1 1 .5.4-1z"/><path transform="rotate(-65.455 728.838 475.872)" class="st6" d="M728.3 475.3h1.1v1.1h-1.1z"/><path class="st6" d="M731.1 474.2l-.4 1 1 .4.4-1zm2.7-1l-.5 1 1 .4.4-1zm2.6-1l-.5 1 1 .5.4-1zm2.6-1l-.5 1 1 .5.5-1zm2.5-.9l-.4.9 1 .5.4-1zm2.7-1l-.5 1 1 .4.5-1zm2.6-1l-.5 1 1 .5.4-1zm2.6-1l-.5 1 1 .5.4-1zm2.6-.9l-.5 1 1 .4.4-1zm2.6-1l-.5 1 1 .4.4-1zm2.6-1l-.5 1 1 .5.5-1zm2.6-1l-.5 1 1 .5.4-1zm2.6-.9l-.5 1 1 .4.4-1zm2.6-1l-.5 1 1 .4.4-1zm2.6-1l-.5 1 1 .5.5-1zm2.6-1l-.5 1 1 .5.4-1zm2.6-.9l-.5 1 1 .4.4-1zM449 599.7l-.4 1 1 .4.4-1zm2.6-1l-.4 1 1 .5.4-1zm2.6-1l-.4 1 1 .5.4-1zm2.6-.9l-.4 1 1 .4.4-1z"/><path transform="rotate(-65.109 459.72 596.54)" class="st6" d="M459.1 596h1.1v1.1h-1.1z"/><path class="st6" d="M462 594.8l-.4 1 1 .5.4-1zm2.6-1l-.4 1 1 .5.4-1zm2.6-.9l-.4 1 1 .4.4-1zm2.6-1l-.4 1 1 .5.4-1zm2.6-1l-.4 1 1 .5.4-1zm2.6-1l-.4 1 1 .5.4-1zm2.6-.9l-.4 1 1 .4.4-1zm2.6-1l-.4 1 1 .4.4-.9zm2.6-1l-.4 1 1 .5.4-1zm2.6-.9l-.4.9 1 .5.4-1zm2.6-1l-.4 1 1 .4.4-1zm2.6-1l-.4 1 1 .4.4-.9zm2.6-1l-.4 1 1 .5.4-1zm2.6-1l-.4 1 1 .5.4-1zm2.6-.9l-.4 1 1 .4.4-1zm2.6-1l-.4 1 1 .5.4-1zm2.6-1l-.4 1 1 .5.4-1zm2.6-.9l-.4.9 1 .5.4-1zm2.6-1l-.4 1 1 .4.4-1zm2.6-1l-.4 1 1 .5.4-1zm2.6-1l-.4 1 1 .5.4-1zm2.6-1l-.4 1 1 .5.4-1zm2.6-.9l-.4 1 1 .4.4-1zm2.6-1l-.4 1 1 .4.4-.9zm2.6-1l-.4 1 1 .5.4-1zm2.6-.9l-.4 1 1 .4.4-1zm2.6-1l-.4 1 1 .4.4-1zm2.6-1l-.4 1 1 .5.4-1zm2.6-1l-.4 1 1 .5.4-1zm2.6-.9l-.4.9 1 .5.4-1zm2.6-1l-.4 1 1 .4.4-1zm2.6-1l-.4 1 1 .5.4-1zm2.6-1l-.4 1 1 .5.4-1zm2.6-.9l-.4.9 1 .5.4-1z"/><path transform="rotate(-65.109 550.732 562.418)" class="st6" d="M550.2 561.9h1.1v1.1h-1.1z"/><path class="st6" d="M553 560.7l-.4 1 1 .5.4-1zm2.6-1l-.4 1 1 .5.4-1zm2.6-.9l-.4.9 1 .5.4-1zm2.6-1l-.4 1 1 .4.4-1zm2.6-1l-.4 1 1 .5.4-1zm2.6-1l-.4 1 1 .5.4-1zm2.6-.9l-.4 1 1 .4.4-1z"/><path transform="rotate(-65.467 571.513 554.626)" class="st6" d="M570.9 554.1h1.1v1.1h-1.1z"/><path class="st6" d="M573.8 552.9l-.4 1 1 .5.4-1zm2.6-1l-.4 1 1 .5.4-1zm2.6-.9l-.4 1 1 .4.4-1zm2.6-1l-.4 1 1 .4.4-1zm2.6-1l-.4 1 1 .5.4-1zm2.6-1l-.4 1 1 .5.4-1zm2.6-.9l-.4 1 1 .4.4-1zm2.6-1l-.4 1 1 .4.4-1zm2.6-1l-.4 1 1 .5.4-1zm2.6-1l-.4 1 1 .5.4-1zm2.6-.9l-.4 1 1 .4.4-1zm2.6-1l-.4 1 1 .4.4-1zm2.6-1l-.4 1 1 .5.4-1zm2.6-1l-.4 1 1 .5.4-1zm2.6-.9l-.4 1 1 .4.4-1zm2.6-1l-.4 1 1 .4.4-.9zm2.6-1l-.4 1 1 .5.4-1zm2.6-1l-.4 1 1 .5.4-1zm2.6-.9l-.4 1 1 .4.4-1z"/><path transform="rotate(-65.23 623.462 535.1)" class="st6" d="M623 534.6h1.1v1.1H623z"/><path class="st6" d="M625.8 533.4l-.4 1 1 .5.4-1zm2.6-1l-.4 1 1 .5.4-1zm2.6-.9l-.4 1 1 .4.4-1zm2.6-1l-.4 1 1 .4.4-1zm2.6-1l-.4 1 1 .5.4-1zm2.6-1l-.4 1 1 .5.4-1zm2.6-.9l-.4 1 1 .4.4-1zm2.6-1l-.4 1 1 .4.4-1z"/><path transform="rotate(-65.783 646.864 526.337)" class="st6" d="M646.4 525.8h1.1v1.1h-1.1z"/><path class="st6" d="M649.2 524.6l-.4 1 1 .5.4-1zm2.6-.9l-.4 1 1 .4.4-1zm2.6-1l-.4 1 1 .4.4-.9zm2.6-1l-.4 1 1 .5.4-1zm2.7-1l-.5 1 1 .5.4-1zm2.5-.9l-.4 1 1 .4.4-1zm2.6-1l-.4 1 1 .5.4-1zm2.6-1l-.4 1 1 .5.4-1zm2.6-1l-.4 1 1 .5.4-1zm2.6-.9l-.4 1 1 .4.4-1zm2.6-1l-.4 1 1 .4.4-1zm2.6-1l-.4 1 1 .5.4-1zm2.6-1l-.4 1 1 .5.4-1zm2.6-.9l-.4 1 1 .4.4-1zm2.6-1l-.4 1 1 .4.4-.9zm2.6-1l-.4 1 1 .5.4-1zm2.6-.9l-.4.9 1 .5.4-1zm2.7-1l-.5 1 1 .4.4-1z"/><path transform="rotate(-65.109 696.34 507.83)" class="st6" d="M695.8 507.3h1.1v1.1h-1.1z"/><path class="st6" d="M698.6 506.1l-.4 1 1 .5.4-1zm2.6-.9l-.4.9 1 .5.4-1zm2.6-1l-.4 1 1 .4.4-1zm2.6-1l-.4 1 1 .5.4-1z"/><path transform="rotate(-65.55 709.322 502.967)" class="st6" d="M708.8 502.4h1.1v1.1h-1.1z"/><path class="st6" d="M711.6 501.3l-.4.9 1 .5.4-1zm2.6-1l-.4 1 1 .4.4-1zm2.6-1l-.4 1 1 .5.4-1zm2.6-1l-.4 1 1 .5.4-1zm2.6-1l-.4 1 1 .5.4-1zm2.6-.9l-.4 1 1 .4.4-1zm2.6-1l-.4 1 1 .4.4-.9zm2.6-1l-.4 1 1 .5.4-1zm2.6-.9l-.4.9 1 .5.4-1zm2.6-1l-.4 1 1 .4.4-1zm2.6-1l-.4 1 1 .5.4-1zm2.6-1l-.4 1 1 .5.4-1zm2.6-1l-.4 1.1 1 .4.4-1zm2.6-.9l-.4 1 1 .4.4-1zm2.6-1l-.4 1 1 .5.4-1zm2.6-1l-.4 1 1 .5.4-1z"/><path transform="rotate(-65.524 753.537 486.398)" class="st6" d="M753 485.8h1.1v1.1H753z"/><path class="st6" d="M755.8 484.7l-.4 1 1 .4.4-1zm2.6-1l-.4 1 1 .5.4-1zm2.7-1l-.5 1 1 .5.4-1zm2.6-1l-.5 1 1 .5.4-1z"/><path transform="rotate(-65.323 766.544 481.486)" class="st6" d="M766 481h1.1v1.1H766z"/><path class="st6" d="M768.8 479.8l-.4 1 1 .5.4-1zm2.6-1l-.4 1 1 .5.4-1zm2.6-.9l-.4.9 1 .5.4-1zm2.6-1l-.4 1 1 .4.4-1zm2.7-1l-.5 1 1 .5.4-1zM453.6 617.1l-.5 1 1 .5.5-1zm2.6-.9l-.5 1 1 .4.5-1zm2.6-1l-.5 1 1 .4.5-1zm2.6-1l-.5 1 1 .5.5-1zm2.6-1l-.5 1 1 .5.5-1zm2.6-.9l-.5 1 1 .4.5-1zm2.6-1l-.5 1 1 .4.5-.9zm2.6-1l-.5 1 1 .5.5-1zm2.6-.9l-.5.9 1 .5.5-1zm2.6-1l-.5 1 1 .4.5-1zm2.6-1l-.5 1 1 .4.5-1zm2.6-1l-.5 1 1 .5.5-1zm2.6-.9l-.5.9 1 .5.5-1zm2.6-1l-.5 1 1 .4.5-1zm2.6-1l-.5 1 1 .4.5-.9zm2.6-1l-.5 1 1 .5.5-1zm2.6-1l-.5 1 1 .5.5-1zm2.6-.9l-.5 1 1 .4.5-1z"/><path transform="rotate(-65.355 500.64 600.324)" class="st6" d="M500.1 599.8h1.1v1.1h-1.1z"/><path class="st6" d="M503 598.6l-.5 1 1 .5.5-1zm2.6-1l-.5 1 1 .5.5-1zm2.6-.9l-.5 1 1 .4.5-1zm2.6-1l-.5 1 1 .5.5-1zm2.6-1l-.5 1 1 .5.5-1zm2.6-1l-.5 1 1 .5.5-1zm2.6-.9l-.5 1 1 .4.5-1zm2.6-1l-.5 1 1 .5.5-1zm2.6-1l-.5 1 1 .5.5-1zm2.6-1l-.5 1 1 .5.5-1zm2.6-.9l-.5 1 1 .4.5-1zm2.6-1l-.5 1 1 .4.5-.9zm2.6-1l-.5 1 1 .5.5-1zm2.6-1l-.5 1 1 .5.5-1zm2.6-.9l-.5 1 1 .4.5-1zm2.6-1l-.5 1 1 .4.5-.9zm2.6-1l-.5 1 1 .5.5-1z"/><path transform="rotate(-65.323 547.484 582.769)" class="st6" d="M546.9 582.2h1.1v1.1h-1.1z"/><path class="st6" d="M549.8 581.1l-.5 1 1 .4.5-1zm2.6-1l-.5 1 1 .5.5-1zm2.6-1l-.5 1 1 .5.5-1zm2.6-.9l-.5.9 1 .5.5-1zm2.6-1l-.5 1 1 .4.5-1zm2.6-1l-.5 1 1 .5.5-1zm2.6-1l-.5 1 1 .5.5-1zm2.6-.9l-.5.9 1 .5.5-1zm2.6-1l-.5 1 1 .4.5-1z"/><path transform="rotate(-65.593 573.493 573.057)" class="st6" d="M572.9 572.5h1.1v1.1h-1.1z"/><path class="st6" d="M575.8 571.3l-.5 1 1 .5.5-1zm2.6-.9l-.5 1 1 .4.5-1zm2.6-1l-.5 1 1 .4.5-1zm2.6-1l-.5 1 1 .5.5-1zm2.6-1l-.5 1 1 .5.5-1zm2.6-.9l-.5 1 1 .4.5-1zm2.6-1l-.5 1 1 .4.5-1zm2.6-1l-.5 1 1 .5.5-1zm2.6-1l-.5 1 1 .5.5-1zm2.6-.9l-.5 1 1 .4.5-1zm2.6-1l-.5 1 1 .4.5-1zm2.6-1l-.5 1 1 .5.5-1zm2.6-1l-.5 1 1 .5.5-1zm2.6-.9l-.5 1 1 .4.5-1zm2.6-1l-.5 1 1 .4.5-1zm2.6-1l-.5 1 1 .5.5-1z"/><path transform="rotate(-65.669 617.618 556.443)" class="st6" d="M617.1 555.9h1.1v1.1h-1.1z"/><path class="st6" d="M620 554.8l-.5 1 1 .4.5-1zm2.6-1l-.5 1 1 .4.5-1zm2.6-1l-.5 1 1 .5.5-1zm2.6-1l-.5 1 1 .5.5-1zm2.6-.9l-.5 1 1 .4.5-1zm2.6-1l-.5 1 1 .4.5-1zm2.6-1l-.5 1 1 .5.5-1zm2.6-1l-.5 1 1 .5.5-1zm2.6-.9l-.5 1 1 .4.5-1z"/><path transform="rotate(-65.342 643.627 546.725)" class="st6" d="M643.1 546.2h1.1v1.1h-1.1z"/><path class="st6" d="M646 545l-.5 1 1 .5.5-1zm2.6-1l-.5 1 1 .5.5-1zm2.6-.9l-.5 1 1 .4.5-1zm2.6-1l-.5 1 1 .4.5-1zm2.6-1l-.5 1 1 .5.5-1zm2.6-1l-.5 1 1 .5.5-1z"/><path transform="rotate(-65.455 661.87 539.906)" class="st6" d="M661.3 539.3h1.1v1.1h-1.1z"/><path class="st6" d="M664.2 538.2l-.5 1 1 .4.5-1zm2.6-1l-.5 1 1 .5.5-1zm2.6-1l-.5 1 1 .5.5-1zm2.6-.9l-.5 1 1 .4.5-1zm2.6-1l-.5 1 1 .4.5-.9zm2.6-1l-.5 1 1 .5.5-1z"/><path transform="rotate(-65.311 680.044 533.053)" class="st6" d="M679.5 532.5h1.1v1.1h-1.1z"/><path class="st6" d="M682.4 531.4l-.5 1 1 .4.5-1zm2.6-1l-.5 1 1 .5.5-1.1zm2.6-1l-.5 1 1 .5.5-1zm2.6-1l-.5 1 1 .5.5-1zm2.6-.9l-.5 1 1 .4.5-1zm2.6-1l-.5 1 1 .4.5-1zm2.6-1l-.5 1 1 .5.5-1zm2.6-1l-.5 1 1 .5.5-1z"/><path transform="rotate(-65.583 703.441 524.274)" class="st6" d="M702.9 523.8h1.1v1.1h-1.1z"/><path transform="rotate(-64.952 706.026 523.295)" class="st6" d="M705.5 522.8h1.1v1.1h-1.1z"/><path class="st6" d="M708.4 521.6l-.5 1 1 .5.5-1zm2.6-1l-.5 1 1 .5.5-1zm2.6-.9l-.5 1 1 .4.5-1zm2.6-1l-.5 1 1 .5.5-1zm2.6-1l-.5 1 1 .5.5-1zm2.6-.9l-.5.9 1 .5.5-1zm2.6-1l-.5 1 1 .4.5-1zm2.6-1l-.5 1 1 .4.5-.9zm2.6-1l-.5 1 1 .5.5-1zm2.6-1l-.5 1 1 .5.5-1zm2.6-.9l-.5 1 1 .4.5-1zm2.6-1l-.5 1 1 .4.5-.9zm2.6-1l-.5 1 1 .5.5-1zm2.6-1l-.5 1 1 .5.5-1zm2.6-.9l-.5 1 1 .4.5-1zm2.6-1l-.5 1 1 .5.5-1zm2.6-1l-.5 1 1 .5.5-1zm2.6-1l-.5 1.1 1 .4.5-1zm2.6-.9l-.4 1 .9.4.5-1zm2.6-1l-.5 1 1 .4.5-.9zm2.6-1l-.5 1 1 .5.5-1zm2.6-.9l-.5.9 1 .5.5-1zm2.6-1l-.5 1 1 .4.5-1z"/><path transform="rotate(-65.437 768.446 499.93)" class="st6" d="M767.9 499.4h1.1v1.1h-1.1z"/><path transform="rotate(-64.747 771.108 498.975)" class="st6" d="M770.5 498.4h1.1v1.1h-1.1z"/><path class="st6" d="M773.4 497.2l-.5 1 1 .5.5-1zm2.6-.9l-.5 1 1 .4.5-1z"/><path transform="rotate(-65.196 778.902 496.051)" class="st6" d="M778.3 495.5h1.1v1.1h-1.1z"/><path class="st6" d="M781.2 494.3l-.5 1 1 .5.5-1zm2.6-.9l-.5 1 1 .4.5-1zM460.1 634.5l-.5 1 1 .4.5-1zm2.6-1l-.5 1 1 .5.5-1zm2.6-1l-.5 1 1 .5.4-1zm2.6-.9l-.5 1 1 .4.5-1zm2.6-1l-.5 1 1 .4.4-.9zm2.6-1l-.5 1 1 .5.5-1zm2.6-1l-.5 1 1 .5.5-1zm2.6-.9l-.5 1 1 .4.5-1z"/><path transform="rotate(-65.23 481.095 627.392)" class="st6" d="M480.6 626.9h1.1v1.1h-1.1z"/><path class="st6" d="M483.5 625.7l-.5 1 1 .5.5-1zm2.6-1l-.5 1 1 .5.4-1zm2.6-.9l-.5 1 1 .4.5-1zm2.6-1l-.5 1 1 .4.4-1zm2.6-1l-.5 1 1 .5.4-1zm2.6-1l-.5 1 1 .5.5-1zm2.6-.9l-.5 1 1 .4.4-1zm2.6-1l-.5 1 1 .4.4-1zm2.6-1l-.5 1 1 .5.5-1zm2.6-.9l-.5.9 1 .5.5-1zm2.6-1l-.5 1 1 .4.5-1zm2.6-1l-.5 1 1 .4.4-.9zm2.6-1l-.5 1 1 .5.5-1zm2.6-.9l-.5.9 1 .5.5-1zm2.6-1l-.5 1 1 .4.5-1zm2.6-1l-.5 1 1 .4.5-1zm2.6-1l-.5 1 1 .5.5-1zm2.6-1l-.5 1 1 .5.4-1zm2.6-.9l-.5 1 1 .4.5-1zm2.6-1l-.5 1 1 .4.4-.9zm2.6-1l-.5 1 1 .5.5-1zm2.6-1l-.5 1 1 .5.5-1zm2.6-.9l-.5 1 1 .4.5-1zm2.6-1l-.5 1 1 .4.5-.9zm2.6-1l-.5 1 1 .5.4-1zm2.6-1l-.5 1 1 .5.4-1zm2.6-.9l-.5 1 1 .4.5-1zm2.6-1l-.5 1 1 .4.5-.9z"/><path transform="rotate(-65.23 556.5 599.13)" class="st6" d="M556 598.6h1.1v1.1H556z"/><path class="st6" d="M558.9 597.5l-.5.9 1 .5.5-1zm2.6-1l-.5 1 1 .4.5-1zm2.6-1l-.5 1 1 .5.5-1.1zm2.6-1l-.5 1 1 .5.5-1zm2.6-.9l-.5.9 1 .5.5-1zm2.6-1l-.5 1 1 .4.5-1zm2.6-1l-.5 1 1 .5.5-1zm2.6-1l-.5 1 1 .5.5-1zm2.6-.9l-.5.9 1 .5.5-1zm2.6-1l-.5 1 1 .4.5-1zm2.6-1l-.5 1 1 .5.5-1zm2.6-1l-.5 1 1 .5.5-1zm2.6-1l-.5 1 1 .5.5-1zm2.6-.9l-.5 1 1 .4.4-1zm2.6-1l-.5 1 1 .5.5-1zm2.6-1l-.5 1 1 .5.5-1zm2.6-1l-.5 1.1 1 .4.5-1zm2.6-.9l-.5 1 1 .4.5-1zm2.6-1l-.5 1 1 .5.5-1zm2.6-1l-.5 1 1 .5.5-1zm2.6-1l-.5 1 1 .5.5-1zm2.6-.9l-.5 1 1 .4.5-1zm2.6-1l-.5 1 1 .4.5-.9zm2.6-1l-.5 1 1 .5.5-1zm2.6-.9l-.5 1 1 .4.5-1z"/><path transform="rotate(-65.355 624.124 573.81)" class="st6" d="M623.6 573.3h1.1v1.1h-1.1z"/><path class="st6" d="M626.5 572.1l-.5 1 1 .5.5-1zm2.6-1l-.5 1 1 .5.5-1zm2.6-.9l-.5 1 1 .4.5-1zm2.6-1l-.5 1 1 .4.5-1zm2.6-1l-.5 1 1 .5.5-1z"/><path transform="rotate(-65.555 639.77 567.993)" class="st6" d="M639.2 567.4h1.1v1.1h-1.1z"/><path class="st6" d="M642.1 566.3l-.5 1 1 .4.5-1zm2.6-1l-.5 1 1 .4.5-1zm2.6-1l-.5 1 1 .5.5-1zm2.6-1l-.5 1 1 .5.5-1z"/><path transform="rotate(-65.567 652.774 563.118)" class="st6" d="M652.2 562.5h1.1v1.1h-1.1z"/><path class="st6" d="M655.1 561.4l-.5 1 1 .4.5-1zm2.6-1l-.5 1 1 .5.5-1zm2.6-1l-.5 1 1 .5.5-1zm2.6-.9l-.5 1 1 .4.5-1zm2.6-1l-.5 1 1 .4.5-1zm2.6-1l-.5 1 1 .5.5-1zm2.6-1l-.5 1 1 .5.5-1zm2.6-.9l-.5 1 1 .4.5-1zm2.6-1l-.5 1 1 .4.5-1zm2.6-1l-.5 1 1 .5.5-1zm2.6-1l-.5 1 1 .5.5-1zm2.6-.9l-.5 1 1 .4.5-1z"/><path transform="rotate(-65.442 686.547 550.436)" class="st6" d="M686 549.9h1.1v1.1H686z"/><path class="st6" d="M688.9 548.7l-.5 1 1 .5.5-1zm2.6-1l-.5 1 1 .5.5-1zm2.6-.9l-.5 1 1 .4.5-1zm2.6-1l-.5 1 1 .4.5-.9zm2.6-1l-.5 1 1 .5.5-1zm2.6-1l-.5 1 1 .5.5-1zm2.6-.9l-.5 1 1 .4.5-1zm2.6-1l-.5 1 1 .4.5-1zm2.6-1l-.5 1 1 .5.5-1zm2.6-1l-.5 1 1 .5.5-1zm2.6-.9l-.5 1 1 .4.5-1zm2.6-1l-.5 1 1 .4.5-1zm2.6-1l-.5 1 1 .5.5-1zm2.6-1l-.5 1 1 .5.5-1zm2.6-.9l-.5 1 1 .4.5-1zm2.6-1l-.5 1 1 .5.5-1.1zm2.6-1l-.5 1 1 .5.5-1zm2.6-1l-.5 1 1 .5.5-1zm2.6-.9l-.5 1 1 .4.5-1zm2.6-1l-.5 1 1 .4.5-.9zm2.6-1l-.5 1 1 .5.5-1z"/><path transform="rotate(-65.669 743.703 528.956)" class="st6" d="M743.2 528.4h1.1v1.1h-1.1z"/><path class="st6" d="M746.1 527.3l-.5 1 1 .4.5-1zm2.6-1l-.5 1 1 .4.5-1zm2.6-1l-.5 1 1 .5.5-1zm2.6-1l-.5 1 1 .5.5-1zm2.6-.9l-.5 1 1 .4.5-1zm2.6-1l-.5 1 1 .4.5-.9zm2.6-1l-.5 1 1 .5.5-1zm2.6-1l-.5 1 1 .5.5-1zm2.6-.9l-.5 1 1 .4.5-1zm2.6-1l-.5 1 1 .4.5-.9zm2.6-1l-.5 1 1 .5.5-1zm2.6-.9l-.5.9 1 .5.5-1zm2.6-1l-.5 1 1 .4.5-1zm2.6-1l-.5 1 1 .4.5-1zm2.6-1l-.5 1 1 .5.5-1zm2.6-.9l-.5.9 1 .5.5-1zm2.6-1l-.5 1 1 .4.5-1zm2.6-1l-.5 1 1 .5.5-1zM466.5 651.8l-.4 1 1 .5.4-1zm2.6-.9l-.4 1 1 .4.4-1zm2.7-1l-.5 1 1 .4.4-1z"/><path transform="rotate(-65.083 474.591 649.639)" class="st6" d="M474.1 649.1h1.1v1.1h-1.1z"/><path class="st6" d="M477 647.9l-.5 1 1 .5.4-1zm2.5-.9l-.4 1 1 .4.4-1zm2.7-1l-.5 1 1 .4.4-1z"/><path transform="rotate(-65.298 484.999 645.724)" class="st6" d="M484.5 645.2h1.1v1.1h-1.1z"/><path class="st6" d="M487.4 644l-.5 1 1 .5.4-1zm2.6-.9l-.5 1 1 .4.4-1zm2.6-1l-.5 1 1 .4.4-1zm2.6-1l-.5 1 1 .5.4-1z"/><path transform="rotate(-65.247 498.035 640.886)" class="st6" d="M497.5 640.3h1.1v1.1h-1.1z"/><path class="st6" d="M500.4 639.2l-.5 1 1 .4.4-1zm2.5-1l-.4 1 1 .4.4-1zm2.7-1l-.5 1 1 .5.4-1zm2.5-1l-.4 1 1 .5.4-1zm2.7-.9l-.5 1 1 .4.4-1zm2.5-1l-.4 1 1 .4.4-1zm2.7-1l-.5 1 1 .5.4-1zm2.5-1l-.4 1 1 .5.4-1zm2.7-.9l-.5 1 1 .4.4-1zm2.6-1l-.5 1 1 .4.4-1zm2.5-1l-.4 1 1 .5.4-1zm2.7-1l-.5 1 1 .5.4-1zm2.6-.9l-.5 1 1 .4.4-1zm2.6-1l-.5 1 1 .4.4-1zm2.5-1l-.4 1 1 .5.4-1zm2.7-1l-.5 1 1 .5.4-1zm2.5-.9l-.4 1 1 .4.4-1zm2.6-1l-.4 1 1 .4.4-1zm2.7-1l-.5 1 1 .5.4-1zm2.6-1l-.5 1 1 .5.4-1zm2.6-.9l-.5 1 1 .4.4-1zm2.6-1l-.5 1 1 .4.4-.9zm2.6-1l-.5 1 1 .5.4-1zm2.6-1l-.5 1 1 .5.4-1zm2.6-.9l-.5 1 1 .4.4-1zm2.6-1l-.5 1 1 .4.4-.9zm2.5-1l-.4 1 1 .5.4-1zm2.7-1l-.5 1 1 .5.4-1zm2.6-.9l-.5 1 1 .4.4-1zm2.6-1l-.5 1 1 .4.4-.9zm2.6-1l-.5 1 1 .5.4-1zm2.6-1l-.5 1 1 .5.4-1zm2.5-.9l-.4 1 1 .4.4-1zm2.7-1l-.5 1 1 .4.4-.9zm2.6-1l-.5 1 1 .5.4-1zm2.6-1l-.5 1 1 .5.4-1zm2.6-.9l-.5 1 1 .4.4-1zm2.6-1l-.5 1 1 .4.4-.9zm2.6-1l-.5 1 1 .5.4-1zm2.6-1l-.5 1.1 1 .4.4-1zm2.6-.9l-.5 1 1 .4.4-1zm2.6-1l-.5 1 1 .5.4-1zm2.6-1l-.5 1 1 .5.5-1zm2.6-1l-.5 1 1 .5.4-1zm2.6-.9l-.5 1 1 .4.4-1zm2.6-1l-.5 1 1 .4.4-.9zm2.6-1l-.5 1 1 .5.5-1zm2.6-.9l-.5.9 1 .5.4-1zm2.5-1l-.4 1 1 .4.4-1zm2.7-1l-.5 1 1 .5.4-1zm2.6-1l-.5 1 1 .5.4-1zm2.6-.9l-.5.9 1 .5.4-1zm2.6-1l-.5 1 1 .4.4-1zm2.5-1l-.4 1 1 .5.4-1zm2.7-1l-.5 1 1 .5.5-1zm2.6-.9l-.5.9 1 .5.4-1zm2.6-1l-.5 1 1 .4.4-1zm2.6-1l-.5 1 1 .5.5-1zm2.6-1l-.5 1 1 .5.4-1zm2.6-1l-.5 1 1 .5.4-1zm2.6-.9l-.5 1 1 .4.4-1zm2.6-1l-.5 1 1 .5.4-1zm2.6-1l-.5 1 1 .5.4-1zm2.6-.9l-.5.9 1 .5.4-1zm2.6-1l-.5 1 1 .4.4-1zm2.6-1l-.5 1 1 .4.4-.9zm2.6-1l-.5 1 1 .5.4-1zm2.6-.9l-.5 1 1 .4.4-1z"/><path transform="rotate(-64.952 677.394 573.579)" class="st6" d="M676.9 573.1h1.1v1.1h-1.1z"/><path class="st6" d="M679.8 571.9l-.5 1 1 .5.4-1zm2.6-1l-.5 1 1 .5.5-1zm2.6-.9l-.5 1 1 .4.4-1zm2.6-1l-.5 1 1 .4.4-1zm2.6-1l-.5 1 1 .5.4-1zm2.6-1l-.5 1 1 .5.4-1zm2.6-.9l-.5 1 1 .4.4-1zm2.6-1l-.5 1 1 .4.4-1zm2.6-1l-.5 1 1 .5.4-1zm2.6-1l-.5 1 1 .5.4-1zm2.6-.9l-.5 1 1 .4.4-1zm2.6-1l-.5 1 1 .4.4-.9zm2.6-1l-.5 1 1 .5.4-1zm2.6-1l-.5 1 1 .5.4-1zm2.6-.9l-.5 1 1 .4.4-1zm2.6-1l-.5 1 1 .4.4-.9zm2.6-1l-.5 1 1 .5.5-1zm2.6-1l-.5 1 1 .5.4-1zm2.6-.9l-.5 1 1 .4.4-1zm2.6-1l-.5 1 1 .4.5-1zm2.6-1l-.5 1 1 .5.4-1zm2.6-1l-.5 1 1 .5.4-1zm2.6-.9l-.5 1 1 .4.4-1z"/><path transform="rotate(-65.455 739.845 550.227)" class="st6" d="M739.3 549.7h1.1v1.1h-1.1z"/><path class="st6" d="M742.2 548.5l-.5 1 1 .5.5-1zm2.6-1l-.5 1 1 .5.5-1zm2.6-.9l-.5 1 1 .4.4-1zm2.6-1l-.5 1 1 .4.4-1zm2.6-1l-.5 1 1 .5.4-1zm2.6-1l-.5 1 1 .5.4-1zm2.6-.9l-.5 1 1 .4.4-1zm2.6-1l-.5 1 1 .4.5-1zm2.6-1l-.5 1 1 .5.4-1zm2.6-.9l-.5.9 1 .5.5-1zm2.6-1l-.5 1 1 .4.5-1zm2.6-1l-.5 1 1 .4.5-1zm2.6-1l-.5 1 1 .5.4-1zm2.6-1l-.5 1 1 .5.4-1zm2.6-.9l-.5 1 1 .4.4-1zm2.6-1l-.5 1 1 .4.4-1zm2.6-1l-.5 1 1 .5.5-1zm2.6-.9l-.5.9 1 .5.5-1zm2.6-1l-.5 1 1 .4.4-1zm2.6-1l-.5 1 1 .4.4-.9zm2.6-1l-.5 1 1 .5.4-1zm2.6-1l-.5 1 1 .5.5-1zM473 669.2l-.4 1 1 .4.4-1zm2.6-1l-.4 1 1 .5.4-1zm2.6-1l-.4 1 1 .5.4-1zm2.6-.9l-.4 1 1 .4.4-1zm2.6-1l-.4 1 1 .4.4-1zm2.6-1l-.4 1 1 .5.4-1zm2.6-1l-.4 1 1 .5.4-1zm2.6-1l-.4 1.1 1 .4.4-1zm2.6-.9l-.4 1 1 .4.4-1zm2.6-1l-.4 1 1 .5.4-1z"/><path transform="rotate(-65.442 499.303 660.176)" class="st6" d="M498.8 659.6h1.1v1.1h-1.1z"/><path class="st6" d="M501.6 658.5l-.4.9 1 .5.4-1zm2.6-1l-.4 1 1 .4.4-1z"/><path transform="rotate(-65.211 507.088 657.21)" class="st6" d="M506.6 656.7h1.1v1.1h-1.1z"/><path class="st6" d="M509.4 655.5l-.4 1 1 .5.4-1zm2.6-.9l-.4.9 1 .5.4-1zm2.6-1l-.4 1 1 .4.4-1zm2.6-1l-.4 1 1 .5.4-1zm2.6-1l-.4 1 1 .5.4-1zm2.6-.9l-.4 1 1 .4.4-1zm2.6-1l-.4 1 1 .4.4-1zm2.6-1l-.4 1 1 .5.4-1zm2.6-1l-.4 1 1 .5.4-1zm2.6-.9l-.4 1 1 .4.4-1zm2.7-1l-.5 1 1 .4.4-1zm2.5-1l-.4 1 1 .5.4-1zm2.6-1l-.4 1 1 .5.4-1zm2.6-.9l-.4 1 1 .4.4-1zm2.6-1l-.4 1 1 .4.4-1zm2.6-1l-.4 1 1 .5.4-1zm2.6-1l-.4 1 1 .5.4-1zm2.6-.9l-.4 1 1 .4.4-1zm2.6-1l-.4 1 1 .4.4-.9zm2.6-1l-.4 1 1 .5.4-1zm2.6-1l-.4 1 1 .5.4-1zm2.6-.9l-.4 1 1 .4.4-1zm2.6-1l-.4 1 1 .4.4-1zm2.6-1l-.4 1 1 .5.4-1zm2.6-1l-.4 1 1 .5.4-1zm2.6-.9l-.4 1 1 .4.4-1zm2.6-1l-.4 1 1 .4.4-.9z"/><path transform="rotate(-65.109 579.938 629.954)" class="st6" d="M579.4 629.4h1.1v1.1h-1.1z"/><path class="st6" d="M582.2 628.2l-.4 1 1 .5.4-1zm2.6-.9l-.4 1 1 .4.4-1zm2.6-1l-.4 1 1 .4.4-1zm2.6-1l-.4 1 1 .5.4-1zm2.6-1l-.4 1 1 .5.4-1zm2.6-.9l-.4 1 1 .4.4-1zm2.6-1l-.4 1 1 .4.4-.9zm2.6-1l-.4 1 1 .5.4-1zm2.6-1l-.4 1 1 .5.4-1zm2.6-.9l-.4 1 1 .4.4-1zm2.6-1l-.4 1 1 .4.4-.9zm2.6-1l-.4 1 1 .5.4-1zm2.6-1l-.4 1 1 .5.4-1zm2.6-.9l-.4 1 1 .4.4-1zm2.7-1l-.5 1 1 .4.4-.9zm2.5-1l-.4 1 1 .5.4-1zm2.6-1l-.4 1 1 .5.4-1zm2.6-.9l-.4 1 1 .4.4-1zm2.6-1l-.4 1 1 .4.4-.9zm2.6-1l-.4 1 1 .5.4-1zm2.6-1l-.4 1 1 .5.4-1zm2.7-.9l-.5 1 1 .4.4-1zm2.5-1l-.4 1 1 .4.4-.9zm2.6-1l-.4 1 1 .5.4-1z"/><path transform="rotate(-65.481 644.95 605.6)" class="st6" d="M644.4 605h1.1v1.1h-1.1z"/><path class="st6" d="M647.2 603.9l-.4 1 1 .4.4-1zm2.6-1l-.4 1 1 .5.4-1zm2.7-1l-.5 1 1 .5.4-1zm2.5-1l-.4 1 1 .5.4-1zm2.6-.9l-.4 1 1 .4.4-1zm2.6-1l-.4 1 1 .4.4-1z"/><path transform="rotate(-65.555 663.141 598.78)" class="st6" d="M662.6 598.2h1.1v1.1h-1.1z"/><path class="st6" d="M665.4 597l-.4 1 1 .5.4-1zm2.6-.9l-.4 1 1 .4.4-1zm2.6-1l-.4 1 1 .5.4-1zm2.6-1l-.4 1 1 .5.4-1zm2.6-.9l-.4.9 1 .5.4-1zm2.7-1l-.5 1 1 .4.4-1zm2.5-1l-.4 1 1 .5.4-1zm2.6-1l-.4 1 1 .5.4-1zm2.6-.9l-.4 1 1 .4.4-1zm2.6-1l-.4 1 1 .4.4-1zm2.7-1l-.5 1 1 .5.4-1zm2.5-1l-.4 1 1 .5.4-1zm2.7-.9l-.5.9 1 .5.4-1zm2.5-1l-.4 1 1 .4.4-1zm2.6-1l-.4 1 1 .5.4-1zm2.6-1l-.4 1 1 .5.4-1zm2.6-.9l-.4 1 1 .4.4-1z"/><path transform="rotate(-65.555 709.944 581.24)" class="st6" d="M709.4 580.7h1.1v1.1h-1.1z"/><path class="st6" d="M712.2 579.5l-.4 1 1 .5.4-1zm2.7-1l-.5 1 1 .5.4-1zm2.5-.9l-.4.9 1 .5.4-1zm2.7-1l-.5 1 1 .4.4-1zm2.5-1l-.4 1 1 .5.4-1zm2.6-1l-.4 1 1 .5.4-1zm2.6-.9l-.4.9 1 .5.4-1zm2.6-1l-.4 1 1 .4.4-1zm2.6-1l-.4 1 1 .5.4-1zm2.7-1l-.5 1 1 .5.4-1zm2.6-.9l-.5 1 1 .4.4-1z"/><path transform="rotate(-65.437 741.1 569.511)" class="st6" d="M740.6 569h1.1v1.1h-1.1z"/><path class="st6" d="M743.4 567.8l-.4 1 1 .5.4-1zm2.7-1l-.5 1 1 .5.4-1zm2.5-.9l-.4 1 1 .4.4-1zm2.7-1l-.5 1 1 .4.4-1zm2.5-1l-.4 1 1 .5.4-1zm2.6-1l-.4 1 1 .5.4-1zm2.7-.9l-.5 1 1 .4.4-1zm2.6-1l-.5 1 1 .4.4-1zm2.6-1l-.5 1 1 .5.4-1zm2.5-1l-.4 1 1 .5.4-1zm2.6-.9l-.4 1 1 .4.4-1zm2.6-1l-.4 1 1 .4.4-1zm2.6-1l-.4 1 1 .5.4-1zm2.7-1l-.5 1 1 .5.4-1z"/><path transform="rotate(-65.064 780.15 554.877)" class="st6" d="M779.6 554.3h1.1v1.1h-1.1z"/><path class="st6" d="M782.5 553.2l-.5 1 1 .4.4-.9zm2.5-1l-.4 1 1 .5.4-1zm2.6-1l-.4 1 1 .5.4-1zm2.7-.9l-.5 1 1 .4.4-1zm2.6-1l-.5 1 1 .4.4-1zm2.6-1l-.5 1 1 .5.4-1zm2.5-1l-.4 1 1 .5.4-1zm2.7-.9l-.5 1 1 .4.4-1z"/><path transform="rotate(-65.109 803.555 546.125)" class="st6" d="M803 545.6h1.1v1.1H803z"/><path class="st6" d="M479.5 686.5l-.4 1 1 .5.4-1zm2.6-1l-.4 1 .9.5.5-1zm2.6-.9l-.4 1 .9.4.5-1zm2.6-1l-.4 1 .9.5.5-1zm2.6-1l-.4 1 1 .5.4-1zm2.6-1l-.4 1 1 .5.4-1zm2.6-.9l-.4 1 1 .4.4-1zm2.6-1l-.4 1 1 .4.4-.9z"/><path transform="rotate(-65.342 500.56 679.45)" class="st6" d="M500 678.9h1.1v1.1H500z"/><path class="st6" d="M502.9 677.8l-.4.9.9.5.5-1zm2.6-1l-.4 1 1 .4.4-1zm2.6-1l-.4 1 1 .4.4-.9zm2.6-1l-.4 1 1 .5.4-1zm2.6-.9l-.4.9.9.5.5-1zm2.6-1l-.4 1 .9.4.5-1zm2.6-1l-.4 1 1 .5.4-1zm2.6-1l-.4 1 1 .5.4-1z"/><path transform="rotate(-65.563 524.012 670.696)" class="st6" d="M523.4 670.1h1.1v1.1h-1.1z"/><path class="st6" d="M526.3 669l-.4 1 1 .4.4-1zm2.6-1l-.4 1 .9.5.5-1zm2.6-1l-.4 1 1 .5.4-1zm2.6-.9l-.4 1 1 .4.4-1zm2.6-1l-.4 1 1 .4.4-1zm2.6-1l-.4 1 1 .5.4-1z"/><path transform="rotate(-65.196 542.22 663.892)" class="st6" d="M541.6 663.3h1.1v1.1h-1.1z"/><path class="st6" d="M544.5 662.2l-.4 1 .9.4.5-1zm2.6-1l-.4 1 .9.4.5-1zm2.6-1l-.4 1 1 .5.4-1zm2.6-1l-.4 1 .9.5.5-1zm2.6-.9l-.4 1 1 .4.4-1zm2.6-1l-.4 1 1 .4.4-1zm2.6-1l-.4 1 1 .5.4-1zm2.6-1l-.4 1 1 .5.4-1zm2.6-.9l-.4 1 1 .4.4-1zm2.6-1l-.4 1 .9.4.5-1z"/><path transform="rotate(-65.298 570.762 653.129)" class="st6" d="M570.2 652.6h1.1v1.1h-1.1z"/><path class="st6" d="M573.1 651.4l-.4 1 .9.5.5-1zm2.6-.9l-.4 1 1 .4.4-1zm2.6-1l-.4 1 1 .4.4-1zm2.6-1l-.4 1 1 .5.4-1zm2.6-1l-.4 1 1 .5.4-1zm2.6-.9l-.4 1 1 .4.4-1zm2.6-1l-.4 1 1 .4.4-1zm2.6-1l-.4 1 .9.5.5-1zm2.6-1l-.4 1 1 .5.4-1zm2.6-.9l-.4 1 .9.4.5-1zm2.6-1l-.4 1 1 .4.4-1zm2.6-1l-.4 1 1 .5.4-1zm2.6-1l-.4 1 1 .5.4-1zm2.6-.9l-.4 1 1 .4.4-1zm2.6-1l-.4 1 .9.4.5-1zm2.6-1l-.4 1 .9.5.5-1zm2.6-1l-.4 1 1 .5.4-1zm2.6-.9l-.4 1 .9.4.5-1zm2.6-1l-.4 1 1 .4.4-1zm2.6-1l-.4 1 1 .5.4-1zm2.6-1l-.4 1 1 .5.4-1zm2.6-.9l-.4 1 1 .4.4-1zm2.6-1l-.4 1 1 .4.4-1zm2.6-1l-.4 1 1 .5.4-1zm2.6-1l-.4 1 1 .5.4-1zm2.6-.9l-.4 1 1 .4.4-1zm2.6-1l-.4 1 1 .5.4-1zm2.6-1l-.4 1 1 .5.4-1zm2.6-1l-.4 1 1 .5.4-1zm2.6-.9l-.4 1 1 .4.4-1zm2.6-1l-.4 1 1 .4.4-1zm2.6-1l-.4 1 1 .5.4-1z"/><path transform="rotate(-64.952 656.563 620.939)" class="st6" d="M656 620.4h1.1v1.1H656z"/><path class="st6" d="M658.9 619.3l-.4 1 1 .4.4-1z"/><path transform="rotate(-65.442 661.8 619.038)" class="st6" d="M661.2 618.5h1.1v1.1h-1.1z"/><path class="st6" d="M664.1 617.3l-.4 1 1 .5.4-1zm2.6-.9l-.4.9 1 .5.4-1zm2.6-1l-.4 1 1 .4.4-1zm2.6-1l-.4 1 1 .5.4-1zm2.6-1l-.4 1 1 .5.4-1zm2.6-1l-.4 1 1 .5.4-1zm2.6-.9l-.4 1 1 .4.4-1zm2.6-1l-.4 1 1 .5.4-1.1zm2.6-1l-.4 1 1 .5.4-1zm2.6-1l-.4 1 .9.5.5-1zm2.6-.9l-.4 1 1 .4.4-1zm2.6-1l-.4 1 1 .5.4-1.1zm2.6-1l-.4 1 .9.5.5-1zm2.6-1l-.4 1.1 1 .4.4-1zm2.6-.9l-.4 1 1 .4.4-1zm2.6-1l-.4 1 1 .5.4-1zm2.6-1l-.4 1 1 .5.4-1zm2.6-1l-.4 1 1 .5.4-1zm2.6-.9l-.4 1 1 .4.4-1zm2.6-1l-.4 1 1 .5.4-1zm2.6-1l-.4 1 1 .5.4-1zm2.6-.9l-.4.9 1 .5.4-1zm2.6-1l-.4 1 1 .4.4-1zm2.6-1l-.4 1 1 .4.4-.9zm2.6-1l-.4 1 1 .5.4-1zm2.6-.9l-.4 1 1 .4.4-1zm2.6-1l-.4 1 1 .4.4-1zm2.6-1l-.4 1 1 .5.4-1zm2.6-1l-.4 1 1 .5.4-1zm2.6-1l-.4 1 1 .5.4-1zm2.6-.9l-.4 1 1 .4.4-1zm2.6-1l-.4 1 1 .5.4-1zm2.6-1l-.4 1 1 .5.4-1zm2.6-1l-.4 1 1 .5.4-1zm2.6-.9l-.4 1 1 .4.4-1zm2.6-1l-.4 1 1 .5.4-1zm2.6-1l-.4 1 1 .5.4-1zm2.6-.9l-.4 1 1 .4.4-1zm2.6-1l-.4 1 1 .4.4-1zm2.6-1l-.4 1 1 .5.4-1zm2.6-1l-.4 1 1 .5.4-1zm2.6-.9l-.4 1 1 .4.4-1zm2.6-1l-.4 1 1 .4.4-1zm2.6-1l-.4 1 1 .5.4-1zm2.6-1l-.4 1 1 .5.4-1zm2.6-.9l-.4.9 1 .5.4-1z"/><path transform="rotate(-65.455 784.01 573.229)" class="st6" d="M783.4 572.7h1.1v1.1h-1.1z"/><path class="st6" d="M786.3 571.5l-.4 1 1 .5.4-1zm2.6-1l-.4 1 1 .5.4-1zm2.6-.9l-.4 1 1 .4.4-1zm2.6-1l-.4 1 1 .4.4-1zm2.6-1l-.4 1 1 .5.4-1zm2.6-1l-.4 1 1 .5.4-1zm2.6-.9l-.4 1 1 .4.4-1zm2.6-1l-.4 1 1 .4.4-1zm2.6-1l-.4 1 1 .5.4-1z"/><path transform="rotate(-65.355 809.988 563.464)" class="st6" d="M809.5 562.9h1.1v1.1h-1.1z"/><path class="st6" d="M485.6 708.1l-.4 1 1 .5.4-1zm2.6-.9l-.4.9 1 .5.4-1zm2.6-1l-.4 1 1 .4.4-1zm2.6-1l-.4 1 1 .5.4-1zm2.6-1l-.4 1 1 .5.4-1z"/><path transform="rotate(-65.411 498.897 703.99)" class="st6" d="M498.4 703.4h1.1v1.1h-1.1z"/><path class="st6" d="M501.2 702.3l-.4 1 1 .4.4-1zm2.6-1l-.4 1 1 .5.4-1zm2.6-1l-.4 1 1 .5.4-1zm2.6-.9l-.4 1 1 .4.4-1zm2.6-1l-.4 1 1 .4.4-1zm2.6-1l-.4 1 1 .5.4-1zm2.6-1l-.4 1 1 .5.4-1zm2.6-.9l-.4 1 1 .4.4-1zm2.6-1l-.4 1 1 .4.4-1zm2.6-1l-.4 1 1 .5.4-1zm2.6-1l-.4 1 1 .5.4-1zm2.6-.9l-.4 1 1 .4.4-1zm2.6-1l-.4 1 1 .4.4-1zm2.6-1l-.4 1 1 .5.4-1zm2.6-1l-.4 1 1 .5.4-1zm2.6-.9l-.4.9 1 .5.4-1zm2.6-1l-.4 1 1 .4.4-1zm2.6-1l-.4 1 1 .5.4-1zm2.6-1l-.4 1 1 .5.4-1zm2.6-.9l-.4 1 1 .4.4-1zm2.6-1l-.4 1 1 .4.4-1zm2.7-1l-.5 1 1 .5.4-1zm2.5-1l-.4 1 1 .5.4-1zm2.6-.9l-.4 1 1 .4.4-1zm2.6-1l-.4 1 1 .4.4-1zm2.6-1l-.4 1 1 .5.4-1zm2.6-1l-.4 1 1 .5.4-1zm2.7-1l-.5 1.1 1 .4.4-1zm2.5-.9l-.4 1 1 .4.4-1zm2.6-1l-.4 1 1 .5.4-1zm2.6-1l-.4 1 1 .5.4-1z"/><path transform="rotate(-65.298 582.09 672.777)" class="st6" d="M581.6 672.2h1.1v1.1h-1.1z"/><path class="st6" d="M584.4 671.1l-.4 1 1 .4.4-1z"/><path transform="rotate(-65.442 587.311 670.863)" class="st6" d="M586.8 670.3h1.1v1.1h-1.1z"/><path transform="rotate(-65.211 589.899 669.839)" class="st6" d="M589.4 669.3h1.1v1.1h-1.1z"/><path class="st6" d="M592.2 668.2l-.4 1 1 .4.4-1zm2.6-1l-.4 1 1 .5.4-1zm2.6-1l-.4 1 1 .5.4-1zm2.7-1l-.5 1 1 .5.4-1zm2.5-.9l-.4 1 1 .4.4-1zm2.7-1l-.5 1 1 .4.4-1zm2.5-1l-.4 1 1 .5.4-1zm2.6-1l-.4 1 1 .5.4-1zm2.7-.9l-.5 1 1 .4.4-1zm2.6-1l-.5 1 1 .4.4-1zm2.5-1l-.4 1 1 .5.4-1zm2.6-1l-.4 1 1 .5.4-1zm2.6-.9l-.4 1 1 .4.4-1zm2.6-1l-.4 1 1 .4.4-.9zm2.6-1l-.4 1 1 .5.4-1zm2.6-1l-.4 1 1 .5.4-1zm2.7-.9l-.5 1 1 .4.4-1zm2.5-1l-.4 1 1 .4.4-.9zm2.7-1l-.5 1 1 .5.4-1zm2.6-1l-.5 1 1 .5.4-1zm2.5-.9l-.4 1 1 .4.4-1zm2.7-1l-.5 1 1 .5.4-1zm2.5-1l-.4 1 1 .5.4-1zm2.6-1l-.4 1 1 .5.4-1zm2.7-.9l-.5 1 1 .4.4-1zm2.6-1l-.5 1 1 .5.4-1zm2.5-1l-.4 1 1 .5.4-1zm2.6-.9l-.4 1 1 .4.4-1zm2.6-1l-.4 1 1 .4.4-1zm2.6-1l-.4 1 1 .4.4-.9zm2.6-1l-.4 1 1 .5.4-1zm2.6-.9l-.4.9 1 .5.4-1zm2.7-1l-.5 1 1 .4.4-1zm2.6-1l-.5 1 1 .5.4-1zm2.6-1l-.5 1 1 .5.4-1zm2.5-.9l-.4 1 1 .4.4-1z"/><path transform="rotate(-65.524 686.145 633.828)" class="st6" d="M685.6 633.3h1.1v1.1h-1.1z"/><path class="st6" d="M688.5 632.1l-.5 1 1 .5.4-1zm2.5-1l-.4 1 1 .5.4-1zm2.6-.9l-.4.9 1 .5.4-1zm2.7-1l-.5 1 1 .4.4-1zm2.6-1l-.5 1 1 .5.4-1zm2.6-1l-.5 1 1 .5.4-1zm2.5-.9l-.4.9 1 .5.4-1zm2.6-1l-.4 1 1 .4.4-1zm2.7-1l-.5 1 1 .5.4-1zm2.6-1l-.5 1 1 .5.4-1zm2.6-.9l-.5.9 1 .5.4-1zm2.6-1l-.5 1 1 .4.4-1zm2.5-1l-.4 1 1 .5.4-1z"/><path transform="rotate(-65.355 722.503 620.16)" class="st6" d="M722 619.6h1.1v1.1H722z"/><path class="st6" d="M724.9 618.5l-.5.9 1 .5.4-1zm2.6-1l-.5 1 1 .4.4-1zm2.6-1l-.5 1 1 .5.4-1zm2.5-1l-.4 1 1 .5.4-1zm2.7-.9l-.5.9 1 .5.4-1zm2.5-1l-.4 1 1 .4.4-1zm2.7-1l-.5 1 1 .5.4-1zm2.6-1l-.5 1 1 .5.4-1zm2.5-.9l-.4 1 1 .4.4-1zm2.6-1l-.4 1 1 .4.4-1zm2.7-1l-.5 1 1 .5.4-1zm2.6-1l-.5 1 1 .5.4-1zm2.5-.9l-.4 1 1 .4.4-1zm2.7-1l-.5 1 1 .4.4-1zm2.5-1l-.4 1 1 .5.4-1zm2.7-1l-.5 1 1 .5.4-1zm2.6-.9l-.5 1 1 .4.4-1zm2.6-1l-.5 1 1 .4.4-1zm2.5-1l-.4 1 1 .5.4-1zm2.6-1l-.4 1 1 .5.4-1zm2.7-.9l-.5 1 1 .4.4-1zm2.6-1l-.5 1 1 .4.4-.9zm2.6-1l-.5 1 1 .5.4-1z"/><path transform="rotate(-65.064 784.962 596.751)" class="st6" d="M784.4 596.2h1.1v1.1h-1.1z"/><path class="st6" d="M787.3 595.1l-.5 1 1 .4.4-1zm2.6-1l-.5 1 1 .4.4-1zm2.5-1l-.4 1 1 .5.4-1zm2.6-1l-.4 1 1 .5.4-1zm2.7-.9l-.5 1 1 .4.4-1zm2.6-1l-.5 1 1 .4.4-1zm2.6-1l-.5 1 1 .5.4-1zm2.6-1l-.5 1 1 .5.4-1zm2.6-.9l-.5 1 1 .4.4-1zm2.5-1l-.4 1 1 .4.4-1z"/><path transform="rotate(-65.442 813.531 586.064)" class="st6" d="M813 585.5h1.1v1.1H813z"/><path class="st6" d="M815.9 584.3l-.5 1 1 .5.4-1z"/><path transform="rotate(-65.555 492.04 730.502)" class="st6" d="M491.5 729.9h1.1v1.1h-1.1z"/><path class="st6" d="M494.4 728.8l-.5 1 1 .4.4-1zm2.6-1l-.5 1 1 .4.4-1zm2.6-1l-.5 1 1 .5.5-1zm2.6-1l-.5 1 1 .5.4-1zm2.6-.9l-.5 1 1 .4.4-1zm2.6-1l-.5 1 1 .4.4-1zm2.6-1l-.5 1 1 .5.4-1zm2.6-1l-.5 1 1 .5.4-1zm2.6-.9l-.5 1 1 .4.4-1zm2.6-1l-.5 1 1 .4.4-1zm2.6-1l-.5 1 1 .5.4-1zm2.6-1l-.5 1 1 .5.5-1z"/><path transform="rotate(-65.311 525.815 717.777)" class="st6" d="M525.3 717.2h1.1v1.1h-1.1z"/><path class="st6" d="M528.1 716.1l-.4 1 1 .4.4-1zm2.7-1l-.5 1 1 .5.4-1zm2.6-1l-.5 1 1 .5.4-1zm2.6-.9l-.5 1 1 .4.4-1zm2.6-1l-.5 1 1 .4.4-1zm2.6-1l-.5 1 1 .5.4-1zm2.6-1l-.5 1 1 .5.5-1zm2.6-.9l-.5 1 1 .4.4-1zm2.6-1l-.5 1 1 .4.4-1zm2.6-1l-.5 1 1 .5.4-1zm2.6-1l-.5 1 1 .5.4-1zm2.6-.9l-.5 1 1 .4.4-1zm2.6-1l-.5 1 1 .4.4-.9zm2.6-1l-.5 1 1 .5.4-1zm2.6-1l-.5 1 1 .5.5-1zm2.6-.9l-.5 1 1 .4.4-1zm2.6-1l-.5 1 1 .4.4-1zm2.6-1l-.5 1 1 .5.4-1zm2.6-1l-.5 1 1 .5.5-1zm2.6-.9l-.5 1 1 .4.4-1zm2.6-1l-.5 1 1 .4.4-.9zm2.6-1l-.5 1 1 .5.5-1zm2.6-1l-.5 1 1 .5.5-1zm2.6-.9l-.5 1 1 .4.4-1zm2.6-1l-.5 1 1 .5.4-1zm2.6-1l-.5 1 1 .5.4-1zm2.6-1l-.5 1 1 .5.5-1zm2.6-.9l-.5 1 1 .4.4-1zm2.6-1l-.5 1 1 .5.4-1zm2.6-1l-.5 1 1 .5.5-1zm2.6-1l-.5 1 1 .5.4-1zm2.6-.9l-.5 1 1 .4.4-1zm2.6-1l-.5 1 1 .5.4-1zm2.6-1l-.5 1 1 .5.4-1zm2.6-1l-.5 1 1 .5.4-1zm2.6-.9l-.5 1 1 .4.4-1zm2.6-1l-.5 1 1 .4.4-.9zm2.6-1l-.5 1 1 .5.5-1zm2.6-.9l-.5.9 1 .5.5-1zm2.6-1l-.5 1 1 .4.4-1zm2.6-1l-.5 1 1 .4.5-.9zm2.6-1l-.5 1 1 .5.5-1zm2.6-1l-.5 1 1 .5.5-1zm2.6-.9l-.5 1 1 .4.4-1zm2.6-1l-.5 1 1 .4.4-.9zm2.6-1l-.5 1 1 .5.5-1zm2.6-.9l-.5 1 1 .4.5-1zm2.6-1l-.5 1 1 .4.4-1zm2.6-1l-.5 1 1 .4.4-.9zm2.6-1l-.5 1 1 .5.5-1zm2.6-1l-.5 1 1 .5.5-1zm2.6-.9l-.5 1 1 .4.5-1zm2.6-1l-.5 1 1 .5.4-1zm2.6-1l-.5 1 1 .5.5-1zm2.6-.9l-.5 1 1 .4.4-1z"/><path transform="rotate(-65.323 671.476 663.196)" class="st6" d="M670.9 662.7h1.1v1.1h-1.1z"/><path class="st6" d="M673.8 661.5l-.5 1 1 .5.5-1zm2.6-1l-.5 1 1 .5.4-1zm2.6-.9l-.5 1 1 .4.5-1zm2.6-1l-.5 1 1 .4.4-1z"/><path transform="rotate(-65.555 684.463 658.368)" class="st6" d="M683.9 657.8h1.1v1.1h-1.1z"/><path class="st6" d="M686.8 656.6l-.5 1 1 .5.4-1z"/><path transform="rotate(-65.442 689.637 656.406)" class="st6" d="M689.1 655.8h1.1v1.1h-1.1z"/><path class="st6" d="M692 654.7l-.5 1 1 .4.4-1zm2.6-1l-.5 1 1 .5.5-1z"/><path transform="rotate(-65.442 697.44 653.485)" class="st6" d="M696.9 652.9h1.1v1.1h-1.1z"/><path class="st6" d="M699.8 651.8l-.5 1 1 .4.5-1zm2.6-1l-.5 1 1 .4.5-1z"/><path transform="rotate(-64.76 705.294 650.563)" class="st6" d="M704.7 650h1.1v1.1h-1.1z"/><path class="st6" d="M707.6 648.8l-.5 1 1 .5.4-1zm2.6-.9l-.5 1 1 .4.4-1zm2.6-1l-.5 1 1 .4.5-1zm2.6-1l-.5 1 1 .5.5-1zm2.6-1l-.5 1 1 .5.5-1zm2.6-.9l-.5 1 1 .4.5-1zm2.6-1l-.5 1 1 .4.4-1zm2.6-1l-.5 1 1 .5.4-1zm2.6-1l-.5 1 1 .5.5-1zm2.6-.9l-.5 1 1 .4.5-1zm2.6-1l-.5 1 1 .4.4-1zm2.6-1l-.5 1 1 .5.5-1zm2.6-1l-.5 1 1 .5.4-1zm2.6-.9l-.5 1 1 .4.5-1zm2.6-1l-.5 1 1 .4.5-1zm2.6-1l-.5 1 1 .5.5-1zm2.6-1l-.5 1 1 .5.5-1zm2.6-.9l-.5 1 1 .4.4-1zm2.6-1l-.5 1 1 .5.5-1.1z"/><path transform="rotate(-65.109 757.274 631.05)" class="st6" d="M756.7 630.5h1.1v1.1h-1.1z"/><path class="st6" d="M759.6 629.3l-.5 1 1 .5.4-1zm2.6-.9l-.5 1 1 .4.5-1z"/><path transform="rotate(-65.652 765 628.086)" class="st6" d="M764.5 627.6h1.1v1.1h-1.1z"/><path class="st6" d="M767.4 626.4l-.5 1 1 .5.5-1zm2.6-1l-.5 1 1 .5.5-1z"/><path transform="rotate(-65.455 772.85 625.215)" class="st6" d="M772.3 624.7h1.1v1.1h-1.1z"/><path class="st6" d="M775.2 623.5l-.5 1 1 .4.5-1zm2.6-1l-.5 1 1 .5.4-1zm2.6-1l-.5 1 1 .5.5-1zm2.6-.9l-.5 1 1 .4.5-1zm2.6-1l-.5 1 1 .4.5-1zm2.6-1l-.5 1 1 .5.5-1zm2.6-1l-.5 1 1 .5.5-1zm2.6-.9l-.5 1 1 .4.5-1zm2.6-1l-.5 1 1 .4.5-1zm2.6-1l-.5 1 1 .5.5-1zm2.6-1l-.5 1 1 .5.5-1z"/><path transform="rotate(-64.996 804.019 613.481)" class="st6" d="M803.5 613h1.1v1.1h-1.1z"/><path class="st6" d="M806.4 611.8l-.5 1 1 .4.5-1zm2.6-1l-.5 1 1 .5.5-1zm2.6-1l-.5 1 1 .5.5-1zm2.6-.9l-.5 1 1 .4.4-1zm2.6-1l-.5 1 1 .4.5-.9zm2.6-1l-.5 1 1 .5.5-1zm2.6-1l-.5 1 1 .5.5-1z"/><path class="st7" d="M155.1 357.8l335.5-181.9c18-9.8 40.8-3 50.6 15.1l41.4 76.7 15 27.7c3.7 6.8 4.3 10.5 0 15.5l-9.5 11.1c-4.7 5.5-4.7 12.9-.3 21l51.8 95.9c4.4 8.2 10.6 12.2 17.7 11.3l14.5-1.9c6.5-.9 9.3 1.7 12.9 8.5l15 27.7 112.9 208.9c9.8 18.1 3 40.9-15.1 50.6L462.2 925.9c-18 9.8-40.8 3-50.6-15.1L140.1 408.4c-9.8-18.1-3-40.9 15-50.6z"/></g></svg>