<?xml version="1.0" encoding="utf-8"?>
<!-- Generator: Adobe Illustrator 19.0.1, SVG Export Plug-In . SVG Version: 6.00 Build 0)  -->
<svg version="1.1" id="Layer_1" xmlns="http://www.w3.org/2000/svg" xmlns:xlink="http://www.w3.org/1999/xlink" x="0px" y="0px"
	 viewBox="0 0 1024 1024" style="enable-background:new 0 0 1024 1024;" xml:space="preserve">
<style type="text/css">
	.st0{fill:#3498DB;}
	.st1{fill:#2980B9;}
	.st2{opacity:0.1;}
	.st3{clip-path:url(#SVGID_2_);}
	.st4{clip-path:url(#SVGID_4_);fill:#707070;}
	.st5{fill:#797979;}
	.st6{fill:#848484;}
	.st7{fill:#999999;}
	.st8{fill:#AFAFAF;}
	.st9{fill:none;}
	.st10{fill:#E2E2E2;}
	.st11{clip-path:url(#SVGID_6_);}
	.st12{clip-path:url(#SVGID_8_);fill:#707070;}
	.st13{clip-path:url(#SVGID_10_);}
	.st14{clip-path:url(#SVGID_12_);fill:#707070;}
	.st15{fill:#F5D56C;}
	.st16{fill:#EAEAEA;}
	.st17{fill:#FFFFFF;}
	.st18{fill:#F5E6B6;}
</style>
<path class="st0" d="M1021.3,41.1V982c0,22.6-18.5,41.1-41.1,41.1H41.1C18.5,1023.1,0,1004.6,0,982V41.1C0,18.5,18.5,0,41.1,0h939.2
	C1002.9,0,1021.3,18.5,1021.3,41.1"/>
<path class="st1" d="M1024,982.1v-941c0-12.9-7.5-24.4-16.9-32L9.8,1008c7.5,9.4,18.3,16,31.2,16h939.2
	C1002.9,1024,1024,1004.7,1024,982.1"/>
<path class="st2" d="M1021.3,982V512.5L712.2,203.4L177.8,802.8l223.9,220.3h578.5C1002.8,1023.1,1021.3,1004.6,1021.3,982z"/>
<path class="st2" d="M1021.3,982V795.7L822.9,598.8l-402,279l147.3,145.3h412.1C1002.8,1023.1,1021.3,1004.6,1021.3,982z"/>
<g>
	<g>
		<defs>
			<path id="SVGID_1_" d="M176.4,791.3c-0.2-0.9-0.2-1.9-0.2-2.9l-0.8-150.2c0,1,0,1.9,0.2,2.9C175.9,691.2,176.2,741.2,176.4,791.3
				z"/>
		</defs>
		<clipPath id="SVGID_2_">
			<use xlink:href="#SVGID_1_"  style="overflow:visible;"/>
		</clipPath>
		<g class="st3">
			<defs>
				<polygon id="SVGID_3_" points="169.4,849.3 634.1,849.3 640.2,638.2 175.5,638.2 				"/>
			</defs>
			<clipPath id="SVGID_4_">
				<use xlink:href="#SVGID_3_"  style="overflow:visible;"/>
			</clipPath>
			<path class="st4" d="M633.8,682.6l0.8,150.2c-49.3,10.2-115.2,16.5-187.4,16.5c-150.7,0-272.2-27.3-270.9-60.8l-0.8-150.2
				c-1.3,33.5,120.2,60.8,270.9,60.8C518.5,699,584.5,692.8,633.8,682.6"/>
		</g>
	</g>
	<path class="st5" d="M722,638.2l0.8,150.2c-0.1,3.5-1.6,6.9-4.2,10.2l-0.8-150.2C720.4,645.1,721.9,641.7,722,638.2"/>
	<path class="st5" d="M717.8,648.4l0.8,150.2c-2.1,2.6-4.9,5.1-8.3,7.6L709.4,656C712.9,653.5,715.7,651,717.8,648.4"/>
	<path class="st6" d="M709.4,656l0.8,150.2c-4.6,3.3-10.5,6.4-17.4,9.4l-0.8-150.2C699,662.4,704.8,659.2,709.4,656"/>
	<path class="st7" d="M692.1,665.4l0.8,150.2c-14.8,6.5-34.6,12.3-58.3,17.2l-0.8-150.2C657.4,677.7,677.3,671.9,692.1,665.4"/>
	<path class="st8" d="M633.8,682.6l0.8,150.2c-49.3,10.2-115.2,16.5-187.4,16.5c-150.7,0-272.2-27.3-270.9-60.8l-0.8-150.2
		c-1.3,33.5,120.2,60.8,270.9,60.8C518.5,699,584.5,692.8,633.8,682.6"/>
	<path class="st9" d="M176.4,791.3l-0.8-150.2C181.2,673.3,300,699,446.4,699c150.7,0,274.3-27.3,275.6-60.8l0.8,150.2
		c-1.3,33.5-124.9,60.8-275.6,60.8C300.8,849.3,181.9,823.5,176.4,791.3z"/>
	<path class="st10" d="M451.1,577.4c150.7,0,272.2,27.3,270.9,60.8c-1.3,33.5-124.9,60.8-275.6,60.8c-150.7,0-272.2-27.3-270.9-60.8
		C176.8,604.7,300.4,577.4,451.1,577.4z"/>
</g>
<g>
	<g>
		<defs>
			<path id="SVGID_5_" d="M176.4,583.8c-0.2-0.9-0.2-1.9-0.2-2.9l-0.8-150.2c0,1,0,1.9,0.2,2.9C175.9,483.6,176.2,533.7,176.4,583.8
				z"/>
		</defs>
		<clipPath id="SVGID_6_">
			<use xlink:href="#SVGID_5_"  style="overflow:visible;"/>
		</clipPath>
		<g class="st11">
			<defs>
				<polygon id="SVGID_7_" points="169.4,641.7 634.1,641.7 640.2,430.7 175.5,430.7 				"/>
			</defs>
			<clipPath id="SVGID_8_">
				<use xlink:href="#SVGID_7_"  style="overflow:visible;"/>
			</clipPath>
			<path class="st12" d="M633.8,475l0.8,150.2c-49.3,10.2-115.2,16.5-187.4,16.5c-150.7,0-272.2-27.3-270.9-60.8l-0.8-150.2
				c-1.3,33.5,120.2,60.8,270.9,60.8C518.5,491.5,584.5,485.2,633.8,475"/>
		</g>
	</g>
	<path class="st5" d="M722,430.7l0.8,150.2c-0.1,3.5-1.6,6.9-4.2,10.2l-0.8-150.2C720.4,437.6,721.9,434.2,722,430.7"/>
	<path class="st5" d="M717.8,440.9l0.8,150.2c-2.1,2.6-4.9,5.1-8.3,7.6l-0.8-150.2C712.9,446,715.7,443.4,717.8,440.9"/>
	<path class="st6" d="M709.4,448.4l0.8,150.2c-4.6,3.3-10.5,6.4-17.4,9.4l-0.8-150.2C699,454.9,704.8,451.7,709.4,448.4"/>
	<path class="st7" d="M692.1,457.9l0.8,150.2c-14.8,6.5-34.6,12.3-58.3,17.2L633.8,475C657.4,470.1,677.3,464.3,692.1,457.9"/>
	<path class="st8" d="M633.8,475l0.8,150.2c-49.3,10.2-115.2,16.5-187.4,16.5c-150.7,0-272.2-27.3-270.9-60.8l-0.8-150.2
		c-1.3,33.5,120.2,60.8,270.9,60.8C518.5,491.5,584.5,485.2,633.8,475"/>
	<path class="st9" d="M176.4,583.8l-0.8-150.2c5.5,32.2,124.4,57.9,270.7,57.9c150.7,0,274.3-27.3,275.6-60.8l0.8,150.2
		c-1.3,33.5-124.9,60.8-275.6,60.8C300.8,641.7,181.9,616,176.4,583.8z"/>
	<path class="st10" d="M451.1,369.9c150.7,0,272.2,27.3,270.9,60.8c-1.3,33.5-124.9,60.8-275.6,60.8c-150.7,0-272.2-27.3-270.9-60.8
		C176.8,397.2,300.4,369.9,451.1,369.9z"/>
</g>
<g>
	<g>
		<defs>
			<path id="SVGID_9_" d="M176.4,376.3c-0.2-0.9-0.2-1.9-0.2-2.9l-0.8-150.2c0,1,0,1.9,0.2,2.9C175.9,276.1,176.2,326.2,176.4,376.3
				z"/>
		</defs>
		<clipPath id="SVGID_10_">
			<use xlink:href="#SVGID_9_"  style="overflow:visible;"/>
		</clipPath>
		<g class="st13">
			<defs>
				<polygon id="SVGID_11_" points="169.4,434.2 634.1,434.2 640.2,223.2 175.5,223.2 				"/>
			</defs>
			<clipPath id="SVGID_12_">
				<use xlink:href="#SVGID_11_"  style="overflow:visible;"/>
			</clipPath>
			<path class="st14" d="M633.8,267.5l0.8,150.2c-49.3,10.2-115.2,16.5-187.4,16.5c-150.7,0-272.2-27.3-270.9-60.8l-0.8-150.2
				c-1.3,33.5,120.2,60.8,270.9,60.8C518.5,284,584.5,277.7,633.8,267.5"/>
		</g>
	</g>
	<path class="st5" d="M722,223.2l0.8,150.2c-0.1,3.5-1.6,6.9-4.2,10.2l-0.8-150.2C720.4,230,721.9,226.6,722,223.2"/>
	<path class="st5" d="M717.8,233.3l0.8,150.2c-2.1,2.6-4.9,5.1-8.3,7.6l-0.8-150.2C712.9,238.5,715.7,235.9,717.8,233.3"/>
	<path class="st6" d="M709.4,240.9l0.8,150.2c-4.6,3.3-10.5,6.4-17.4,9.4l-0.8-150.2C699,247.3,704.8,244.2,709.4,240.9"/>
	<path class="st7" d="M692.1,250.4l0.8,150.2c-14.8,6.5-34.6,12.3-58.3,17.2l-0.8-150.2C657.4,262.6,677.3,256.8,692.1,250.4"/>
	<path class="st8" d="M633.8,267.5l0.8,150.2c-49.3,10.2-115.2,16.5-187.4,16.5c-150.7,0-272.2-27.3-270.9-60.8l-0.8-150.2
		c-1.3,33.5,120.2,60.8,270.9,60.8C518.5,284,584.5,277.7,633.8,267.5"/>
	<path class="st9" d="M176.4,376.3L175.7,226C181.2,258.2,300,284,446.4,284c150.7,0,274.3-27.3,275.6-60.8l0.8,150.2
		c-1.3,33.5-124.9,60.8-275.6,60.8C300.8,434.2,181.9,408.5,176.4,376.3z"/>
	<path class="st10" d="M451.1,162.4c150.7,0,272.2,27.3,270.9,60.8c-1.3,33.5-124.9,60.8-275.6,60.8c-150.7,0-272.2-27.3-270.9-60.8
		C176.8,189.7,300.4,162.4,451.1,162.4z"/>
</g>
<g>
	<path class="st15" d="M809.7,595.1H593.5v-3.9c0-7.6-7.3-16-14.9-16H494c-7.6,0-13.2,8.4-13.2,16v3.9h-46.7c-7.6,0-13,8.5-13,16.1
		v252.9c0,7.6,5.4,9.7,13,9.7h375.6c7.6,0,16-2.1,16-9.7V611.2C825.6,603.6,817.3,595.1,809.7,595.1"/>
	<polyline class="st16" points="793.3,837.8 439,818.6 450.4,609.3 804.7,628.5 793.3,837.8 	"/>
	<polyline class="st17" points="805.4,817.1 451.3,839.2 438.3,630 792.4,607.9 805.4,817.1 	"/>
	<path class="st18" d="M812.3,876.8H432.7c-7.7,0-13.9-5-13.9-11.1l-34.9-201.8c0-6.1,6.3-11.1,13.9-11.1h449.3
		c7.7,0,13.9,5,13.9,11.1l-34.9,201.8C826.2,871.8,819.9,876.8,812.3,876.8"/>
</g>
</svg>
