<svg id="Layer_1" xmlns="http://www.w3.org/2000/svg" xmlns:xlink="http://www.w3.org/1999/xlink" viewBox="0 0 1024 1024"><style>.st0{clip-path:url(#SVGID_2_)}.st1{fill:#3498db}.st2{fill:#2980b9}.st3{fill:#e5e5e5}.st4{fill:#2573a6}.st5{fill:#fff}.st6{fill:#b23e2f}.st7{fill:#ea563b}.st8{fill:#2c3e50}.st9{fill:#2ecc71}.st10{fill:#cfcfcf}</style><defs><path id="SVGID_1_" d="M1022.9 51.4v920.4c0 28.3-23.1 51.4-51.4 51.4H51.4c-28.2 0-51.4-23.1-51.4-51.4V51.4C0 23.1 23.1 0 51.4 0h920.2c28.2 0 51.3 23.1 51.3 51.4"/></defs><clipPath id="SVGID_2_"><use xlink:href="#SVGID_1_" overflow="visible"/></clipPath><g class="st0"><path class="st1" d="M1022.9 51.4v920.4c0 28.3-23.1 51.4-51.4 51.4H51.4c-28.2 0-51.4-23.1-51.4-51.4V51.4C0 23.1 23.1 0 51.4 0h920.2c28.2 0 51.3 23.1 51.3 51.4"/><path class="st2" d="M1024 982.1v-941c0-12.9-6.8-24.4-16.2-32L9.4 1008c7.6 9.4 18.7 16 31.7 16h940.7c22.5 0 42.2-19.3 42.2-41.9"/><path class="st3" d="M1024 982.1c0 22.6-19.7 41.9-42.3 41.9h.1c22.6 0 42.2-19.3 42.2-41.9"/><path class="st4" d="M787.3 230.5L219.8 798.3l225 225.7h536.9c22.6 0 42.3-19.3 42.3-41.9V466.7L787.3 230.5"/><path class="st5" d="M744.2 804.3H255.5c-28.2 0-51.4-23.1-51.4-51.4V280.6c0-28.3 23.1-51.4 51.4-51.4h488.7c28.2 0 51.4 23.1 51.4 51.4v472.3c0 28.2-23.1 51.4-51.4 51.4z"/><path class="st6" d="M204.1 359.7v-83.1c0-20.4 16.7-37.1 37.1-37.1h517.2c20.4 0 37.1 16.7 37.1 37.1v83.1H204.1z"/><path class="st7" d="M204.1 349.4v-83.1c0-20.4 16.7-37.1 37.1-37.1h517.2c20.4 0 37.1 16.7 37.1 37.1v83.1H204.1z"/><path class="st8" d="M351.4 296.5c-14 0-25.5-11.5-25.5-25.5v-78.3c0-14 11.5-25.5 25.5-25.5s25.5 11.5 25.5 25.5V271c0 14-11.5 25.5-25.5 25.5zm296.9 0c-14 0-25.5-11.5-25.5-25.5v-78.3c0-14 11.5-25.5 25.5-25.5s25.5 11.5 25.5 25.5V271c0 14-11.4 25.5-25.5 25.5z"/><path class="st9" d="M398.2 395.6h59v59h-59z"/><path class="st10" d="M470.3 395.6h59v59h-59zm72.2 0h59v59h-59zm72.1 0h59v59h-59z"/><path class="st7" d="M686.7 395.6h59v59h-59z"/><path class="st10" d="M253.9 467.8h59v59h-59zm72.2 0h59v59h-59zm72.1 0h59v59h-59zm72.1 0h59v59h-59zm72.2 0h59v59h-59zm72.1 0h59v59h-59z"/><path class="st7" d="M686.7 467.8h59v59h-59z"/><path class="st10" d="M253.9 539.9h59v59h-59zm72.2 0h59v59h-59zm72.1 0h59v59h-59zm72.1 0h59v59h-59z"/><path class="st9" d="M542.5 539.9h59v59h-59z"/><path class="st10" d="M614.6 539.9h59v59h-59z"/><path class="st7" d="M686.7 539.9h59v59h-59z"/><path class="st10" d="M253.9 612.1h59v59h-59zm72.2 0h59v59h-59zm72.1 0h59v59h-59zm72.1 0h59v59h-59zm72.2 0h59v59h-59zm72.1 0h59v59h-59z"/><path class="st7" d="M686.7 612.1h59v59h-59z"/><path class="st10" d="M253.9 684.2h59v59h-59zm72.2 0h59v59h-59z"/><path class="st9" d="M398.2 684.2h59v59h-59z"/><path class="st10" d="M470.3 684.2h59v59h-59z"/></g></svg>