<svg id="Layer_1" xmlns="http://www.w3.org/2000/svg" viewBox="0 0 1024 1024"><style>.st0{fill:#3498db}.st1{fill:#2980b9}.st2{fill:#2470a3}.st3{fill:#f5d56c}.st3,.st4,.st5,.st6{fill-rule:evenodd;clip-rule:evenodd}.st4{fill:#eaeaea}.st5{fill:#fff}.st6{fill:#f5e6b6}.st7{fill:#e9ca66}.st8{fill:#f2f2f2}.st9{fill:#226a9b}.st10{fill:#e9daad}.st11{fill:#3190d0}.st12{fill:#2779b0}.st13{fill:#2f89c5}.st14{fill:#2573a7}.st15{fill:#206593}.st16{fill:#ddc061}.st17{fill:#d3d3d3}.st18{fill:#e6e6e6}.st19{fill:#ddcfa4}.st20,.st21{fill-rule:evenodd;clip-rule:evenodd;fill:#f85a68}.st21{fill:#2ecc71}</style><path class="st0" d="M1022.6 41.1V982c0 22.6-18.5 41.1-41.1 41.1H41.1C18.5 1023.1 0 1004.6 0 982V41.1C0 18.5 18.5 0 41.1 0h940.4c22.6 0 41.1 18.5 41.1 41.1"/><path class="st1" d="M1024 982.1v-941c0-12.9-6.9-24.4-16.3-32L9.5 1008c7.6 9.4 18.7 16 31.6 16h940.4c22.6 0 42.5-19.3 42.5-41.9"/><path class="st2" d="M834.5 807.8l-5 28.8c0 9.5-9.7 17.2-21.6 17.2H219.8c-4.6 0-8.9-1.2-12.4-3.1l-5.2 3.5L371.8 1024h609.7c22.6 0 42.4-19.2 42.5-41.8 0 5-1.6 9.7-3.2 14.1L834.5 807.8"/><path class="st3" d="M804 417.3H469v-6c0-11.8-11.3-24.8-23.1-24.8H314.8c-11.8 0-20.5 13-20.5 24.8v6H222c-11.8 0-20.2 13.2-20.2 25v391.9c0 11.8 8.4 15 20.2 15h582c11.8 0 24.8-3.2 24.8-15V442.3c-.1-11.8-13-25-24.8-25"/><path class="st4" d="M778.7 793.4l-549-29.8 17.6-324.3 549 29.8-17.6 324.3"/><path class="st5" d="M797.4 761.3l-548.7 34.2-20.2-324.1 548.7-34.2 20.2 324.1"/><path class="st6" d="M808 853.8H219.8c-11.9 0-21.6-7.7-21.6-17.2l-54-312.7c0-9.5 9.7-17.2 21.6-17.2H862c11.9 0 21.6 7.7 21.6 17.2l-54 312.7c0 9.5-9.7 17.2-21.6 17.2"/><path class="st7" d="M546 443.7l-2 8.1 9.5-.6-7.5-7.5"/><path class="st8" d="M553.5 451.2l-9.5.6-12.5 49.4 5.5 5.5h71.4l-54.9-55.5M1024 982.1"/><path class="st9" d="M845.2 745.9l-10.7 61.9 186.2 188.5c1.6-4.4 3.2-9.1 3.2-14.1v-55.6L845.2 745.9"/><path class="st10" d="M608.4 506.7H537l297.5 301.1 10.7-61.9-236.8-239.2"/><path class="st11" d="M512.2 47.1l-72.5 289.1 80.2 81.1h32.8l52-205.7 99.7 101.1 35.3-35.3L512.2 47.1"/><path class="st12" d="M739.7 277.4l-35.3 35.3 103.7 105.1c6.7 1.6 13.3 6.9 17.2 13.3l4.1-2.8L1024 625.1v-59.8L739.7 277.4"/><path class="st9" d="M829.4 428.3l-4.1 2.8c1.4 2.3 2.4 4.7 3 7.1L1024 636.7v-11.6L829.4 428.3"/><path class="st7" d="M808.1 417.8l20.2 20.4c-.6-2.4-1.6-4.9-3-7.1-3.9-6.4-10.5-11.7-17.2-13.3m-255.4-.5h-32.8l26.1 26.4 6.7-26.4"/><path class="st13" d="M604.7 211.6l-52 205.7h47.1l104.6-104.6-99.7-101.1"/><path class="st14" d="M704.4 312.7L599.8 417.3H804c1.4 0 2.8.2 4.1.5L704.4 312.7"/><path class="st15" d="M828.3 438.2c.3 1.3.5 2.7.5 4v64.4H862c11.9 0 21.6 7.7 21.6 17.2l-38.3 222.1L1024 926.6V636.7L828.3 438.2"/><path class="st16" d="M804 417.3H552.7l-6.7 26.4 7.4 7.5 223.8-13.9 1.9 31 17.1.9-2 37.5h34.5v-64.4c0-1.3-.2-2.7-.5-4L808 417.9c-1.3-.4-2.7-.6-4-.6"/><path class="st17" d="M779.2 468.2l2.4 38.5h12.6l2.1-37.6-17.1-.9"/><path class="st18" d="M777.2 437.2l-223.7 14 54.9 55.5h173.2l-2.4-38.5-2-31"/><path class="st19" d="M862 506.7H608.4L845.2 746l38.3-222.1c0-9.5-9.7-17.2-21.5-17.2"/><path class="st20" d="M530.7 506l151.6-201.8h-79.7v-92.6h-71.9v95.1z"/><path class="st21" d="M427.9 242.5V335h82.2V42.3L352.9 242.5z"/></svg>