<?xml version="1.0" encoding="utf-8"?>
<!-- Generator: Adobe Illustrator 19.0.1, SVG Export Plug-In . SVG Version: 6.00 Build 0)  -->
<svg version="1.1" id="Layer_1" xmlns="http://www.w3.org/2000/svg" xmlns:xlink="http://www.w3.org/1999/xlink" x="0px" y="0px"
	 viewBox="0 0 1024 1024" style="enable-background:new 0 0 1024 1024;" xml:space="preserve">
<style type="text/css">
	.st0{fill:#3498DB;}
	.st1{fill:#2980B9;}
	.st2{fill:#2F89C5;}
	.st3{fill:#2573A6;}
	.st4{fill:#DBDBDB;}
	.st5{fill:#EAEAEA;}
	.st6{fill:#FFFFFF;}
	.st7{fill:#C72828;}
</style>
<path class="st0" d="M1022.9,41.1v940.9c0,22.6-18.5,41.1-41.1,41.1H41.1c-22.6,0-41.1-18.5-41.1-41.1V41.1C0,18.5,18.5,0,41.1,0
	h940.7C1004.4,0,1022.9,18.5,1022.9,41.1"/>
<path class="st1" d="M1024,982.1V41.1c0-12.9-6.8-24.4-16.2-32L9.4,1008c7.6,9.4,18.7,16,31.7,16h940.7
	C1004.3,1024,1024,1004.7,1024,982.1"/>
<polyline class="st2" points="835.3,168.9 835.3,168.9 833.8,183.2 841.6,175.4 835.3,168.9 "/>
<path class="st3" d="M841.6,175.4l-7.8,7.8l-69.1,668.8l-6.8-0.7l-0.8,12.2l-19.5-1.3l0.3,21.8l-532.7,7l-2.8,3.2l127.9,128.7
	l651.4,1.1c22.6,0,42.3-19.3,42.3-41.9V363.9L841.6,175.4"/>
<polyline class="st4" points="764.7,852.1 233.6,797.1 304.2,114 835.3,168.9 764.7,852.1 "/>
<polyline class="st5" points="757.1,863.5 224.3,829.2 268.5,143.8 801.3,178.2 757.1,863.5 "/>
<polyline class="st6" points="737.9,884.1 204.1,891.1 195,204.4 728.8,197.4 737.9,884.1 "/>
<rect x="270.9" y="276.6" transform="matrix(1 -5.441758e-03 5.441758e-03 1 -1.6538 1.8495)" class="st4" width="136.2" height="56.6"/>
<rect x="271.2" y="349.1" transform="matrix(1 -5.441225e-03 5.441225e-03 1 -1.9525 2.5076)" class="st4" width="377.3" height="22"/>
<rect x="461.7" y="696.8" transform="matrix(1 -5.440393e-03 5.440393e-03 1 -3.8128 3.0355)" class="st4" width="188.6" height="11"/>
<rect x="461.8" y="717.6" transform="matrix(1 -5.443999e-03 5.443999e-03 1 -3.9288 2.852)" class="st4" width="120.1" height="11"/>
<rect x="549.4" y="799.4" transform="matrix(1 -5.441428e-03 5.441428e-03 1 -4.3711 3.2871)" class="st4" width="105" height="11"/>
<rect x="272" y="379.9" transform="matrix(1 -5.441258e-03 5.441258e-03 1 -2.6778 2.2124)" class="st4" width="266.6" height="226.6"/>
<rect x="547.7" y="378.9" transform="matrix(-1 5.441975e-03 -5.441975e-03 -1 1199.6011 981.111)" class="st4" width="101.5" height="226.6"/>
<rect x="272.8" y="624.4" transform="matrix(1 -5.441258e-03 5.441258e-03 1 -3.4772 2.2189)" class="st4" width="266.6" height="31.5"/>
<polyline class="st4" points="548.6,655.1 650.1,654.6 649.9,623.1 548.4,623.6 548.6,655.1 "/>
<rect x="546.6" y="275.1" transform="matrix(-1 5.441975e-03 -5.441975e-03 -1 1196.3165 578.5372)" class="st4" width="101.5" height="31.5"/>
<path class="st7" d="M561.6,645.8l0-6c1.2,0.3,2,0.7,2.6,1.2l0.8,1.8l-0.9,2C563.4,645.4,562.6,645.7,561.6,645.8 M560.5,638.1
	c-1.1-0.3-1.9-0.7-2.3-1.2l-0.7-1.8l0.8-1.8c0.5-0.5,1.3-0.8,2.3-1L560.5,638.1 M561.5,628.6l-1,0l0,2.5c-1.4,0.2-2.4,0.6-3.2,1.4
	c-0.8,0.7-1.2,1.6-1.2,2.7l0.4,1.9l1.3,1.3c0.6,0.4,1.5,0.7,2.8,1.1l0,6.5l-2.5-0.3l-2.3-0.8l0,1.3c0.5,0.3,1.3,0.5,2.2,0.6l2.6,0.3
	l0,3l1,0l0-3c1.5-0.2,2.7-0.7,3.5-1.4c0.8-0.7,1.3-1.6,1.3-2.8c0-1.1-0.4-1.9-1-2.6c-0.7-0.7-1.9-1.3-3.8-1.8l0-6.2
	c1.5,0.1,2.9,0.4,4.1,0.9l0.4-1.2c-1.3-0.5-2.8-0.8-4.5-0.9L561.5,628.6"/>
<polygon class="st7" points="532.2,773.6 526.9,768.4 509.4,786.1 491.7,768.6 486.4,773.9 504.2,791.4 486.6,809.1 491.9,814.3 
	509.4,796.6 527.1,814.1 532.4,808.8 514.6,791.3 "/>
</svg>
