<svg id="Layer_1" xmlns="http://www.w3.org/2000/svg" viewBox="0 0 1024 1024"><style>.st0{fill:#3498db}.st1{fill:#2980b9}.st2{fill:#2f89c5}.st3{fill:#2573a6}.st4{fill:#dbdbdb}.st5{fill:#eaeaea}.st6{fill:#fff}.st7{fill:#c72828}</style><path class="st0" d="M1022.9 41.1V982c0 22.6-18.5 41.1-41.1 41.1H41.1C18.5 1023.1 0 1004.6 0 982V41.1C0 18.5 18.5 0 41.1 0h940.7c22.6 0 41.1 18.5 41.1 41.1"/><path class="st1" d="M1024 982.1v-941c0-12.9-6.8-24.4-16.2-32L9.4 1008c7.6 9.4 18.7 16 31.7 16h940.7c22.5 0 42.2-19.3 42.2-41.9"/><path class="st2" d="M835.3 168.9l-1.5 14.3 7.8-7.8-6.3-6.5"/><path class="st3" d="M841.6 175.4l-7.8 7.8L764.7 852l-6.8-.7-.8 12.2-19.5-1.3.3 21.8-532.7 7-2.8 3.2 127.9 128.7 651.4 1.1c22.6 0 42.3-19.3 42.3-41.9V363.9L841.6 175.4"/><path class="st4" d="M764.7 852.1l-531.1-55L304.2 114l531.1 54.9-70.6 683.2"/><path class="st5" d="M757.1 863.5l-532.8-34.3 44.2-685.4 532.8 34.4-44.2 685.3"/><path class="st6" d="M737.9 884.1l-533.8 7-9.1-686.7 533.8-7 9.1 686.7"/><path transform="matrix(1 -.00544 .00544 1 -1.654 1.85)" class="st4" d="M270.9 276.6h136.2v56.6H270.9z"/><path transform="matrix(1 -.00544 .00544 1 -1.952 2.508)" class="st4" d="M271.2 349.1h377.3v22H271.2z"/><path transform="matrix(1 -.00544 .00544 1 -3.813 3.035)" class="st4" d="M461.7 696.8h188.6v11H461.7z"/><path transform="matrix(1 -.00544 .00544 1 -3.929 2.852)" class="st4" d="M461.8 717.6h120.1v11H461.8z"/><path transform="matrix(1 -.00544 .00544 1 -4.371 3.287)" class="st4" d="M549.4 799.4h105v11h-105z"/><path transform="matrix(1 -.00544 .00544 1 -2.678 2.212)" class="st4" d="M272 379.9h266.6v226.6H272z"/><path transform="matrix(-1 .00544 -.00544 -1 1199.601 981.111)" class="st4" d="M547.7 378.9h101.5v226.6H547.7z"/><path transform="matrix(1 -.00544 .00544 1 -3.477 2.219)" class="st4" d="M272.8 624.4h266.6v31.5H272.8z"/><path class="st4" d="M548.6 655.1l101.5-.5-.2-31.5-101.5.5.2 31.5"/><path transform="matrix(-1 .00544 -.00544 -1 1196.316 578.537)" class="st4" d="M546.6 275.1h101.5v31.5H546.6z"/><path class="st7" d="M561.6 645.8v-6c1.2.3 2 .7 2.6 1.2l.8 1.8-.9 2c-.7.6-1.5.9-2.5 1m-1.1-7.7c-1.1-.3-1.9-.7-2.3-1.2l-.7-1.8.8-1.8c.5-.5 1.3-.8 2.3-1l-.1 5.8m1-9.5h-1v2.5c-1.4.2-2.4.6-3.2 1.4-.8.7-1.2 1.6-1.2 2.7l.4 1.9 1.3 1.3c.6.4 1.5.7 2.8 1.1v6.5l-2.5-.3-2.3-.8v1.3c.5.3 1.3.5 2.2.6l2.6.3v3h1v-3c1.5-.2 2.7-.7 3.5-1.4.8-.7 1.3-1.6 1.3-2.8 0-1.1-.4-1.9-1-2.6-.7-.7-1.9-1.3-3.8-1.8v-6.2c1.5.1 2.9.4 4.1.9l.4-1.2c-1.3-.5-2.8-.8-4.5-.9l-.1-2.5m-29.3 145l-5.3-5.2-17.5 17.7-17.7-17.5-5.3 5.3 17.8 17.5-17.6 17.7 5.3 5.2 17.5-17.7 17.7 17.5 5.3-5.3-17.8-17.5z"/></svg>