<svg id="Layer_1" xmlns="http://www.w3.org/2000/svg" viewBox="0 0 1024 1024"><style>.st0{fill:#3498db}.st1{fill:#2980b9}.st2{fill:#e5e5e5}.st3{fill:#2f89c5}.st4{fill:#2573a6}.st5{fill:#cecece}.st6{fill:#216795}.st7{fill:#1e5c86}.st8{fill:#2a7bb1}.st9{fill-rule:evenodd;clip-rule:evenodd;fill:#f5e6b6}.st10{fill:#195376}.st11{fill-rule:evenodd;clip-rule:evenodd;fill:#69451d}.st12{fill:#f5d56c}.st13{fill:#2ecc71}.st14,.st15{fill-rule:evenodd;clip-rule:evenodd;fill:#a65417}.st15{fill:#facc89}</style><path class="st0" d="M1019.5 41.1v941.8c0 22.6-18.4 41.1-40.9 41.1H40.9C18.4 1024 0 1005.5 0 982.9V41.1C0 18.5 18.4 0 40.9 0h937.7c22.5 0 40.9 18.5 40.9 41.1"/><path class="st1" d="M1024 982.8V41.2c0-13-9.6-24.4-18.9-32L8.5 1008.1c7.5 9.4 17.2 15.3 30.2 15.3h937.6c22.5 0 47.7-17.9 47.7-40.6"/><path class="st2" d="M1006.6 1013.1c-.5.4-1 .7-1.5 1.1-2.3 2-4.9 3.7-7.6 5.2 3.5-1.5 6.7-3.4 9.8-5.7l-.7-.6"/><path class="st3" d="M978.8 1023.4h-2.6 2.6m26.3-9.2c-3.8 2.5-7.9 4.6-12.2 6.2l.5.5c-.9.3-1.7.6-2.6.9 2.3-.6 4.5-1.4 6.7-2.4 2.7-1.5 5.3-3.2 7.6-5.2"/><path class="st4" d="M377.9 641.1l-42 42.1 165.4 168.9 34.6-52.3-158-158.7m232.5-232.7l-111 111 493.5 500.9c4.3-1.5 8.4-3.6 12.2-6.2.5-.4 1-.7 1.5-1.1l-244-243.5L846 644.6 610.4 408.4"/><path class="st2" d="M1024 983v.1c-.1 6.9-2.4 13.4-5.9 19.1 3.7-5.7 5.9-12.2 5.9-19.2m-5.9 19.2c-2.8 4.4-6.6 8.2-10.8 11.4l.4.4c3.9-3.2 7.5-7.2 10.4-11.8m5.9-19.2"/><path class="st5" d="M1024 983.1c-.1 12-7.3 22.7-17.4 30l.6.6c4.3-3.2 8-7.1 10.8-11.4 3.6-5.8 5.9-12.3 6-19.2m0-.1"/><path class="st6" d="M846 644.6l-83.4 124.9 244.1 243.6c10.1-7.3 17.3-18 17.4-30v-160L846 644.6"/><path class="st3" d="M564.4 116.9l-96.8 148.3 141 141.4 121.6-121.9-165.8-167.8"/><path class="st4" d="M730.2 284.7L608.6 406.6l1.8 1.8 78.1-78.2 79.2 79.1 36.5-49.6-74-75"/><path class="st6" d="M688.5 330.2l-78.1 78.2L846 644.6l15.6-23.4L1024 786v-3.2L718.2 476.6l49.5-67.3-79.2-79.1"/><path class="st7" d="M861.6 621.2L846 644.6l178 178.5V786L861.6 621.2"/><path class="st3" d="M990.8 1021.7c-3.9 1.1-7.9 1.7-11.9 1.7 4.1 0 8.1-.5 11.9-1.7M254.9 271.2l-98 148.1 219.3 220.3 121.5-121.8-242.8-246.6"/><path class="st4" d="M497.7 517.7L376.2 639.5l1.7 1.6 121.5-121.7-1.7-1.7"/><path class="st8" d="M992.9 1020.4c-5.5 2-11.2 3.1-16.7 3.1h2.6c4 0 8-.6 11.9-1.7.9-.3 1.8-.6 2.6-.9l-.4-.5"/><path class="st6" d="M499.4 519.4L377.9 641.1l158 158.7 16.2-24.5 241.5 248.1h-34.9 217.6c5.5 0 11.2-1.1 16.7-3.1L499.4 519.4"/><path class="st4" d="M861.6 281.6l-57.4 78.1L1024 582.2V446.4L861.6 281.6"/><path class="st6" d="M804.2 359.7l-36.5 49.6L1024 665v-82.8L804.2 359.7"/><path class="st7" d="M767.7 409.3l-49.5 67.3L1024 782.8V665L767.7 409.3"/><path class="st6" d="M535.9 799.7l-34.6 52.4 167.8 171.3h-22.4 111.9L535.9 799.7"/><path class="st7" d="M552 775.3l-16.1 24.4 222.7 223.7h34.9L552 775.3"/><path class="st3" d="M244.6 590l-97.9 148.2 65.5 65.7 122.1-122.3-89.7-91.6"/><path class="st4" d="M334.3 681.6L212.2 803.9l218.5 219.5h123l-99.6-100 37.2-56.4-169.1-170.2 13.6-13.7-1.5-1.5"/><path class="st6" d="M335.8 683.1l-13.6 13.7L491.3 867l10-14.9-165.5-169M491.3 867l-37.2 56.4 99.6 100h93L491.3 867"/><path class="st7" d="M501.3 852.1l-10 14.9 155.4 156.4h22.4L501.3 852.1"/><path class="st9" d="M510.7 780.2c142.2 0 258.3-116.5 258.3-259.4S653 261.4 510.7 261.4c-142.2 0-258.3 116.5-258.3 259.4s116 259.4 258.3 259.4z"/><path class="st10" d="M467.2 309.1c2.1 9.3-3.6 18.5-12.8 20.7-9.2 2.2-18.4-3.6-20.6-12.9-1.8-8-2.7-15.9-2.7-23.6 0-20.8 6.3-40.7 17.2-56.5 11.2-16.4 27.3-28.4 46.3-32.8 5.3-1.2 10.7-1.9 16.1-1.9 5.5 0 10.9.6 16.1 1.9 19 4.4 35 16.5 46.3 32.8 10.8 15.8 17.2 35.6 17.2 56.5 0 7.7-.9 15.6-2.7 23.6-2.1 9.3-11.4 15-20.6 12.9-9.2-2.2-15-11.4-12.8-20.7 1.2-5.2 1.8-10.5 1.8-15.8 0-13.9-4.1-26.8-11-36.9-6.5-9.5-15.5-16.4-25.9-18.8-2.6-.6-5.4-.9-8.4-.9s-5.7.3-8.4.9c-10.3 2.4-19.4 9.3-25.9 18.8-6.9 10.1-11 23.1-11 36.9 0 5.3.6 10.6 1.8 15.8z"/><path class="st11" d="M510.6 252.3c31.9 0 58-26.1 58-58.2s-26-58.2-58-58.2c-31.9 0-58 26.1-58 58.2.1 32.1 26.1 58.2 58 58.2z"/><path class="st12" d="M453.8 180.1c-3 9-12.6 13.9-21.6 10.9-9-3-13.8-12.7-10.9-21.7 6.5-19.6 18.2-36.9 34.2-49 15.1-11.4 33.7-18.3 55.1-18.3 21.2 0 39.6 6.7 54.6 17.9 15.9 11.9 27.7 28.9 34.3 48.2 3.1 9-1.7 18.8-10.7 21.9-9 3.1-18.7-1.7-21.8-10.7-4.4-12.9-12.1-24-22.3-31.7-9.2-6.9-20.8-11.1-34.1-11.1-13.5 0-25.1 4.2-34.4 11.3-10.4 7.9-18.1 19.3-22.4 32.3z"/><path class="st13" d="M553.7 735.4c-2.1-9.3 3.6-18.5 12.8-20.7 9.2-2.2 18.4 3.6 20.6 12.9 1.8 8 2.7 15.9 2.7 23.6 0 20.8-6.3 40.7-17.2 56.5-11.2 16.4-27.3 28.4-46.3 32.8-5.3 1.2-10.7 1.9-16.1 1.9-5.5 0-10.9-.6-16.1-1.9-19-4.4-35-16.5-46.3-32.8-10.8-15.8-17.2-35.6-17.2-56.5 0-7.7.9-15.6 2.7-23.6 2.1-9.3 11.4-15 20.6-12.9 9.2 2.2 15 11.4 12.8 20.7-1.2 5.2-1.8 10.5-1.8 15.8 0 13.9 4.1 26.8 11 36.9 6.5 9.5 15.5 16.4 25.9 18.8 2.6.6 5.4.9 8.4.9 2.9 0 5.7-.3 8.4-.9 10.3-2.4 19.4-9.3 25.9-18.8 6.9-10.1 11-23.1 11-36.9 0-5.3-.5-10.6-1.8-15.8z"/><path class="st14" d="M510.3 792.1c-31.9 0-58 26.1-58 58.2s26 58.2 58 58.2 58-26.1 58-58.2c0-32-26.1-58.2-58-58.2z"/><path class="st12" d="M567.1 864.4c3-9 12.6-13.9 21.6-10.9 9 3 13.8 12.7 10.9 21.7-6.5 19.6-18.2 36.9-34.2 49-15.1 11.4-33.7 18.3-55.1 18.3-21.2 0-39.6-6.7-54.6-17.9-15.9-11.9-27.7-28.9-34.3-48.2-3.1-9 1.7-18.8 10.7-21.9 9-3.1 18.7 1.7 21.8 10.7 4.4 12.9 12.1 24 22.3 31.7 9.2 6.9 20.8 11.1 34.1 11.1 13.5 0 25.1-4.2 34.4-11.3 10.4-7.9 18.1-19.3 22.4-32.3z"/><path class="st10" d="M348.3 666.5c6.9-6.5 17.8-6.1 24.2.8 6.5 6.9 6.1 17.8-.8 24.4-6 5.6-12.3 10.3-19 14.2-18 10.4-38.3 14.8-57.3 13.3-19.7-1.6-38.1-9.5-51.4-23.8-3.7-4-7-8.3-9.7-13.1-2.7-4.8-4.9-9.8-6.5-15-5.7-18.7-3.3-38.7 5.2-56.7 8.2-17.3 22.2-32.8 40.1-43.2 6.6-3.9 13.9-7 21.7-9.4 9.1-2.8 18.6 2.4 21.4 11.5 2.8 9.1-2.4 18.7-11.4 21.5-5.1 1.6-10 3.7-14.5 6.3-11.9 6.9-21.1 17-26.4 28-4.9 10.4-6.4 21.7-3.3 31.9.8 2.6 1.9 5.2 3.4 7.7 1.5 2.6 3.1 4.8 5 6.8 7.3 7.8 17.7 12.2 29.2 13.1 12.2 1 25.4-2 37.4-8.9 4.6-2.6 8.8-5.8 12.7-9.4z"/><path class="st11" d="M277.7 657.1c-16-27.8-51.5-37.3-79.2-21.3-27.6 16-37.2 51.7-21.2 79.5 16 27.8 51.5 37.3 79.2 21.3 27.6-16 37.1-51.8 21.2-79.5z"/><path class="st12" d="M243.8 742.6c9.2-1.9 18.3 4 20.2 13.3 1.9 9.3-4 18.4-13.3 20.3-20.2 4.2-40.9 2.6-59.4-5.2-17.4-7.4-32.6-20.2-43.3-38.8-10.6-18.4-14-37.8-11.8-56.5 2.3-19.8 11.1-38.5 24.4-53.9 6.2-7.2 17.1-7.9 24.2-1.7 7.1 6.3 7.9 17.1 1.7 24.3-8.9 10.3-14.7 22.5-16.2 35.3-1.3 11.5.8 23.6 7.5 35.2 6.7 11.7 16.2 19.7 26.9 24.3 12 5.2 25.7 6.1 39.1 3.4z"/><path class="st13" d="M672.6 378c-6.9 6.5-17.8 6.1-24.2-.8-6.5-6.9-6.1-17.8.8-24.4 6-5.6 12.3-10.3 19-14.2 18-10.4 38.3-14.8 57.3-13.3 19.7 1.6 38.1 9.5 51.4 23.8 3.7 4 7 8.3 9.7 13.1 2.7 4.8 4.9 9.8 6.5 15 5.7 18.7 3.3 38.7-5.2 56.7-8.2 17.3-22.2 32.8-40.1 43.2-6.6 3.9-13.9 7-21.7 9.4-9.1 2.8-18.6-2.4-21.4-11.5-2.8-9.1 2.4-18.7 11.4-21.5 5.1-1.6 10-3.7 14.5-6.3 11.9-6.9 21.1-17 26.4-28 4.9-10.4 6.4-21.7 3.3-31.9-.8-2.6-1.9-5.2-3.4-7.7-1.5-2.6-3.1-4.8-5-6.8-7.3-7.8-17.7-12.2-29.2-13.1-12.2-1-25.4 2-37.4 8.9-4.5 2.6-8.8 5.8-12.7 9.4z"/><path class="st14" d="M743.3 387.4c16 27.8 51.5 37.3 79.2 21.3 27.6-16 37.2-51.7 21.2-79.5-16-27.8-51.5-37.3-79.2-21.3-27.7 16-37.2 51.8-21.2 79.5z"/><path class="st12" d="M777.2 301.9c-9.2 1.9-18.3-4-20.2-13.3s4-18.4 13.3-20.3c20.2-4.2 40.9-2.6 59.3 5.2 17.4 7.4 32.6 20.2 43.3 38.8 10.6 18.4 14 37.8 11.8 56.5-2.3 19.8-11.1 38.5-24.4 53.9-6.2 7.2-17.1 7.9-24.2 1.7-7.1-6.3-7.9-17.1-1.7-24.3 8.9-10.3 14.7-22.5 16.2-35.3 1.3-11.5-.8-23.6-7.5-35.2-6.7-11.7-16.2-19.7-26.9-24.3-12-5.2-25.6-6.2-39-3.4z"/><path class="st13" d="M305.1 453.3c9.1 2.8 14.2 12.4 11.4 21.5-2.8 9.1-12.3 14.2-21.4 11.5-7.8-2.4-15.1-5.6-21.7-9.4-18-10.4-31.9-25.9-40.1-43.2-8.5-18-10.8-37.9-5.2-56.7 1.6-5.2 3.7-10.2 6.5-15 2.7-4.8 6-9.1 9.7-13.1 13.3-14.3 31.7-22.2 51.4-23.8 19-1.5 39.3 2.9 57.3 13.3 6.6 3.9 13 8.6 19 14.2 6.9 6.5 7.3 17.4.8 24.4-6.5 6.9-17.3 7.3-24.2.8-3.9-3.7-8.2-6.8-12.7-9.4-11.9-6.9-25.2-9.9-37.3-8.9-11.5.9-21.9 5.3-29.2 13.1-1.8 2-3.5 4.2-5 6.8-1.5 2.6-2.6 5.2-3.4 7.7-3.1 10.2-1.6 21.5 3.3 31.9 5.2 11.1 14.4 21.1 26.4 28 4.4 2.6 9.2 4.8 14.4 6.3z"/><path class="st14" d="M277.8 387.2c16-27.8 6.4-63.5-21.2-79.5s-63.2-6.5-79.2 21.3-6.4 63.5 21.2 79.5c27.7 16 63.2 6.4 79.2-21.3z"/><path class="st12" d="M187.1 400.4c6.3 7.1 5.7 17.9-1.4 24.3-7.1 6.3-17.9 5.7-24.1-1.4-13.7-15.5-22.7-34.3-25.2-54.2-2.3-18.8 1.1-38.5 11.8-57 10.6-18.4 25.6-31.1 42.8-38.5 18.2-7.9 38.7-9.6 58.7-5.7 9.3 1.8 15.4 10.9 13.6 20.2-1.8 9.3-10.8 15.4-20.1 13.6-13.3-2.6-26.8-1.5-38.5 3.6-10.6 4.6-19.9 12.5-26.6 24.1-6.7 11.7-8.9 24-7.5 35.6 1.5 12.8 7.4 25.2 16.5 35.4z"/><path class="st10" d="M715.9 591.2c-9.1-2.8-14.2-12.4-11.4-21.5 2.8-9.1 12.3-14.2 21.4-11.5 7.8 2.4 15.1 5.6 21.7 9.4 18 10.4 31.9 25.9 40.1 43.2 8.5 18 10.8 37.9 5.2 56.7-1.6 5.2-3.7 10.2-6.5 15-2.7 4.8-6 9.1-9.7 13.1-13.3 14.3-31.7 22.2-51.4 23.8-19 1.5-39.3-2.9-57.3-13.3-6.6-3.9-13-8.6-19-14.2-6.9-6.5-7.3-17.4-.8-24.4 6.5-6.9 17.3-7.3 24.2-.8 3.9 3.7 8.2 6.8 12.7 9.4 11.9 6.9 25.2 9.9 37.3 8.9 11.5-.9 21.9-5.3 29.2-13.1 1.8-2 3.5-4.2 5-6.8 1.5-2.6 2.6-5.2 3.4-7.7 3.1-10.2 1.6-21.5-3.3-31.9-5.2-11.1-14.4-21.1-26.4-28-4.5-2.6-9.3-4.8-14.4-6.3z"/><path class="st11" d="M743.1 657.3c-16 27.8-6.4 63.5 21.2 79.5s63.2 6.5 79.2-21.3 6.4-63.5-21.2-79.5c-27.7-16-63.2-6.4-79.2 21.3z"/><path class="st12" d="M833.8 644.1c-6.3-7.1-5.7-17.9 1.4-24.3 7.1-6.3 17.9-5.7 24.1 1.4 13.7 15.5 22.7 34.3 25.2 54.2 2.3 18.8-1.1 38.5-11.8 57-10.6 18.4-25.6 31.1-42.8 38.5-18.2 7.9-38.7 9.6-58.7 5.7-9.3-1.8-15.4-10.9-13.6-20.2 1.8-9.3 10.8-15.4 20.1-13.6 13.3 2.6 26.8 1.5 38.5-3.6 10.6-4.6 19.9-12.5 26.6-24.1 6.7-11.7 8.9-24 7.5-35.6-1.4-12.8-7.4-25.2-16.5-35.4z"/><path class="st15" d="M704.7 475.1c2.7 9.1 12.3 14.2 21.4 11.5-1.8-11.5-4.6-22.8-8.1-33.7l-1.8.7c-9.2 2.7-14.3 12.4-11.5 21.5zM433.9 316.9c2.1 9.3 11.4 15 20.6 12.9 9.2-2.2 15-11.4 12.8-20.7-.3-1.2-.4-2.4-.6-3.6-11.4 2.3-22.4 5.5-33.1 9.6l.3 1.8zm270.6 252.8c-2.8 9.1 2.4 18.7 11.4 21.5l1 .4c3.7-10.8 6.5-22 8.5-33.4-8.8-2.6-18.2 2.5-20.9 11.5zM566.9 329.8c9.2 2.2 18.4-3.6 20.6-12.9l.2-1.4c-10.7-4.1-21.7-7.4-33.1-9.8-.2 1.1-.3 2.2-.6 3.4-2 9.3 3.7 18.6 12.9 20.7zm-218.3 48c6.9 6.5 17.8 6.1 24.2-.8 6.5-6.9 6.1-17.8-.8-24.4l-1.3-1.1c-8.9 7.4-17.1 15.5-24.7 24.1l2.6 2.2zm299.8-.6c6.5 6.9 17.3 7.3 24.2.8l1.9-1.6c-7.6-8.7-15.8-16.8-24.6-24.2l-.7.6c-6.9 6.6-7.2 17.5-.8 24.4zM672.9 667l-.4-.3c-6.9-6.5-17.8-6.1-24.2.8-6.2 6.6-6.1 16.8-.1 23.3 8.9-7.2 17.1-15.2 24.7-23.8zm-106.2 47.7c-9.2 2.2-15 11.4-12.8 20.7l.1.7c11.3-2.3 22.3-5.6 32.9-9.6-2.7-8.7-11.4-13.9-20.2-11.8zM467 735.4c2.1-9.3-3.6-18.5-12.8-20.7-8.9-2.1-17.8 3.3-20.3 12 10.6 4 21.7 7.2 33 9.5l.1-.8zm-94.8-44.2c6.5-6.5 6.8-17.1.5-24-6.5-6.9-17.3-7.3-24.2-.8l-1.1.9c7.6 8.7 15.9 16.6 24.8 23.9zm-77-204.9c9.1 2.8 18.6-2.4 21.4-11.5 2.8-9.1-2.4-18.7-11.4-21.5-1-.3-1.9-.7-2.9-1.1-3.6 10.9-6.3 22.1-8.2 33.6l1.1.5zm21.2 83.1c-2.8-9.1-12.3-14.2-21.4-11.5l-.6.2c2 11.5 4.8 22.7 8.5 33.5l2-.7c9.2-2.8 14.3-12.4 11.5-21.5z"/></svg>