<?xml version="1.0" encoding="utf-8"?>
<!-- Generator: Adobe Illustrator 19.0.1, SVG Export Plug-In . SVG Version: 6.00 Build 0)  -->
<svg version="1.1" id="Layer_1" xmlns="http://www.w3.org/2000/svg" xmlns:xlink="http://www.w3.org/1999/xlink" x="0px" y="0px"
	 viewBox="0 0 1024 1024" style="enable-background:new 0 0 1024 1024;" xml:space="preserve">
<style type="text/css">
	.st0{clip-path:url(#SVGID_2_);}
	.st1{fill:#3498DB;}
	.st2{fill:#2980B9;}
	.st3{fill:#F2F2F2;}
	.st4{fill:#3190D0;}
	.st5{fill:#2779B0;}
	.st6{fill:#2F89C5;}
	.st7{fill:#2573A7;}
	.st8{fill:#F8BF00;}
	.st9{fill:#FFFFFF;}
	.st10{fill:#CFCFCF;}
	.st11{fill:#F5E6B6;}
	.st12{fill:#F5D56C;}
</style>
<g>
	<defs>
		<path id="SVGID_1_" d="M1024,23.1v977.8c0,12.7-10.4,23.1-23.1,23.1H23.1c-12.7,0-23.1-10.4-23.1-23.1V23.1C0,10.4,10.4,0,23.1,0
			h977.8C1013.6,0,1024,10.4,1024,23.1"/>
	</defs>
	<clipPath id="SVGID_2_">
		<use xlink:href="#SVGID_1_"  style="overflow:visible;"/>
	</clipPath>
	<g class="st0">
		<path class="st1" d="M1024,23.1v977.8c0,12.7-10.4,23.1-23.1,23.1H23.1c-12.7,0-23.1-10.4-23.1-23.1V23.1C0,10.4,10.4,0,23.1,0
			h977.8C1013.6,0,1024,10.4,1024,23.1"/>
		<path class="st2" d="M1024,981.7V32.3C1024-2,1023,0,1007.7,0L0,1024c7.5,9.5,28.2,0,41.1,0h940.4
			C1027.5,1024,1024,1012,1024,981.7"/>
		<polyline class="st3" points="1024,429.3 1024,542.4 1024,982.1 1024,982.1 1024,429.3 		"/>
		<polyline class="st4" points="755.8,176.8 188.7,820.4 214,803.4 799.3,217.7 755.8,176.8 		"/>
		<polyline class="st5" points="799.3,217.7 214,803.4 853.7,372.6 1024,542.4 1024,429.3 799.3,217.7 		"/>
		<polyline class="st6" points="214,803.4 188.7,820.4 192.7,824.7 214,803.4 		"/>
		<path class="st7" d="M853.7,372.6L214,803.4l-21.2,21.3L383.4,1024h598.1c45.5,0,42.5,0,42.5-41.9V542.4L853.7,372.6"/>
		<path class="st8" d="M782.4,344.4l72.4,28.2v426c0,24.2-19.5,43.7-43.7,43.7H227c-24.1,0-43.7-19.6-43.7-43.7v-426l72.4-22.1"/>
		<path class="st9" d="M303.7,640.3c-24.1,0-43.9-19.8-43.9-43.9v-382c0-24.2,19.7-43.9,43.9-43.9h430.8c24.1,0,43.9,19.8,43.9,43.9
			v382c0,24.2-19.7,43.9-43.9,43.9H303.7z"/>
		<rect x="438.1" y="272.1" class="st10" width="173.8" height="16.8"/>
		<rect x="438.1" y="336" class="st10" width="269.2" height="16.8"/>
		<rect x="308.8" y="399.9" class="st10" width="398.4" height="16.8"/>
		<rect x="308.8" y="463.7" class="st10" width="398.4" height="16.8"/>
		<rect x="308.8" y="527.6" class="st10" width="398.4" height="16.8"/>
		<path class="st11" d="M457.1,588.1L186.3,814.1c6.2,16.5,22,28.3,40.7,28.3h584.1c18.7,0,34.5-11.8,40.7-28.3L586,588.1H457.1z"/>
		<path class="st12" d="M584.6,589.3l267.3,224.8c-0.8,2.2-1.8,4.3-3,6.3l0.1,0.1c3.7-6.4,5.9-13.9,5.9-21.8v-426L584.6,589.3z"/>
		<path class="st12" d="M186.3,814.1l269.4-224.8L183.4,372.7v426c0,8,2.2,15.4,5.9,21.8l0.1-0.1
			C188.2,818.3,187.1,816.3,186.3,814.1z"/>
		<rect x="308.8" y="270.6" class="st10" width="80.3" height="80.3"/>
	</g>
</g>
</svg>
