<svg id="Layer_1" xmlns="http://www.w3.org/2000/svg" xmlns:xlink="http://www.w3.org/1999/xlink" viewBox="0 0 1024 1024"><style>.st0{clip-path:url(#SVGID_2_)}.st1{fill:#3498db}.st2{fill:#2980b9}.st3{fill:#f2f2f2}.st4{fill:#3190d0}.st5{fill:#2779b0}.st6{fill:#2f89c5}.st7{fill:#2573a7}.st8{fill:#f8bf00}.st9{fill:#fff}.st10{fill:#cfcfcf}.st11{fill:#f5e6b6}.st12{fill:#f5d56c}</style><defs><path id="SVGID_1_" d="M1024 23.1v977.8c0 12.7-10.4 23.1-23.1 23.1H23.1c-12.7 0-23.1-10.4-23.1-23.1V23.1C0 10.4 10.4 0 23.1 0h977.8c12.7 0 23.1 10.4 23.1 23.1"/></defs><clipPath id="SVGID_2_"><use xlink:href="#SVGID_1_" overflow="visible"/></clipPath><g class="st0"><path class="st1" d="M1024 23.1v977.8c0 12.7-10.4 23.1-23.1 23.1H23.1c-12.7 0-23.1-10.4-23.1-23.1V23.1C0 10.4 10.4 0 23.1 0h977.8c12.7 0 23.1 10.4 23.1 23.1"/><path class="st2" d="M1024 981.7V32.3C1024-2 1023 0 1007.7 0L0 1024c7.5 9.5 28.2 0 41.1 0h940.4c46 0 42.5-12 42.5-42.3"/><path class="st3" d="M1024 429.3v552.8-552.8"/><path class="st4" d="M755.8 176.8L188.7 820.4l25.3-17 585.3-585.7-43.5-40.9"/><path class="st5" d="M799.3 217.7L214 803.4l639.7-430.8L1024 542.4V429.3L799.3 217.7"/><path class="st6" d="M214 803.4l-25.3 17 4 4.3 21.3-21.3"/><path class="st7" d="M853.7 372.6L214 803.4l-21.2 21.3L383.4 1024h598.1c45.5 0 42.5 0 42.5-41.9V542.4L853.7 372.6"/><path class="st8" d="M782.4 344.4l72.4 28.2v426c0 24.2-19.5 43.7-43.7 43.7H227c-24.1 0-43.7-19.6-43.7-43.7v-426l72.4-22.1"/><path class="st9" d="M303.7 640.3c-24.1 0-43.9-19.8-43.9-43.9v-382c0-24.2 19.7-43.9 43.9-43.9h430.8c24.1 0 43.9 19.8 43.9 43.9v382c0 24.2-19.7 43.9-43.9 43.9H303.7z"/><path class="st10" d="M438.1 272.1h173.8v16.8H438.1zm0 63.9h269.2v16.8H438.1zm-129.3 63.9h398.4v16.8H308.8zm0 63.8h398.4v16.8H308.8zm0 63.9h398.4v16.8H308.8z"/><path class="st11" d="M457.1 588.1l-270.8 226c6.2 16.5 22 28.3 40.7 28.3h584.1c18.7 0 34.5-11.8 40.7-28.3L586 588.1H457.1z"/><path class="st12" d="M584.6 589.3l267.3 224.8c-.8 2.2-1.8 4.3-3 6.3l.1.1c3.7-6.4 5.9-13.9 5.9-21.8v-426L584.6 589.3zM186.3 814.1l269.4-224.8-272.3-216.6v426c0 8 2.2 15.4 5.9 21.8l.1-.1c-1.2-2.1-2.3-4.1-3.1-6.3z"/><path class="st10" d="M308.8 270.6h80.3v80.3h-80.3z"/></g></svg>