<svg id="Layer_1" xmlns="http://www.w3.org/2000/svg" viewBox="0 0 1024 1024"><style>.st0{fill:#3498db}.st1{fill:#2980b9}.st2{fill:#2779b0}.st3{fill:#f5d56c}.st4{fill:#f5e6b6}.st5{fill:#f8bf00}.st6{fill:#f2f2f2}.st7{fill:#2573a7}.st8{fill:#e9daad}.st9{fill:#bcbec0}.st10{fill:#2ecc71}.st11{fill:#236d9e}.st12{fill:#216796}.st13{fill:#d2c49c}.st14{fill:#a9abad}.st15{fill:#2ab866}</style><path class="st0" d="M1022.6 41.1V982c0 22.6-18.5 41.1-41.1 41.1H41.1C18.5 1023.1 0 1004.6 0 982V41.1C0 18.5 18.5 0 41.1 0h940.4c22.6 0 41.1 18.5 41.1 41.1"/><path class="st1" d="M1024 982.1v-941c0-12.9-6.9-24.4-16.3-32L9.5 1008c7.5 9.4 18.7 16 31.6 16h940.4c22.6 0 42.5-19.3 42.5-41.9"/><path class="st2" d="M1024 983.8c0 .1 0 .1 0 0 0 .1 0 .1 0 0m0-.2s0 .1 0 0c0 .1 0 0 0 0m0-.3c0 .1 0 .1 0 0 0 .1 0 .1 0 0m0-.5s0 .1 0 0c0 .1 0 0 0 0M210 823.7L408.2 1024h573.3c21.9 0 41.2-18 42.4-39.7-.8 13.8-9 25.7-20.1 32.6L814 827.5l-387.1-2.4-216.9-1.4m-3.4-12.8l-4.7 4.7 4.6 4.7.1-9.4"/><path class="st3" d="M820.3 827.5l-613.8-3.8 3.9-626.7 613.8 3.8-3.9 626.7"/><path class="st4" d="M824.2 200.8l-3.9 626.7-393.4-2.4-219.1-221.9 2.6-406.2 613.8 3.8"/><path class="st5" d="M428.2 604.4l-1.3 220.7-219.1-221.9-.1-.1z"/><path class="st6" d="M1024 983.9v.2c-.1 0 0-.1 0-.2m0-636.8v635-635"/><path class="st2" d="M852.8 177.7l-1.1 1.1c1.5 1.6 2.9 3.2 4.4 4.8 18.4 20.9 28.8 42.9 28.1 57.9 0 5.4-1.5 10-4.6 13.1-.3.3-.7.6-1.1.9L1024 403.6V347L852.8 177.7"/><path class="st7" d="M844.2 235.7L823.9 260l-3.5 567.6H814l189.9 189.4c11.1-6.9 19.3-18.8 20.1-32.6V403.6L878.4 255.4c-1 .6-2.1.9-3.4.9-6.8 0-17.6-8.2-30.6-20.3 0-.1-.1-.2-.2-.3"/><path class="st8" d="M823.9 259.9L738.4 362c14.4 22.4 22.6 44.1 22.5 60.7 0 9.1-2.5 16.7-7.8 22-1.8 1.8-4.1 2.7-6.9 2.7-2.2 0-4.6-.5-7.3-1.6-16.6-5.9-42.8-31.1-73.8-62.1l-2.2-2.2-131 117.8-23.4 23.4L814 827.5h6.4l3.5-567.6"/><path class="st9" d="M501.9 517.3l147.5-164.1c5.6-6.2 15.1-6.7 21.3-1.1 6.2 5.6 6.7 15.1 1.1 21.3l-1.1 1.1-164.1 147.6c-1.4 1.2-3.5 1.1-4.7-.3a3.48 3.48 0 0 1 0-4.5"/><path class="st10" d="M738.4 362.1l105.8-126.4c16.6 15.4 29.1 24.2 34.9 18.4 13.2-13.2-.5-48.5-30.7-78.7-30.2-30.2-65.4-44-78.6-30.8-5.6 5.7 3.1 18.3 18.5 34.9l-126.4 106c-34.8-22.4-67.3-29.2-82.3-14.3-13.5 13.5 25.2 52.3 73 100.1s86.2 86.9 100.1 73c14.9-14.9 8.1-47.5-14.3-82.2"/><path class="st7" d="M849.2 176.3c.8.8 1.6 1.7 2.4 2.5-.8-.9-1.6-1.7-2.4-2.5"/><path class="st11" d="M884.1 241.4c-.3 5.2-1.9 9.5-5 12.7-.3.3-.7.6-1.1.9l.4.4c.4-.2.7-.5 1.1-.9 3.1-3.1 4.6-7.6 4.6-13.1m-32.5-62.6c1.5 1.6 3 3.2 4.4 4.8-1.4-1.7-2.9-3.3-4.4-4.8"/><path class="st12" d="M844.5 236c13 12.1 23.8 20.3 30.6 20.3 1.3 0 2.4-.3 3.4-.9l-.5-.4c-1 .6-2.2.9-3.5.9-6.6 0-17.1-7.9-30-19.9"/><path class="st13" d="M662.8 381.6l2.2 2.2c-.7-.8-1.4-1.5-2.2-2.2m75.6-19.5c22.4 34.8 29.2 67.4 14.3 82.3-1.9 1.9-4.3 2.8-7.2 2.8-2 0-4.2-.4-6.6-1.3 2.7 1 5.2 1.6 7.3 1.6 2.7 0 5-.9 6.9-2.7 5.3-5.3 7.8-12.9 7.8-22 .1-16.6-8.1-38.3-22.5-60.7"/><path class="st14" d="M659.6 378.4l3.2 3.2c-1-1.1-2.1-2.2-3.2-3.2"/><path class="st15" d="M849.2 176.3L653.4 372.2l6.2 6.2 3.2 3.2 2.2 2.2c29.3 29.2 56.5 55.6 73.8 62.1 2.4.9 4.6 1.3 6.6 1.3 2.8 0 5.2-.9 7.2-2.8 14.9-14.9 8.1-47.5-14.3-82.3l105.8-126.4.3.3c12.9 12 23.4 19.9 30.1 19.9 1.3 0 2.5-.3 3.5-.9.4-.2.7-.5 1.1-.9 3.1-3.1 4.7-7.5 5-12.7v-.2c0-15.6-11.5-38.7-28.1-57.7-1.4-1.6-2.9-3.2-4.4-4.8l-2.4-2.4"/></svg>