<svg id="Layer_1" xmlns="http://www.w3.org/2000/svg" xmlns:xlink="http://www.w3.org/1999/xlink" viewBox="0 0 1024 1024"><style>.st0{clip-path:url(#SVGID_2_)}.st1{fill:#3498db}.st2{fill:#2980b9}.st3{fill:#2779b0}.st4{fill:#3190d0}.st5{fill:#2573a7}.st6{fill:#eaeaea}.st7{fill:#c6c9cc}.st10,.st8,.st9{fill-rule:evenodd;clip-rule:evenodd}.st8{fill:#f85a68}.st9{fill:#ea434b}.st10{fill:#c62229}.st11{fill:#fff}.st11,.st12,.st13,.st14,.st15,.st16{fill-rule:evenodd;clip-rule:evenodd}.st12{fill:#eaeaea}.st13{fill:#d0d0d0}.st14{fill:#76757b}.st15{fill:#ffd800}.st16{fill:#f5e6b6}.st17{fill:#f5d56c}.st17,.st18,.st19,.st20,.st21,.st22{fill-rule:evenodd;clip-rule:evenodd}.st18{fill:#f8bf00}.st19{fill:#f0b16c}.st20{fill:#f5d5b3}.st21{fill:#c78b4c}.st22{fill:#1e1e1e}</style><defs><path id="SVGID_1_" d="M1024 41.2v941.7c0 22.6-18.5 41.2-41.2 41.2H41.2C18.5 1024 0 1005.5 0 982.8V41.2C0 18.5 18.5 0 41.2 0h941.7c22.6 0 41.1 18.5 41.1 41.2"/></defs><clipPath id="SVGID_2_"><use xlink:href="#SVGID_1_" overflow="visible"/></clipPath><g class="st0"><path class="st1" d="M1024 41.2v941.7c0 22.6-18.5 41.2-41.2 41.2H41.2C18.5 1024 0 1005.5 0 982.8V41.2C0 18.5 18.5 0 41.2 0h941.7c22.6 0 41.1 18.5 41.1 41.2"/><path class="st2" d="M1025 982.1v-941c0-13-9.3-24.4-18.7-32L5.6 1008c7.6 9.4 17.5 16 30.4 16h941.6c22.7 0 47.4-19.3 47.4-41.9"/><path class="st3" d="M802.5 217.1L564.3 454.9 1025 914V438.1l-222.5-221M451.4 567.6L150.6 867.9 306.1 1024h671.5c22.6 0 47.3-19.3 47.3-41.9 0 22.6-24.7 41.9-47.3 41.9h-70.1L451.4 567.6"/><path class="st4" d="M505.2 509.3L449 565.1l.1.2 56.1-56"/><path class="st3" d="M562.1 452.8l-56.9 56.5-56.1 56 2.3 2.3 112.9-112.7-2.2-2.1"/><path class="st5" d="M564.3 454.9L451.4 567.6 907.5 1024h70.1c22.6 0 47.3-19.3 47.3-41.9V914L564.3 454.9"/><path class="st6" d="M268.8 155.9l584.1 583.6-112.4 112.4-584.2-583.7z"/><path class="st7" d="M294.3 181.3L269.5 206l-2.6-2.6 24.8-24.7zm20.6 20.6l-24.8 24.7-2.6-2.6 24.8-24.7zm20.6 20.6l-24.8 24.7-2.6-2.6 24.8-24.7zm20.6 20.6l-24.7 24.7-2.7-2.6 24.8-24.7zm20.6 20.6L352 288.4l-2.7-2.6 24.8-24.7zm20.6 20.6L372.6 309l-2.6-2.6 24.7-24.7zm20.6 20.6l-24.7 24.7-2.6-2.6 24.7-24.7zm20.6 20.6l-24.7 24.7-2.6-2.6 24.7-24.8zm20.7 20.6l-24.8 24.7-2.6-2.6 24.7-24.8zm20.6 20.5L455 391.4l-2.6-2.6 24.7-24.8zm20.6 20.6L475.6 412l-2.6-2.6 24.7-24.8zm20.6 20.6l-24.8 24.8-2.6-2.7 24.8-24.7zm20.6 20.6l-24.8 24.8-2.6-2.7 24.8-24.7zm20.6 20.6l-24.8 24.8-2.6-2.7 24.8-24.7zm20.6 20.6L558 494.3l-2.6-2.6 24.8-24.7zm20.6 20.6l-24.8 24.7-2.6-2.6 24.8-24.7zm20.6 20.6l-24.7 24.7-2.7-2.6 24.8-24.7zm20.6 20.6l-24.7 24.7-2.7-2.6 24.8-24.7zm20.6 20.6l-24.7 24.7-2.7-2.6 24.8-24.8zm20.6 20.6l-24.7 24.7-2.6-2.6 24.7-24.8zm20.6 20.6l-24.7 24.7-2.6-2.6 24.7-24.8zm20.6 20.5l-24.7 24.8-2.6-2.6 24.7-24.8zm20.7 20.6l-24.8 24.8-2.6-2.6 24.7-24.8zm20.6 20.6l-24.8 24.8-2.6-2.7 24.7-24.7zm20.6 20.6l-24.8 24.8-2.6-2.7 24.7-24.7zm20.6 20.6l-24.8 24.7-2.6-2.6 24.7-24.7zm20.6 20.6l-24.8 24.7-2.6-2.6 24.8-24.7zM190.2 234.4l584.1 583.7-33.8 33.8-584.2-583.7z"/><path class="st8" d="M329.7 797.8l-179.3 69.5L220 688.2l499.8-499.4c16.5-16.4 43.4-16.4 59.8 0l49.9 49.8c16.5 16.4 16.5 43.3 0 59.8L329.7 797.8z"/><path class="st9" d="M620.3 361.3l136.1-136c16.5-16.4 34.4-25.4 39.9-19.9l16.6 16.6c5.5 5.5-3.5 23.4-19.9 39.9l-136.1 136-36.6-36.6z"/><path class="st10" d="M812.9 222l16.6 16.6c16.5 16.4 16.5 43.3 0 59.8l-136.1 136-36.6-36.5 136.1-136c16.5-16.5 25.5-34.4 20-39.9z"/><path class="st8" d="M583.7 324.7l136.1-136c16.5-16.4 43.4-16.4 59.8 0l16.6 16.6c-5.5-5.5-23.4 3.5-39.9 19.9l-136.1 136-36.5-36.5z"/><path class="st11" d="M329.7 797.8l-179.3 69.5L220 688.2l476.8-476.5c45.2 32 81.2 68.6 109.7 109.6L329.7 797.8z"/><path class="st12" d="M696.8 211.7l-71.5 71.5 36.6 36.5 75.8-75.7c-12.8-11.2-26.3-22-40.9-32.3z"/><path class="st13" d="M774.3 280.5l-75.9 75.8-36.6-36.5 75.8-75.7c13.2 11.6 25.4 23.7 36.7 36.4z"/><path class="st14" d="M774.3 280.5l-75.9 75.8 36.6 36.5 71.5-71.5c-9.8-14.1-20.5-27.7-32.2-40.8z"/><path class="st15" d="M329.7 797.8l-179.3 69.5L220 688.2l441.8-441.5c45.9 31.8 81.8 68.4 109.7 109.6L329.7 797.8z"/><path class="st16" d="M661.8 246.7L220 688.2l-17.5 45.1 22.8 22.7L703 278.7c-12.8-11.1-26.5-21.8-41.2-32z"/><path class="st17" d="M739.6 315.1L261.8 792.6 225.3 756 703 278.7c13.2 11.6 25.4 23.8 36.6 36.4z"/><path class="st18" d="M739.6 315.1L261.8 792.6l22.8 22.7 45.1-17.5 441.8-441.5c-9.6-14.3-20.2-28-31.9-41.2z"/><path class="st19" d="M329.7 797.8l-179.3 69.5L220 688.2c20.7 14.2 40.8 30.8 59.8 49.8 19.1 19 35.7 39.2 49.9 59.8z"/><path class="st20" d="M220 688.2l-69.6 179.1 110.6-147c-13.3-11.8-27-22.5-41-32.1z"/><path class="st19" d="M261 720.3l-110.6 147 147.1-110.5c-5.7-6.4-11.6-12.6-17.7-18.8-6.1-6.1-12.4-12-18.8-17.7z"/><path class="st21" d="M297.6 756.8L150.4 867.3l179.3-69.5c-9.6-13.9-20.3-27.7-32.1-41z"/><path class="st22" d="M209.7 844.4l-59.2 23 23-59.2c6.8 4.7 13.5 10.2 19.8 16.5 6.2 6.2 11.7 12.8 16.4 19.7z"/></g></svg>