<?xml version="1.0" encoding="utf-8"?>
<!-- Generator: Adobe Illustrator 19.0.1, SVG Export Plug-In . SVG Version: 6.00 Build 0)  -->
<svg version="1.1" id="Layer_1" xmlns="http://www.w3.org/2000/svg" xmlns:xlink="http://www.w3.org/1999/xlink" x="0px" y="0px"
	 viewBox="0 0 1024 1024" style="enable-background:new 0 0 1024 1024;" xml:space="preserve">
<style type="text/css">
	.st0{clip-path:url(#SVGID_2_);}
	.st1{fill:#3498DB;}
	.st2{fill:#2980B9;}
	.st3{fill:#2779B0;}
	.st4{fill:#3190D0;}
	.st5{fill:#2573A7;}
	.st6{fill:#EAEAEA;}
	.st7{fill:#C6C9CC;}
	.st8{fill-rule:evenodd;clip-rule:evenodd;fill:#F85A68;}
	.st9{fill-rule:evenodd;clip-rule:evenodd;fill:#EA434B;}
	.st10{fill-rule:evenodd;clip-rule:evenodd;fill:#C62229;}
	.st11{fill-rule:evenodd;clip-rule:evenodd;fill:#FFFFFF;}
	.st12{fill-rule:evenodd;clip-rule:evenodd;fill:#EAEAEA;}
	.st13{fill-rule:evenodd;clip-rule:evenodd;fill:#D0D0D0;}
	.st14{fill-rule:evenodd;clip-rule:evenodd;fill:#76757B;}
	.st15{fill-rule:evenodd;clip-rule:evenodd;fill:#FFD800;}
	.st16{fill-rule:evenodd;clip-rule:evenodd;fill:#F5E6B6;}
	.st17{fill-rule:evenodd;clip-rule:evenodd;fill:#F5D56C;}
	.st18{fill-rule:evenodd;clip-rule:evenodd;fill:#F8BF00;}
	.st19{fill-rule:evenodd;clip-rule:evenodd;fill:#F0B16C;}
	.st20{fill-rule:evenodd;clip-rule:evenodd;fill:#F5D5B3;}
	.st21{fill-rule:evenodd;clip-rule:evenodd;fill:#C78B4C;}
	.st22{fill-rule:evenodd;clip-rule:evenodd;fill:#1E1E1E;}
</style>
<g>
	<defs>
		<path id="SVGID_1_" d="M1024,41.2v941.7c0,22.6-18.5,41.2-41.2,41.2H41.2C18.5,1024,0,1005.5,0,982.8V41.2C0,18.5,18.5,0,41.2,0
			h941.7C1005.5,0,1024,18.5,1024,41.2"/>
	</defs>
	<clipPath id="SVGID_2_">
		<use xlink:href="#SVGID_1_"  style="overflow:visible;"/>
	</clipPath>
	<g class="st0">
		<path class="st1" d="M1024,41.2v941.7c0,22.6-18.5,41.2-41.2,41.2H41.2C18.5,1024,0,1005.5,0,982.8V41.2C0,18.5,18.5,0,41.2,0
			h941.7C1005.5,0,1024,18.5,1024,41.2"/>
		<path class="st2" d="M1025,982.1V41.1c0-13-9.3-24.4-18.7-32L5.6,1008c7.6,9.4,17.5,16,30.4,16h941.6
			C1000.3,1024,1025,1004.7,1025,982.1"/>
		<polyline class="st3" points="802.5,217.1 564.3,454.9 1025,914 1025,438.1 802.5,217.1 		"/>
		<path class="st3" d="M451.4,567.6L150.6,867.9L306.1,1024h671.5c22.6,0,47.3-19.3,47.3-41.9l0,0c0,22.6-24.7,41.9-47.3,41.9h-70.1
			L451.4,567.6"/>
		<polyline class="st4" points="505.2,509.3 449,565.1 449.1,565.3 505.2,509.3 		"/>
		<polyline class="st3" points="562.1,452.8 505.2,509.3 449.1,565.3 451.4,567.6 564.3,454.9 562.1,452.8 		"/>
		<path class="st5" d="M564.3,454.9L451.4,567.6L907.5,1024h70.1c22.6,0,47.3-19.3,47.3-41.9V914L564.3,454.9"/>
		<polygon class="st6" points="268.8,155.9 852.9,739.5 740.5,851.9 156.3,268.2 		"/>
		<polygon class="st7" points="294.3,181.3 269.5,206 266.9,203.4 291.7,178.7 		"/>
		<polygon class="st7" points="314.9,201.9 290.1,226.6 287.5,224 312.3,199.3 		"/>
		<polygon class="st7" points="335.5,222.5 310.7,247.2 308.1,244.6 332.9,219.9 		"/>
		<polygon class="st7" points="356.1,243.1 331.4,267.8 328.7,265.2 353.5,240.5 		"/>
		<polygon class="st7" points="376.7,263.7 352,288.4 349.3,285.8 374.1,261.1 		"/>
		<polygon class="st7" points="397.3,284.3 372.6,309 370,306.4 394.7,281.7 		"/>
		<polygon class="st7" points="417.9,304.9 393.2,329.6 390.6,327 415.3,302.3 		"/>
		<polygon class="st7" points="438.5,325.5 413.8,350.2 411.2,347.6 435.9,322.8 		"/>
		<polygon class="st7" points="459.2,346.1 434.4,370.8 431.8,368.2 456.5,343.4 		"/>
		<polygon class="st7" points="479.8,366.6 455,391.4 452.4,388.8 477.1,364 		"/>
		<polygon class="st7" points="500.4,387.2 475.6,412 473,409.4 497.7,384.6 		"/>
		<polygon class="st7" points="521,407.8 496.2,432.6 493.6,429.9 518.4,405.2 		"/>
		<polygon class="st7" points="541.6,428.4 516.8,453.2 514.2,450.5 539,425.8 		"/>
		<polygon class="st7" points="562.2,449 537.4,473.8 534.8,471.1 559.6,446.4 		"/>
		<polygon class="st7" points="582.8,469.6 558,494.3 555.4,491.7 580.2,467 		"/>
		<polygon class="st7" points="603.4,490.2 578.6,514.9 576,512.3 600.8,487.6 		"/>
		<polygon class="st7" points="624,510.8 599.3,535.5 596.6,532.9 621.4,508.2 		"/>
		<polygon class="st7" points="644.6,531.4 619.9,556.1 617.2,553.5 642,528.8 		"/>
		<polygon class="st7" points="665.2,552 640.5,576.7 637.8,574.1 662.6,549.3 		"/>
		<polygon class="st7" points="685.8,572.6 661.1,597.3 658.5,594.7 683.2,569.9 		"/>
		<polygon class="st7" points="706.4,593.2 681.7,617.9 679.1,615.3 703.8,590.5 		"/>
		<polygon class="st7" points="727,613.7 702.3,638.5 699.7,635.9 724.4,611.1 		"/>
		<polygon class="st7" points="747.7,634.3 722.9,659.1 720.3,656.5 745,631.7 		"/>
		<polygon class="st7" points="768.3,654.9 743.5,679.7 740.9,677 765.6,652.3 		"/>
		<polygon class="st7" points="788.9,675.5 764.1,700.3 761.5,697.6 786.2,672.9 		"/>
		<polygon class="st7" points="809.5,696.1 784.7,720.8 782.1,718.2 806.8,693.5 		"/>
		<polygon class="st7" points="830.1,716.7 805.3,741.4 802.7,738.8 827.5,714.1 		"/>
		<polygon class="st7" points="190.2,234.4 774.3,818.1 740.5,851.9 156.3,268.2 		"/>
		<path class="st8" d="M329.7,797.8l-179.3,69.5L220,688.2l499.8-499.4c16.5-16.4,43.4-16.4,59.8,0l49.9,49.8
			c16.5,16.4,16.5,43.3,0,59.8L329.7,797.8z"/>
		<path class="st9" d="M620.3,361.3l136.1-136c16.5-16.4,34.4-25.4,39.9-19.9l16.6,16.6c5.5,5.5-3.5,23.4-19.9,39.9l-136.1,136
			L620.3,361.3z"/>
		<path class="st10" d="M812.9,222l16.6,16.6c16.5,16.4,16.5,43.3,0,59.8l-136.1,136l-36.6-36.5l136.1-136
			C809.4,245.4,818.4,227.5,812.9,222z"/>
		<path class="st8" d="M583.7,324.7l136.1-136c16.5-16.4,43.4-16.4,59.8,0l16.6,16.6c-5.5-5.5-23.4,3.5-39.9,19.9l-136.1,136
			L583.7,324.7z"/>
		<path class="st11" d="M329.7,797.8l-179.3,69.5L220,688.2l476.8-476.5c45.2,32,81.2,68.6,109.7,109.6L329.7,797.8z"/>
		<path class="st12" d="M696.8,211.7l-71.5,71.5l36.6,36.5l75.8-75.7C724.9,232.8,711.4,222,696.8,211.7z"/>
		<path class="st13" d="M774.3,280.5l-75.9,75.8l-36.6-36.5l75.8-75.7C750.8,255.7,763,267.8,774.3,280.5z"/>
		<path class="st14" d="M774.3,280.5l-75.9,75.8l36.6,36.5l71.5-71.5C796.7,307.2,786,293.6,774.3,280.5z"/>
		<path class="st15" d="M329.7,797.8l-179.3,69.5L220,688.2l441.8-441.5c45.9,31.8,81.8,68.4,109.7,109.6L329.7,797.8z"/>
		<path class="st16" d="M661.8,246.7L220,688.2l-17.5,45.1l22.8,22.7l477.7-477.3C690.2,267.6,676.5,256.9,661.8,246.7z"/>
		<path class="st17" d="M739.6,315.1L261.8,792.6L225.3,756l477.7-477.3C716.2,290.3,728.4,302.5,739.6,315.1z"/>
		<path class="st18" d="M739.6,315.1L261.8,792.6l22.8,22.7l45.1-17.5l441.8-441.5C761.9,342,751.3,328.3,739.6,315.1z"/>
		<path class="st19" d="M329.7,797.8l-179.3,69.5L220,688.2c20.7,14.2,40.8,30.8,59.8,49.8C298.9,757,315.5,777.2,329.7,797.8z"/>
		<path class="st20" d="M220,688.2l-69.6,179.1l110.6-147C247.7,708.5,234,697.8,220,688.2z"/>
		<path class="st19" d="M261,720.3l-110.6,147l147.1-110.5c-5.7-6.4-11.6-12.6-17.7-18.8C273.7,731.9,267.4,726,261,720.3z"/>
		<path class="st21" d="M297.6,756.8L150.4,867.3l179.3-69.5C320.1,783.9,309.4,770.1,297.6,756.8z"/>
		<path class="st22" d="M209.7,844.4l-59.2,23l23-59.2c6.8,4.7,13.5,10.2,19.8,16.5C199.5,830.9,205,837.5,209.7,844.4z"/>
	</g>
</g>
</svg>
