<svg id="Layer_1" xmlns="http://www.w3.org/2000/svg" xmlns:xlink="http://www.w3.org/1999/xlink" viewBox="0 0 1024 1024"><style>.st0{clip-path:url(#SVGID_2_)}.st1{fill:#3498db}.st2{fill:#2980b9}.st3{fill:#2779b0}.st4{fill:#3190d0}.st5{fill:#2573a7}.st6{fill:#2f89c5}.st7{fill:#236d9e}.st8{fill:#216796}.st9{fill:#f2f2f2}.st10{fill:#f5d56c}.st11{fill:#f5e6b6}.st12{fill:#facc89}.st12,.st13,.st14{clip-path:url(#SVGID_4_)}.st13{fill:#e9daad}.st14{fill:#edc282}.st15{fill:#c0c8d4}.st15,.st16,.st17,.st18,.st19{clip-path:url(#SVGID_4_)}.st16{fill:#c72828}.st17{fill:#0e3a61}.st18{fill:#195376}.st19{fill:#acb4be}.st20{fill:#b32424}.st20,.st21,.st22,.st23,.st24{clip-path:url(#SVGID_4_)}.st21{fill:#164b6a}.st22{fill:#d9e0ed}.st23{fill:#403122}.st24{fill:#ddcfa4}.st25{fill:#e1b87b}.st25,.st26,.st27,.st28,.st29{clip-path:url(#SVGID_4_)}.st26{fill:#b6bec9}.st27{fill:#bd2626}.st28{fill:#0d375c}.st29{fill:#184f70}.st30{fill:#a3abb4}.st30,.st31,.st32,.st33,.st34{clip-path:url(#SVGID_4_)}.st31{fill:#a22}.st32{fill:#154765}.st33{fill:#ced5e1}.st34{fill:#3d2f20}</style><defs><path id="SVGID_1_" d="M1024 41.2v941.7c0 22.6-18.5 41.2-41.2 41.2H41.2C18.5 1024 0 1005.5 0 982.8V41.2C0 18.5 18.5 0 41.2 0h941.7c22.6 0 41.1 18.5 41.1 41.2"/></defs><clipPath id="SVGID_2_"><use xlink:href="#SVGID_1_" overflow="visible"/></clipPath><g class="st0"><path class="st1" d="M1024 41.2v941.7c0 22.6-18.5 41.2-41.2 41.2H41.2C18.5 1024 0 1005.5 0 982.8V41.2C0 18.5 18.5 0 41.2 0h941.7c22.6 0 41.1 18.5 41.1 41.2"/><path class="st2" d="M1024 982.1v-941c0-12.9-6.9-24.4-16.3-32L9.5 1008c7.5 9.4 18.7 16 31.6 16h940.4c22.6 0 42.5-19.3 42.5-41.9"/><path class="st3" d="M795.2 489.3h-79.6c.2 3.8.3 7.6.3 11.4 0 46.9-15.2 90.3-41 125.5l72.2 72.1c7.2-3.6 14.7-5.2 22.1-5.2 15.6 0 30.8 7.1 42.5 18.8l.9.9.1-.1L1024 923.3V717.8L795.2 489.3M662.9 357.1l-1.4 1.4c29.5 32.8 48.9 74.8 53.5 121.2l70.6-.2-122.7-122.4M444.4 704.7l54.3 54.3.6-46c-18.9-.3-37.4-3.2-54.9-8.3m136.3-6.1c-20 7.8-41.5 12.7-64 14l-.8 58c14.5 2.4 26.4 9.4 34.6 19.2l4.6-4.7L793.6 1024h-66.7 254.6c22.6 0 42.5-19.3 42.5-41.9 0 22.6-19.9 41.9-42.5 41.9h-76L580.7 698.6"/><path class="st4" d="M228.9 339.6l-3.3 3.3 80.3 80.4c6.7-17.1 15.5-33.1 26.1-47.6L298.8 343c-10.9 7.8-22.6 11.5-33.9 11.5-13.1.1-25.7-5-36-14.9m79.6-79.7l-1.1 1.1c18.2 19.2 21 46.1 4.4 69.5l31.6 30.9c10.3-11.9 21.9-22.6 34.6-31.9l-69.5-69.6"/><path class="st5" d="M656.6 648c-21.1 22-47 39.4-75.9 50.7L905.5 1024h76c22.6 0 42.5-19.3 42.5-41.9 0 22.6-19.9 41.9-42.5 41.9h-25.6L729.5 796.4l5.9-6c-.4-.3-.7-.7-1.1-1.1-19.2-19.2-23.8-46.6-6.9-70.5L656.6 648m18.3-21.9c-1.5 2-3 4-4.5 5.9l69.3 70.6c2.4-1.7 4.9-3.2 7.4-4.4l-72.2-72.1"/><path class="st6" d="M239.4 499.5h-27.9c-4.9 30.8-27.5 50.8-54.7 50.8-16.2 0-30.7-5.4-40.9-14.9l-3.5 3.5L295.2 722l64.8-64.9c-28.2-25.9-49.4-59.4-60.4-97.2l-60.2-60.4m-43.9-43.9l-1.1 1.1c8.7 7.4 14.8 18.1 17.1 32.6h17.6l-33.6-33.7"/><path class="st5" d="M360.1 657.2l-64.8 64.9L596.6 1024h130.3-99.8L472.2 868.6l1-1c-11.9-10.2-19.5-25.4-19.5-42.3 0-20.8 9.4-38.9 26.7-48.5L367.2 663.4c-2.4-2-4.8-4.1-7.1-6.2"/><path class="st7" d="M367.2 663.4l113.1 113.4c5.3-2.9 11.4-5.1 18.2-6.2l.2-11.6-54.3-54.3c-28.7-8.3-54.9-22.6-77.2-41.3"/><path class="st5" d="M555.2 785.1l-4.6 4.7c7.7 9.2 12.2 20.9 12.6 33.7L763.6 1024h29.9L555.2 785.1"/><path class="st7" d="M556.3 853c-9 16.7-26.2 28-46.8 28-13.8 0-26.5-5.1-36.3-13.4l-1 1L627.1 1024h99.8L556.3 853"/><path class="st8" d="M563.2 823.5v1.9c0 10.1-2.5 19.5-6.9 27.7l170.5 171h36.8L563.2 823.5"/><path class="st9" d="M1024 923.3v58.8-58.8"/><path class="st5" d="M812.8 712.7l-.1.1c16.6 17.3 20.6 41.8 10.9 61.9L1024 975.1v-51.8L812.8 712.7"/><path class="st7" d="M823.6 774.7c-2.5 5.2-6 10.1-10.4 14.5-10.9 10.9-25.2 16.4-39.6 16.4-13.8 0-27.5-5.1-38.2-15.2l-5.9 6L955.9 1024h25.6c22.6 0 42.5-19.3 42.5-41.9v-7L823.6 774.7"/><path class="st3" d="M925.9 453.1l-1 1c7.4 9.2 11.9 21 11.9 33.9 0 30.8-24.9 52.7-55.7 52.7-12.3 0-23.6-4.2-32.8-11.6l-5 4.9L1024 709.4V547.7l-98.1-94.6"/><path class="st10" d="M715.9 500.7c0 117.3-95 212.4-212.3 212.4S291.3 618 291.3 500.7c0-117.3 95-212.4 212.3-212.4s212.3 95 212.3 212.4"/><path class="st10" d="M502.2 511.7l-3.6 258.9c-28.9 4.9-44.9 27.5-44.9 54.7 0 30.8 25.1 55.7 55.8 55.7s53.7-24.9 53.7-55.7c0-27.2-18.4-49.8-47.3-54.7l3.6-259.8 208 208.1c-17 23.8-12.4 51.2 6.9 70.5 21.7 21.7 57.1 21.6 78.8-.1 21.7-21.7 20.3-55.6-1.4-77.4-19.2-19.2-48.2-26.2-72.1-9.2L530.4 489.3h296.1c4.9 30.9 27.5 51.4 54.7 51.4 30.7 0 55.7-21.9 55.7-52.7 0-30.8-24.9-54.5-55.7-54.5-27.2 0-49.8 17.1-54.7 46l-293.1.9-31.2 31.3m-40.6-35.1L311.8 330.4c17-23.8 13.7-51.5-5.6-70.7-21.7-21.7-56.4-21.7-78.2 0-21.7 21.7-21.7 57.3 0 79 19.2 19.2 46.9 21.2 70.7 4.3L447 489.2H211.5c-4.9-30.8-27.5-45-54.7-45-30.7 0-55.7 25.1-55.7 55.9 0 30.8 24.9 50.2 55.7 50.2 27.2 0 49.8-20 54.7-50.8h237l13.1-22.9"/><path class="st11" d="M678.5 500.7c0 96.6-78.3 175-174.9 175-96.6 0-174.9-78.3-174.9-175 0-96.6 78.3-175 174.9-175 96.6 0 174.9 78.3 174.9 175"/><defs><path id="SVGID_3_" d="M678.5 500.7c0 96.6-78.3 175-174.9 175-96.6 0-174.9-78.3-174.9-175 0-96.6 78.3-175 174.9-175 96.6 0 174.9 78.3 174.9 175"/></defs><clipPath id="SVGID_4_"><use xlink:href="#SVGID_3_" overflow="visible"/></clipPath><path class="st12" d="M566.1 546.5c-12.1-1.5-21.7-11.5-23.2-24.2l-5.4-44.7h-66.6l-5.4 44.7c-1.5 12.7-11.1 22.6-23.2 24.2-15.4 1.9 23.6 21.7 61.9 21.8 39.3-.1 77.8-19.9 61.9-21.8"/><path class="st13" d="M466.7 512.4l-1.2 9.9-.1.7c0-.2.1-.5.1-.7l1.2-9.9"/><path class="st14" d="M466.7 512.4l-1.2 9.9c0 .2-.1.5-.1.7 2.1 2 4.2 3.8 6.2 5.4 11.5 9.2 17.4 14.3 32.6 14.3V531c-15.3 0-21.1-5.1-32.6-14.3-1.6-1.3-3.2-2.7-4.9-4.3"/><path class="st12" d="M575.6 399.4c-.6-35.8-32.3-64.5-71.3-64.5s-70.8 28.7-71.4 64.5c-.4 25.7-.8 49.2-.8 49.2 0 25.1 23 54.7 39.5 68 11.6 9.2 17.4 14.3 32.7 14.3 15.2 0 20.9-5 32.4-14.2 16.6-13.2 39.7-43 39.7-68.1 0 .1-.4-23.5-.8-49.2"/><path class="st15" d="M626.9 608.5c-4.6-32.7-29.5-58.1-60.8-62-9.9-1.2-18.1-8.1-21.6-17.5l-40.3 28-40.3-28c-3.5 9.4-11.7 16.3-21.6 17.5-31.3 3.9-56.2 29.3-60.8 62l-9.7 68.9h264.8l-9.7-68.9"/><path class="st16" d="M512.8 677.3l11.3-72.1-19.8-37-19.9 37 11.3 72.1h17.1"/><path class="st16" d="M504.3 594.2L484.4 575l19.9-18.3 19.8 18.3-19.8 19.2"/><path class="st17" d="M518.5 677.4h118.2l-9.7-68.9c-4.6-32.7-29.5-58.1-60.8-62-2-.3-3.9-.7-5.7-1.4l-42 132.3M448.1 545c-1.8.7-3.7 1.2-5.7 1.4-31.3 3.9-56.2 29.3-60.8 62l-9.7 68.9H490L448.1 545"/><path class="st18" d="M448.1 545c-1.8.7-3.7 1.2-5.7 1.4-9.2 1.1-17.8 4.2-25.5 8.6l25.5 46-21 15.4 58.5 60.8H490L448.1 545m112.3 0c1.8.7 3.7 1.2 5.7 1.4 9.2 1.1 17.8 4.2 25.5 8.6l-25.5 46 21 15.4-58.5 60.8h-10.2l42-132.2"/><path class="st19" d="M450.8 553.7l.7 2 35.7 36.2 4.7-9.7-2.1-1.9-2.6 4.3-36.4-30.9"/><path class="st20" d="M504.2 556.9l-14.4 23.4 2.1 1.9 12.3-25.3"/><path class="st21" d="M442.4 546.5l9.1 9.2-.7-2-8.4-7.2"/><path class="st22" d="M521.3 584.6l-17-27.7 40.3-28 21.5 17.6-44.8 38.1"/><path class="st22" d="M487.2 584.6l17.1-27.7-40.4-28-21.5 17.6 44.8 38.1"/><path class="st23" d="M441.5 436.5c-2.3-5-2.3-11.4-2.2-14.3.9-14.5 7.3-27.6 17.4-37.5 5.9-5.8 15-7.8 23.1-5.1 6.5 2.2 15.1 3.5 24.4 3.5 9.4 0 17.9-1.3 24.5-3.5 8.1-2.7 17.2-.7 23.1 5.1 9.8 9.6 16.1 22.1 17.3 36 0 0 .7 9.2-2.3 15.8H581c-.2-9.9-.4-24.3-.7-39.4-.6-38.2-34.6-68.9-76.2-68.9-41.7 0-75.6 30.7-76.2 68.9-.2 15.1-.5 29.4-.7 39.3h14.3"/><path class="st12" d="M444.3 443.1c3 13.3-.6 25.2-8 26.6-7.4 1.4-15.9-8.2-18.9-21.5-3-13.3.6-25.2 8-26.6 7.4-1.3 15.9 8.3 18.9 21.5zm119.9 0c-3 13.3.6 25.2 8 26.6 7.4 1.4 15.9-8.2 18.9-21.5 3-13.3-.6-25.2-8-26.6-7.4-1.3-15.9 8.3-18.9 21.5"/><path class="st13" d="M626.9 608.1c0 .1 0 .2.1.4l2 14.2-2-14.2c-.1-.1-.1-.3-.1-.4m-.1-.4v.3c.1 0 0-.2 0-.3m0-.3c0 .1 0 .2.1.3-.1-.1-.1-.2-.1-.3m-4.5-16.4c2.1 5.2 3.6 10.6 4.5 16.4-.9-5.8-2.4-11.3-4.5-16.4m-.1-.3c0 .1.1.2.1.3-.1-.2-.1-.3-.1-.3m-.2-.4c0 .1.1.2.1.2s0-.1-.1-.2m-.1-.3c0 .1.1.1.1.2 0 0-.1-.1-.1-.2m-.1-.3c0 .1.1.1.1.2-.1-.1-.1-.1-.1-.2M543.1 523c.3 2.1.8 4.1 1.5 6l21.6 17.5h.3-.4L544.5 529c-.6-2-1.1-4-1.4-6m-1.3-10.6l1.2 9.9.1.7-.1-.7-1.2-9.9m-37.5-184.2c-.1 0 0 0 0 0 41.6 0 75.5 30.7 76.2 68.9-.7-38.2-34.6-68.9-76.2-68.9"/><path class="st14" d="M543.1 523c-2.2 2.1-4.3 4-6.3 5.6-11.5 9.2-17.1 14.2-32.4 14.2h-.1v14l.1.1 40.2-27.9c-.7-2-1.2-4-1.5-6"/><path class="st24" d="M541.8 512.4l1.2 9.9c0 .2.1.5.1.7l-.1-.7-1.2-9.9"/><path class="st25" d="M541.8 512.4c-1.7 1.6-3.4 3.1-5.1 4.4-11.5 9.2-17.1 14.2-32.4 14.2h-.1v11.8h.1c15.2 0 20.9-5 32.4-14.2 2-1.6 4.2-3.5 6.3-5.6 0-.2-.1-.5-.1-.7l-1.1-9.9"/><path class="st14" d="M536.2 378.5c-2.5 0-4.9.4-7.3 1.2-6.6 2.2-15.1 3.5-24.5 3.5h-.1V531h.1c15.2 0 20.9-5 32.4-14.2 1.6-1.3 3.3-2.8 5.1-4.4 11.1-10.3 23.6-26.3 30.1-42.7-7.2-1.7-10.6-13.5-7.7-26.5.9-4.1 2.4-7.9 4.2-11.1 1.3-5.6.8-11.3.8-11.3-1.2-13.9-7.6-26.4-17.3-36-4.2-4.2-10-6.3-15.8-6.3"/><path class="st26" d="M557 555.7l-35.7 36.2-4.7-9.7-3.2 3.1 10.7 19.9-11 70.2c2.1-.1 4.1-.3 6.1-.4L557 555.7"/><path class="st27" d="M513.4 585.3l-9.2 8.9v81.4c3 0 5.9-.1 8.9-.3l11-70.2-10.7-19.8"/><path class="st27" d="M504.3 556.7l-.1.1v.1h.1-.1v37.3h.1l9.1-8.9 3.2-3.1-12.3-25.3v-.2"/><path class="st28" d="M585.1 551.8c2.2 1 4.4 2.1 6.5 3.3l-25.5 46 21 15.4-54.5 56.7c37.5-6.3 70.9-24.5 96.3-50.5l-2-14.2c0-.1 0-.2-.1-.4v-.5c0-.1 0-.2-.1-.3-.9-5.7-2.4-11.2-4.5-16.4v-.1c0-.1-.1-.2-.1-.3v-.1c0-.1-.1-.2-.1-.2v-.1c0-.1-.1-.1-.1-.2v-.1c0-.1-.1-.1-.1-.2s-.1-.2-.1-.3v-.1c0-.1-.1-.2-.1-.2v-.1c0-.1-.1-.2-.1-.3-7.4-16.5-20.3-29.7-36.4-36.8m-.1-.1s.1 0 .1.1c0-.1-.1-.1-.1-.1m-18.5-5.2"/><path class="st29" d="M566.1 546.5l-9.1 9.3L519.2 675c4.5-.4 9-1 13.4-1.7l54.5-56.7-21-15.4 25.5-46c-2.1-1.2-4.3-2.3-6.5-3.3 0 0-.1 0-.1-.1-1.8-.8-3.5-1.5-5.4-2.1l-.5-.2-2.5-.8-.8-.2-2.3-.6-1-.2-2.3-.5-.9-.2c-.9-.2-1.9-.3-2.8-.4-.1-.1-.2-.1-.4-.1"/><path class="st30" d="M557.7 553.7l-36.4 30.9-2.6-4.3-2.1 1.9 4.7 9.7 35.7-36.2.7-2"/><path class="st31" d="M504.3 556.9l12.3 25.3 2.1-1.9-14.4-23.4"/><path class="st32" d="M566.1 546.5l-8.4 7.2-.7 2 9.1-9.2"/><path class="st13" d="M580.7 411.1c.1 3.6.1 7.1.2 10.4-.1-3.2-.1-6.7-.2-10.4"/><path class="st31" d="M504.3 556.9h-.1.1"/><path class="st33" d="M544.6 528.9l-40.3 27.9v.1l14.4 23.4 2.6 4.3 36.4-30.9 8.4-7.2-21.5-17.6m-40.4 28h.1-.1"/><path class="st34" d="M504.3 328.2s-.1 0 0 0l-.1 54.9h.1c9.4 0 17.9-1.3 24.5-3.5 2.4-.8 4.9-1.2 7.3-1.2 5.9 0 11.6 2.2 15.8 6.3 9.8 9.6 16.1 22.1 17.3 36 0 0 .4 5.7-.8 11.3 3.4-6 8-10 12.4-10.4-.1-3.3-.1-6.8-.2-10.4-.1-4.5-.2-9.2-.2-14-.6-38.3-34.5-69-76.1-69"/><path class="st14" d="M580.9 421.6c-4.5.4-9 4.4-12.4 10.4-1.8 3.2-3.3 7-4.2 11.1-3 13.1.5 24.8 7.7 26.5l.3.1c.5.1 1 .1 1.5.1 7.1 0 14.6-9.2 17.4-21.6.7-3.2 1.1-6.2 1.1-9.1 0-9.2-3.4-16.4-9.1-17.5h-2.3"/></g></svg>