<svg id="Layer_1" xmlns="http://www.w3.org/2000/svg" xmlns:xlink="http://www.w3.org/1999/xlink" viewBox="0 0 1024 1024"><style>.st0{clip-path:url(#SVGID_2_)}.st1{fill:#3498db}.st2{fill:#2980b9}.st3{fill:#2f89c5}.st4{fill:#2573a6}.st5{fill:#dbdbdb}.st6{fill:#eaeaea}.st7{fill:#fff}.st8{fill:#cfcfcf}.st9{fill:#2ecc71}.st10{fill:#ea563b}.st11{fill:#f9b298}.st12{fill:#ffc8b0}.st13{fill:#451613}.st14{fill:#f0b16c}.st15{fill:#f7f1e6}.st16{fill:#f1e4c4}.st17{fill:#f8bf00}.st18{fill:#34495e}.st19{fill:none}</style><defs><path id="SVGID_1_" d="M1024 28.1v967.8c0 15.4-12.6 28.1-28.1 28.1H28.1C12.6 1024 0 1011.4 0 995.9V28.1C0 12.6 12.6 0 28.1 0h967.8c15.5 0 28.1 12.6 28.1 28.1"/></defs><clipPath id="SVGID_2_"><use xlink:href="#SVGID_1_" overflow="visible"/></clipPath><g class="st0"><path class="st1" d="M1024 28.1v967.8c0 15.4-12.6 28.1-28.1 28.1H28.1C12.6 1024 0 1011.4 0 995.9V28.1C0 12.6 12.6 0 28.1 0h967.8c15.5 0 28.1 12.6 28.1 28.1"/><path class="st2" d="M1022 982.1l9-940.9c0-12.9-4.6-33.6-14-41.1L-19 1034.5c7.6 9.4 47.1-10.5 60.1-10.5h941.7c22.6 0 39.2-19.3 39.2-41.9"/><path class="st3" d="M779.2 120.3L570.9 445.7l266.7-266.8-58.4-58.6"/><path class="st4" d="M837.6 178.9L570.9 445.7 283.1 895.3 411.9 1024h570.8c22.6 0 39.3-19.3 39.3-41.9V363.9l-184.4-185"/><path class="st5" d="M814.8 806.2L281 833l-34.6-685.8 533.8-26.9z"/><path class="st6" d="M809.1 818.7l-532.4 47.4-61.1-684L748 134.6z"/><path class="st7" d="M808.8 808.2l-527 88.6-114-677.2 527-88.6z"/><path class="st8" d="M659.7 268.7l-412.5 69.4-9.2-54.6 412.5-69.3z"/><path class="st9" d="M393.3 560.4c4.6 27.5-13.9 53.5-41.4 58.1-27.5 4.6-53.5-13.9-58.1-41.4-4.6-27.5 13.9-53.5 41.4-58.1 27.4-4.6 53.4 13.9 58.1 41.4z"/><path class="st7" d="M338.7 595.9c-2.5.4-5.2-.2-7.4-1.9l-16.1-13.1c-4-3.2-4.6-9.1-1.4-13 3.2-4 9.1-4.6 13-1.4l9.1 7.4 21.4-25.1c3.3-3.9 9.2-4.4 13.1-1 3.9 3.3 4.4 9.2 1 13.1l-27.3 32c-1.3 1.6-3.3 2.7-5.4 3z"/><path class="st8" d="M681.1 500.5l-250.5 42.1-2.3-13.9 250.5-42.1zm-67 48.5l-177.4 29.8-2.3-13.9 177.4-29.8z"/><path class="st9" d="M371.5 431.2c4.6 27.5-13.9 53.5-41.4 58.1-27.5 4.6-53.5-13.9-58.1-41.4-4.6-27.5 13.9-53.5 41.4-58.1 27.5-4.6 53.5 13.9 58.1 41.4z"/><path class="st7" d="M317 466.8c-2.5.4-5.2-.2-7.4-1.9l-16.1-13.1c-4-3.2-4.6-9.1-1.4-13 3.2-4 9.1-4.6 13-1.4l9.1 7.4 21.4-25.1c3.3-3.9 9.2-4.4 13.1-1 3.9 3.3 4.4 9.2 1 13.1l-27.3 32c-1.4 1.6-3.4 2.6-5.4 3z"/><path class="st8" d="M664.9 370.4l-250.5 42.1-2.4-13.9 250.5-42.1zm-155.7 63.4l-88.7 14.9-2.4-13.9 88.8-14.9z"/><path class="st10" d="M414.4 686.2c4.6 27.5-13.9 53.5-41.4 58.1-27.5 4.6-53.5-13.9-58.1-41.4-4.6-27.5 13.9-53.5 41.4-58.1 27.5-4.6 53.5 13.9 58.1 41.4z"/><path class="st7" d="M359.9 721.7c-2.5.4-5.2-.2-7.4-1.9l-16.1-13.1c-4-3.2-4.6-9.1-1.4-13 3.2-4 9.1-4.6 13-1.4l9.1 7.4 21.4-25.1c3.3-3.9 9.2-4.4 13.1-1 3.9 3.3 4.4 9.2 1 13.1l-27.3 32c-1.4 1.6-3.3 2.7-5.4 3z"/><path class="st8" d="M699.2 626.8l-250.5 42.1-2.3-13.9 250.5-42.1zm-110.5 55.9l-133.9 22.5-2.3-13.9 133.8-22.5zm149.1 62.6l-103.9 17.4-2.3-13.9 103.9-17.4z"/><path class="st11" d="M741.6 576.1c-123.7-17.7-177.5-99.5-177.5-99.5l127.7-18.5s173.5 135.6 49.8 118z"/><path class="st12" d="M733.6 771.1l89.9-80.2s12-121.2 0-163.7c-12-42.5-94.8-92.3-114.8-103.5-20.1-11.2-126.9 4.8-157.2 24.1-25.1 15.9-3.3 32.3 12.7 36.9 16 4.6 105.2-20.1 128.5.8 23.3 20.9 50.6 89.1 19.3 111.9-31.3 22.9-105.2-79-118.9-97.5-13.6-18.5-66.3-2.8-46.6 25.7 19.7 28.5 83.1 120.8 106.8 149.2 23.7 28.4 80.3 96.3 80.3 96.3z"/><path class="st13" d="M441.8 478.1l2-13.1-23.1 3.2z"/><path class="st14" d="M473.8 493.1l5-32.9-35 4.8-2 13.1z"/><path class="st15" d="M751.9 535.6c3.6.6 7-1.9 7.6-5.6l3-19.8c.6-3.6-1.9-7-5.6-7.6l-14.8-2.3-5 32.9 14.8 2.4z"/><path class="st16" d="M712.2 529.1l24.9 4.2 5-32.9-24.8-4.3z"/><path class="st17" d="M469.8 475.2c1.2-7.7 9-15 9-15l238.4 35.9-5 32.9-238.4-35.9s-5.2-10.2-4-17.9z"/><path class="st13" d="M727.9 531.8l4.8.9 5-33.1-4.7-.8zm-10.3-1.8l4.7.8 5-33-4.8-.8z"/><path class="st11" d="M593 499.9c-13.6-18.5-66.3-2.8-46.6 25.7 2.2 3.2 5 7.2 8.2 11.8L626 542c-15.5-18.3-28.1-35.5-33-42.1z"/><path class="st18" d="M844.2 654.7L701.7 789.2 914.3 1024h66.6c23.6 0 57.1 23.6 57.1 0V821L844.2 654.7z"/><path class="st19" d="M1024 28.1v967.8c0 15.4-12.6 28.1-28.1 28.1H28.1C12.6 1024 0 1011.4 0 995.9V28.1C0 12.6 12.6 0 28.1 0h967.8c15.5 0 28.1 12.6 28.1 28.1"/></g></svg>