<?xml version="1.0" encoding="utf-8"?>
<!-- Generator: Adobe Illustrator 19.0.1, SVG Export Plug-In . SVG Version: 6.00 Build 0)  -->
<svg version="1.1" id="Layer_1" xmlns="http://www.w3.org/2000/svg" xmlns:xlink="http://www.w3.org/1999/xlink" x="0px" y="0px"
	 viewBox="704 -1011 1024 1024" style="enable-background:new 704 -1011 1024 1024;" xml:space="preserve">
<style type="text/css">
	.st0{fill:#3498DB;}
	.st1{fill:#2980B9;}
	.st2{opacity:8.000000e-02;enable-background:new    ;}
	.st3{fill:#FFFFFF;}
	.st4{fill:#EDEDED;}
	.st5{fill:#5B5B5B;}
	.st6{fill:#999999;}
	.st7{fill:#2ECC71;}
	.st8{fill:#434444;}
	.st9{opacity:5.000000e-02;enable-background:new    ;}
</style>
<path class="st0" d="M1725.3-969.9V-29c0,22.6-18.5,41.1-41.1,41.1H745.1C722.5,12.1,704-6.4,704-29v-940.9
	c0-22.6,18.5-41.1,41.1-41.1h939.2C1706.9-1011,1725.3-992.5,1725.3-969.9"/>
<path class="st1" d="M1728-28.9v-941c0-12.9-7.5-24.4-16.9-32L713.8-3c7.5,9.4,18.3,16,31.2,16h939.2C1706.9,13,1728-6.3,1728-28.9"
	/>
<path class="st2" d="M1725.3-29v-576.1l-171.1-171.1L855.5-277.6l289.7,289.7h539C1706.8,12.1,1725.3-6.4,1725.3-29z"/>
<polygon class="st2" points="1215.1,-310.6 1104.1,-199.6 1315.8,12.1 1537.8,12.1 "/>
<polygon class="st3" points="1281.9,-226.8 1275.1,-288.3 1207.8,-308.8 1207.8,-309.7 1206.3,-309.3 1204.9,-309.7 1204.9,-308.8 
	1137.6,-288.3 1130.8,-226.8 1105.4,-221 1105.4,-200.5 1204.9,-200.5 1207.8,-200.5 1307.3,-200.5 1307.3,-221 "/>
<polygon class="st4" points="1279.6,-248.2 1134.3,-258.8 1136,-274.4 1276.8,-274.4 "/>
<polygon class="st4" points="1105.4,-213.9 1105.4,-200.5 1307.3,-200.5 1307.3,-204 1105.4,-221 "/>
<path class="st3" d="M1559-289.1c0,10.7-8.6,19.3-19.3,19.3H871.9c-10.7,0-19.3-8.7-19.3-19.3v-471.2c0-10.7,8.6-19.3,19.3-19.3
	h667.8c10.7,0,19.3,8.7,19.3,19.3V-289.1z"/>
<path class="st5" d="M866.8-371.5v-391.9c0-3.5,2.3-6,4.3-6H1540c2.1,0,4.3,2.5,4.3,6v391.9H866.8z"/>
<g>
	<path class="st6" d="M1206.3-291.6c-12.6,0-22.9-10.3-22.9-22.9c0-12.6,10.3-22.9,22.9-22.9c12.6,0,22.9,10.3,22.9,22.9
		C1229.3-301.9,1219-291.6,1206.3-291.6z M1206.3-323.4c-4.9,0-8.9,4-8.9,8.9s4,8.9,8.9,8.9c4.9,0,8.9-4,8.9-8.9
		C1215.3-319.4,1211.3-323.4,1206.3-323.4z"/>
</g>
<polygon class="st2" points="1276.7,-508.5 1184.9,-462.9 1276.3,-371.5 1413.7,-371.5 "/>
<polygon class="st2" points="1253.5,-580.8 1210.4,-583.9 1422.9,-371.5 1462.8,-371.5 "/>
<polygon class="st2" points="1261.7,-632.5 1208.2,-625.2 1461.9,-371.5 1522.8,-371.5 "/>
<polygon class="st2" points="1296.5,-654.8 1211.2,-665.7 1505.4,-371.5 1544.4,-371.5 1544.4,-406.9 "/>
<path class="st7" d="M1238.6-494.9c-15.2-8-32.3-20.1-49.4-37.2c-17.1-17.1-29.2-34.2-37.2-49.5l13.2-35.5l-44.6-69.3l-14.6,14.8
	l0,0c-0.1,0.1-0.2,0.2-0.3,0.3c-37,37-17.1,112.9,46.4,176.4s139.3,83.4,176.4,46.4c0.1-0.1,0.2-0.2,0.3-0.3l14.7-14.7l-69.3-44.6
	L1238.6-494.9z"/>
<path class="st7" d="M1322.9-552.9h20.5c0-73.6-59.8-133.4-133.4-133.4v20.5C1272.3-665.8,1322.9-615.1,1322.9-552.9z"/>
<path class="st7" d="M1281.9-552.9h20.5c0-50.9-41.4-92.4-92.4-92.4v20.5C1249.6-624.7,1281.9-592.5,1281.9-552.9z"/>
<path class="st7" d="M1240.8-552.9h20.5c0-28.3-23-51.3-51.3-51.3v20.5C1227-583.7,1240.8-569.8,1240.8-552.9z"/>
<path class="st8" d="M1529.4-754.3v367.8H881.8v-367.9h647.6 M1540-784.3H871.1c-10.7,0-19.3,9.4-19.3,21v406.9h707.6v-406.9
	C1559.4-774.9,1550.7-784.3,1540-784.3z"/>
<path class="st9" d="M1539.5-785.9h-14.1L1075.1-358h483.8v-406.9C1558.9-776.5,1550.2-785.9,1539.5-785.9z"/>
</svg>
