<svg id="Layer_1" xmlns="http://www.w3.org/2000/svg" viewBox="704 -1011 1024 1024"><style>.st0{fill:#3498db}.st1{fill:#2980b9}.st2{opacity:8e-2;enable-background:new}.st3{fill:#fff}.st4{fill:#ededed}.st5{fill:#5b5b5b}.st6{fill:#999}.st7{fill:#2ecc71}.st8{fill:#434444}.st9{opacity:5e-2;enable-background:new}</style><path class="st0" d="M1725.3-969.9V-29c0 22.6-18.5 41.1-41.1 41.1H745.1C722.5 12.1 704-6.4 704-29v-940.9c0-22.6 18.5-41.1 41.1-41.1h939.2c22.6 0 41 18.5 41 41.1"/><path class="st1" d="M1728-28.9v-941c0-12.9-7.5-24.4-16.9-32L713.8-3c7.5 9.4 18.3 16 31.2 16h939.2c22.7 0 43.8-19.3 43.8-41.9"/><path class="st2" d="M1725.3-29v-576.1l-171.1-171.1-698.7 498.6 289.7 289.7h539c22.6 0 41.1-18.5 41.1-41.1z"/><path class="st2" d="M1215.1-310.6l-111 111 211.7 211.7h222z"/><path class="st3" d="M1281.9-226.8l-6.8-61.5-67.3-20.5v-.9l-1.5.4-1.4-.4v.9l-67.3 20.5-6.8 61.5-25.4 5.8v20.5h201.9V-221z"/><path class="st4" d="M1279.6-248.2l-145.3-10.6 1.7-15.6h140.8zm-174.2 34.3v13.4h201.9v-3.5l-201.9-17z"/><path class="st3" d="M1559-289.1c0 10.7-8.6 19.3-19.3 19.3H871.9c-10.7 0-19.3-8.7-19.3-19.3v-471.2c0-10.7 8.6-19.3 19.3-19.3h667.8c10.7 0 19.3 8.7 19.3 19.3v471.2z"/><path class="st5" d="M866.8-371.5v-391.9c0-3.5 2.3-6 4.3-6H1540c2.1 0 4.3 2.5 4.3 6v391.9H866.8z"/><path class="st6" d="M1206.3-291.6c-12.6 0-22.9-10.3-22.9-22.9 0-12.6 10.3-22.9 22.9-22.9 12.6 0 22.9 10.3 22.9 22.9.1 12.6-10.2 22.9-22.9 22.9zm0-31.8c-4.9 0-8.9 4-8.9 8.9s4 8.9 8.9 8.9 8.9-4 8.9-8.9c.1-4.9-3.9-8.9-8.9-8.9z"/><path class="st2" d="M1276.7-508.5l-91.8 45.6 91.4 91.4h137.4zm-23.2-72.3l-43.1-3.1 212.5 212.4h39.9z"/><path class="st2" d="M1261.7-632.5l-53.5 7.3 253.7 253.7h60.9z"/><path class="st2" d="M1296.5-654.8l-85.3-10.9 294.2 294.2h39v-35.4z"/><path class="st7" d="M1238.6-494.9c-15.2-8-32.3-20.1-49.4-37.2s-29.2-34.2-37.2-49.5l13.2-35.5-44.6-69.3-14.6 14.8-.3.3c-37 37-17.1 112.9 46.4 176.4s139.3 83.4 176.4 46.4l.3-.3 14.7-14.7-69.3-44.6-35.6 13.2zm84.3-58h20.5c0-73.6-59.8-133.4-133.4-133.4v20.5c62.3 0 112.9 50.7 112.9 112.9z"/><path class="st7" d="M1281.9-552.9h20.5c0-50.9-41.4-92.4-92.4-92.4v20.5c39.6.1 71.9 32.3 71.9 71.9z"/><path class="st7" d="M1240.8-552.9h20.5c0-28.3-23-51.3-51.3-51.3v20.5c17 0 30.8 13.9 30.8 30.8z"/><path class="st8" d="M1529.4-754.3v367.8H881.8v-367.9h647.6m10.6-29.9H871.1c-10.7 0-19.3 9.4-19.3 21v406.9h707.6v-406.9c0-11.6-8.7-21-19.4-21z"/><path class="st9" d="M1539.5-785.9h-14.1L1075.1-358h483.8v-406.9c0-11.6-8.7-21-19.4-21z"/></svg>