<svg id="Layer_1" xmlns="http://www.w3.org/2000/svg" xmlns:xlink="http://www.w3.org/1999/xlink" viewBox="0 0 1024 1024"><style>.st0{clip-path:url(#SVGID_2_)}.st1{fill:#3498db}.st2{fill:#2980b9}.st3{fill:#2f89c5}.st4{fill:#2573a6}.st5{fill:#e5e5e5}.st6{fill:#2a7bb1}.st7{fill:#216795}.st8{fill:#1e5c86}.st9{fill:#f5d56c}.st10{fill:#f5e6b6}.st11{clip-path:url(#SVGID_2_);fill:none}</style><defs><path id="SVGID_1_" d="M1024 41.2v941.7c0 22.6-18.5 41.2-41.2 41.2H41.2C18.5 1024 0 1005.5 0 982.8V41.2C0 18.5 18.5 0 41.2 0h941.7c22.6 0 41.1 18.5 41.1 41.2"/></defs><clipPath id="SVGID_2_"><use xlink:href="#SVGID_1_" overflow="visible"/></clipPath><g class="st0"><path class="st1" d="M1020.7 41v939c0 22.6-18.5 41-41 41H41c-22.6 0-41-18.5-41-41V41C0 18.5 18.5 0 41 0h938.7c22.6 0 41 18.5 41 41"/><path class="st2" d="M1024 980V41c0-12.9-7.8-24.4-17.2-31.9L10 1006.9c7.5 9.4 18.2 17.1 31.1 17.1h938.7c22.5 0 44.2-21.4 44.2-44"/><path class="st3" d="M256.3 239.7L136.6 360.4l79.1 79.3-1.9-117.6 240 240.6 9.3-9.4L332.3 422l52.9-53.2-128.9-129.1"/><path class="st4" d="M463.1 553.3l-9.3 9.4L914 1024H798.9h180.8-47.8L463.1 553.3"/><path class="st3" d="M452.8 300.8l-67.6 68 131.1 131.3 11.6-11.6-12.3-12.4 24.9-31.9 39.4-7.7 4.4-4.5-131.5-131.2"/><path class="st4" d="M979.9 1024h-.2.2m.2 0h-.1.1M527.9 488.5l-11.6 11.6 499.6 500.2c-6.8 13-20.3 23.5-35.9 23.7 22.4-.2 43.9-21.6 43.9-44l-1.7 1.5-494.3-493m56.4-56.5l-4.5 4.5 7.5-1.5-3-3"/><path class="st6" d="M385.2 368.8L332.3 422l130.8 131.3 53.2-53.2-131.1-131.3"/><path class="st7" d="M516.3 500.1l-53.2 53.3L931.9 1024H980c15.6-.2 29-10.7 35.9-23.7L516.3 500.1"/><path class="st3" d="M773.3 99.1L654.4 218.7l62.5 62.4 5.1-48.6 30.9 30.8 92.5-92.6-72.1-71.6"/><path class="st4" d="M845.4 170.7l-92.5 92.6L1024 533V348.3L845.4 170.7"/><path class="st5" d="M1024 533v447-447"/><path class="st3" d="M716.9 281.1l-2.2 20.4 11.3-11.3-9.1-9.1"/><path class="st4" d="M726 290.2l-11.3 11.3-11.5 110.7L587.3 435 1024 870.6v-66.1L782.7 563.9 891 454.8 726 290.2"/><path class="st6" d="M579.9 436.5l-39.4 7.7-24.9 31.9 12.3 12.4 52-52"/><path class="st7" d="M587.3 435l-7.4 1.5-52 52 494.4 493 1.7-1.5V870.6L587.3 435M891 454.8L782.7 563.9 1024 804.5V587.6L891 454.8"/><path class="st6" d="M722 232.5l-5.1 48.6 9.1 9.1 26.9-26.9-30.9-30.8"/><path class="st7" d="M752.9 263.3L726 290.2l165 164.6 10.5-10.6L1024 565.1V533L752.9 263.3"/><path class="st8" d="M901.5 444.2L891 454.8l133 132.8v-22.5L901.5 444.2"/><path class="st3" d="M215.7 439.7l2 126.4L334 682.6l62.1-62.2-180.4-180.7"/><path class="st4" d="M396.1 620.4L334 682.6 674.7 1024h124.2L396.1 620.4"/><path class="st6" d="M213.8 322.1l1.9 117.6 180.4 180.7 57.7-57.7-240-240.6"/><path class="st7" d="M453.8 562.7l-57.7 57.7L798.9 1024H914L453.8 562.7"/><ellipse class="st9" cx="388" cy="359.6" rx="71.3" ry="71.3"/><path class="st10" d="M316.7 359.6h-13.3c0 23.3 9.5 44.6 24.8 59.8 15.3 15.3 36.5 24.8 59.8 24.8 23.3 0 44.6-9.5 59.8-24.8 15.3-15.3 24.8-36.5 24.8-59.8 0-23.3-9.5-44.6-24.8-59.8-15.2-15.3-36.5-24.8-59.8-24.8-23.3 0-44.6 9.5-59.8 24.8-15.3 15.3-24.8 36.5-24.8 59.8H330c0-16.1 6.5-30.5 17-41.1 10.5-10.5 25-17 41-17 16.1 0 30.5 6.5 41 17s17 25 17 41.1-6.5 30.5-17 41.1c-10.5 10.5-25 17-41 17-16.1 0-30.5-6.5-41-17s-17-25-17-41.1h-13.3z"/><path class="st10" d="M375.6 429.8v53.5c0 26 10.4 49.8 27.4 66.9 16.9 17.1 40.6 27.8 66.7 27.8v-13.3l-.2 13.3 38.4.5h.1c9.4 0 18.2 1.9 26.2 5.4 23.9 10.4 40.6 34.7 40.6 63.2V1024h26.6V647.1c0-26-10.2-49.8-26.9-67.1-8.4-8.6-18.4-15.7-29.7-20.6-11.2-4.9-23.7-7.6-36.8-7.6v13.3l.2-13.3-38.4-.5h-.1c-18.9 0-35.6-7.6-47.8-19.9-12.2-12.3-19.7-29.3-19.7-48.2v-53.8l-26.6.4z"/><ellipse class="st10" cx="201.4" cy="300.1" rx="71.3" ry="71.3"/><path class="st9" d="M130.1 299.9h-13.3c0 23.3 9.5 44.6 24.8 59.8 15.3 15.3 36.5 24.8 59.8 24.8 23.3 0 44.6-9.5 59.8-24.8 15.3-15.3 24.8-36.5 24.8-59.8 0-23.3-9.5-44.6-24.8-59.8-15.3-15.3-36.5-24.8-59.8-24.8-23.3 0-44.6 9.5-59.8 24.8-15.3 15.3-24.8 36.5-24.8 59.8h26.6c0-16.1 6.5-30.5 17-41.1 10.5-10.5 25-17 41-17 16.1 0 30.5 6.5 41 17s17 25 17 41.1-6.5 30.5-17 41.1c-10.5 10.5-25 17-41 17-16.1 0-30.5-6.5-41-17s-17-25-17-41.1h-13.3z"/><path class="st9" d="M187.1 300.8v191.1c0 26.1 10.7 49.9 27.9 67s41 27.7 67.1 27.7h-.1l80.3.5h.1c18.8 0 36.1 7.7 48.7 20.2 12.6 12.5 20.4 29.6 20.4 48.4V1024H458V655.7c0-26.2-10.9-50.1-28.2-67.2-17.3-17.2-41.2-27.9-67.4-27.9h.1l-80.3-.5h-.1c-18.9 0-35.9-7.6-48.4-20-12.4-12.4-20.1-29.3-20.1-48.1V374.4H187l.1-73.6z"/><ellipse class="st10" cx="838" cy="490.8" rx="71.3" ry="71.3"/><path class="st9" d="M909.4 501.1h-13.3c0 16.1-6.5 30.5-17 41.1-10.5 10.5-25 17-41 17-16.1 0-30.5-6.5-41-17s-17-25-17-41.1 6.5-30.5 17-41.1c10.5-10.5 25-17 41-17 16.1 0 30.5 6.5 41 17s17 25 17 41.1h26.6c0-23.3-9.5-44.6-24.8-59.8-15.3-15.3-36.5-24.8-59.8-24.8-23.3 0-44.6 9.5-59.8 24.8-15.3 15.3-24.8 36.5-24.8 59.8 0 23.3 9.5 44.6 24.8 59.8 15.3 15.3 36.5 24.8 59.8 24.8 23.3 0 44.6-9.5 59.8-24.8 15.3-15.3 24.8-36.5 24.8-59.8h-13.3z"/><path class="st9" d="M824.4 572.1v62.4c0 18.9-7.5 35.8-19.8 48.2-12.3 12.3-29.1 19.9-48 19.9l-135.4.5h.1c-26.2 0-49.9 10.8-66.9 28-17 17.2-27.5 41.1-27.5 67.1V1024h26.6V798.3c0-18.9 7.6-36 19.8-48.5 12.3-12.5 29.1-20.1 47.9-20.1h.1l135.3-.5h-.1c26.1 0 49.8-10.6 66.8-27.7s27.5-40.8 27.5-66.9v-62.4h-26.4z"/><ellipse class="st9" cx="708.9" cy="161.1" rx="71.3" ry="71.3"/><path class="st10" d="M780.2 154.3H767c0 16.1-6.5 30.5-17 41.1-10.5 10.5-25 17-41 17-16.1 0-30.5-6.5-41-17s-17-25-17-41.1 6.5-30.5 17-41.1c10.5-10.5 25-17 41-17 16.1 0 30.5 6.5 41 17s17 25 17 41.1h26.5c0-23.3-9.5-44.6-24.8-59.8-15.3-15.3-36.5-24.8-59.8-24.8-23.3 0-44.6 9.5-59.8 24.8-15.3 15.3-24.8 36.5-24.8 59.8 0 23.3 9.5 44.6 24.8 59.8 15.3 15.3 36.5 24.8 59.8 24.8 23.3 0 44.6-9.5 59.8-24.8 15.3-15.3 24.8-36.5 24.8-59.8h-13.3z"/><path class="st10" d="M696.9 238.8v114.1c0 18.8-7.7 35.7-20.1 48.1-12.5 12.4-29.6 20-48.4 20h-.1l-56.6.5h.1c-26.2 0-50 10.8-67.2 28-17.2 17.2-28 41-28 67.2V1024h26.6V516.6c0-18.8 7.7-35.9 20.2-48.4s29.7-20.2 48.5-20.2h.1l56.6-.5h-.1c26.1 0 49.9-10.6 67.1-27.7 17.2-17.1 28-40.8 28-67V223H697v15.8z"/></g><path class="st11" d="M1020.7 41v939c0 22.6-18.5 41-41 41H41c-22.6 0-41-18.5-41-41V41C0 18.5 18.5 0 41 0h938.7c22.6 0 41 18.5 41 41"/></svg>