<?xml version="1.0" encoding="utf-8"?>
<!-- Generator: Adobe Illustrator 19.0.1, SVG Export Plug-In . SVG Version: 6.00 Build 0)  -->
<svg version="1.1" id="Layer_1" xmlns="http://www.w3.org/2000/svg" xmlns:xlink="http://www.w3.org/1999/xlink" x="0px" y="0px"
	 viewBox="0 0 1024 1024" style="enable-background:new 0 0 1024 1024;" xml:space="preserve">
<style type="text/css">
	.st0{clip-path:url(#SVGID_2_);}
	.st1{fill:#3498DB;}
	.st2{fill:#2980B9;}
	.st3{fill:#E5E5E5;}
	.st4{fill:#2573A6;}
	.st5{fill:#FFFFFF;}
	.st6{fill:#B23E2F;}
	.st7{fill:#EA563B;}
	.st8{fill:#2C3E50;}
	.st9{fill:#2ECC71;}
	.st10{fill:#CFCFCF;}
</style>
<g>
	<defs>
		<path id="SVGID_1_" d="M1022.9,51.4v920.4c0,28.3-23.1,51.4-51.4,51.4H51.4c-28.2,0-51.4-23.1-51.4-51.4V51.4
			C0,23.1,23.1,0,51.4,0h920.2C999.8,0,1022.9,23.1,1022.9,51.4"/>
	</defs>
	<clipPath id="SVGID_2_">
		<use xlink:href="#SVGID_1_"  style="overflow:visible;"/>
	</clipPath>
	<g class="st0">
		<path class="st1" d="M1022.9,51.4v920.4c0,28.3-23.1,51.4-51.4,51.4H51.4c-28.2,0-51.4-23.1-51.4-51.4V51.4C0,23.1,23.1,0,51.4,0
			h920.2C999.8,0,1022.9,23.1,1022.9,51.4"/>
		<path class="st2" d="M1024,982.1V41.1c0-12.9-6.8-24.4-16.2-32L9.4,1008c7.6,9.4,18.7,16,31.7,16h940.7
			C1004.3,1024,1024,1004.7,1024,982.1"/>
		<path class="st3" d="M1024,982.1c0,22.6-19.7,41.9-42.3,41.9h0.1C1004.4,1024,1024,1004.7,1024,982.1"/>
		<path class="st4" d="M787.3,230.5L219.8,798.3l225,225.7h536.9c22.6,0,42.3-19.3,42.3-41.9l0,0V466.7L787.3,230.5"/>
		<path class="st5" d="M744.2,804.3H255.5c-28.2,0-51.4-23.1-51.4-51.4V280.6c0-28.3,23.1-51.4,51.4-51.4h488.7
			c28.2,0,51.4,23.1,51.4,51.4v472.3C795.6,781.1,772.5,804.3,744.2,804.3z"/>
		<path class="st6" d="M204.1,359.7v-83.1c0-20.4,16.7-37.1,37.1-37.1h517.2c20.4,0,37.1,16.7,37.1,37.1v83.1H204.1z"/>
		<path class="st7" d="M204.1,349.4v-83.1c0-20.4,16.7-37.1,37.1-37.1h517.2c20.4,0,37.1,16.7,37.1,37.1v83.1H204.1z"/>
		<path class="st8" d="M351.4,296.5L351.4,296.5c-14,0-25.5-11.5-25.5-25.5v-78.3c0-14,11.5-25.5,25.5-25.5s25.5,11.5,25.5,25.5V271
			C376.9,285,365.4,296.5,351.4,296.5z"/>
		<path class="st8" d="M648.3,296.5L648.3,296.5c-14,0-25.5-11.5-25.5-25.5v-78.3c0-14,11.5-25.5,25.5-25.5
			c14,0,25.5,11.5,25.5,25.5V271C673.8,285,662.4,296.5,648.3,296.5z"/>
		<rect x="398.2" y="395.6" class="st9" width="59" height="59"/>
		<rect x="470.3" y="395.6" class="st10" width="59" height="59"/>
		<rect x="542.5" y="395.6" class="st10" width="59" height="59"/>
		<rect x="614.6" y="395.6" class="st10" width="59" height="59"/>
		<rect x="686.7" y="395.6" class="st7" width="59" height="59"/>
		<rect x="253.9" y="467.8" class="st10" width="59" height="59"/>
		<rect x="326.1" y="467.8" class="st10" width="59" height="59"/>
		<rect x="398.2" y="467.8" class="st10" width="59" height="59"/>
		<rect x="470.3" y="467.8" class="st10" width="59" height="59"/>
		<rect x="542.5" y="467.8" class="st10" width="59" height="59"/>
		<rect x="614.6" y="467.8" class="st10" width="59" height="59"/>
		<rect x="686.7" y="467.8" class="st7" width="59" height="59"/>
		<rect x="253.9" y="539.9" class="st10" width="59" height="59"/>
		<rect x="326.1" y="539.9" class="st10" width="59" height="59"/>
		<rect x="398.2" y="539.9" class="st10" width="59" height="59"/>
		<rect x="470.3" y="539.9" class="st10" width="59" height="59"/>
		<rect x="542.5" y="539.9" class="st9" width="59" height="59"/>
		<rect x="614.6" y="539.9" class="st10" width="59" height="59"/>
		<rect x="686.7" y="539.9" class="st7" width="59" height="59"/>
		<rect x="253.9" y="612.1" class="st10" width="59" height="59"/>
		<rect x="326.1" y="612.1" class="st10" width="59" height="59"/>
		<rect x="398.2" y="612.1" class="st10" width="59" height="59"/>
		<rect x="470.3" y="612.1" class="st10" width="59" height="59"/>
		<rect x="542.5" y="612.1" class="st10" width="59" height="59"/>
		<rect x="614.6" y="612.1" class="st10" width="59" height="59"/>
		<rect x="686.7" y="612.1" class="st7" width="59" height="59"/>
		<rect x="253.9" y="684.2" class="st10" width="59" height="59"/>
		<rect x="326.1" y="684.2" class="st10" width="59" height="59"/>
		<rect x="398.2" y="684.2" class="st9" width="59" height="59"/>
		<rect x="470.3" y="684.2" class="st10" width="59" height="59"/>
	</g>
</g>
</svg>
