<?xml version="1.0" encoding="utf-8"?>
<!-- Generator: Adobe Illustrator 19.0.1, SVG Export Plug-In . SVG Version: 6.00 Build 0)  -->
<svg version="1.1" id="Layer_1" xmlns="http://www.w3.org/2000/svg" xmlns:xlink="http://www.w3.org/1999/xlink" x="0px" y="0px"
	 viewBox="0 0 1024 1024" style="enable-background:new 0 0 1024 1024;" xml:space="preserve">
<style type="text/css">
	.st0{fill:#3498DB;}
	.st1{fill:#2980B9;}
	.st2{fill:#2470A3;}
	.st3{fill-rule:evenodd;clip-rule:evenodd;fill:#F5D56C;}
	.st4{fill-rule:evenodd;clip-rule:evenodd;fill:#EAEAEA;}
	.st5{fill-rule:evenodd;clip-rule:evenodd;fill:#FFFFFF;}
	.st6{fill-rule:evenodd;clip-rule:evenodd;fill:#F5E6B6;}
	.st7{fill:#E9CA66;}
	.st8{fill:#F2F2F2;}
	.st9{fill:#226A9B;}
	.st10{fill:#E9DAAD;}
	.st11{fill:#3190D0;}
	.st12{fill:#2779B0;}
	.st13{fill:#2F89C5;}
	.st14{fill:#2573A7;}
	.st15{fill:#206593;}
	.st16{fill:#DDC061;}
	.st17{fill:#D3D3D3;}
	.st18{fill:#E6E6E6;}
	.st19{fill:#DDCFA4;}
	.st20{fill-rule:evenodd;clip-rule:evenodd;fill:#F85A68;}
	.st21{fill-rule:evenodd;clip-rule:evenodd;fill:#2ECC71;}
</style>
<g>
	<path class="st0" d="M1022.6,41.1v940.9c0,22.6-18.5,41.1-41.1,41.1H41.1c-22.6,0-41.1-18.5-41.1-41.1V41.1C0,18.5,18.5,0,41.1,0
		h940.4C1004.1,0,1022.6,18.5,1022.6,41.1"/>
	<path class="st1" d="M1024,982.1V41.1c0-12.9-6.9-24.4-16.3-32L9.5,1008c7.6,9.4,18.7,16,31.6,16h940.4
		C1004.1,1024,1024,1004.7,1024,982.1"/>
	<path class="st2" d="M834.5,807.8l-5,28.8c0,9.5-9.7,17.2-21.6,17.2H219.8c-4.6,0-8.9-1.2-12.4-3.1l-5.2,3.5L371.8,1024h609.7
		c22.6,0,42.4-19.2,42.5-41.8c0,5-1.6,9.7-3.2,14.1L834.5,807.8"/>
	<path class="st3" d="M804,417.3H469v-6c0-11.8-11.3-24.8-23.1-24.8H314.8c-11.8,0-20.5,13-20.5,24.8v6H222
		c-11.8,0-20.2,13.2-20.2,25v391.9c0,11.8,8.4,15,20.2,15h582c11.8,0,24.8-3.2,24.8-15V442.3C828.7,430.5,815.8,417.3,804,417.3"/>
	<polyline class="st4" points="778.7,793.4 229.7,763.6 247.3,439.3 796.3,469.1 778.7,793.4 	"/>
	<polyline class="st5" points="797.4,761.3 248.7,795.5 228.5,471.4 777.2,437.2 797.4,761.3 	"/>
	<path class="st6" d="M808,853.8H219.8c-11.9,0-21.6-7.7-21.6-17.2l-54-312.7c0-9.5,9.7-17.2,21.6-17.2H862
		c11.9,0,21.6,7.7,21.6,17.2l-54,312.7C829.6,846.1,819.9,853.8,808,853.8"/>
	<polyline class="st7" points="546,443.7 544,451.8 553.5,451.2 546,443.7 	"/>
	<polyline class="st8" points="553.5,451.2 544,451.8 531.5,501.2 537,506.7 608.4,506.7 553.5,451.2 	"/>
	<path class="st8" d="M1024,982.1c0,0,0,0.1,0,0.1C1024,982.2,1024,982.1,1024,982.1"/>
	<path class="st9" d="M845.2,745.9l-10.7,61.9l186.2,188.5c1.6-4.4,3.2-9.1,3.2-14.1c0,0,0-0.1,0-0.1l0,0v-55.5L845.2,745.9"/>
	<polyline class="st10" points="608.4,506.7 537,506.7 834.5,807.8 845.2,745.9 608.4,506.7 	"/>
	<polyline class="st11" points="512.2,47.1 439.7,336.2 519.9,417.3 552.7,417.3 604.7,211.6 704.4,312.7 739.7,277.4 512.2,47.1 	
		"/>
	<path class="st12" d="M739.7,277.4l-35.3,35.3l103.7,105.1c6.7,1.6,13.3,6.9,17.2,13.3l4.1-2.8L1024,625.1v-59.8L739.7,277.4"/>
	<path class="st9" d="M829.4,428.3l-4.1,2.8c1.4,2.3,2.4,4.7,3,7.1L1024,636.7v-11.6L829.4,428.3"/>
	<path class="st7" d="M808.1,417.8l20.2,20.4c-0.6-2.4-1.6-4.9-3-7.1C821.4,424.7,814.8,419.4,808.1,417.8 M552.7,417.3h-32.8
		l26.1,26.4L552.7,417.3"/>
	<polyline class="st13" points="604.7,211.6 552.7,417.3 599.8,417.3 704.4,312.7 604.7,211.6 	"/>
	<path class="st14" d="M704.4,312.7L599.8,417.3H804c1.4,0,2.8,0.2,4.1,0.5L704.4,312.7"/>
	<path class="st15" d="M828.3,438.2c0.3,1.3,0.5,2.7,0.5,4v64.4H862c11.9,0,21.6,7.7,21.6,17.2l-38.3,222.1L1024,926.6V636.7
		L828.3,438.2"/>
	<path class="st16" d="M804,417.3H599.8h-47.1l-6.7,26.4l7.4,7.5l223.8-13.9l1.9,31l17.1,0.9l-2,37.5h34.5v-64.4
		c0-1.3-0.2-2.7-0.5-4l-20.2-20.4C806.7,417.5,805.3,417.3,804,417.3"/>
	<polyline class="st17" points="779.2,468.2 781.6,506.7 794.2,506.7 796.3,469.1 779.2,468.2 	"/>
	<polyline class="st18" points="777.2,437.2 553.5,451.2 608.4,506.7 781.6,506.7 779.2,468.2 777.2,437.2 	"/>
	<path class="st19" d="M862,506.7h-33.2h-34.5h-12.7H608.4l236.8,239.3l38.3-222.1C883.5,514.4,873.8,506.7,862,506.7"/>
	<polygon class="st20" points="530.7,506 682.3,304.2 602.6,304.2 602.6,211.6 530.7,211.6 530.7,306.7 	"/>
	<polygon class="st21" points="427.9,242.5 427.9,335 510.1,335 510.1,240.2 510.1,42.3 352.9,242.5 	"/>
</g>
</svg>
