<svg id="Layer_1" xmlns="http://www.w3.org/2000/svg" viewBox="320 -60 383 124.9"><style>.st0{fill:#8ac644}.st1{fill:#43545e}.st2{fill:#36d4ff}</style><path class="st0" d="M394 56.4c-1.7-6.8-10.7-42-10.7-42.1-.3-.7-1.3-.7-1.3-.7s-1 0-1.3.6c0 .1-9 35.3-10.7 42.1-.2.8-.2 2 0 2.8 1 3.5 5.3 5.8 10.5 5.8h3c5.3 0 9.5-2.3 10.5-5.8.3-.7.2-1.9 0-2.7z"/><path class="st1" d="M370-51.8c1.7 6.8 10.7 42 10.7 42.1.3.7 1.4.7 1.4.7s1 0 1.3-.6c0-.1 9-35.3 10.7-42.1.2-.8.2-1.8 0-2.6-1.1-3.6-5.4-5.7-10.6-5.7h-2.9c-5.3 0-9.6 2.1-10.6 5.6-.2.8-.2 1.8 0 2.6z"/><path class="st2" d="M328 14.3c6.8-1.7 42-10.7 42.1-10.7.6-.2.6-1.3.6-1.3s0-1-.6-1.3C370 .9 334.7-8 328-9.7c-.8-.2-1.7-.2-2.5 0-3.5 1-5.5 5.3-5.5 10.5v2.9c0 5.3 2 9.5 5.5 10.5.8.3 1.6.3 2.5.1zm108.1-24C429.3-8 394.1 1 394 1c-.6.2-.6 1.3-.6 1.3s0 1 .6 1.3c.1 0 35.3 9 42.1 10.7.8.2 1.7.2 2.5 0 3.5-1 5.4-5.3 5.4-10.5V.9c0-5.3-1.9-9.5-5.4-10.5-.8-.3-1.7-.3-2.5-.1zM335.4-27.6c6 3.6 37.3 22.2 37.4 22.2.6.3 1.4-.5 1.4-.5s.7-.7.4-1.3c0-.1-18.6-31.4-22.2-37.3-.4-.7-1.1-1.4-1.8-1.8-3.2-1.8-7.6-.2-11.4 3.5l-1 1-1.1 1.1c-3.7 3.7-5.3 8.2-3.5 11.4.3.7 1 1.3 1.8 1.7z"/><path class="st0" d="M428.8 32c-6-3.6-37.3-22.2-37.4-22.2-.6-.3-1.4.5-1.4.5s-.7.7-.4 1.3c0 .1 18.6 31.4 22.2 37.3.4.7 1.2 1.5 1.9 1.9 3.2 1.8 7.7.3 11.4-3.5l1-1 1.1-1.1c3.7-3.7 5.2-8.3 3.5-11.4-.4-.7-1.2-1.4-1.9-1.8zm-16.9-76.5c-3.6 6-22.2 37.3-22.2 37.4-.3.6.5 1.4.5 1.4s.7.7 1.3.4c.1 0 31.4-18.6 37.3-22.2.7-.4 1.4-1.1 1.8-1.8 1.8-3.2.2-7.6-3.5-11.4l-1-1-1.1-1.1c-3.7-3.7-8.2-5.3-11.4-3.5-.6.4-1.2 1.1-1.7 1.8z"/><path class="st1" d="M352.4 48.9c3.6-6 22.2-37.3 22.2-37.4.3-.6-.5-1.4-.5-1.4s-.7-.7-1.3-.4c-.1 0-31.4 18.6-37.3 22.2-.7.4-1.5 1.2-1.9 1.9-1.8 3.2-.3 7.7 3.5 11.4l1 1 1.1 1.1c3.7 3.7 8.3 5.2 11.4 3.5.6-.4 1.4-1.2 1.8-1.9z"/><path class="st2" d="M503.2 39.1h-9.3V8.8c0-4.4-1.1-7.9-3.4-10.7s-5.7-4.2-10.3-4.2c-2.1 0-4 .4-5.8 1.1s-3.3 1.8-4.6 3.1-2.3 2.9-3.1 4.6c-.8 1.8-1.1 3.7-1.1 5.8v30.6h-9.3v-71.7h9.3l-.1 25c1.9-2.2 4.2-3.9 7-5.2s5.8-1.9 9.1-1.9c3.5 0 6.6.6 9.3 1.7 2.7 1.2 5 2.8 6.8 4.9 1.9 2.1 3.3 4.6 4.2 7.5.9 2.9 1.4 6.1 1.4 9.6l-.1 30.1zm41.9-51h9.3v27.5c0 3.6-.6 6.8-1.8 9.7-1.2 2.9-2.9 5.3-5 7.4-2.1 2-4.6 3.6-7.5 4.7-2.9 1.1-5.9 1.7-9.2 1.7-3.3 0-6.3-.6-9.2-1.7s-5.4-2.7-7.5-4.7c-2.1-2-3.8-4.5-5-7.4s-1.8-6.1-1.8-9.7v-27.5h9.3v27.5c0 4.2 1.3 7.7 3.9 10.4s6 4.1 10.4 4.1 7.8-1.4 10.3-4.1 3.8-6.2 3.8-10.4v-27.5zm65.8 23.5c0 3.9-.7 7.6-2.1 10.9-1.4 3.4-3.3 6.3-5.6 8.7-2.4 2.5-5.1 4.4-8.3 5.8-3.2 1.4-6.6 2.1-10.2 2.1-3.7 0-7.2-.7-10.4-2.1s-6-3.4-8.3-5.8c-2.4-2.5-4.2-5.4-5.6-8.7-1.4-3.4-2-7-2-10.8v-44h8.3v25.4c2.2-2.7 4.8-4.9 7.9-6.5s6.5-2.4 10.2-2.4 7.1.7 10.2 2.1c3.2 1.4 5.9 3.3 8.3 5.7s4.2 5.3 5.6 8.6c1.3 3.4 2 7.1 2 11zm-8.6 0c0-2.7-.5-5.3-1.4-7.6-.9-2.4-2.2-4.4-3.8-6.1s-3.5-3.1-5.6-4.1-4.4-1.5-6.9-1.5c-2.4 0-4.7.5-6.9 1.5-2.1 1-4 2.4-5.6 4.2-1.6 1.8-2.9 3.8-3.8 6.1-.9 2.3-1.4 4.9-1.4 7.6s.5 5.3 1.4 7.6c.9 2.4 2.2 4.5 3.9 6.2 1.6 1.8 3.5 3.2 5.6 4.2 2.1 1 4.4 1.5 6.8 1.5 2.4 0 4.7-.5 6.9-1.5 2.1-1 4-2.4 5.6-4.2 1.6-1.8 2.8-3.8 3.8-6.2.9-2.4 1.4-4.9 1.4-7.7z"/><path class="st1" d="M643.3 3.4c2.4-1.2 4.5-2.7 6.1-4.7 2.7-3.3 4-6.9 4-11 0-3.5-.9-6.8-2.8-10s-4.4-5.6-7.6-7.4c-3.2-1.7-6.8-2.6-10.7-2.6-5.3 0-9.7 2.1-13.3 5.2s-5.9 7.1-7 14.1h6c1.1-5 2.6-7.5 4.6-9.3 2.5-2.3 5.8-3.7 9.7-3.7 4.5 0 8.1 1.2 10.8 3.9 2.7 2.7 4.1 5.8 4.1 9.4 0 2.4-.7 4.6-2 6.7-1.4 2.1-3.2 3.7-5.5 4.7-2 .9-4.1 1.5-7.9 1.8h-1v5.7h1c3.9.3 6.4.9 8.4 1.9 2.3 1.1 3.9 2.6 5.2 4.7 1.4 2.1 1.9 4.3 1.9 6.8 0 3.6-1.4 6.8-4.1 9.4-2.7 2.7-6.3 4-10.8 4-3.9 0-7.2-1.1-9.7-3.4-2-1.8-3.5-4.7-4.6-8.7h-6c1.1 8 3.4 10.4 7 13.5 3.6 3.1 8 4.6 13.3 4.6 3.9 0 7.5-.9 10.7-2.6 3.2-1.7 5.7-4.2 7.6-7.4s2.8-6.5 2.8-10c0-4.1-1.3-7.7-4-11-1.7-1.9-3.8-3.4-6.2-4.6zM703-2.4L698.3.8c-4.1-5.9-9.7-8.9-16.8-8.9-5.7 0-10.4 2-14.1 6-3.7 4-5.6 8.8-5.6 14.5 0 3.7.9 7.2 2.6 10.4 1.7 3.3 4.1 5.8 7.1 7.6s6.4 2.7 10.1 2.7c6.8 0 12.4-3 16.7-8.9l4.7 3.4c-2.2 3.7-5.2 6.5-8.9 8.5s-8 3-12.8 3c-7.3 0-13.4-2.6-18.3-7.7s-7.3-11.3-7.3-18.6c0-4.9 1.1-9.5 3.4-13.7 2.3-4.2 5.4-7.5 9.3-9.9 4-2.4 8.4-3.5 13.3-3.5 3.1 0 6 .5 8.9 1.5s5.3 2.4 7.3 4 3.7 3.9 5.1 6.4z"/></svg>