<?xml version="1.0" encoding="utf-8"?>
<!-- Generator: Adobe Illustrator 19.0.1, SVG Export Plug-In . SVG Version: 6.00 Build 0)  -->
<svg version="1.1" id="Layer_1" xmlns="http://www.w3.org/2000/svg" xmlns:xlink="http://www.w3.org/1999/xlink" x="0px" y="0px"
	 viewBox="0 0 1024 1024" style="enable-background:new 0 0 1024 1024;" xml:space="preserve">
<style type="text/css">
	.st0{fill:#3498DB;}
	.st1{fill:#2980B9;}
	.st2{fill:#2779B0;}
	.st3{fill:#F5D56C;}
	.st4{fill:#F5E6B6;}
	.st5{fill:#F8BF00;}
	.st6{fill:#F2F2F2;}
	.st7{fill:#2573A7;}
	.st8{fill:#E9DAAD;}
	.st9{fill:#BCBEC0;}
	.st10{fill:#2ECC71;}
	.st11{fill:#236D9E;}
	.st12{fill:#216796;}
	.st13{fill:#D2C49C;}
	.st14{fill:#A9ABAD;}
	.st15{fill:#2AB866;}
</style>
<g>
	<path class="st0" d="M1022.6,41.1v940.9c0,22.6-18.5,41.1-41.1,41.1H41.1c-22.6,0-41.1-18.5-41.1-41.1V41.1C0,18.5,18.5,0,41.1,0
		h940.4C1004.1,0,1022.6,18.5,1022.6,41.1"/>
	<path class="st1" d="M1024,982.1V41.1c0-12.9-6.9-24.4-16.3-32L9.5,1008c7.5,9.4,18.7,16,31.6,16h940.4
		C1004.1,1024,1024,1004.7,1024,982.1"/>
	<path class="st2" d="M1023.9,984.1c0,0,0,0.1,0,0.1C1023.9,984.2,1023.9,984.2,1023.9,984.1 M1024,983.8
		C1024,983.9,1024,983.9,1024,983.8C1024,983.9,1024,983.9,1024,983.8 M1024,983.6C1024,983.6,1024,983.7,1024,983.6
		C1024,983.7,1024,983.6,1024,983.6 M1024,983.3C1024,983.4,1024,983.4,1024,983.3C1024,983.4,1024,983.4,1024,983.3 M1024,983.1
		C1024,983.1,1024,983.1,1024,983.1C1024,983.1,1024,983.1,1024,983.1 M1024,982.8C1024,982.8,1024,982.9,1024,982.8
		C1024,982.9,1024,982.8,1024,982.8 M1024,982.6C1024,982.6,1024,982.6,1024,982.6C1024,982.6,1024,982.6,1024,982.6 M1024,982.3
		C1024,982.3,1024,982.3,1024,982.3C1024,982.3,1024,982.3,1024,982.3 M210,823.7L408.2,1024h573.3c21.9,0,41.2-18,42.4-39.7
		c-0.8,13.8-9,25.7-20.1,32.6L814,827.5l-387.1-2.4L210,823.7 M206.6,810.9l-4.7,4.7l4.6,4.7L206.6,810.9"/>
	<polyline class="st3" points="820.3,827.5 206.5,823.7 210.4,197 824.2,200.8 820.3,827.5 	"/>
	<polyline class="st4" points="824.2,200.8 820.3,827.5 426.9,825.1 207.8,603.2 210.4,197 824.2,200.8 	"/>
	<polygon class="st5" points="428.2,604.4 426.9,825.1 207.8,603.2 207.7,603.1 	"/>
	<path class="st6" d="M1023.9,984.3C1023.9,984.3,1023.9,984.3,1023.9,984.3C1023.9,984.3,1023.9,984.3,1023.9,984.3 M1024,983.9
		c0,0.1,0,0.1,0,0.2C1023.9,984.1,1024,984,1024,983.9 M1024,983.7c0,0,0,0.1,0,0.1C1024,983.8,1024,983.8,1024,983.7 M1024,983.4
		c0,0.1,0,0.1,0,0.2C1024,983.5,1024,983.5,1024,983.4 M1024,983.2c0,0.1,0,0.1,0,0.2C1024,983.3,1024,983.2,1024,983.2 M1024,982.9
		c0,0.1,0,0.1,0,0.2C1024,983,1024,983,1024,982.9 M1024,982.6c0,0.1,0,0.1,0,0.2C1024,982.8,1024,982.7,1024,982.6 M1024,982.4
		c0,0.1,0,0.2,0,0.2C1024,982.5,1024,982.4,1024,982.4 M1024,982.1c0,0.1,0,0.2,0,0.2C1024,982.2,1024,982.1,1024,982.1 M1024,347.1
		v56.6v578.4l0,0V347.1"/>
	<path class="st2" d="M852.8,177.7l-1.1,1.1c1.5,1.6,2.9,3.2,4.4,4.8c18.4,20.9,28.8,42.9,28.1,57.9c0,5.4-1.5,10-4.6,13.1
		c-0.3,0.3-0.7,0.6-1.1,0.9L1024,403.6v-56.6L852.8,177.7"/>
	<path class="st7" d="M844.2,235.7l-20.3,24.3l-3.5,567.6l-6.4,0l189.9,189.4c11.1-6.9,19.3-18.8,20.1-32.6c0,0,0,0,0-0.1
		c0,0,0-0.1,0-0.1c0-0.1,0-0.1,0-0.2c0,0,0-0.1,0-0.1c0,0,0-0.1,0-0.1c0,0,0-0.1,0-0.1c0-0.1,0-0.1,0-0.2c0,0,0,0,0-0.1
		c0-0.1,0-0.1,0-0.2c0,0,0,0,0-0.1c0-0.1,0-0.1,0-0.2c0,0,0,0,0-0.1c0-0.1,0-0.1,0-0.2c0,0,0,0,0,0c0-0.1,0-0.2,0-0.2c0,0,0,0,0-0.1
		c0-0.1,0-0.2,0-0.2l0,0V403.6L878.4,255.4c-1,0.6-2.1,0.9-3.4,0.9c-6.8,0-17.6-8.2-30.6-20.3C844.4,235.9,844.3,235.8,844.2,235.7"
		/>
	<path class="st8" d="M823.9,259.9l-85.5,102.1c14.4,22.4,22.6,44.1,22.5,60.7c0,9.1-2.5,16.7-7.8,22c-1.8,1.8-4.1,2.7-6.9,2.7
		c-2.2,0-4.6-0.5-7.3-1.6c-16.6-5.9-42.8-31.1-73.8-62.1c-0.7-0.7-1.5-1.5-2.2-2.2L531.9,499.3l-23.4,23.4L814,827.5l6.4,0
		L823.9,259.9"/>
	<path class="st9" d="M501.9,517.3l147.5-164.1c5.6-6.2,15.1-6.7,21.3-1.1c6.2,5.6,6.7,15.1,1.1,21.3l-1.1,1.1L506.6,522.1
		c-1.4,1.2-3.5,1.1-4.7-0.3C500.8,520.5,500.8,518.6,501.9,517.3"/>
	<path class="st10" d="M738.4,362.1l105.8-126.4c16.6,15.4,29.1,24.2,34.9,18.4c13.2-13.2-0.5-48.5-30.7-78.7
		c-30.2-30.2-65.4-44-78.6-30.8c-5.6,5.7,3.1,18.3,18.5,34.9L661.9,285.5c-34.8-22.4-67.3-29.2-82.3-14.3
		c-13.5,13.5,25.2,52.3,73,100.1c47.8,47.8,86.2,86.9,100.1,73C767.6,429.4,760.8,396.8,738.4,362.1"/>
	<path class="st7" d="M849.2,176.3L849.2,176.3c0.8,0.8,1.6,1.7,2.4,2.5l0,0C850.8,177.9,850,177.1,849.2,176.3"/>
	<path class="st11" d="M884.1,241.4c-0.3,5.2-1.9,9.5-5,12.7c-0.3,0.3-0.7,0.6-1.1,0.9l0.4,0.4c0.4-0.2,0.7-0.5,1.1-0.9
		C882.6,251.4,884.1,246.9,884.1,241.4 M851.6,178.8L851.6,178.8c1.5,1.6,3,3.2,4.4,4.8C854.6,181.9,853.1,180.3,851.6,178.8"/>
	<path class="st12" d="M844.5,236c13,12.1,23.8,20.3,30.6,20.3c1.3,0,2.4-0.3,3.4-0.9L878,255c-1,0.6-2.2,0.9-3.5,0.9
		C867.9,255.9,857.4,248,844.5,236"/>
	<path class="st13" d="M662.8,381.6L662.8,381.6c0.7,0.7,1.5,1.5,2.2,2.2C664.3,383,663.6,382.3,662.8,381.6 M738.4,362.1
		L738.4,362.1c22.4,34.8,29.2,67.4,14.3,82.3c-1.9,1.9-4.3,2.8-7.2,2.8c-2,0-4.2-0.4-6.6-1.3c2.7,1,5.2,1.6,7.3,1.6
		c2.7,0,5-0.9,6.9-2.7c5.3-5.3,7.8-12.9,7.8-22C761,406.2,752.8,384.5,738.4,362.1"/>
	<path class="st14" d="M659.6,378.4c1.1,1.1,2.1,2.1,3.2,3.2l0,0C661.8,380.5,660.7,379.4,659.6,378.4"/>
	<path class="st15" d="M849.2,176.3L653.4,372.2c2.1,2.1,4.1,4.1,6.2,6.2c1.1,1.1,2.1,2.1,3.2,3.2c0.7,0.7,1.5,1.5,2.2,2.2
		c29.3,29.2,56.5,55.6,73.8,62.1c2.4,0.9,4.6,1.3,6.6,1.3c2.8,0,5.2-0.9,7.2-2.8c14.9-14.9,8.1-47.5-14.3-82.3l0,0l0,0l0,0
		l105.8-126.4c0.1,0.1,0.2,0.2,0.3,0.3c12.9,12,23.4,19.9,30.1,19.9c1.3,0,2.5-0.3,3.5-0.9c0.4-0.2,0.7-0.5,1.1-0.9
		c3.1-3.1,4.7-7.5,5-12.7c0-0.1,0-0.1,0-0.2c0-15.6-11.5-38.7-28.1-57.7c-1.4-1.6-2.9-3.2-4.4-4.8
		C850.8,177.9,850,177.1,849.2,176.3"/>
</g>
</svg>
