<?xml version="1.0" encoding="utf-8"?>
<!-- Generator: Adobe Illustrator 19.0.1, SVG Export Plug-In . SVG Version: 6.00 Build 0)  -->
<svg version="1.1" id="Layer_1" xmlns="http://www.w3.org/2000/svg" xmlns:xlink="http://www.w3.org/1999/xlink" x="0px" y="0px"
	 viewBox="0 0 1024 1024" style="enable-background:new 0 0 1024 1024;" xml:space="preserve">
<style type="text/css">
	.st0{clip-path:url(#SVGID_2_);}
	.st1{fill:#3498DB;}
	.st2{fill:#2980B9;}
	.st3{fill:#2F89C5;}
	.st4{fill:#2573A6;}
	.st5{fill:#DBDBDB;}
	.st6{fill:#EAEAEA;}
	.st7{fill:#FFFFFF;}
	.st8{fill:#CFCFCF;}
	.st9{fill:#2ECC71;}
	.st10{fill:#EA563B;}
	.st11{fill:#F9B298;}
	.st12{fill:#FFC8B0;}
	.st13{fill:#451613;}
	.st14{fill:#F0B16C;}
	.st15{fill:#F7F1E6;}
	.st16{fill:#F1E4C4;}
	.st17{fill:#F8BF00;}
	.st18{fill:#34495E;}
	.st19{fill:none;}
</style>
<g>
	<defs>
		<path id="SVGID_1_" d="M1024,28.1v967.8c0,15.4-12.6,28.1-28.1,28.1H28.1C12.6,1024,0,1011.4,0,995.9V28.1C0,12.6,12.6,0,28.1,0
			h967.8C1011.4,0,1024,12.6,1024,28.1"/>
	</defs>
	<clipPath id="SVGID_2_">
		<use xlink:href="#SVGID_1_"  style="overflow:visible;"/>
	</clipPath>
	<g class="st0">
		<path class="st1" d="M1024,28.1v967.8c0,15.4-12.6,28.1-28.1,28.1H28.1C12.6,1024,0,1011.4,0,995.9V28.1C0,12.6,12.6,0,28.1,0
			h967.8C1011.4,0,1024,12.6,1024,28.1"/>
		<path class="st2" d="M1022,982.1l9-940.9c0-12.9-4.6-33.6-14-41.1L-19,1034.5c7.6,9.4,47.1-10.5,60.1-10.5h941.7
			C1005.4,1024,1022,1004.7,1022,982.1"/>
		<polyline class="st3" points="779.2,120.3 570.9,445.7 837.6,178.9 779.2,120.3 		"/>
		<path class="st4" d="M837.6,178.9L570.9,445.7L283.1,895.3L411.9,1024h570.8c22.6,0,39.3-19.3,39.3-41.9V363.9L837.6,178.9"/>
		<polygon class="st5" points="814.8,806.2 281,833 246.4,147.2 780.2,120.3 		"/>
		<polygon class="st6" points="809.1,818.7 276.7,866.1 215.6,182.1 748,134.6 		"/>
		<polygon class="st7" points="808.8,808.2 281.8,896.8 167.8,219.6 694.8,131 		"/>
		<polygon class="st8" points="659.7,268.7 247.2,338.1 238,283.5 650.5,214.2 		"/>
		<path class="st9" d="M393.3,560.4c4.6,27.5-13.9,53.5-41.4,58.1c-27.5,4.6-53.5-13.9-58.1-41.4c-4.6-27.5,13.9-53.5,41.4-58.1
			C362.6,514.4,388.6,532.9,393.3,560.4z"/>
		<path class="st7" d="M338.7,595.9c-2.5,0.4-5.2-0.2-7.4-1.9l-16.1-13.1c-4-3.2-4.6-9.1-1.4-13c3.2-4,9.1-4.6,13-1.4l9.1,7.4
			l21.4-25.1c3.3-3.9,9.2-4.4,13.1-1c3.9,3.3,4.4,9.2,1,13.1l-27.3,32C342.8,594.5,340.8,595.6,338.7,595.9z"/>
		<polygon class="st8" points="681.1,500.5 430.6,542.6 428.3,528.7 678.8,486.6 		"/>
		<polygon class="st8" points="614.1,549 436.7,578.8 434.4,564.9 611.8,535.1 		"/>
		<path class="st9" d="M371.5,431.2c4.6,27.5-13.9,53.5-41.4,58.1c-27.5,4.6-53.5-13.9-58.1-41.4c-4.6-27.5,13.9-53.5,41.4-58.1
			C340.9,385.2,366.9,403.7,371.5,431.2z"/>
		<path class="st7" d="M317,466.8c-2.5,0.4-5.2-0.2-7.4-1.9l-16.1-13.1c-4-3.2-4.6-9.1-1.4-13c3.2-4,9.1-4.6,13-1.4l9.1,7.4
			l21.4-25.1c3.3-3.9,9.2-4.4,13.1-1c3.9,3.3,4.4,9.2,1,13.1l-27.3,32C321,465.4,319,466.4,317,466.8z"/>
		<polygon class="st8" points="664.9,370.4 414.4,412.5 412,398.6 662.5,356.5 		"/>
		<polygon class="st8" points="509.2,433.8 420.5,448.7 418.1,434.8 506.9,419.9 		"/>
		<path class="st10" d="M414.4,686.2c4.6,27.5-13.9,53.5-41.4,58.1c-27.5,4.6-53.5-13.9-58.1-41.4c-4.6-27.5,13.9-53.5,41.4-58.1
			C383.8,640.2,409.8,658.7,414.4,686.2z"/>
		<path class="st7" d="M359.9,721.7c-2.5,0.4-5.2-0.2-7.4-1.9l-16.1-13.1c-4-3.2-4.6-9.1-1.4-13c3.2-4,9.1-4.6,13-1.4l9.1,7.4
			l21.4-25.1c3.3-3.9,9.2-4.4,13.1-1c3.9,3.3,4.4,9.2,1,13.1l-27.3,32C363.9,720.3,362,721.4,359.9,721.7z"/>
		<polygon class="st8" points="699.2,626.8 448.7,668.9 446.4,655 696.9,612.9 		"/>
		<polygon class="st8" points="588.7,682.7 454.8,705.2 452.5,691.3 586.3,668.8 		"/>
		<polygon class="st8" points="737.8,745.3 633.9,762.7 631.6,748.8 735.5,731.4 		"/>
		<path class="st11" d="M741.6,576.1c-123.7-17.7-177.5-99.5-177.5-99.5l127.7-18.5C691.8,458.1,865.3,593.7,741.6,576.1z"/>
		<path class="st12" d="M733.6,771.1l89.9-80.2c0,0,12-121.2,0-163.7c-12-42.5-94.8-92.3-114.8-103.5
			c-20.1-11.2-126.9,4.8-157.2,24.1c-25.1,15.9-3.3,32.3,12.7,36.9c16,4.6,105.2-20.1,128.5,0.8c23.3,20.9,50.6,89.1,19.3,111.9
			c-31.3,22.9-105.2-79-118.9-97.5c-13.6-18.5-66.3-2.8-46.6,25.7c19.7,28.5,83.1,120.8,106.8,149.2
			C677,703.2,733.6,771.1,733.6,771.1z"/>
		<polygon class="st13" points="441.8,478.1 443.8,465 420.7,468.2 		"/>
		<polygon class="st14" points="473.8,493.1 478.8,460.2 443.8,465 441.8,478.1 		"/>
		<path class="st15" d="M751.9,535.6c3.6,0.6,7-1.9,7.6-5.6l3-19.8c0.6-3.6-1.9-7-5.6-7.6l-14.8-2.3l-5,32.9L751.9,535.6z"/>
		<polygon class="st16" points="712.2,529.1 737.1,533.3 742.1,500.4 717.3,496.1 		"/>
		<path class="st17" d="M469.8,475.2c1.2-7.7,9-15,9-15l238.4,35.9l-5,32.9l-238.4-35.9C473.8,493.1,468.6,482.9,469.8,475.2z"/>
		<polygon class="st13" points="727.9,531.8 732.7,532.7 737.7,499.6 733,498.8 		"/>
		<polygon class="st13" points="717.6,530 722.3,530.8 727.3,497.8 722.5,497 		"/>
		<path class="st11" d="M593,499.9c-13.6-18.5-66.3-2.8-46.6,25.7c2.2,3.2,5,7.2,8.2,11.8L626,542
			C610.5,523.7,597.9,506.5,593,499.9z"/>
		<path class="st18" d="M844.2,654.7L701.7,789.2L914.3,1024h66.6c23.6,0,57.1,23.6,57.1,0V821L844.2,654.7z"/>
		<path class="st19" d="M1024,28.1v967.8c0,15.4-12.6,28.1-28.1,28.1H28.1C12.6,1024,0,1011.4,0,995.9V28.1C0,12.6,12.6,0,28.1,0
			h967.8C1011.4,0,1024,12.6,1024,28.1"/>
	</g>
</g>
</svg>
