<?xml version="1.0" encoding="utf-8"?>
<!-- Generator: Adobe Illustrator 19.0.1, SVG Export Plug-In . SVG Version: 6.00 Build 0)  -->
<svg version="1.1" id="Layer_1" xmlns="http://www.w3.org/2000/svg" xmlns:xlink="http://www.w3.org/1999/xlink" x="0px" y="0px"
	 viewBox="0 0 1024 1024" style="enable-background:new 0 0 1024 1024;" xml:space="preserve">
<style type="text/css">
	.st0{clip-path:url(#SVGID_2_);}
	.st1{fill:#3498DB;}
	.st2{fill:#2980B9;}
	.st3{fill:#2F89C5;}
	.st4{fill:#2573A6;}
	.st5{fill:#E5E5E5;}
	.st6{fill:#2A7BB1;}
	.st7{fill:#216795;}
	.st8{fill:#1E5C86;}
	.st9{fill:#F5D56C;}
	.st10{fill:#F5E6B6;}
	.st11{clip-path:url(#SVGID_2_);fill:none;}
</style>
<g>
	<defs>
		<path id="SVGID_1_" d="M1024,41.2v941.7c0,22.6-18.5,41.2-41.2,41.2H41.2C18.5,1024,0,1005.5,0,982.8V41.2C0,18.5,18.5,0,41.2,0
			h941.7C1005.5,0,1024,18.5,1024,41.2"/>
	</defs>
	<clipPath id="SVGID_2_">
		<use xlink:href="#SVGID_1_"  style="overflow:visible;"/>
	</clipPath>
	<g class="st0">
		<path class="st1" d="M1020.7,41V980c0,22.6-18.5,41-41,41H41c-22.6,0-41-18.5-41-41V41C0,18.5,18.5,0,41,0h938.7
			C1002.3,0,1020.7,18.5,1020.7,41"/>
		<path class="st2" d="M1024,980V41c0-12.9-7.8-24.4-17.2-31.9L10,1006.9c7.5,9.4,18.2,17.1,31.1,17.1h938.7
			C1002.3,1024,1024,1002.6,1024,980"/>
		<polyline class="st3" points="256.3,239.7 136.6,360.4 215.7,439.7 213.8,322.1 453.8,562.7 463.1,553.3 332.3,422 385.2,368.8 
			256.3,239.7 		"/>
		<polyline class="st4" points="463.1,553.3 453.8,562.7 914,1024 798.9,1024 979.7,1024 979.7,1024 979.7,1024 931.9,1024 
			463.1,553.3 		"/>
		<path class="st5" d="M979.9,1024C979.9,1024,979.9,1024,979.9,1024C979.9,1024,979.9,1024,979.9,1024 M980.1,1024
			C980.1,1024,980.1,1024,980.1,1024C980.1,1024,980.1,1024,980.1,1024"/>
		<polyline class="st3" points="452.8,300.8 385.2,368.8 516.3,500.1 527.9,488.5 515.6,476.1 540.5,444.2 579.9,436.5 584.3,432 
			452.8,300.8 		"/>
		<path class="st4" d="M979.9,1024c-0.1,0-0.1,0-0.2,0C979.8,1024,979.8,1024,979.9,1024 M980.1,1024c0,0-0.1,0-0.1,0
			C980,1024,980,1024,980.1,1024 M527.9,488.5l-11.6,11.6l499.6,500.2c-6.8,13-20.3,23.5-35.9,23.7c22.4-0.2,43.9-21.6,43.9-44l0,0
			l-1.7,1.5L527.9,488.5 M584.3,432l-4.5,4.5l7.5-1.5L584.3,432"/>
		<polyline class="st6" points="385.2,368.8 332.3,422 463.1,553.3 516.3,500.1 385.2,368.8 		"/>
		<path class="st7" d="M516.3,500.1l-53.2,53.3L931.9,1024h47.8l0,0c0.1,0,0.1,0,0.2,0c0,0,0,0,0,0c0,0,0.1,0,0.1,0c0,0,0,0,0,0
			c15.6-0.2,29-10.7,35.9-23.7L516.3,500.1"/>
		<polyline class="st3" points="773.3,99.1 654.4,218.7 716.9,281.1 722,232.5 752.9,263.3 845.4,170.7 773.3,99.1 		"/>
		<polyline class="st4" points="845.4,170.7 752.9,263.3 1024,533 1024,348.3 845.4,170.7 		"/>
		<polyline class="st5" points="1024,533 1024,587.6 1024,804.5 1024,870.6 1024,980 1024,533 		"/>
		<polyline class="st3" points="716.9,281.1 714.7,301.5 726,290.2 716.9,281.1 		"/>
		<polyline class="st4" points="726,290.2 714.7,301.5 703.2,412.2 587.3,435 1024,870.6 1024,804.5 782.7,563.9 891,454.8 
			726,290.2 		"/>
		<polyline class="st6" points="579.9,436.5 540.5,444.2 515.6,476.1 527.9,488.5 579.9,436.5 		"/>
		<polyline class="st7" points="587.3,435 579.9,436.5 527.9,488.5 1022.3,981.5 1024,980 1024,870.6 587.3,435 		"/>
		<polyline class="st7" points="891,454.8 782.7,563.9 1024,804.5 1024,587.6 891,454.8 		"/>
		<polyline class="st6" points="722,232.5 716.9,281.1 726,290.2 752.9,263.3 722,232.5 		"/>
		<polyline class="st7" points="752.9,263.3 726,290.2 891,454.8 901.5,444.2 1024,565.1 1024,533 752.9,263.3 		"/>
		<polyline class="st8" points="901.5,444.2 891,454.8 1024,587.6 1024,565.1 901.5,444.2 		"/>
		<polyline class="st3" points="215.7,439.7 217.7,566.1 334,682.6 396.1,620.4 215.7,439.7 		"/>
		<polyline class="st4" points="396.1,620.4 334,682.6 674.7,1024 798.9,1024 396.1,620.4 		"/>
		<polyline class="st6" points="213.8,322.1 215.7,439.7 396.1,620.4 453.8,562.7 213.8,322.1 		"/>
		<polyline class="st7" points="453.8,562.7 396.1,620.4 798.9,1024 914,1024 453.8,562.7 		"/>
		<ellipse class="st9" cx="388" cy="359.6" rx="71.3" ry="71.3"/>
		<path class="st10" d="M316.7,359.6h-13.3c0,23.3,9.5,44.6,24.8,59.8c15.3,15.3,36.5,24.8,59.8,24.8c23.3,0,44.6-9.5,59.8-24.8
			c15.3-15.3,24.8-36.5,24.8-59.8c0-23.3-9.5-44.6-24.8-59.8C432.6,284.5,411.3,275,388,275c-23.3,0-44.6,9.5-59.8,24.8
			c-15.3,15.3-24.8,36.5-24.8,59.8H316.7H330c0-16.1,6.5-30.5,17-41.1c10.5-10.5,25-17,41-17c16.1,0,30.5,6.5,41,17
			c10.5,10.5,17,25,17,41.1c0,16.1-6.5,30.5-17,41.1c-10.5,10.5-25,17-41,17c-16.1,0-30.5-6.5-41-17c-10.5-10.5-17-25-17-41.1H316.7
			z"/>
		<path class="st10" d="M375.6,429.8v53.5c0,26,10.4,49.8,27.4,66.9c16.9,17.1,40.6,27.8,66.7,27.8v-13.3l-0.2,13.3l38.4,0.5h0.1
			c9.4,0,18.2,1.9,26.2,5.4c23.9,10.4,40.6,34.7,40.6,63.2V1024h26.6V647.1c0-26-10.2-49.8-26.9-67.1c-8.4-8.6-18.4-15.7-29.7-20.6
			c-11.2-4.9-23.7-7.6-36.8-7.6v13.3l0.2-13.3l-38.4-0.5h-0.1c-18.9,0-35.6-7.6-47.8-19.9c-12.2-12.3-19.7-29.3-19.7-48.2v-53.8
			L375.6,429.8L375.6,429.8z"/>
		<ellipse class="st10" cx="201.4" cy="300.1" rx="71.3" ry="71.3"/>
		<path class="st9" d="M130.1,299.9h-13.3c0,23.3,9.5,44.6,24.8,59.8c15.3,15.3,36.5,24.8,59.8,24.8c23.3,0,44.6-9.5,59.8-24.8
			c15.3-15.3,24.8-36.5,24.8-59.8c0-23.3-9.5-44.6-24.8-59.8c-15.3-15.3-36.5-24.8-59.8-24.8c-23.3,0-44.6,9.5-59.8,24.8
			c-15.3,15.3-24.8,36.5-24.8,59.8H130.1h13.3c0-16.1,6.5-30.5,17-41.1c10.5-10.5,25-17,41-17c16.1,0,30.5,6.5,41,17
			c10.5,10.5,17,25,17,41.1c0,16.1-6.5,30.5-17,41.1c-10.5,10.5-25,17-41,17c-16.1,0-30.5-6.5-41-17c-10.5-10.5-17-25-17-41.1H130.1
			z"/>
		<path class="st9" d="M187.1,300.8v191.1c0,26.1,10.7,49.9,27.9,67c17.2,17.1,41,27.7,67.1,27.7l-0.1,0l80.3,0.5h0.1
			c18.8,0,36.1,7.7,48.7,20.2c12.6,12.5,20.4,29.6,20.4,48.4V1024H458V655.7c0-26.2-10.9-50.1-28.2-67.2
			c-17.3-17.2-41.2-27.9-67.4-27.9h0.1l-80.3-0.5h-0.1c-18.9,0-35.9-7.6-48.4-20c-12.4-12.4-20.1-29.3-20.1-48.1V374.4h-26.6
			L187.1,300.8z"/>
		<ellipse class="st10" cx="838" cy="490.8" rx="71.3" ry="71.3"/>
		<path class="st9" d="M909.4,501.1h-13.3c0,16.1-6.5,30.5-17,41.1c-10.5,10.5-25,17-41,17c-16.1,0-30.5-6.5-41-17
			c-10.5-10.5-17-25-17-41.1c0-16.1,6.5-30.5,17-41.1c10.5-10.5,25-17,41-17c16.1,0,30.5,6.5,41,17c10.5,10.5,17,25,17,41.1H909.4
			h13.3c0-23.3-9.5-44.6-24.8-59.8c-15.3-15.3-36.5-24.8-59.8-24.8c-23.3,0-44.6,9.5-59.8,24.8c-15.3,15.3-24.8,36.5-24.8,59.8
			c0,23.3,9.5,44.6,24.8,59.8c15.3,15.3,36.5,24.8,59.8,24.8c23.3,0,44.6-9.5,59.8-24.8c15.3-15.3,24.8-36.5,24.8-59.8H909.4z"/>
		<path class="st9" d="M824.4,572.1v62.4c0,18.9-7.5,35.8-19.8,48.2c-12.3,12.3-29.1,19.9-48,19.9l-135.4,0.5h0.1
			c-26.2,0-49.9,10.8-66.9,28c-17,17.2-27.5,41.1-27.5,67.1V1024h26.6V798.3c0-18.9,7.6-36,19.8-48.5c12.3-12.5,29.1-20.1,47.9-20.1
			h0.1l135.3-0.5h-0.1c26.1,0,49.8-10.6,66.8-27.7c17-17.1,27.5-40.8,27.5-66.9v-62.4H824.4z"/>
		<ellipse class="st9" cx="708.9" cy="161.1" rx="71.3" ry="71.3"/>
		<path class="st10" d="M780.2,154.3H767c0,16.1-6.5,30.5-17,41.1c-10.5,10.5-25,17-41,17c-16.1,0-30.5-6.5-41-17
			c-10.5-10.5-17-25-17-41.1c0-16.1,6.5-30.5,17-41.1c10.5-10.5,25-17,41-17c16.1,0,30.5,6.5,41,17c10.5,10.5,17,25,17,41.1H780.2
			h13.3c0-23.3-9.5-44.6-24.8-59.8c-15.3-15.3-36.5-24.8-59.8-24.8c-23.3,0-44.6,9.5-59.8,24.8c-15.3,15.3-24.8,36.5-24.8,59.8
			c0,23.3,9.5,44.6,24.8,59.8c15.3,15.3,36.5,24.8,59.8,24.8c23.3,0,44.6-9.5,59.8-24.8c15.3-15.3,24.8-36.5,24.8-59.8H780.2z"/>
		<path class="st10" d="M696.9,238.8v114.1c0,18.8-7.7,35.7-20.1,48.1c-12.5,12.4-29.6,20-48.4,20h-0.1l-56.6,0.5l0.1,0
			c-26.2,0-50,10.8-67.2,28c-17.2,17.2-28,41-28,67.2V1024h26.6V516.6c0-18.8,7.7-35.9,20.2-48.4c12.5-12.5,29.7-20.2,48.5-20.2h0.1
			l56.6-0.5l-0.1,0c26.1,0,49.9-10.6,67.1-27.7c17.2-17.1,28-40.8,28-67V223h-26.6V238.8z"/>
	</g>
	<path class="st11" d="M1020.7,41V980c0,22.6-18.5,41-41,41H41c-22.6,0-41-18.5-41-41V41C0,18.5,18.5,0,41,0h938.7
		C1002.3,0,1020.7,18.5,1020.7,41"/>
</g>
</svg>
